<?xml version="1.0" encoding="UTF-8" standalone="no"?>
<!DOCTYPE svg PUBLIC "-//W3C//DTD SVG 1.1//EN" "http://www.w3.org/Graphics/SVG/1.1/DTD/svg11.dtd">
<svg width="100%" height="100%" viewBox="0 0 200 90" version="1.1" xmlns="http://www.w3.org/2000/svg" xmlns:xlink="http://www.w3.org/1999/xlink" xml:space="preserve" xmlns:serif="http://www.serif.com/" style="fill-rule:evenodd;clip-rule:evenodd;stroke-linejoin:round;stroke-miterlimit:2;">
    <g id="JČU" transform="matrix(1.1709,0,0,1.1709,2.11754,-6.94095)">
        <g transform="matrix(0.984513,0,0,0.984513,23.5873,20.59)">
            <path d="M0,17.49C4.83,17.49 8.745,13.575 8.745,8.746C8.745,3.916 4.83,0 0,0C-4.83,0 -8.745,3.916 -8.745,8.746C-8.745,13.575 -4.83,17.49 0,17.49" style="fill:white;fill-rule:nonzero;"/>
        </g>
        <g transform="matrix(0.304179,-0.936345,-0.936345,-0.304179,12.7074,33.815)">
            <path d="M-8.318,-6.043C-3.487,-6.043 0.427,-2.128 0.428,2.702C0.428,7.532 -3.487,11.448 -8.318,11.448C-13.147,11.448 -17.061,7.533 -17.063,2.703C-17.062,-2.127 -13.148,-6.042 -8.318,-6.043" style="fill:white;fill-rule:nonzero;"/>
        </g>
        <g transform="matrix(-0.796476,-0.578699,-0.578699,0.796476,5.54661,62.1774)">
            <path d="M-5.142,-15.819C-0.312,-15.82 3.604,-11.903 3.604,-7.071C3.604,-2.243 -0.312,1.672 -5.142,1.672C-9.972,1.671 -13.888,-2.244 -13.889,-7.073C-13.887,-11.902 -9.971,-15.817 -5.142,-15.819" style="fill:white;fill-rule:nonzero;"/>
        </g>
        <g transform="matrix(0.304179,0.936345,0.936345,-0.304179,34.4662,33.815)">
            <path d="M8.318,-6.043C13.148,-6.042 17.062,-2.127 17.063,2.704C17.061,7.533 13.147,11.448 8.318,11.448C3.487,11.449 -0.428,7.533 -0.428,2.702C-0.427,-2.128 3.487,-6.043 8.318,-6.043" style="fill:white;fill-rule:nonzero;"/>
        </g>
        <g transform="matrix(-0.796504,0.578661,0.578661,0.796504,41.6269,62.1781)">
            <path d="M5.141,-15.818C9.972,-15.817 13.888,-11.902 13.888,-7.072C13.887,-2.244 9.97,1.671 5.141,1.672C0.311,1.672 -3.605,-2.243 -3.604,-7.072C-3.604,-11.903 0.312,-15.82 5.141,-15.818" style="fill:white;fill-rule:nonzero;"/>
        </g>
        <g transform="matrix(1.06602,0,0,1.06602,59.9211,53.0527)">
            <path d="M0,-3.458L1.587,1.178L2.717,1.178L4.342,-3.458L3.448,-3.458L2.204,0.332L0.987,-3.458L0,-3.458ZM11.01,-5.434C9.015,-5.434 7.894,-4.037 7.894,-2.043C7.894,-0 9.233,1.292 11.01,1.292C11.571,1.292 12.198,1.149 12.635,0.932L12.426,0.182C11.989,0.399 11.59,0.485 11.039,0.485C9.832,0.485 8.901,-0.445 8.901,-2.062C8.901,-3.553 9.604,-4.636 11.021,-4.636C11.571,-4.636 11.979,-4.55 12.416,-4.332L12.616,-5.082C12.169,-5.301 11.608,-5.434 11.01,-5.434M9.414,-6.812L10.497,-5.709L11.466,-5.709L12.54,-6.812L11.856,-6.812L10.981,-6.07L10.099,-6.812L9.414,-6.812ZM16.007,-3.572C14.753,-3.572 13.765,-2.631 13.765,-1.148C13.765,0.427 14.877,1.292 16.036,1.292C16.644,1.292 17.271,1.121 17.765,0.809L17.575,0.276C17.185,0.476 16.71,0.608 16.302,0.608C15.429,0.608 14.763,0.047 14.696,-1.063L18.002,-1.063C18.069,-2.328 17.489,-3.572 16.007,-3.572M15.998,-2.916C16.786,-2.916 17.157,-2.261 17.166,-1.605L14.715,-1.566C14.819,-2.422 15.333,-2.916 15.998,-2.916M21.099,-3.572C19.959,-3.572 19.256,-3.002 19.256,-2.157C19.256,-0.532 21.717,-1.178 21.717,-0.086C21.717,0.391 21.28,0.646 20.719,0.646C20.292,0.646 19.769,0.541 19.38,0.323L19.209,0.932C19.608,1.159 20.272,1.292 20.795,1.292C21.812,1.292 22.591,0.703 22.591,-0.2C22.591,-1.861 20.14,-1.244 20.14,-2.252C20.14,-2.707 20.528,-2.926 21.138,-2.926C21.536,-2.926 21.964,-2.831 22.249,-2.679L22.438,-3.268C22.067,-3.448 21.556,-3.572 21.099,-3.572M24.11,-5.566L24.11,1.178L25.013,1.178L25.013,-0.445L25.64,-1.073L27.103,1.178L28.138,1.178L26.286,-1.7L27.948,-3.458L26.951,-3.458L25.013,-1.387L25.013,-5.566L24.11,-5.566ZM28.708,-3.458L30.323,1.178L30.542,1.178L29.715,3.315L30.694,3.315L33.088,-3.458L32.194,-3.458L30.922,0.323L29.687,-3.458L28.708,-3.458ZM31.226,-5.566L30.418,-4.047L31.036,-4.027L32.101,-5.566L31.226,-5.566ZM36.224,-3.572C34.836,-3.572 33.886,-2.611 33.886,-1.111C33.886,0.295 34.901,1.292 36.062,1.292C36.679,1.292 37.183,1.121 37.619,0.864L37.467,0.323C37.144,0.494 36.726,0.618 36.364,0.618C35.491,0.618 34.826,-0.047 34.826,-1.168C34.826,-2.308 35.521,-2.896 36.364,-2.896C36.735,-2.896 37.125,-2.793 37.429,-2.603L37.638,-3.211C37.201,-3.458 36.745,-3.572 36.224,-3.572M41.183,-3.572C40.583,-3.572 40.099,-3.325 39.709,-3.011L39.709,-5.566L38.808,-5.566L38.808,1.178L39.709,1.178L39.709,-2.441C40.089,-2.698 40.46,-2.82 40.84,-2.82C41.543,-2.82 41.961,-2.422 41.961,-1.71L41.961,1.178L42.854,1.178L42.854,-1.899C42.854,-3.05 42.151,-3.572 41.183,-3.572M47.509,1.178L49.847,1.178C51.29,1.178 52.05,0.371 52.05,-0.665C52.05,-1.52 51.413,-2.108 50.729,-2.252C51.347,-2.422 51.821,-2.982 51.821,-3.686C51.821,-4.655 51.09,-5.339 49.731,-5.339L47.509,-5.339L47.509,1.178ZM48.448,0.504L48.448,-1.899L49.731,-1.899C50.614,-1.899 51.081,-1.377 51.081,-0.703C51.081,0.076 50.511,0.504 49.627,0.504L48.448,0.504ZM48.448,-2.508L48.448,-4.646L49.569,-4.646C50.463,-4.646 50.91,-4.189 50.91,-3.553C50.91,-3.011 50.474,-2.508 49.703,-2.508L48.448,-2.508ZM56.885,1.254L57.606,1.149L57.437,0.438L57.437,-3.458L56.543,-3.458L56.543,0.123C56.22,0.361 55.821,0.541 55.413,0.541C54.71,0.541 54.292,0.143 54.292,-0.569L54.292,-3.458L53.39,-3.458L53.39,-0.371C53.39,0.77 54.103,1.292 55.071,1.292C55.745,1.292 56.287,1.018 56.705,0.646L56.885,1.254ZM61.397,-2.896C61.722,-2.896 62.082,-2.784 62.338,-2.556L62.338,0.171C62.082,0.399 61.664,0.58 61.331,0.58C60.399,0.58 59.925,-0.095 59.925,-1.148C59.925,-2.232 60.515,-2.896 61.397,-2.896M61.132,-3.572C59.84,-3.572 58.976,-2.498 58.976,-1.063C58.976,0.305 59.792,1.292 60.961,1.292C61.569,1.292 62.158,1.018 62.509,0.655L62.681,1.254L63.401,1.149L63.241,0.438L63.241,-5.566L62.338,-5.566L62.338,-3.164C62.015,-3.42 61.588,-3.572 61.132,-3.572M67.05,-3.572C65.796,-3.572 64.808,-2.631 64.808,-1.148C64.808,0.427 65.92,1.292 67.079,1.292C67.687,1.292 68.313,1.121 68.808,0.809L68.618,0.276C68.228,0.476 67.753,0.608 67.345,0.608C66.472,0.608 65.806,0.047 65.739,-1.063L69.045,-1.063C69.112,-2.328 68.532,-3.572 67.05,-3.572M67.041,-2.916C67.829,-2.916 68.2,-2.261 68.209,-1.605L65.758,-1.566C65.862,-2.422 66.376,-2.916 67.041,-2.916M65.683,-5.558L66.651,-4.037L67.448,-4.037L68.418,-5.558L67.791,-5.558L67.05,-4.437L66.31,-5.558L65.683,-5.558ZM70.394,-3.458L70.394,1.312C70.394,1.691 70.327,1.977 70.138,2.242L69.586,3.002L70.08,3.354L70.735,2.584C71.06,2.186 71.287,1.824 71.287,1.227L71.287,-3.458L70.394,-3.458ZM70.364,-4.427L71.315,-4.427L71.315,-5.225L70.364,-5.225L70.364,-4.427ZM75.077,-2.916C75.903,-2.916 76.437,-2.355 76.437,-1.178C76.437,-0.057 75.951,0.608 75.077,0.608C74.271,0.608 73.709,0.067 73.709,-1.178C73.709,-2.252 74.194,-2.916 75.077,-2.916M75.106,-3.572C73.576,-3.572 72.797,-2.517 72.797,-1.045C72.797,0.409 73.747,1.292 74.981,1.292C76.513,1.292 77.329,0.237 77.329,-1.234C77.329,-2.687 76.341,-3.572 75.106,-3.572M78.241,-3.458L79.827,1.178L80.958,1.178L82.582,-3.458L81.688,-3.458L80.444,0.332L79.229,-3.458L78.241,-3.458ZM83.627,1.178L84.528,1.178L84.528,-3.458L83.627,-3.458L83.627,1.178ZM83.608,-4.427L84.548,-4.427L84.548,-5.225L83.608,-5.225L83.608,-4.427ZM88.358,-3.572C86.972,-3.572 86.021,-2.611 86.021,-1.111C86.021,0.295 87.038,1.292 88.196,1.292C88.813,1.292 89.317,1.121 89.755,0.864L89.603,0.323C89.28,0.494 88.862,0.618 88.501,0.618C87.627,0.618 86.962,-0.047 86.962,-1.168C86.962,-2.308 87.655,-2.896 88.501,-2.896C88.871,-2.896 89.261,-2.793 89.565,-2.603L89.774,-3.211C89.337,-3.458 88.881,-3.572 88.358,-3.572M91.692,-5.566L90.885,-4.047L91.502,-4.027L92.565,-5.566L91.692,-5.566ZM90.942,1.178L91.843,1.178L91.843,-3.458L90.942,-3.458L90.942,1.178ZM95.692,-3.572C94.306,-3.572 93.354,-2.611 93.354,-1.111C93.354,0.295 94.371,1.292 95.53,1.292C96.147,1.292 96.651,1.121 97.088,0.864L96.937,0.323C96.612,0.494 96.194,0.618 95.834,0.618C94.96,0.618 94.295,-0.047 94.295,-1.168C94.295,-2.308 94.989,-2.896 95.834,-2.896C96.205,-2.896 96.594,-2.793 96.897,-2.603L97.106,-3.211C96.67,-3.458 96.214,-3.572 95.692,-3.572M100.651,-3.572C100.052,-3.572 99.567,-3.325 99.179,-3.011L99.179,-5.566L98.276,-5.566L98.276,1.178L99.179,1.178L99.179,-2.441C99.558,-2.698 99.929,-2.82 100.31,-2.82C101.013,-2.82 101.431,-2.422 101.431,-1.71L101.431,1.178L102.323,1.178L102.323,-1.899C102.323,-3.05 101.62,-3.572 100.651,-3.572" style="fill:white;fill-rule:nonzero;"/>
        </g>
        <g transform="matrix(1.06602,0,0,1.06602,60.7716,44.7495)">
            <path d="M0,-8.55L0,-2.356C0,-1.862 -0.085,-1.549 -0.352,-1.196L-1.083,-0.247L-0.465,0.228L0.352,-0.703C0.741,-1.159 0.941,-1.529 0.941,-2.318L0.941,-8.55L0,-8.55ZM2.717,-2.033L3.619,-2.033L3.619,-6.669L2.717,-6.669L2.717,-2.033ZM2.698,-7.638L3.638,-7.638L3.638,-8.436L2.698,-8.436L2.698,-7.638ZM7.628,-6.783C7.03,-6.783 6.545,-6.536 6.156,-6.223L6.156,-8.778L5.253,-8.778L5.253,-2.033L6.156,-2.033L6.156,-5.653C6.536,-5.909 6.906,-6.031 7.286,-6.031C7.989,-6.031 8.407,-5.633 8.407,-4.921L8.407,-2.033L9.301,-2.033L9.301,-5.111C9.301,-6.261 8.598,-6.783 7.628,-6.783M13.081,-6.127C13.908,-6.127 14.439,-5.567 14.439,-4.389C14.439,-3.268 13.955,-2.603 13.081,-2.603C12.273,-2.603 11.713,-3.144 11.713,-4.389C11.713,-5.463 12.198,-6.127 13.081,-6.127M13.109,-6.783C11.58,-6.783 10.801,-5.728 10.801,-4.256C10.801,-2.803 11.751,-1.919 12.986,-1.919C14.516,-1.919 15.333,-2.974 15.333,-4.446C15.333,-5.9 14.346,-6.783 13.109,-6.783M19.123,-6.783C17.736,-6.783 16.786,-5.822 16.786,-4.322C16.786,-2.917 17.803,-1.919 18.962,-1.919C19.579,-1.919 20.083,-2.09 20.52,-2.347L20.368,-2.888C20.045,-2.717 19.627,-2.594 19.266,-2.594C18.393,-2.594 17.727,-3.259 17.727,-4.379C17.727,-5.519 18.42,-6.109 19.266,-6.109C19.637,-6.109 20.025,-6.004 20.33,-5.814L20.539,-6.422C20.102,-6.669 19.646,-6.783 19.123,-6.783M17.67,-8.769L18.639,-7.249L19.438,-7.249L20.406,-8.769L19.779,-8.769L19.038,-7.648L18.297,-8.769L17.67,-8.769ZM23.807,-6.783C22.553,-6.783 21.564,-5.843 21.564,-4.361C21.564,-2.784 22.676,-1.919 23.835,-1.919C24.443,-1.919 25.07,-2.09 25.564,-2.404L25.374,-2.935C24.985,-2.736 24.51,-2.603 24.102,-2.603C23.227,-2.603 22.563,-3.164 22.496,-4.275L25.803,-4.275C25.868,-5.539 25.289,-6.783 23.807,-6.783M23.797,-6.127C24.586,-6.127 24.956,-5.472 24.967,-4.817L22.516,-4.779C22.619,-5.633 23.133,-6.127 23.797,-6.127M28.898,-6.783C27.758,-6.783 27.055,-6.213 27.055,-5.368C27.055,-3.743 29.516,-4.389 29.516,-3.297C29.516,-2.821 29.079,-2.565 28.518,-2.565C28.092,-2.565 27.568,-2.67 27.18,-2.888L27.008,-2.279C27.407,-2.052 28.072,-1.919 28.594,-1.919C29.611,-1.919 30.391,-2.508 30.391,-3.411C30.391,-5.072 27.939,-4.456 27.939,-5.463C27.939,-5.918 28.328,-6.137 28.936,-6.137C29.335,-6.137 29.764,-6.042 30.049,-5.89L30.238,-6.479C29.867,-6.659 29.354,-6.783 28.898,-6.783M31.91,-8.778L31.91,-2.033L32.813,-2.033L32.813,-3.656L33.439,-4.284L34.902,-2.033L35.938,-2.033L34.085,-4.912L35.748,-6.669L34.75,-6.669L32.813,-4.598L32.813,-8.778L31.91,-8.778ZM38.854,-6.783C38.227,-6.783 37.648,-6.659 37.116,-6.394L37.314,-5.795C37.762,-6.042 38.266,-6.137 38.702,-6.137C39.348,-6.137 39.682,-5.805 39.682,-5.32L39.682,-4.874C38.219,-4.874 36.793,-4.636 36.793,-3.297C36.793,-2.375 37.516,-1.919 38.294,-1.919C38.949,-1.919 39.491,-2.195 39.852,-2.537L40.014,-1.957L40.745,-2.062L40.574,-2.774L40.574,-5.444C40.574,-6.289 39.823,-6.783 38.854,-6.783M39.682,-3.002C39.396,-2.726 39.006,-2.556 38.541,-2.556C38.085,-2.556 37.667,-2.821 37.667,-3.362C37.667,-4.199 38.655,-4.351 39.682,-4.351L39.682,-3.002ZM39.111,-8.778L38.303,-7.258L38.921,-7.238L39.985,-8.778L39.111,-8.778ZM48.602,-1.957L49.323,-2.062L49.152,-2.774L49.152,-6.669L48.26,-6.669L48.26,-3.088C47.936,-2.85 47.537,-2.67 47.129,-2.67C46.426,-2.67 46.008,-3.069 46.008,-3.78L46.008,-6.669L45.105,-6.669L45.105,-3.582C45.105,-2.442 45.818,-1.919 46.787,-1.919C47.461,-1.919 48.003,-2.195 48.421,-2.565L48.602,-1.957ZM53.219,-6.783C52.563,-6.783 52.04,-6.498 51.641,-6.137L51.527,-6.669L50.786,-6.669L50.844,-5.937L50.844,-2.033L51.736,-2.033L51.736,-5.653C52.126,-5.909 52.487,-6.031 52.876,-6.031C53.579,-6.031 53.988,-5.633 53.988,-4.921L53.988,-2.033L54.891,-2.033L54.891,-5.111C54.891,-6.261 54.178,-6.783 53.219,-6.783M56.523,-2.033L57.425,-2.033L57.425,-6.669L56.523,-6.669L56.523,-2.033ZM56.505,-7.638L57.446,-7.638L57.446,-8.436L56.505,-8.436L56.505,-7.638ZM58.473,-6.669L60.059,-2.033L61.189,-2.033L62.813,-6.669L61.92,-6.669L60.676,-2.879L59.46,-6.669L58.473,-6.669ZM65.957,-6.783C64.703,-6.783 63.715,-5.843 63.715,-4.361C63.715,-2.784 64.827,-1.919 65.986,-1.919C66.594,-1.919 67.221,-2.09 67.715,-2.404L67.525,-2.935C67.135,-2.736 66.66,-2.603 66.252,-2.603C65.378,-2.603 64.713,-3.164 64.646,-4.275L67.952,-4.275C68.02,-5.539 67.439,-6.783 65.957,-6.783M65.948,-6.127C66.736,-6.127 67.107,-5.472 67.116,-4.817L64.665,-4.779C64.77,-5.633 65.283,-6.127 65.948,-6.127M71.41,-6.754C70.878,-6.754 70.403,-6.488 70.09,-6.071L69.947,-6.669L69.206,-6.669L69.311,-5.871L69.311,-2.033L70.204,-2.033L70.204,-5.548C70.518,-5.852 70.965,-6.08 71.391,-6.08C71.543,-6.08 71.676,-6.042 71.809,-5.995L71.98,-6.603C71.838,-6.707 71.657,-6.754 71.41,-6.754M72.674,-6.669L72.674,-6.052L75.145,-6.052L72.561,-2.556L72.561,-2.033L76.369,-2.033L76.369,-2.641L73.689,-2.641L76.293,-6.175L76.293,-6.669L72.674,-6.669ZM77.671,-2.033L78.573,-2.033L78.573,-6.669L77.671,-6.669L77.671,-2.033ZM77.652,-7.638L78.591,-7.638L78.591,-8.436L77.652,-8.436L77.652,-7.638ZM80.872,-8.303L80.568,-6.669L79.704,-6.565L79.704,-6.052L80.568,-6.052L80.568,-3.221C80.568,-2.299 81.243,-1.919 81.946,-1.919C82.43,-1.919 82.857,-2.09 83.219,-2.29L83.049,-2.803C82.811,-2.679 82.544,-2.603 82.278,-2.603C81.832,-2.603 81.461,-2.803 81.461,-3.439L81.461,-6.052L83.029,-6.052L83.029,-6.669L81.461,-6.669L81.461,-8.303L80.872,-8.303ZM86.002,-6.783C85.375,-6.783 84.796,-6.659 84.264,-6.394L84.463,-5.795C84.91,-6.042 85.413,-6.137 85.85,-6.137C86.496,-6.137 86.828,-5.805 86.828,-5.32L86.828,-4.874C85.366,-4.874 83.939,-4.636 83.939,-3.297C83.939,-2.375 84.663,-1.919 85.441,-1.919C86.098,-1.919 86.639,-2.195 86.999,-2.537L87.161,-1.957L87.893,-2.062L87.721,-2.774L87.721,-5.444C87.721,-6.289 86.971,-6.783 86.002,-6.783M86.828,-3.002C86.544,-2.726 86.154,-2.556 85.689,-2.556C85.232,-2.556 84.814,-2.821 84.814,-3.362C84.814,-4.199 85.803,-4.351 86.828,-4.351L86.828,-3.002Z" style="fill:white;fill-rule:nonzero;"/>
        </g>
    </g>
</svg>
