<?xml version="1.0" encoding="UTF-8" standalone="no"?>
<!DOCTYPE svg PUBLIC "-//W3C//DTD SVG 1.1//EN" "http://www.w3.org/Graphics/SVG/1.1/DTD/svg11.dtd">
<svg width="100%" height="100%" viewBox="0 0 200 90" version="1.1" xmlns="http://www.w3.org/2000/svg" xmlns:xlink="http://www.w3.org/1999/xlink" xml:space="preserve" xmlns:serif="http://www.serif.com/" style="fill-rule:evenodd;clip-rule:evenodd;stroke-linejoin:round;stroke-miterlimit:2;">
    <g id="Gopay" transform="matrix(1,0,0,1,0,-20)">
        <g transform="matrix(5.55531,0,0,5.55531,-11.1106,-46.1073)">
            <path d="M27.979,24.05C25.634,24.05 24.246,22.534 24.311,20.563C24.393,18.04 26.717,15.95 29.488,15.95C30.677,15.95 31.627,16.244 32.26,16.553L31.89,18.419C31.098,18.007 30.416,17.759 29.317,17.759C27.589,17.759 26.449,18.993 26.406,20.325C26.371,21.386 27.038,22.263 28.328,22.263C28.62,22.263 28.958,22.22 29.185,22.166L29.69,19.614L31.654,19.615L30.893,23.465C30.061,23.834 28.966,24.05 27.979,24.05Z" style="fill:white;fill-rule:nonzero;"/>
        </g>
        <g transform="matrix(5.55531,0,0,5.55531,-11.1106,-46.1073)">
            <path d="M38.002,19.721L33.984,17.442L32.922,22.771L38.002,19.721Z" style="fill:white;fill-rule:nonzero;"/>
        </g>
        <g transform="matrix(5.55531,0,0,5.55531,-11.1106,-46.1073)">
            <path d="M8.361,21.221C8.801,21.221 9.274,20.847 9.274,20.252C9.274,19.866 9.019,19.632 8.674,19.632C8.24,19.632 7.754,20.025 7.754,20.619C7.754,20.999 8.01,21.221 8.361,21.221ZM8.687,18.721C9.676,18.721 10.391,19.297 10.391,20.183C10.391,21.334 9.363,22.132 8.342,22.132C7.352,22.132 6.637,21.562 6.637,20.67C6.637,19.525 7.659,18.721 8.687,18.721Z" style="fill:white;fill-rule:nonzero;"/>
        </g>
        <g transform="matrix(5.55531,0,0,5.55531,-11.1106,-46.1073)">
            <path d="M13.045,19.81C13.193,19.81 13.334,19.784 13.442,19.716C13.663,19.578 13.804,19.321 13.804,19.027C13.804,18.764 13.643,18.595 13.321,18.595L12.73,18.595L12.475,19.81L13.045,19.81ZM11.75,17.656L13.583,17.656C13.865,17.656 14.106,17.699 14.315,17.793C14.764,17.994 15.013,18.407 15.013,18.927C15.013,19.678 14.556,20.317 13.912,20.598C13.683,20.699 13.428,20.749 13.173,20.749L12.28,20.749L11.991,22.132L10.816,22.132L11.75,17.656Z" style="fill:white;fill-rule:nonzero;"/>
        </g>
        <g transform="matrix(5.55531,0,0,5.55531,-11.1106,-46.1073)">
            <path d="M16.422,21.297C16.713,21.297 17.029,20.987 17.081,20.721L17.094,20.651L16.991,20.651C16.752,20.651 16.151,20.702 16.151,21.088C16.151,21.208 16.235,21.297 16.422,21.297ZM17.165,20.025L17.21,20.025C17.217,19.98 17.223,19.924 17.223,19.904C17.223,19.689 17.068,19.607 16.803,19.607C16.384,19.607 15.841,19.904 15.841,19.904L15.602,19.082C15.602,19.082 16.287,18.721 17.023,18.721C17.585,18.721 18.34,18.936 18.34,19.759C18.34,19.854 18.328,19.961 18.308,20.075L17.921,22.056L16.9,22.056L16.939,21.86C16.958,21.752 16.997,21.657 16.997,21.657L16.984,21.657C16.984,21.657 16.623,22.132 16.003,22.132C15.505,22.132 15.027,21.841 15.027,21.29C15.027,20.303 16.313,20.025 17.165,20.025Z" style="fill:white;fill-rule:nonzero;"/>
        </g>
        <g transform="matrix(5.55531,0,0,5.55531,-11.1106,-46.1073)">
            <path d="M18.978,22.693C19.182,22.693 19.427,22.641 19.61,22.356L19.712,22.201L18.89,18.935L20.114,18.935L20.399,20.584C20.433,20.765 20.433,21.076 20.433,21.076L20.447,21.076C20.447,21.076 20.569,20.784 20.658,20.603L21.44,18.935L22.759,18.935L20.569,22.621C20.134,23.353 19.529,23.624 19.039,23.624C18.522,23.624 18.121,23.366 18.121,23.366L18.631,22.589C18.631,22.589 18.774,22.693 18.978,22.693Z" style="fill:white;fill-rule:nonzero;"/>
        </g>
        <g transform="matrix(5.55531,0,0,5.55531,-11.1106,-46.1073)">
            <path d="M4.143,22.345C2.774,22.345 1.964,21.427 2.001,20.235C2.049,18.707 3.406,17.442 5.024,17.442C5.718,17.442 6.269,17.617 6.638,17.805L6.424,18.937C5.961,18.688 5.566,18.537 4.924,18.537C3.915,18.537 3.25,19.284 3.224,20.09C3.204,20.733 3.594,21.264 4.347,21.264C4.518,21.264 4.715,21.237 4.847,21.205L5.142,19.66L6.287,19.66L5.844,21.991C5.359,22.214 4.719,22.345 4.143,22.345Z" style="fill:white;fill-rule:nonzero;"/>
        </g>
    </g>
</svg>
