<?xml version="1.0" encoding="UTF-8" standalone="no"?>
<!DOCTYPE svg PUBLIC "-//W3C//DTD SVG 1.1//EN" "http://www.w3.org/Graphics/SVG/1.1/DTD/svg11.dtd">
<svg width="100%" height="100%" viewBox="0 0 200 90" version="1.1" xmlns="http://www.w3.org/2000/svg" xmlns:xlink="http://www.w3.org/1999/xlink" xml:space="preserve" xmlns:serif="http://www.serif.com/" style="fill-rule:evenodd;clip-rule:evenodd;stroke-linejoin:round;stroke-miterlimit:2;">
    <g id="Shoptet" transform="matrix(1,0,0,1,0,-20.6031)">
        <g transform="matrix(0.952395,0,0,0.952395,0,31.3981)">
            <path d="M72.889,44.85C72.889,46.87 72.195,48.545 70.805,49.873C69.414,51.205 67.703,51.871 65.671,51.871C62.73,51.871 60.382,50.744 58.627,48.492L60.558,46.297C62.123,48.067 63.783,48.951 65.539,48.951C66.694,48.951 67.722,48.576 68.621,47.822C69.521,47.068 69.97,46.121 69.97,44.982C69.97,43.826 69.436,42.81 68.368,41.931C67.842,41.492 66.803,40.878 65.252,40.087C63.483,39.181 62.188,38.282 61.369,37.388C60.258,36.189 59.702,34.755 59.702,33.089C59.702,31.232 60.327,29.714 61.579,28.535C62.829,27.358 64.384,26.769 66.241,26.769C68.435,26.769 70.644,27.843 72.867,29.995L70.892,32.036C69.254,30.44 67.653,29.644 66.087,29.644C65.137,29.644 64.295,29.958 63.564,30.588C62.833,31.216 62.468,31.999 62.468,32.935C62.468,34.513 63.989,36.095 67.031,37.675C68.903,38.64 70.262,39.562 71.111,40.439C72.296,41.668 72.889,43.139 72.889,44.85Z" style="fill:white;fill-rule:nonzero;"/>
        </g>
        <g transform="matrix(0.952395,0,0,0.952395,0,31.3981)">
            <path d="M97.327,51.256L94.252,51.256L94.252,39.869C94.252,37.119 94.142,35.283 93.923,34.361C93.162,31.187 91.158,29.6 87.912,29.6C86.055,29.6 84.39,30.212 82.92,31.432C81.45,32.655 80.481,34.18 80.013,36.006C79.719,37.149 79.574,39.313 79.574,42.502L79.574,51.256L76.502,51.256L76.502,18.169L79.574,18.169L79.574,31.664C82.046,28.401 85.03,26.77 88.526,26.77C90.268,26.77 91.836,27.211 93.233,28.097C94.63,28.983 95.661,30.201 96.327,31.75C96.993,33.301 97.327,35.709 97.327,38.969L97.327,51.256Z" style="fill:white;fill-rule:nonzero;"/>
        </g>
        <g transform="matrix(0.952395,0,0,0.952395,0,31.3981)">
            <path d="M122.674,39.451C122.674,36.818 121.778,34.549 119.986,32.64C118.195,30.73 115.99,29.776 113.371,29.776C110.752,29.776 108.547,30.73 106.756,32.64C104.964,34.548 104.068,36.818 104.068,39.451C104.068,41.148 104.469,42.736 105.275,44.215C106.108,45.735 107.243,46.906 108.675,47.725C110.109,48.545 111.673,48.952 113.37,48.952C116.998,48.952 119.683,47.395 121.423,44.28C122.256,42.787 122.674,41.178 122.674,39.451ZM125.79,39.387C125.79,42.897 124.597,45.856 122.213,48.262C119.827,50.668 116.88,51.871 113.37,51.871C109.86,51.871 106.908,50.672 104.516,48.271C102.125,45.875 100.928,42.91 100.928,39.386C100.928,36.079 102.026,33.212 104.221,30.785C106.634,28.108 109.684,26.77 113.369,26.77C117.041,26.77 120.083,28.102 122.496,30.763C124.691,33.191 125.79,36.066 125.79,39.387Z" style="fill:white;fill-rule:nonzero;"/>
        </g>
        <g transform="matrix(0.952395,0,0,0.952395,0,31.3981)">
            <path d="M151.47,39.363C151.47,37.668 151.046,36.056 150.199,34.537C149.349,33.016 148.198,31.834 146.742,30.994C145.287,30.153 143.705,29.732 141.993,29.732C139.273,29.732 137.016,30.668 135.224,32.541C133.431,34.412 132.535,36.717 132.535,39.451C132.535,43.256 134.109,46.035 137.254,47.789C138.76,48.639 140.356,49.062 142.036,49.062C143.733,49.062 145.314,48.623 146.775,47.746C148.195,46.883 149.332,45.689 150.187,44.17C151.043,42.648 151.47,41.047 151.47,39.363ZM154.563,39.256C154.563,42.736 153.394,45.697 151.053,48.141C148.682,50.627 145.774,51.871 142.321,51.871C138.533,51.871 135.343,50.299 132.755,47.154L132.755,59.988L129.705,59.988L129.705,27.384L132.755,27.384L132.755,31.774C135.184,28.438 138.343,26.771 142.234,26.771C145.672,26.771 148.586,27.993 150.976,30.436C153.369,32.877 154.563,35.818 154.563,39.256Z" style="fill:white;fill-rule:nonzero;"/>
        </g>
        <g transform="matrix(0.952395,0,0,0.952395,0,31.3981)">
            <path d="M169.241,30.019L164.37,30.019L164.37,51.256L161.276,51.256L161.276,30.019L157.085,30.019L157.085,27.384L161.276,27.384L161.276,18.521L164.37,18.521L164.37,27.384L169.241,27.384L169.241,30.019Z" style="fill:white;fill-rule:nonzero;"/>
        </g>
        <g transform="matrix(0.952395,0,0,0.952395,0,31.3981)">
            <path d="M192.089,36.906C191.329,33.879 189.696,31.781 187.196,30.609C185.907,30.01 184.555,29.71 183.137,29.71C180.795,29.71 178.783,30.463 177.104,31.969C175.874,33.069 174.944,34.715 174.315,36.907L192.089,36.907L192.089,36.906ZM195.466,39.563L174.009,39.563C174.068,42.239 174.902,44.471 176.511,46.254C178.208,48.125 180.372,49.063 183.005,49.063C185.55,49.063 187.708,48.288 189.478,46.739C190.283,46.036 191.154,44.901 192.089,43.337L194.677,44.696C193.07,47.842 190.839,49.964 187.986,51.059C186.595,51.602 185.025,51.872 183.269,51.872C179.685,51.872 176.72,50.686 174.371,48.317C172.025,45.948 170.85,42.969 170.85,39.387C170.85,36.36 171.78,33.66 173.637,31.289C175.992,28.277 179.145,26.77 183.092,26.77C187.16,26.77 190.408,28.313 192.836,31.398C194.562,33.594 195.438,36.314 195.466,39.563Z" style="fill:white;fill-rule:nonzero;"/>
        </g>
        <g transform="matrix(0.952395,0,0,0.952395,0,31.3981)">
            <path d="M209.997,30.019L205.126,30.019L205.126,51.256L202.032,51.256L202.032,30.019L197.843,30.019L197.843,27.384L202.032,27.384L202.032,18.521L205.126,18.521L205.126,27.384L209.997,27.384L209.997,30.019Z" style="fill:white;fill-rule:nonzero;"/>
        </g>
        <g transform="matrix(0.83788,0,0,0.83788,0,42.6758)">
            <rect x="0" y="27.031" width="25.363" height="25.363" style="fill:white;"/>
        </g>
        <g transform="matrix(0.83788,0,0,0.83788,0,42.6758)">
            <rect x="27.032" y="27.031" width="25.363" height="25.363" style="fill:white;"/>
        </g>
        <g transform="matrix(0.83788,0,0,0.83788,0,42.6758)">
            <rect x="13.349" y="0" width="25.363" height="25.363" style="fill:white;"/>
        </g>
    </g>
</svg>
