<?xml version="1.0" encoding="UTF-8" standalone="no"?>
<!DOCTYPE svg PUBLIC "-//W3C//DTD SVG 1.1//EN" "http://www.w3.org/Graphics/SVG/1.1/DTD/svg11.dtd">
<svg width="100%" height="100%" viewBox="0 0 200 90" version="1.1" xmlns="http://www.w3.org/2000/svg" xmlns:xlink="http://www.w3.org/1999/xlink" xml:space="preserve" xmlns:serif="http://www.serif.com/" style="fill-rule:evenodd;clip-rule:evenodd;stroke-linejoin:round;stroke-miterlimit:2;">
    <g id="Karcher" transform="matrix(0.203494,0,0,0.203494,-28.1515,9.62049)">
        <path d="M260.21,112.57L230.63,158.51L218.36,158.51L218.36,112.57L180.16,112.57L180.16,235.08L218.36,235.08L218.36,187.22L230.11,187.22L259.87,235.08L306.42,235.08L264.13,170.52L304.16,112.48L260.22,112.48M416.48,138.5L444.93,138.5L444.93,112.48L416.48,112.48L416.48,138.5ZM309.89,138.5L338.34,138.5L338.34,112.48L309.89,112.48L309.89,138.5ZM390.99,186.09L362.88,186.09L373.15,154.07L376.89,141.37L377.41,141.37L380.98,154.07L390.99,186.09ZM449.11,235.08L399.43,112.57L355.14,112.57L306.41,235.08L347.13,235.08L353.66,214.46L399.69,214.46L406.04,235.08L449.02,235.08M1029.66,154.59C1029.66,166.16 1025.05,169.12 1013.82,169.12L997.81,169.12L997.81,141.19L1013.99,141.19C1025.74,141.19 1029.65,144.32 1029.65,154.59L1029.66,154.59ZM1069.69,153.11C1069.69,125.79 1050.55,112.56 1014.61,112.56L959.53,112.56L959.53,235.07L997.73,235.07L997.73,194.7L1013.57,194.7L1034.28,235.07L1079.35,235.07L1048.03,187.39C1061.78,182.52 1069.61,168.94 1069.61,153.11M683.18,115.35C674.39,112.39 661.77,110.3 650.2,110.3C603.13,110.3 582.24,134.66 582.24,173.38C582.24,215.23 604.43,237.42 646.89,237.42C659.51,237.42 673.17,234.46 683.52,229.85L679.43,201.74C671.6,204.87 662.11,206.79 651.93,206.79C628.61,206.79 622.52,198.78 622.52,173.46C622.52,149.44 628.09,141.44 651.58,141.44C662.54,141.44 671.68,143.09 679.34,145.18L683.08,115.25M817.96,235.08L817.96,112.57L779.85,112.57L779.85,157.82L739.21,157.82L739.21,112.57L701.01,112.57L701.01,235.08L739.21,235.08L739.21,189.05L779.85,189.05L779.85,235.08L817.96,235.08ZM879.22,204.89L879.22,186.27L929.08,186.27L929.08,159.47L879.22,159.47L879.22,143.11L939.52,143.11L938.82,112.57L840.93,112.57L840.93,235.08L941.26,235.08L941.96,204.89L879.22,204.89ZM531.17,154.59C531.17,166.16 526.56,169.12 515.33,169.12L499.32,169.12L499.32,141.19L515.5,141.19C527.25,141.19 531.16,144.32 531.16,154.59L531.17,154.59ZM571.28,153.11C571.28,125.79 552.14,112.56 516.2,112.56L461.12,112.56L461.12,235.07L499.32,235.07L499.32,194.7L515.16,194.7L535.87,235.07L580.94,235.07L549.62,187.39C563.37,182.52 571.2,168.94 571.2,153.11" style="fill:white;fill-rule:nonzero;"/>
    </g>
</svg>
