<?xml version="1.0" encoding="UTF-8" standalone="no"?>
<!DOCTYPE svg PUBLIC "-//W3C//DTD SVG 1.1//EN" "http://www.w3.org/Graphics/SVG/1.1/DTD/svg11.dtd">
<svg width="100%" height="100%" viewBox="0 0 200 90" version="1.1" xmlns="http://www.w3.org/2000/svg" xmlns:xlink="http://www.w3.org/1999/xlink" xml:space="preserve" xmlns:serif="http://www.serif.com/" style="fill-rule:evenodd;clip-rule:evenodd;stroke-linejoin:round;stroke-miterlimit:2;">
    <g id="OsamTrade" transform="matrix(1,0,0,1,5.55112e-17,-20)">
        <g transform="matrix(0.375857,0,0,0.375857,-0.908477,46.4566)">
            <path d="M4.455,10.454C1.304,21.475 0.003,51.823 14.397,69.875C22.909,80.563 33.065,82.745 39.941,82.745C42.188,82.745 44.085,82.514 45.459,82.266C30.439,73.929 18.781,52.502 16.681,48.533C16.508,48.211 16.644,47.916 16.981,47.881C17.005,47.878 17.028,47.877 17.053,47.877C17.376,47.877 17.751,48.095 17.93,48.387C20.201,52.171 33.508,73.424 48.437,80.18C66.621,38.791 17.304,38.077 4.455,10.454" style="fill:white;fill-rule:nonzero;"/>
        </g>
        <g transform="matrix(0.375857,0,0,0.375857,-0.908477,46.4566)">
            <path d="M49.173,98.647C49.252,98.665 49.333,98.673 49.412,98.673C49.429,98.673 49.444,98.672 49.461,98.672C49.954,98.651 50.428,98.305 50.524,97.8C51.096,94.802 52.228,91.991 53.859,89.472C53.951,89.444 54.046,89.415 54.144,89.38C58.96,87.734 64.506,88.369 69.474,87.19C75.998,85.639 81.633,81.655 85.888,76.544C90.513,70.989 92.447,64.058 96.555,58.242C96.964,57.662 96.5,56.946 95.896,56.946C95.886,56.946 95.874,56.947 95.864,56.947C95.75,56.952 95.631,56.982 95.513,57.044C92.084,58.847 88.094,59.66 84.335,60.157C80.031,60.725 75.719,61.124 71.501,62.021C71.489,62.023 71.476,62.026 71.464,62.028C71.452,62.031 71.441,62.034 71.429,62.036C69.86,62.372 68.305,62.777 66.768,63.287C66.756,63.291 66.745,63.296 66.732,63.3C66.719,63.304 66.707,63.309 66.694,63.314C66.35,63.427 66.009,63.546 65.668,63.672C65.54,63.719 65.414,63.767 65.288,63.817C65.275,63.821 65.263,63.827 65.252,63.832C65.238,63.835 65.227,63.841 65.215,63.846C62.138,65.058 59.425,66.956 57.166,69.31C57.157,69.32 57.15,69.331 57.14,69.338L57.117,69.363C53.725,72.918 51.363,77.501 50.341,82.329C50.223,82.885 50.668,83.319 51.147,83.319C51.157,83.319 51.169,83.319 51.18,83.317C51.354,83.31 51.529,83.245 51.684,83.107C55.792,79.421 59.979,75.817 65.138,73.692C66.009,73.334 66.89,72.973 67.778,72.622C67.795,72.615 67.813,72.607 67.83,72.601C67.848,72.593 67.867,72.586 67.885,72.58C68.931,72.166 69.987,71.761 71.053,71.382C71.062,71.378 71.072,71.374 71.083,71.372C71.096,71.366 71.109,71.362 71.122,71.357C73.267,70.595 75.445,69.933 77.635,69.49C75.566,70.352 73.503,71.237 71.48,72.184C71.468,72.191 71.455,72.197 71.442,72.203C71.433,72.207 71.424,72.211 71.415,72.216C70.762,72.524 70.115,72.836 69.471,73.158C69.457,73.166 69.443,73.172 69.43,73.179C69.415,73.187 69.402,73.194 69.388,73.2C68.053,73.871 66.74,74.577 65.458,75.335C62.532,77.066 59.773,79.064 57.294,81.494C52.954,85.748 49.476,91.275 48.327,97.297C48.212,97.898 48.558,98.505 49.173,98.647" style="fill:white;fill-rule:nonzero;"/>
        </g>
        <g transform="matrix(0.375857,0,0,0.375857,-0.908477,46.4566)">
            <path d="M76.778,17.781C76.071,17.71 75.598,17.576 75.447,16.733C75.298,15.889 74.396,15.551 73.613,14.93C72.83,14.309 73.996,13.931 74.672,14.158C75.631,14.483 75.028,15.076 75.678,15.415C76.329,15.756 77.008,15.961 76.523,16.272C76.038,16.585 76.508,16.717 77.1,17.07C77.69,17.426 77.487,17.854 76.778,17.781M88.232,27.805C84.095,11.433 69.429,0 52.565,0L52.565,2.477L52.565,0L52.563,0C49.528,0 46.484,0.381 43.518,1.131C31.618,4.137 22.547,12.662 18.327,23.28C20.582,25.104 22.977,26.82 25.414,28.485C25.656,28.135 25.764,27.898 25.743,27.766C25.721,27.619 25.868,27.206 26.09,26.858L26.09,26.859C26.134,26.79 26.181,26.724 26.23,26.663C26.235,26.655 26.24,26.649 26.246,26.641C26.297,26.577 26.352,26.519 26.409,26.47C26.798,26.134 27.184,26.123 27.008,26.621C26.834,27.121 27.264,27.294 27.612,26.534C27.96,25.775 29.986,23.898 29.238,24.434C28.489,24.97 27.754,25.307 27.895,25.011C28.036,24.715 28.663,23.95 28.253,24.033C27.841,24.113 27.346,24.543 27.042,24.619C26.737,24.697 26.988,23.983 27.469,23.493C27.949,23.004 28.977,22.461 29.626,22.211C30.274,21.96 30.451,21.722 30.246,22.358C30.04,22.994 30.91,23.534 31.486,23.084C32.064,22.637 33.207,21.697 32.481,21.641C31.755,21.587 30.762,21.839 31.1,21.385C31.439,20.93 31.804,19.646 31.293,20.1C30.782,20.554 30.148,20.433 30.328,19.868C30.509,19.302 31.137,17.864 30.237,18.395C29.335,18.926 29.143,19.104 28.889,18.953C28.886,18.95 28.886,18.948 28.883,18.945C28.662,18.778 29.767,17.842 29.235,18.02C28.699,18.199 28.407,17.73 27.898,18.357C27.387,18.985 26.94,19.011 26.516,19.465C26.091,19.919 25.906,20.552 26.008,20.785C26.11,21.02 25.999,21.091 25.508,21.627C25.018,22.161 24.336,22.79 24.454,23.258C24.573,23.726 23.495,24.757 23.61,24.273C23.724,23.789 24.027,23.019 23.586,23.239C23.146,23.459 22.45,23.266 22.929,22.43C23.408,21.595 24.353,20.554 24.813,20.069C25.274,19.585 26.213,18.438 25.946,19.002C25.679,19.568 26.084,19.38 26.539,18.873C26.994,18.369 27.105,17.864 26.679,18.146C26.253,18.427 26.607,18.034 26.901,17.657C27.193,17.279 27.922,16.748 27.751,17.095C27.58,17.441 27.603,18.042 27.89,17.558C28.176,17.074 28.252,16.6 28.41,16.972C28.568,17.344 29.429,17.841 29.827,17.458C30.227,17.075 29.353,16.69 30.155,16.704C30.267,16.705 30.355,16.703 30.43,16.696C30.465,16.694 30.49,16.688 30.519,16.684C30.564,16.677 30.604,16.669 30.635,16.658C30.652,16.651 30.671,16.646 30.685,16.639C30.7,16.631 30.712,16.621 30.722,16.612C30.732,16.604 30.743,16.597 30.751,16.587C30.76,16.577 30.768,16.565 30.774,16.552C30.779,16.543 30.783,16.533 30.787,16.522C30.792,16.508 30.799,16.492 30.801,16.477C30.804,16.469 30.805,16.461 30.808,16.453C30.815,16.419 30.822,16.382 30.831,16.342C30.833,16.336 30.834,16.329 30.836,16.323C30.845,16.289 30.856,16.255 30.874,16.219C30.891,16.181 30.896,16.15 30.891,16.123C30.857,15.942 30.381,15.981 30.587,15.684C30.825,15.343 31.118,15.052 31.529,15.143C31.605,15.159 31.682,15.151 31.76,15.133C31.758,15.134 31.756,15.137 31.754,15.138C31.774,15.134 31.794,15.125 31.815,15.118C31.83,15.113 31.847,15.109 31.863,15.104C31.908,15.086 31.952,15.064 31.994,15.039C32.004,15.033 32.013,15.025 32.024,15.018C32.055,14.998 32.085,14.976 32.113,14.952C32.128,14.941 32.139,14.929 32.152,14.916C32.174,14.896 32.194,14.876 32.211,14.855C32.222,14.841 32.232,14.829 32.242,14.816C32.26,14.791 32.273,14.767 32.283,14.743C32.288,14.733 32.295,14.722 32.297,14.714C32.308,14.685 32.311,14.658 32.309,14.633C32.308,14.623 32.303,14.614 32.3,14.604C32.296,14.596 32.296,14.584 32.291,14.576C32.288,14.577 32.287,14.58 32.286,14.581C32.278,14.57 32.275,14.555 32.264,14.546C32.05,14.384 31.567,14.353 31.107,14.318C30.645,14.283 30.834,13.672 30.333,14.08C29.832,14.488 28.981,14.877 29.175,15.218C29.37,15.558 30.018,15.395 29.654,15.748C29.29,16.099 29.131,15.814 28.85,16.232C28.567,16.651 28.147,16.865 28.337,16.513C28.528,16.161 28.385,15.937 27.905,16.427C27.425,16.917 27.029,16.887 27.227,16.642C27.424,16.398 27.448,16.153 26.417,17.106C25.385,18.06 24.675,18.5 23.714,19.22C23.714,19.22 23.386,19.175 22.776,19.71C27.25,11.934 34.739,5.903 44.125,3.531C46.948,2.819 49.779,2.477 52.564,2.477C58.941,2.476 65.069,4.287 70.351,7.495C69.11,7.555 67.979,7.604 67.394,7.434C66.232,7.098 66.422,7.805 65.642,8.192C64.861,8.577 64.314,7.897 63.927,7.114C63.542,6.33 62.407,6.555 60.74,6.409C59.284,6.281 58.661,6.233 58.255,6.962C58.254,6.963 58.254,6.965 58.253,6.965C58.249,6.973 58.243,6.985 58.238,6.994C58.187,7.093 58.137,7.202 58.09,7.33C57.68,8.44 56.869,8.457 56.266,8.798C55.664,9.139 55.031,9.866 55.608,10.16C56.183,10.456 56.716,10.825 57.348,10.35C57.98,9.875 58.336,10.29 58.941,10.451C59.546,10.613 59.812,10.923 59.899,10.273C59.985,9.62 60.338,9.533 59.703,9.252C59.069,8.972 58.773,8.794 59.685,8.437C60.599,8.082 60.213,7.55 60.818,7.711C61.424,7.873 60.629,8.451 61.236,8.866C61.842,9.278 63.889,8.697 63.463,9.245C63.037,9.793 61.754,9.678 62.024,10.491C62.291,11.305 62.276,11.245 61.185,11.396C60.095,11.545 58.446,12.213 58.134,11.725C57.823,11.237 57.143,10.779 57.323,11.491C57.503,12.2 56.985,12.142 56.413,12.601C55.839,13.062 55.638,14.497 54.532,14.839C53.428,15.18 52.059,15.717 52.974,15.863C53.887,16.01 53.903,16.068 54.112,16.897C54.321,17.725 54.262,17.741 53.247,17.934C52.231,18.129 50.755,18.249 51.054,19.181C51.352,20.113 51.24,21.905 52.346,21.814C53.452,21.723 55.573,21.187 55.525,20.256C55.477,19.323 55.786,19.055 56.213,18.508C56.638,17.959 56.031,17.546 56.857,17.337C57.683,17.128 58.669,16.817 59.081,16.46C59.493,16.104 59.494,16.608 60.423,17.066C61.355,17.523 62.432,17.817 62.685,18.571C62.94,19.326 63.483,18.748 63.451,18.126C63.42,17.505 63.683,17.059 62.547,17.033C61.412,17.005 59.756,15.912 60.434,15.616C61.111,15.318 63.857,16.009 64.183,16.556C64.508,17.104 65.028,18.169 65.454,17.872C65.882,17.575 65.814,19.291 66.433,19.01C67.05,18.728 65.675,17.501 66.294,17.219C66.911,16.938 68.179,16.743 67.868,16.254C67.556,15.767 68.101,14.495 68.056,14.318C68.012,14.141 69.065,14.252 68.673,14.729C68.28,15.207 69.072,15.069 69.455,14.846C69.837,14.624 69.041,14.196 69.672,13.972C69.751,13.946 69.824,13.925 69.896,13.908C69.933,13.899 69.967,13.895 70.004,13.889C70.458,13.814 70.754,13.97 70.647,14.357C70.62,14.457 70.612,14.54 70.62,14.611C70.621,14.623 70.62,14.636 70.621,14.646C70.628,14.675 70.642,14.698 70.655,14.722C70.66,14.73 70.663,14.742 70.669,14.751C70.686,14.773 70.711,14.791 70.735,14.809C70.746,14.816 70.752,14.825 70.762,14.832C70.79,14.847 70.826,14.86 70.86,14.872C70.876,14.878 70.886,14.885 70.904,14.89C70.902,14.89 70.902,14.888 70.902,14.888C71.08,14.941 71.35,14.961 71.741,14.961C72.743,14.96 73.515,16.276 72.453,16.293C72.236,16.295 72.017,16.268 71.799,16.228C71.572,16.185 71.348,16.131 71.127,16.082C71.056,16.067 70.984,16.053 70.914,16.04C70.89,16.034 70.866,16.031 70.843,16.027C70.765,16.013 70.689,16.002 70.613,15.994C70.59,15.992 70.566,15.989 70.543,15.987C70.46,15.98 70.379,15.976 70.298,15.979C70.282,15.98 70.267,15.981 70.251,15.983C70.179,15.988 70.107,15.997 70.039,16.013C70.023,16.015 70.008,16.016 69.994,16.02C69.918,16.04 69.842,16.068 69.77,16.104C69.754,16.112 69.737,16.121 69.722,16.131C69.647,16.172 69.574,16.22 69.505,16.283C68.729,16.982 67.221,16.922 67.887,17.572C68.553,18.222 69.514,19.05 70.029,18.605C70.543,18.16 70.988,18.93 71.4,18.573C71.811,18.217 71.898,17.817 72.182,18.942C72.466,20.067 72.691,20.953 71.983,21.133C71.276,21.31 69.686,21.713 69.257,21.508C68.829,21.3 66.379,20.786 66.618,21.482C66.857,22.177 66.09,22.37 65.205,22.342C64.32,22.313 61.887,22.111 61.707,21.148C61.526,20.187 60.845,19.477 59.978,20.012C59.109,20.546 57.752,20.134 56.972,20.771C56.192,21.408 55.075,22.194 54.441,22.165C53.807,22.138 53.6,21.813 53.248,22.406C52.896,22.997 51.517,24.731 51.798,25.352C52.081,25.974 52.066,26.167 50.991,26.878C49.918,27.591 49.744,28.39 49.512,29.708C49.281,31.025 48.752,31.411 49.315,32.15C49.878,32.888 50.042,33.29 49.795,34.297C49.547,35.304 49.563,35.614 49.948,35.894C50.332,36.176 50.611,36.042 50.378,36.604C50.144,37.165 50.572,37.373 51.503,37.831C52.433,38.288 52.377,39.058 53.148,39.871C53.918,40.684 54.269,40.092 55.199,40.548C56.13,41.006 56.397,41.316 57.086,40.577C57.777,39.835 58.203,39.789 58.735,39.907C59.267,40.025 59.605,39.876 60.017,39.269C60.427,38.661 62.267,37.756 62.916,38.096C63.566,38.434 63.392,39.234 63.893,38.982C64.394,38.73 65.306,38.372 65.751,38.89C66.195,39.408 66.226,39.778 66.11,40.562C66.059,40.914 65.972,41.261 65.944,41.559C65.941,41.593 65.936,41.629 65.934,41.663L65.934,41.667L65.934,41.665C65.921,41.982 66.001,42.227 66.308,42.338C66.928,42.558 67.948,42.869 68.127,43.831C68.309,44.793 68.441,45.073 68.855,45.222C69.268,45.369 69.593,45.413 69.567,46.301C69.54,47.188 68.544,48.951 69.094,50.134C69.644,51.318 70.47,51.613 70.62,52.456C70.772,53.3 71.07,54.482 71.867,54.659C72.664,54.836 73.108,55.353 72.993,56.388C72.879,57.425 72.967,57.277 73.983,56.83C74.998,56.386 75.883,56.162 76.219,55.259C76.555,54.355 78.257,52.162 78.27,51.718C78.283,51.274 78.282,50.771 78.693,50.415C79.105,50.06 79.588,49.245 79.379,48.667C79.171,48.092 79.255,46.685 79.902,46.016C80.549,45.349 80.941,43.929 80.435,42.42C79.927,40.91 79.653,38.336 79.931,37.7C80.209,37.062 81.942,34.736 81.846,32.619C81.749,30.501 81.923,29.45 81.365,29.97C80.806,30.489 79.29,31.438 79.184,30.773C79.08,30.107 79.387,29.588 77.956,29.383C76.525,29.178 76.978,27.742 76.253,27.357C75.528,26.973 75.897,26.693 75.629,26.13C75.369,25.582 75.16,25.02 74.367,24.665L74.367,24.664C74.349,24.655 74.331,24.645 74.313,24.637C73.469,24.283 73.304,23.13 72.401,22.286C71.5,21.444 73.433,22.152 73.538,22.567C73.545,22.594 73.555,22.625 73.569,22.659C73.573,22.669 73.58,22.681 73.585,22.691C73.596,22.717 73.608,22.743 73.624,22.773C73.63,22.783 73.637,22.795 73.643,22.807C73.66,22.839 73.678,22.87 73.699,22.906C73.704,22.914 73.711,22.925 73.717,22.934C73.74,22.973 73.766,23.013 73.794,23.054C73.797,23.061 73.801,23.068 73.805,23.073C73.837,23.119 73.87,23.168 73.905,23.218C73.906,23.22 73.908,23.221 73.909,23.223C74.292,23.759 74.885,24.41 75.316,24.637C75.964,24.976 75.949,24.915 76.173,25.553C76.397,26.188 76.811,26.587 77.594,27.208C78.378,27.828 78.496,27.799 78.691,28.568C78.885,29.338 79.683,30.017 80.243,29.497C80.8,28.979 81.505,28.045 81.532,27.409C81.558,26.772 82.076,27.082 82,26.283C81.923,25.484 82.644,24.862 82.127,24.552C81.609,24.242 80.646,22.659 80.484,23.014C80.323,23.37 80.089,23.933 79.75,23.577C79.41,23.223 79.468,23.209 79.025,23.195C78.583,23.18 79.083,22.677 78.418,22.278C77.753,21.879 77.737,21.569 77.838,21.228C77.941,20.887 78.471,20.753 78.636,21.404C78.8,22.054 79.569,22.868 80.232,22.512C80.894,22.156 80.808,23.058 81.561,23.057C82.314,23.056 82.991,22.76 83.331,23.366C83.673,23.972 83.561,25.511 84.386,25.555C84.913,25.582 85.385,27.11 85.912,28.768C88.502,39.489 85.743,50.27 79.336,58.287C79.817,58.227 80.301,58.167 80.78,58.107C81.425,58.028 82.071,57.945 82.717,57.864C88.604,49.409 90.948,38.554 88.232,27.805" style="fill:white;fill-rule:nonzero;"/>
        </g>
        <g transform="matrix(0.375857,0,0,0.375857,-0.614558,49.2522)">
            <path d="M320.028,14.827L357.04,14.827L357.04,20.811L341.841,20.811L341.841,73.969L335.227,73.969L335.227,20.811L320.028,20.811L320.028,14.827Z" style="fill:white;fill-rule:nonzero;"/>
        </g>
        <g transform="matrix(0.375857,0,0,0.375857,-0.614558,49.2522)">
            <path d="M364.915,73.97L364.915,14.827L382.004,14.827C387.15,14.827 391.166,15.722 394.052,17.512C397.99,19.934 399.96,24.012 399.96,29.749C399.96,34.487 398.778,38.147 396.415,40.725C394.42,42.937 391.822,44.227 388.62,44.594C390.141,44.805 391.376,45.015 392.321,45.224C395.629,46.012 397.675,48.164 398.463,51.682C398.514,52.049 399.015,56.247 399.96,64.282C400.59,69.794 401.507,72.551 402.716,72.551L402.716,73.969L395.077,73.969C394.133,71.29 393.448,66.264 393.029,58.889C392.608,51.512 388.881,47.825 381.847,47.825L371.531,47.825L371.531,73.97L364.915,73.97ZM371.53,41.996L382.477,41.996C385.731,41.996 388.224,41.153 389.957,39.465C392.005,37.464 393.028,34.328 393.028,30.059C393.028,26.637 392.084,24.213 390.193,22.79C388.302,21.368 385.205,20.655 380.9,20.655L371.53,20.655L371.53,41.996Z" style="fill:white;fill-rule:nonzero;"/>
        </g>
        <g transform="matrix(0.375857,0,0,0.375857,-0.614558,49.2522)">
            <path d="M407.201,73.966L423.977,14.826L432.719,14.826L449.336,73.966L442.058,73.977L437.417,56.879L418.761,56.879L414.484,73.979L407.201,73.966ZM435.944,51.053L428.26,19.635L420.332,51.053L435.944,51.053Z" style="fill:white;fill-rule:nonzero;"/>
        </g>
        <g transform="matrix(0.375857,0,0,0.375857,-0.614558,49.2522)">
            <path d="M456.579,73.969L456.579,14.826L473.826,14.826C481.017,14.826 486.267,17.56 489.575,23.027C492.199,27.391 493.513,33.228 493.513,40.535L493.513,43.137C493.513,47.501 493.197,51.443 492.568,54.964C491.569,60.484 489.862,64.795 487.449,67.897C484.298,71.945 480.019,73.969 474.612,73.969L456.579,73.969ZM463.194,68.14L473.983,68.14C478.969,68.14 482.488,65.67 484.536,60.726C485.9,57.413 486.582,53.101 486.582,47.789L486.582,44.396C486.582,36.088 485.795,30.278 484.22,26.966C482.224,22.759 478.445,20.655 472.88,20.655L463.194,20.655L463.194,68.14Z" style="fill:white;fill-rule:nonzero;"/>
        </g>
        <g transform="matrix(0.375857,0,0,0.375857,-0.614558,49.2522)">
            <path d="M504.064,73.969L504.064,14.827L533.597,14.827L533.597,20.811L510.681,20.811L510.681,40.265L532.256,40.265L532.256,46.091L510.681,46.091L510.681,67.983L533.753,67.983L533.753,73.969L504.064,73.969Z" style="fill:white;fill-rule:nonzero;"/>
        </g>
        <g transform="matrix(0.375857,0,0,0.375857,-0.614558,49.2522)">
            <path d="M161.468,49.824C161.468,60.258 159.762,67.234 156.349,70.746C153.25,73.944 148.554,75.542 142.253,75.542C133.749,75.542 128.079,72.79 125.243,67.285C123.563,64.033 122.723,58.581 122.723,50.925L122.723,40.937C122.723,37.372 122.959,33.912 123.43,30.554C124.161,25.417 125.337,21.721 126.959,19.465C129.26,16.581 131.899,14.668 134.881,13.722C136.71,13.147 139.193,12.858 142.332,12.858C147.978,12.858 152.37,14.404 155.507,17.498C158.017,19.963 159.716,23.528 160.605,28.195C161.18,31.185 161.468,35.222 161.468,40.307L161.468,49.824ZM134.063,33.707L134.063,55.087C134.063,62.636 136.793,66.409 142.253,66.409C144.563,66.409 146.374,65.622 147.688,64.05C149.262,62.164 150.05,59.176 150.05,55.087L150.05,34.651C150.05,30.825 149.38,27.826 148.041,25.65C146.703,23.475 144.773,22.387 142.253,22.387C139.523,22.387 137.476,23.371 136.111,25.336C134.746,27.301 134.063,30.091 134.063,33.707" style="fill:white;fill-rule:nonzero;"/>
        </g>
        <g transform="matrix(0.375857,0,0,0.375857,-0.614558,49.2522)">
            <path d="M194.149,32.783C194.149,28.951 193.585,26.247 192.456,24.671C191.326,23.096 189.687,22.308 187.535,22.308C185.906,22.308 184.476,22.849 183.242,23.926C182.008,25.002 181.393,26.357 181.393,27.986C181.393,30.616 182.731,32.877 185.409,34.771C189.712,37.662 194.019,40.553 198.323,43.445C203.049,47.23 205.619,51.12 206.04,55.116L206.04,58.35C206.04,63.924 204.421,68.234 201.179,71.282C198.303,73.967 194.671,75.306 190.28,75.306L188.477,75.306C182.778,75.306 178.44,74.12 175.461,71.75C171.751,68.799 169.895,63.898 169.895,57.05C169.946,56.419 170.013,55.799 170.091,55.194C170.171,54.59 170.209,53.864 170.209,53.02L181.234,53.02L180.998,56.605C180.998,59.952 181.668,62.473 183.006,64.173C184.345,65.872 186.065,66.723 188.165,66.723C188.899,66.619 189.477,66.526 189.898,66.446C190.317,66.368 190.881,66.237 191.591,66.053C192.299,65.865 193.007,65.17 193.716,63.958C194.425,62.749 194.779,61.351 194.779,59.771C194.779,58.139 194.385,56.612 193.599,55.189C192.811,53.769 191.419,52.372 189.424,51.003C181.968,45.948 177.691,42.923 176.588,41.921C172.336,37.918 170.209,33.286 170.209,28.019C170.209,23.386 171.574,19.805 174.306,17.279C177.034,14.75 180.894,13.487 185.88,13.487C191.918,13.487 196.485,14.8 199.583,17.423C202.942,20.312 204.624,24.801 204.624,30.891L204.624,32.781L194.149,32.781L194.149,32.783Z" style="fill:white;fill-rule:nonzero;"/>
        </g>
        <g transform="matrix(0.375857,0,0,0.375857,-0.614558,49.2522)">
            <path d="M224.86,14.748L239.903,14.748L253.132,73.969L241.241,73.969L238.485,59.085L225.57,59.085L222.499,73.969L210.844,73.969L224.86,14.748ZM236.673,50.265L233.13,30.42L232.185,21.364L231.161,30.42L227.145,50.265L236.673,50.265Z" style="fill:white;fill-rule:nonzero;"/>
        </g>
        <g transform="matrix(0.375857,0,0,0.375857,-0.614558,49.2522)">
            <path d="M259.116,14.748L276.799,14.748L283.426,45.86L284.91,56.239L285.878,45.852L292.467,14.748L310.068,14.748L310.068,73.969L298.963,73.969L298.963,40.421L299.908,20.104L287.938,73.969L281.324,73.969L269.433,20.104L270.22,42.31L270.22,73.969L259.116,73.969L259.116,14.748Z" style="fill:white;fill-rule:nonzero;"/>
        </g>
    </g>
</svg>
