<?xml version="1.0" encoding="UTF-8" standalone="no"?>
<!DOCTYPE svg PUBLIC "-//W3C//DTD SVG 1.1//EN" "http://www.w3.org/Graphics/SVG/1.1/DTD/svg11.dtd">
<svg width="100%" height="100%" viewBox="0 0 200 130" version="1.1" xmlns="http://www.w3.org/2000/svg" xmlns:xlink="http://www.w3.org/1999/xlink" xml:space="preserve" xmlns:serif="http://www.serif.com/" style="fill-rule:evenodd;clip-rule:evenodd;stroke-miterlimit:10;">
    <g transform="matrix(1.17647,0,0,1.17647,100,66)">
        <g transform="matrix(1,0,0,1,-85,-18)">
            <clipPath id="_clip1">
                <rect x="0" y="0" width="170" height="36"/>
            </clipPath>
            <g clip-path="url(#_clip1)">
                <g transform="matrix(0.483717,0,0,0.483717,-145.141,-19.7003)">
                    <g id="smarttop">
                        <g>
                            <g>
                                <g>
                                    <g>
                                        <g id="Logo">
                                            <g transform="matrix(0.0704205,0,0,0.0704205,283.906,19.304)">
                                                <path d="M249.82,409.57C218.08,520.624 204.969,826.417 350.003,1008.33C435.785,1116.02 538.111,1138.02 607.398,1138.02C630.04,1138.02 649.166,1135.69 662.999,1133.2C511.65,1049.19 394.177,833.28 373.028,793.286C371.283,790.021 372.643,787.048 376.039,786.696C376.293,786.676 376.525,786.656 376.776,786.656C380.029,786.656 383.808,788.861 385.614,791.806C408.487,829.936 542.584,1044.09 693.008,1112.17C876.24,695.099 379.304,687.915 249.82,409.57" style="fill:white;fill-rule:nonzero;"/>
                                            </g>
                                            <g transform="matrix(0.0704205,0,0,0.0704205,283.906,63.5984)">
                                                <path d="M700.432,669.258C701.24,669.44 702.046,669.52 702.842,669.52C703.014,669.52 703.162,669.509 703.345,669.509C708.304,669.297 713.088,665.813 714.057,660.723C719.821,630.514 731.226,602.199 747.661,576.806C748.578,576.523 749.535,576.241 750.535,575.878C799.053,559.303 854.946,565.701 904.998,553.81C970.748,538.182 1027.53,498.036 1070.39,446.537C1117,390.569 1136.49,320.72 1177.89,262.125C1182,256.281 1177.34,249.066 1171.25,249.066C1171.14,249.066 1171.02,249.074 1170.92,249.074C1169.78,249.126 1168.58,249.428 1167.38,250.043C1132.84,268.212 1092.63,276.412 1054.75,281.42C1011.38,287.144 967.935,291.165 925.423,300.203C925.301,300.223 925.181,300.255 925.049,300.274C924.929,300.303 924.826,300.334 924.698,300.354C908.888,303.739 893.227,307.821 877.74,312.959C877.62,312.999 877.5,313.042 877.377,313.082C877.245,313.122 877.126,313.171 876.986,313.222C873.529,314.362 870.082,315.561 866.657,316.83C865.357,317.304 864.098,317.787 862.818,318.292C862.695,318.332 862.564,318.392 862.464,318.441C862.312,318.464 862.213,318.524 862.093,318.572C831.075,330.786 803.737,349.921 780.984,373.631C780.884,373.731 780.824,373.842 780.712,373.914L780.481,374.177C746.31,409.998 722.5,456.18 712.203,504.829C711.023,510.422 715.507,514.803 720.335,514.803C720.426,514.803 720.546,514.803 720.666,514.783C722.42,514.715 724.174,514.058 725.745,512.667C767.13,475.526 809.33,439.21 861.304,417.796C870.082,414.188 878.959,410.552 887.908,407.016C888.088,406.945 888.271,406.865 888.442,406.794C888.622,406.713 888.805,406.642 888.997,406.582C899.525,402.409 910.168,398.318 920.919,394.5C921.008,394.46 921.099,394.428 921.21,394.408C921.35,394.348 921.482,394.308 921.605,394.257C943.218,386.579 965.164,379.909 987.243,375.445C966.395,384.131 945.595,393.049 925.221,402.592C925.089,402.663 924.969,402.723 924.838,402.783C924.738,402.823 924.658,402.863 924.555,402.903C917.986,406.008 911.456,409.161 904.978,412.406C904.835,412.486 904.695,412.538 904.564,412.609C904.404,412.689 904.272,412.757 904.129,412.829C890.687,419.59 877.448,426.705 864.529,434.343C835.046,451.787 807.254,471.918 782.263,496.406C738.533,539.271 703.497,594.964 691.908,655.636C690.749,661.711 694.236,667.818 700.432,669.258" style="fill:white;fill-rule:nonzero;"/>
                                            </g>
                                            <g transform="matrix(0.0704205,0,0,0.0704205,283.906,-5.47068)">
                                                <path d="M1094.02,936.215C1052.32,771.244 904.541,656.027 734.619,656.027L734.619,680.997L734.619,656.027L734.599,656.027C704.016,656.027 673.342,659.877 643.456,667.432C523.544,697.724 432.141,783.617 389.618,890.63C412.349,909 436.474,926.292 461.041,943.079C463.469,939.542 464.557,937.154 464.346,935.824C464.123,934.333 465.606,930.179 467.842,926.683C468.276,925.989 468.759,925.323 469.253,924.709C469.302,924.638 469.353,924.578 469.424,924.487C469.927,923.841 470.481,923.258 471.056,922.764C474.966,919.38 478.865,919.257 477.091,924.275C475.349,929.314 479.67,931.068 483.178,923.41C486.685,915.761 507.1,896.846 499.562,902.247C492.015,907.648 484.609,911.045 486.028,908.062C487.451,905.081 493.769,897.38 489.636,898.208C485.474,899.014 480.498,903.335 477.434,904.101C474.36,904.898 476.891,897.714 481.738,892.767C486.574,887.84 496.934,882.367 503.472,879.848C510.002,877.32 511.796,874.92 509.73,881.339C507.645,887.728 516.42,893.178 522.215,888.634C528.04,884.141 539.568,874.669 532.241,874.103C524.915,873.561 514.92,876.1 518.325,871.524C521.741,866.94 525.409,854 520.279,858.576C515.12,863.152 508.734,861.933 510.556,856.237C512.361,850.536 518.699,836.054 509.631,841.395C500.539,846.745 498.605,848.539 496.046,847.008C496.006,846.997 496.006,846.977 495.986,846.937C493.769,845.266 504.892,835.823 499.533,837.616C494.132,839.422 491.19,834.694 486.06,841.013C480.91,847.351 476.405,847.602 472.135,852.178C467.842,856.751 465.988,863.129 467.017,865.469C468.042,867.845 466.925,868.562 461.978,873.952C457.039,879.345 450.167,885.683 451.355,890.399C452.555,895.115 441.692,905.503 442.852,900.625C444,895.737 447.054,887.988 442.609,890.216C438.176,892.413 431.164,890.479 435.98,882.055C440.815,873.641 450.338,863.152 454.974,858.274C459.619,853.386 469.082,841.83 466.391,847.502C463.689,853.215 467.79,851.321 472.375,846.203C476.96,841.124 478.071,836.054 473.766,838.887C469.484,841.718 473.052,837.759 476.014,833.969C478.956,830.15 486.303,824.789 484.577,828.296C482.867,831.784 483.086,837.839 485.98,832.961C488.862,828.085 489.636,823.309 491.23,827.057C492.812,830.804 501.478,835.814 505.497,831.955C509.528,828.105 500.721,824.215 508.802,824.357C509.93,824.357 510.819,824.337 511.573,824.286C511.927,824.266 512.178,824.194 512.47,824.154C512.924,824.083 513.327,824.003 513.641,823.892C513.812,823.832 513.992,823.772 514.144,823.7C514.295,823.62 514.406,823.509 514.515,823.44C514.618,823.349 514.729,823.278 514.809,823.178C514.9,823.078 514.98,822.955 515.04,822.824C515.092,822.724 515.132,822.632 515.18,822.524C515.22,822.381 515.292,822.221 515.312,822.069C515.332,821.989 515.352,821.907 515.383,821.818C515.454,821.484 515.523,821.113 515.614,820.71C515.635,820.647 515.654,820.578 515.666,820.527C515.746,820.164 515.866,819.833 516.049,819.47C516.22,819.087 516.269,818.773 516.22,818.49C515.877,816.688 511.081,817.071 513.147,814.077C515.555,810.641 518.505,807.711 522.647,808.627C523.415,808.787 524.189,808.716 524.975,808.525C524.955,808.536 524.935,808.567 524.915,808.576C525.117,808.536 525.317,808.436 525.529,808.376C525.692,808.325 525.852,808.285 526.014,808.233C526.466,808.053 526.911,807.831 527.343,807.568C527.434,807.519 527.526,807.436 527.637,807.368C527.948,807.156 528.251,806.945 528.534,806.702C528.685,806.591 528.794,806.471 528.925,806.328C529.148,806.137 529.348,805.937 529.519,805.725C529.631,805.582 529.731,805.462 529.833,805.331C530.013,805.068 530.145,804.837 530.245,804.597C530.296,804.506 530.368,804.386 530.387,804.303C530.499,804.011 530.527,803.74 530.508,803.489C530.499,803.377 530.447,803.306 530.408,803.194C530.368,803.115 530.368,802.983 530.336,802.912C530.296,802.923 530.296,802.943 530.276,802.963C530.196,802.852 530.165,802.7 530.053,802.612C527.888,800.978 523.03,800.667 518.397,800.313C513.741,799.961 515.654,793.803 510.596,797.905C505.557,802.026 496.974,805.937 498.916,809.381C500.893,812.809 507.423,811.167 503.755,814.711C500.087,818.259 498.485,815.388 495.651,819.599C492.801,823.832 488.568,825.98 490.473,822.432C492.409,818.885 490.967,816.628 486.131,821.564C481.284,826.502 477.302,826.2 479.299,823.732C481.284,821.273 481.527,818.813 471.135,828.408C460.738,838.019 453.572,842.444 443.889,849.707C443.889,849.707 440.584,849.256 434.449,854.646C479.542,776.291 554.995,715.53 649.563,691.617C678.009,684.453 706.536,680.997 734.599,680.997C798.856,680.986 860.607,699.227 913.83,731.56C901.324,732.166 889.928,732.66 884.035,730.946C872.324,727.561 874.229,734.685 866.38,738.595C858.511,742.463 852.998,735.611 849.099,727.733C845.229,719.812 833.783,722.088 816.985,720.618C802.312,719.329 796.045,718.855 791.943,726.19C791.935,726.199 791.935,726.222 791.935,726.222C791.895,726.302 791.823,726.433 791.772,726.502C791.258,727.51 790.744,728.61 790.273,729.889C786.139,741.084 777.979,741.243 771.903,744.691C765.836,748.127 759.458,755.462 765.271,758.404C771.066,761.398 776.436,765.125 782.806,760.329C789.173,755.534 792.76,759.724 798.856,761.346C804.954,762.98 807.633,766.102 808.51,759.553C809.376,752.974 812.923,752.097 806.534,749.256C800.147,746.445 797.165,744.651 806.354,741.052C815.562,737.467 811.664,732.114 817.771,733.737C823.866,735.359 815.865,741.195 821.984,745.385C828.079,749.538 848.716,743.674 844.412,749.195C840.13,754.708 827.202,753.557 829.921,761.76C832.612,769.952 832.461,769.347 821.469,770.869C810.484,772.372 793.869,779.101 790.724,774.186C787.59,769.278 780.738,764.651 782.552,771.838C784.377,778.981 779.147,778.387 773.394,783.012C767.599,787.656 765.574,802.118 754.428,805.563C743.294,808.999 729.509,814.411 738.73,815.883C747.918,817.362 748.09,817.948 750.198,826.3C752.303,834.643 751.698,834.814 741.492,836.751C731.243,838.716 716.37,839.924 719.384,849.316C722.386,858.708 721.257,876.774 732.391,875.849C743.557,874.929 764.92,869.531 764.434,860.147C763.951,850.756 767.076,848.045 771.358,842.535C775.651,836.991 769.533,832.841 777.856,830.736C786.179,828.627 796.125,825.506 800.278,821.898C804.42,818.31 804.429,823.398 813.789,828.005C823.181,832.609 834.035,835.583 836.583,843.178C839.153,850.776 844.623,844.943 844.303,838.685C843.989,832.426 846.64,827.934 835.183,827.671C823.755,827.388 807.059,816.365 813.9,813.403C820.724,810.39 848.393,817.354 851.678,822.864C854.943,828.388 860.193,839.119 864.495,836.125C868.799,833.143 868.114,850.413 874.349,847.594C880.567,844.752 866.711,832.386 872.961,829.545C879.176,826.714 891.944,824.749 888.811,819.821C885.666,814.914 891.159,802.098 890.705,800.313C890.25,798.53 900.873,799.638 896.923,804.454C892.961,809.261 900.942,807.89 904.8,805.634C908.651,803.397 900.63,799.093 906.977,796.828C907.794,796.574 908.52,796.354 909.245,796.182C909.619,796.102 909.951,796.051 910.333,795.991C914.918,795.234 917.891,796.808 916.811,800.707C916.551,801.704 916.46,802.549 916.551,803.266L916.551,803.617C916.632,803.912 916.763,804.151 916.895,804.386C916.943,804.466 916.983,804.586 917.046,804.677C917.206,804.897 917.457,805.068 917.7,805.26C917.811,805.331 917.871,805.431 917.963,805.483C918.262,805.642 918.617,805.785 918.959,805.897C919.131,805.957 919.222,806.028 919.402,806.077C919.382,806.077 919.382,806.057 919.382,806.057C921.176,806.591 923.898,806.794 927.837,806.794C937.934,806.782 945.712,820.053 935.012,820.204C932.824,820.236 930.619,819.961 928.411,819.559C926.135,819.127 923.875,818.582 921.65,818.079C920.933,817.948 920.208,817.796 919.502,817.665C919.262,817.605 919.02,817.574 918.788,817.534C918.003,817.393 917.237,817.274 916.472,817.191L915.766,817.142C914.938,817.059 914.112,817.019 913.295,817.051C913.136,817.059 912.984,817.071 912.833,817.102C912.096,817.142 911.37,817.231 910.688,817.393C910.525,817.414 910.365,817.422 910.233,817.465C909.468,817.665 908.691,817.948 907.977,818.31C907.814,818.402 907.643,818.47 907.491,818.582C906.737,818.996 906,819.479 905.306,820.113C897.485,827.157 882.281,826.554 888.991,833.103C895.703,839.653 905.397,847.996 910.585,843.512C915.766,839.016 920.248,846.785 924.401,843.201C928.543,839.602 929.419,835.583 932.282,846.917C935.144,858.254 937.409,867.162 930.276,868.985C923.15,870.77 907.129,874.829 902.807,872.764C898.505,870.667 873.806,865.489 876.214,872.501C878.622,879.505 870.884,881.45 861.976,881.167C853.058,880.876 828.533,878.839 826.728,869.136C824.906,859.453 818.042,852.298 809.307,857.688C800.55,863.069 786.876,858.919 779.016,865.337C771.155,871.756 759.901,879.688 753.511,879.385C747.124,879.113 745.036,875.837 741.492,881.813C737.944,887.768 724.048,905.241 726.879,911.499C729.741,917.766 729.581,919.711 718.747,926.875C707.935,934.058 706.182,942.11 703.834,955.392C701.517,968.663 696.187,972.553 701.86,980C707.544,987.435 709.195,991.485 706.696,1001.63C704.188,1011.78 704.359,1014.91 708.238,1017.73C712.108,1020.57 714.919,1019.22 712.58,1024.88C710.212,1030.53 714.525,1032.62 723.917,1037.24C733.28,1041.85 732.714,1049.61 740.483,1057.79C748.241,1065.99 751.78,1060.03 761.149,1064.62C770.532,1069.24 773.223,1072.36 780.164,1064.91C787.127,1057.44 791.421,1056.96 796.782,1058.17C802.141,1059.35 805.548,1057.85 809.698,1051.73C813.832,1045.61 832.372,1036.49 838.91,1039.91C845.46,1043.32 843.706,1051.38 848.756,1048.84C853.804,1046.3 862.995,1042.69 867.488,1047.91C871.953,1053.13 872.264,1056.87 871.096,1064.76C870.582,1068.3 869.705,1071.81 869.422,1074.81C869.393,1075.15 869.342,1075.51 869.322,1075.86L869.322,1075.9L869.322,1075.88C869.191,1079.07 870.007,1081.54 873.089,1082.66C879.328,1084.88 889.616,1088 891.419,1097.7C893.255,1107.39 894.584,1110.23 898.756,1111.72C902.918,1113.19 906.192,1113.64 905.929,1122.59C905.669,1131.53 895.632,1149.3 901.153,1161.21C906.706,1173.15 915.029,1176.12 916.551,1184.61C918.071,1193.12 921.076,1205.04 929.105,1206.81C937.137,1208.6 941.61,1213.82 940.454,1224.24C939.302,1234.69 940.179,1233.2 950.428,1228.7C960.657,1224.22 969.562,1221.97 972.95,1212.87C976.335,1203.76 993.496,1181.66 993.627,1177.19C993.759,1172.71 993.747,1167.64 997.889,1164.06C1002.04,1160.48 1006.9,1152.27 1004.8,1146.43C1002.71,1140.65 1003.55,1126.47 1010.07,1119.73C1016.58,1113.01 1020.54,1098.7 1015.44,1083.49C1010.32,1068.28 1007.56,1042.34 1010.36,1035.93C1013.17,1029.51 1030.63,1006.08 1029.65,984.736C1028.69,963.381 1030.44,952.802 1024.81,958.043C1019.18,963.273 1003.92,972.833 1002.84,966.144C1001.79,959.431 1004.87,954.193 990.474,952.128C976.044,950.062 980.608,935.592 973.313,931.722C965.998,927.843 969.714,925.032 967.015,919.348C964.396,913.827 962.287,908.163 954.298,904.575C954.115,904.484 953.944,904.384 953.753,904.304C945.238,900.736 943.587,889.119 934.487,880.604C925.409,872.13 944.887,879.274 945.955,883.444C946.015,883.718 946.106,884.029 946.258,884.361C946.298,884.472 946.366,884.595 946.429,884.703C946.518,884.958 946.649,885.209 946.82,885.532C946.872,885.62 946.932,885.743 947.003,885.863C947.175,886.186 947.346,886.489 947.566,886.871C947.626,886.943 947.689,887.051 947.737,887.143C947.98,887.537 948.243,887.94 948.534,888.351C948.543,888.422 948.586,888.502 948.626,888.545C948.957,889.008 949.3,889.502 949.642,890.005C949.654,890.025 949.674,890.036 949.683,890.056C953.553,895.458 959.508,902.016 963.861,904.304C970.391,907.72 970.24,907.094 972.496,913.532C974.753,919.934 978.926,923.952 986.804,930.199C994.724,936.458 995.904,936.166 997.869,943.924C999.814,951.673 1007.86,958.514 1013.51,953.264C1019.12,948.057 1026.22,938.645 1026.5,932.224C1026.76,925.818 1031.98,928.94 1031.21,920.89C1030.44,912.85 1037.7,906.571 1032.49,903.447C1027.27,900.322 1017.57,884.361 1015.94,887.948C1014.31,891.527 1011.96,897.209 1008.54,893.612C1005.11,890.056 1005.7,889.913 1001.23,889.782C996.789,889.622 1001.83,884.555 995.118,880.533C988.426,876.511 988.254,873.389 989.263,869.953C990.311,866.517 995.641,865.166 997.315,871.736C998.966,878.277 1006.72,886.469 1013.4,882.89C1020.07,879.313 1019.2,888.394 1026.79,888.382C1034.38,888.374 1041.2,885.389 1044.63,891.496C1048.07,897.603 1046.94,913.11 1055.26,913.553C1060.58,913.827 1065.31,929.223 1070.63,945.929C1096.73,1053.96 1068.93,1162.6 1004.37,1243.37C1009.21,1242.78 1014.08,1242.16 1018.92,1241.57C1025.42,1240.77 1031.93,1239.93 1038.43,1239.12C1097.76,1153.91 1121.39,1044.53 1094.02,936.215ZM978.603,835.209C971.479,834.494 966.712,833.143 965.19,824.657C963.679,816.143 954.601,812.738 946.709,806.48C938.831,800.224 950.579,796.414 957.38,798.702C967.043,801.986 960.968,807.95 967.518,811.367C974.078,814.803 980.92,816.868 976.032,820.004C971.145,823.158 975.881,824.486 981.848,828.045C987.792,831.632 985.747,835.954 978.603,835.209" style="fill:white;fill-rule:nonzero;"/>
                                            </g>
                                            <g transform="matrix(0.0704205,0,0,0.0704205,283.906,16.6708)">
                                                <path d="M3653.85,1097.9L3540.62,1097.9L3540.62,586.932L3423.63,586.932L3423.63,487.074L3770.83,487.074L3770.83,586.932L3653.85,586.932L3653.85,1097.9Z" style="fill:white;fill-rule:nonzero;"/>
                                            </g>
                                            <g transform="matrix(0.0704205,0,0,0.0704205,283.906,16.2898)">
                                                <path d="M1698.21,675.539C1698.21,636.07 1692.4,608.217 1680.77,591.985C1669.13,575.749 1652.24,567.64 1630.07,567.64C1613.28,567.64 1598.56,573.201 1585.85,584.307C1573.13,595.381 1566.8,609.346 1566.8,626.124C1566.8,653.231 1580.58,676.507 1608.16,696.013C1652.5,725.791 1696.86,755.588 1741.2,785.374C1789.89,824.369 1816.37,864.455 1820.7,905.618L1820.7,938.931C1820.7,996.355 1804.02,1040.75 1770.63,1072.15C1740.99,1099.8 1703.58,1113.61 1658.35,1113.61L1639.79,1113.61C1581.07,1113.61 1536.38,1101.39 1505.7,1076.98C1467.48,1046.57 1448.35,996.095 1448.35,925.549C1448.86,919.048 1449.56,912.65 1450.37,906.423C1451.19,900.185 1451.59,892.718 1451.59,884.024L1565.16,884.024L1562.73,920.953C1562.73,955.435 1569.63,981.402 1583.41,998.926C1597.21,1016.43 1614.93,1025.2 1636.57,1025.2C1644.12,1024.12 1650.09,1023.16 1654.41,1022.33C1658.73,1021.53 1664.54,1020.18 1671.85,1018.28C1679.14,1016.36 1686.44,1009.19 1693.74,996.709C1701.05,984.256 1704.7,969.846 1704.7,953.581C1704.7,936.775 1700.64,921.033 1692.54,906.383C1684.42,891.753 1670.08,877.363 1649.53,863.255C1572.72,811.178 1528.66,780.024 1517.29,769.704C1473.49,728.461 1451.59,680.749 1451.59,626.487C1451.59,578.754 1465.64,541.864 1493.79,515.854C1521.89,489.799 1561.66,476.78 1613.02,476.78C1675.22,476.78 1722.26,490.31 1754.18,517.326C1788.79,547.092 1806.11,593.333 1806.11,656.07L1806.11,675.539L1698.21,675.539Z" style="fill:white;fill-rule:nonzero;"/>
                                            </g>
                                            <g transform="matrix(0.0704205,0,0,0.0704205,283.906,16.7331)">
                                                <path d="M1906.36,487.014L2088.52,487.014L2156.78,807.531L2172.08,914.441L2182.05,807.439L2249.92,487.014L2431.25,487.014L2431.25,1097.08L2316.84,1097.08L2316.84,751.483L2326.58,542.193L2203.27,1097.08L2135.14,1097.08L2012.64,542.193L2020.74,770.941L2020.74,1097.08L1906.36,1097.08L1906.36,487.014Z" style="fill:white;fill-rule:nonzero;"/>
                                            </g>
                                            <g transform="matrix(0.0704205,0,0,0.0704205,283.906,16.7327)">
                                                <path d="M2767.11,852.895L2730.62,648.463L2720.87,555.172L2710.34,648.463L2668.97,852.895L2767.11,852.895ZM2645.43,487.017L2800.41,487.017L2936.67,1097.08L2814.18,1097.08L2785.8,943.767L2652.74,943.767L2621.11,1097.08L2501.05,1097.08L2645.43,487.017Z" style="fill:white;fill-rule:nonzero;"/>
                                            </g>
                                            <g transform="matrix(0.0704205,0,0,0.0704205,283.906,16.7967)">
                                                <path d="M3115.78,758.544L3161.35,758.544C3195.76,758.544 3221.42,751.289 3238.33,736.779C3255.27,722.277 3263.72,700.795 3263.72,672.348C3263.72,644.476 3255.27,622.288 3238.33,605.832C3221.42,589.377 3196.46,581.145 3163.44,581.145L3115.78,581.145L3115.78,758.544ZM3115.78,852.678L3115.78,1096.18L2993.26,1096.18L2993.26,487.011L3163.44,487.011C3233.1,487.011 3287.57,502.841 3326.85,534.501C3366.17,566.172 3385.84,610.308 3385.84,666.907C3385.84,698.435 3377.56,725.482 3361.06,748.073C3344.57,770.675 3320.37,788.953 3288.48,802.869C3324.55,813.5 3350.5,831.204 3366.31,856.034C3382.12,880.862 3390.03,911.536 3390.03,948.063L3390.03,992.833C3390.03,1009.85 3392.33,1027.65 3396.93,1046.19C3401.55,1064.74 3409.45,1078.47 3420.64,1087.41L3420.64,1096.18L3294.35,1096.18C3283.16,1087.27 3275.91,1072.34 3272.54,1051.43C3269.18,1030.49 3267.51,1010.7 3267.51,991.996L3267.51,948.908C3267.51,918.508 3259.17,894.878 3242.53,877.991C3225.89,861.121 3202.48,852.678 3172.25,852.678L3115.78,852.678Z" style="fill:white;fill-rule:nonzero;"/>
                                            </g>
                                            <g transform="matrix(0.0704205,0,0,0.0704205,283.906,16.7816)">
                                                <path d="M3884.67,487.077L4265.94,487.077L4265.94,548.717L4109.37,548.717L4109.37,1096.33L4041.23,1096.33L4041.23,548.717L3884.67,548.717L3884.67,487.077Z" style="fill:white;fill-rule:nonzero;"/>
                                            </g>
                                            <g transform="matrix(0.0704205,0,0,0.0704205,283.906,16.0653)">
                                                <path d="M4428.83,599.437C4407.16,640.197 4396.32,700.446 4396.32,780.141C4396.32,872.441 4406.19,941.085 4425.96,986.046C4445.71,1031 4477.61,1053.49 4521.58,1053.49C4605.09,1053.49 4646.87,967.463 4646.87,795.437C4646.87,624.024 4605.09,538.314 4521.58,538.314C4481.43,538.314 4450.49,558.708 4428.83,599.437ZM4669.81,1033.74C4635.39,1086.99 4585.96,1113.61 4521.58,1113.61C4457.19,1113.61 4407.78,1086.99 4373.37,1033.74C4338.94,980.474 4321.74,901.513 4321.74,796.788C4321.74,692.091 4338.94,613.122 4373.37,559.856C4407.78,506.611 4457.19,479.97 4521.58,479.97C4585.96,479.97 4635.39,506.611 4669.81,559.856C4704.24,613.122 4721.45,692.091 4721.45,796.788C4721.45,901.513 4704.24,980.474 4669.81,1033.74" style="fill:white;fill-rule:nonzero;"/>
                                            </g>
                                            <g transform="matrix(0.0704205,0,0,0.0704205,283.906,16.0367)">
                                                <path d="M4878.6,772.246L4991.34,772.246C5024.87,772.246 5050.55,763.572 5068.42,746.179C5089.51,725.562 5100.06,693.257 5100.06,649.283C5100.06,614.036 5090.32,589.046 5070.84,574.393C5051.37,559.751 5019.46,552.407 4975.12,552.407L4878.6,552.407L4878.6,772.246ZM4810.43,1101.62L4810.43,492.361L4986.45,492.361C5039.48,492.361 5080.86,501.581 5110.57,520.031C5151.15,544.981 5171.44,586.989 5171.44,646.079C5171.44,694.971 5165.13,744.465 5142.84,772.832C5117.7,804.814 5094.76,843.852 4984.86,838.077L4878.6,838.077L4878.6,1101.62L4810.43,1101.62Z" style="fill:white;fill-rule:nonzero;"/>
                                            </g>
                                            <g transform="matrix(0.0704205,0,0,0.0704205,283.906,82.1801)">
                                                <path d="M4606.13,257.518L4606.13,350.09C4606.13,361.024 4602.96,369.176 4596.42,374.988C4589.93,380.804 4581.32,383.757 4570.85,383.757C4560.57,383.757 4552.18,380.804 4545.87,374.968C4539.51,369.136 4536.42,361.004 4536.42,350.09L4536.42,257.518L4521.34,257.518L4521.34,350.181C4521.34,365.205 4525.99,376.933 4535.15,385.065C4544.27,393.118 4556.29,397.199 4570.85,397.199C4585.63,397.199 4597.81,393.138 4607.05,385.137C4616.37,377.056 4621.1,365.297 4621.1,350.181L4621.1,257.518L4606.13,257.518Z" style="fill:white;fill-rule:nonzero;stroke:white;stroke-width:6px;"/>
                                            </g>
                                            <g transform="matrix(0.0704205,0,0,0.0704205,283.906,82.1797)">
                                                <path d="M3410.18,260.977L3487.66,260.977L3487.66,271.385L3425.01,271.385L3425.01,319.229L3481.97,319.229L3481.97,329.306L3425.01,329.306L3425.01,383.337L3488.58,383.337L3488.58,393.746L3410.18,393.746L3410.18,260.977Z" style="fill:white;fill-rule:nonzero;stroke:white;stroke-width:6px;"/>
                                            </g>
                                            <g transform="matrix(0.0704205,0,0,0.0704205,283.906,82.1799)">
                                                <path d="M3522.64,261.131L3540.86,261.131L3604.23,375.025L3604.67,261.131L3619.25,261.131L3619.25,393.568L3601.39,393.589L3537.91,279.903L3537.44,393.568L3522.64,393.568L3522.64,261.131Z" style="fill:white;fill-rule:nonzero;stroke:white;stroke-width:6px;"/>
                                            </g>
                                            <g transform="matrix(0.0704205,0,0,0.0704205,283.906,82.1811)">
                                                <path d="M3933.47,327.516L3985.42,327.516L3985.42,393.366L3973.56,393.366L3972.2,379.612C3967.18,386.202 3961.03,390.846 3953.74,393.569C3948.42,395.554 3942.26,396.582 3935.28,396.582C3916.14,396.582 3902.68,389.256 3894.95,374.674C3888.87,363.257 3885.81,346.47 3885.81,324.354C3885.81,303.857 3888.63,288.509 3894.26,278.252C3901.7,264.85 3914.77,258.121 3933.47,258.121C3947.14,258.121 3957.22,259.832 3963.76,263.259C3974.85,269.023 3981.54,280.317 3983.83,297.127L3969.46,297.127C3967.66,286.444 3963.38,278.726 3956.71,273.999C3951.53,270.383 3945.07,268.549 3937.34,268.549C3933.84,268.549 3930.33,268.912 3926.86,269.637C3925.79,269.849 3924.44,270.212 3922.76,270.674C3914.24,272.902 3908.23,279.815 3904.75,291.323C3902.18,299.806 3900.86,310.589 3900.86,323.637L3900.86,338.813C3900.86,357.293 3905.38,370.504 3914.39,378.373C3920.36,383.563 3927.54,386.142 3935.96,386.142C3947.42,386.142 3956.04,382.192 3961.79,374.323C3967.51,366.422 3970.37,354.3 3970.37,337.947L3933.47,337.947L3933.47,327.516Z" style="fill:white;fill-rule:nonzero;stroke:white;stroke-width:6px;"/>
                                            </g>
                                            <g transform="matrix(0.0704205,0,0,0.0704205,283.906,82.1797)">
                                                <path d="M4004.54,261.174L4021.07,261.134L4057.04,323.971L4094.26,261.154L4109.82,261.174L4064.03,337.453L4064.03,393.589L4049.43,393.589L4049.43,337.453L4004.54,261.174Z" style="fill:white;fill-rule:nonzero;stroke:white;stroke-width:6px;"/>
                                            </g>
                                            <g transform="matrix(0.0704205,0,0,0.0704205,283.906,82.1797)">
                                                <path d="M3663.38,260.977L3740.86,260.977L3740.86,271.385L3678.2,271.385L3678.2,319.229L3735.16,319.229L3735.16,329.306L3678.2,329.306L3678.2,383.337L3741.77,383.337L3741.77,393.746L3663.38,393.746L3663.38,260.977Z" style="fill:white;fill-rule:nonzero;stroke:white;stroke-width:6px;"/>
                                            </g>
                                            <g transform="matrix(0.0704205,0,0,0.0704205,283.906,82.1794)">
                                                <path d="M3786.49,321.974L3811.06,321.974C3818.36,321.974 3823.96,320.089 3827.84,316.29C3832.45,311.794 3834.75,304.753 3834.75,295.19C3834.75,287.489 3832.62,282.059 3828.38,278.855C3824.14,275.661 3817.18,274.067 3807.52,274.067L3786.49,274.067L3786.49,321.974ZM3771.63,393.748L3771.63,260.98L3810,260.98C3821.54,260.98 3830.56,262.985 3837.04,267.006C3845.89,272.456 3850.31,281.605 3850.31,294.473C3850.31,305.124 3847.64,313.336 3842.34,319.12C3837.87,324.079 3832.04,326.99 3824.85,327.798C3828.26,328.289 3831.04,328.744 3833.15,329.218C3840.58,330.991 3845.18,335.827 3846.94,343.716C3847.06,344.545 3848.18,353.976 3850.31,372.003C3851.72,384.377 3853.78,390.563 3856.49,390.563L3856.49,393.748L3839.34,393.748C3837.22,387.721 3835.69,376.447 3834.75,359.901C3833.8,343.325 3825.43,335.062 3809.64,335.062L3786.49,335.062L3786.49,393.748L3771.63,393.748Z" style="fill:white;fill-rule:nonzero;stroke:white;stroke-width:6px;"/>
                                            </g>
                                            <g transform="matrix(0.0704205,0,0,0.0704205,283.906,82.1797)">
                                                <rect x="4768.86" y="260.977" width="14.83" height="132.769" style="fill:white;stroke:white;stroke-width:6px;"/>
                                            </g>
                                            <g transform="matrix(0.0704205,0,0,0.0704205,283.906,82.1799)">
                                                <path d="M4949.91,261.131L4968.14,261.131L5031.5,375.025L5031.95,261.131L5046.52,261.131L5046.52,393.568L5028.66,393.589L4965.18,279.903L4964.71,393.568L4949.91,393.568L4949.91,261.131Z" style="fill:white;fill-rule:nonzero;stroke:white;stroke-width:6px;"/>
                                            </g>
                                            <g transform="matrix(0.0704205,0,0,0.0704205,283.906,82.1799)">
                                                <path d="M4640.09,261.143L4732.62,261.143L4732.62,271.217L4693.88,271.217L4693.88,393.577L4678.59,393.577L4678.59,271.217L4640.09,271.217L4640.09,261.143Z" style="fill:white;fill-rule:nonzero;stroke:white;stroke-width:6px;"/>
                                            </g>
                                            <g transform="matrix(0.0704205,0,0,0.0704205,283.906,82.1796)">
                                                <path d="M4316.91,329.655C4316.91,347.521 4319.04,360.732 4323.31,369.338C4328.92,380.703 4338.79,386.436 4352.92,386.436C4365.83,386.436 4375.1,381.298 4380.72,371.08C4385.45,362.383 4387.8,349.044 4387.8,331.057L4387.8,327.55C4387.8,306.156 4385.03,290.92 4379.48,281.894C4373.92,272.834 4364.62,268.309 4351.55,268.309C4338.49,268.309 4329.23,273.942 4323.75,285.219C4319.19,294.739 4316.91,309.563 4316.91,329.655ZM4352.46,257.881C4371.46,257.881 4384.82,264.056 4392.57,276.401C4399.42,287.324 4402.82,305.19 4402.82,330.009C4402.82,352.7 4399.47,369.095 4392.8,379.192C4385.05,390.961 4371.46,396.845 4352,396.845C4336.82,396.845 4325.19,392.714 4317.14,384.482C4310.6,377.79 4306.27,368.39 4304.15,356.288C4302.94,349.475 4302.34,339.529 4302.34,326.49C4302.34,314.248 4303.16,304.262 4304.83,296.493C4307.25,284.864 4311.75,275.927 4318.28,269.689C4326.49,261.819 4337.89,257.881 4352.46,257.881Z" style="fill:white;fill-rule:nonzero;stroke:white;stroke-width:6px;"/>
                                            </g>
                                            <g transform="matrix(0.0704205,0,0,0.0704205,283.906,82.1791)">
                                                <path d="M4433.52,393.583L4433.52,261.148L4448.35,261.148L4448.35,383.174L4511.92,383.174L4511.92,393.583L4433.52,393.583Z" style="fill:white;fill-rule:nonzero;stroke:white;stroke-width:6px;"/>
                                            </g>
                                            <g transform="matrix(0.0704205,0,0,0.0704205,283.906,82.1796)">
                                                <path d="M4838.21,329.655C4838.21,347.521 4840.34,360.732 4844.59,369.338C4850.2,380.703 4860.09,386.436 4874.22,386.436C4887.12,386.436 4896.37,381.298 4902.01,371.08C4906.73,362.383 4909.08,349.044 4909.08,331.057L4909.08,327.55C4909.08,306.156 4906.32,290.92 4900.77,281.894C4895.2,272.834 4885.9,268.309 4872.84,268.309C4859.78,268.309 4850.52,273.942 4845.04,285.219C4840.49,294.739 4838.21,309.563 4838.21,329.655ZM4873.75,257.881C4892.75,257.881 4906.11,264.056 4913.87,276.401C4920.72,287.324 4924.11,305.19 4924.11,330.009C4924.11,352.7 4920.77,369.095 4914.1,379.192C4906.34,390.961 4892.75,396.845 4873.3,396.845C4858.1,396.845 4846.47,392.714 4838.42,384.482C4831.89,377.79 4827.57,368.39 4825.43,356.288C4824.23,349.475 4823.63,339.529 4823.63,326.49C4823.63,314.248 4824.45,304.262 4826.12,296.493C4828.55,284.864 4833.04,275.927 4839.57,269.689C4847.77,261.819 4859.17,257.881 4873.75,257.881Z" style="fill:white;fill-rule:nonzero;stroke:white;stroke-width:6px;"/>
                                            </g>
                                            <g transform="matrix(0.0704205,0,0,0.0704205,283.906,82.1794)">
                                                <path d="M4271.5,335.188C4263.79,328.801 4252.47,323.671 4237.84,319.943C4224.52,316.576 4215.07,312.697 4209.76,308.395C4204.65,304.242 4202.18,299.226 4202.18,293.059C4202.18,286.53 4204.89,281.197 4210.46,276.764C4216.08,272.291 4224.11,270.023 4234.34,270.023C4244.6,270.023 4252.81,272.753 4258.73,278.123C4264.61,283.425 4267.59,290.328 4267.59,298.64L4267.59,300.657L4280.91,300.657L4281.77,299.063L4282.01,298.158C4282.27,286.578 4277.91,276.624 4269.02,268.583C4260.24,260.622 4248.59,256.581 4234.34,256.581C4220.7,256.581 4209.37,259.957 4200.63,266.618C4191.72,273.408 4187.2,282.368 4187.2,293.231C4187.2,303.83 4191.27,312.354 4199.29,318.572C4206.99,324.607 4218.42,329.546 4233.25,333.262C4246.4,336.69 4255.72,340.669 4260.95,345.062C4265.97,349.326 4268.41,354.656 4268.41,361.357C4268.41,368.361 4265.49,373.842 4259.48,378.116C4253.34,382.489 4245.09,384.705 4234.96,384.705C4224.9,384.705 4216.02,382.297 4208.59,377.53C4201.37,372.874 4197.85,365.89 4197.85,356.179L4197.85,354.162L4184.31,354.162L4183.84,355.513L4183.53,356.661C4183.21,370.183 4188.37,380.635 4198.88,387.738C4209.15,394.639 4221.29,398.147 4234.96,398.147C4248.89,398.147 4260.52,394.842 4269.55,388.321C4278.8,381.66 4283.48,372.591 4283.48,361.357C4283.48,350.575 4279.45,341.768 4271.5,335.188Z" style="fill:white;fill-rule:nonzero;stroke:white;stroke-width:6px;"/>
                                            </g>
                                            <g transform="matrix(0.0704205,0,0,0.0704205,283.906,82.1794)">
                                                <path d="M5161.48,335.199C5153.75,328.801 5142.42,323.671 5127.81,319.952C5114.5,316.587 5105.05,312.708 5099.74,308.404C5094.63,304.253 5092.15,299.235 5092.15,293.059C5092.15,286.538 5094.86,281.208 5100.43,276.764C5106.06,272.291 5114.09,270.023 5124.31,270.023C5134.56,270.023 5142.77,272.753 5148.7,278.123C5154.59,283.436 5157.57,290.349 5157.57,298.652L5157.57,300.665L5170.89,300.665L5171.75,299.075L5171.99,298.166C5172.25,286.578 5167.88,276.624 5159,268.583C5150.21,260.622 5138.54,256.581 5124.31,256.581C5110.7,256.581 5099.36,259.957 5090.61,266.618C5081.69,273.419 5077.18,282.376 5077.18,293.239C5077.18,303.839 5081.25,312.365 5089.27,318.581C5096.97,324.619 5108.39,329.555 5123.23,333.274C5136.4,336.71 5145.72,340.68 5150.93,345.073C5155.94,349.335 5158.38,354.656 5158.38,361.357C5158.38,368.37 5155.46,373.851 5149.45,378.116C5143.32,382.489 5135.07,384.705 5124.94,384.705C5114.85,384.705 5105.98,382.297 5098.57,377.53C5091.34,372.885 5087.83,365.902 5087.83,356.179L5087.83,354.162L5074.28,354.162L5073.81,355.513L5073.51,356.661C5073.19,370.195 5078.35,380.643 5088.86,387.747C5099.11,394.639 5111.25,398.147 5124.94,398.147C5138.88,398.147 5150.5,394.842 5159.52,388.333C5168.77,381.672 5173.46,372.591 5173.46,361.357C5173.46,350.586 5169.43,341.777 5161.48,335.199Z" style="fill:white;fill-rule:nonzero;stroke:white;stroke-width:6px;"/>
                                            </g>
                                        </g>
                                    </g>
                                </g>
                            </g>
                        </g>
                    </g>
                </g>
            </g>
        </g>
    </g>
</svg>
