<?xml version="1.0" encoding="UTF-8" standalone="no"?>
<!DOCTYPE svg PUBLIC "-//W3C//DTD SVG 1.1//EN" "http://www.w3.org/Graphics/SVG/1.1/DTD/svg11.dtd">
<svg width="100%" height="100%" viewBox="0 0 200 90" version="1.1" xmlns="http://www.w3.org/2000/svg" xmlns:xlink="http://www.w3.org/1999/xlink" xml:space="preserve" xmlns:serif="http://www.serif.com/" style="fill-rule:evenodd;clip-rule:evenodd;stroke-linejoin:round;stroke-miterlimit:2;">
    <g id="G-Project" transform="matrix(1,0,0,1,1.31877e-11,-20)">
        <g transform="matrix(0.538352,0,0,0.538352,-1.88333e-05,35.9092)">
            <path d="M64.22,9.174C48.589,0.238 26.32,-5.738 11.699,8.645C-1.099,21.236 -1.349,43.246 1.423,59.687C4.308,76.784 12.366,96.896 28.818,105.079C47.298,114.272 68.681,100.534 81.267,87.686C90.175,78.595 100.052,67.108 100.855,53.774C101.418,44.458 95.931,36.686 88.535,31.596C71.603,19.946 48.765,20.452 29.879,26.131C21.26,28.724 12.941,33.807 8.994,42.191C4.014,52.764 8.416,65.016 13.767,74.493C18.736,83.294 27.076,94.014 38.486,92.472C47.052,91.314 53.808,86.974 58.974,80.142C64.978,72.198 68.687,62.178 69.845,52.326C70.697,45.08 70.091,35.307 62.904,31.329C55.336,27.142 43.388,32.333 36.533,35.845C23.914,42.307 22.494,64.02 31.439,73.883C36.275,79.215 42.966,77.656 49.019,75.924C55.845,73.97 57.927,66.448 58.224,60.098C58.443,55.391 57.505,45.848 51.435,44.979C45.019,44.059 39.523,50.047 36.533,54.688C37.176,53.69 40.609,54.456 41.281,53.416C42.752,51.134 44.486,48.286 46.853,46.536C46.867,46.526 47.083,46.413 47.238,46.382C47.375,46.356 47.599,46.345 47.625,46.352C51.41,47.42 52.758,53.173 53.26,56.677C54.121,62.704 53.112,69.97 48.856,74.587C48.194,75.305 46.422,76.241 46.422,76.241C46.422,76.241 43.393,76.401 41.82,76.032C38.593,75.272 36.091,72.858 34.3,70.195C30.261,64.188 29.972,55.909 31.398,49.053C32.974,41.481 37.419,36.268 44.33,33.088C45.889,32.37 49.082,31.37 50.457,31.244C52.535,31.054 54.635,31.273 56.615,31.93C64.465,34.532 65.683,44.319 65.291,51.354C64.744,61.266 61.043,71.264 55.582,79.499C53.043,83.329 49.896,86.818 46.082,89.407C45.256,89.967 44.381,90.448 43.488,90.893C43.052,91.11 42.312,91.327 41.851,91.354C40.226,91.448 38.589,91.25 37.007,90.86C25.255,87.977 17.523,73.46 13.816,63.1C10.421,53.614 10.707,43.147 17.427,35.219C20.394,31.719 24.339,29.156 28.452,27.21C29.515,26.707 30.604,26.272 31.702,25.854C32.421,25.582 33.151,25.338 33.884,25.1C35.89,24.447 31.948,25.528 34.04,25.045C36.897,24.387 39.813,23.985 42.731,23.722C53.364,22.764 64.395,24.174 74.372,28.004C82.86,31.264 91.104,36.94 94.616,45.638C98.782,55.967 93.819,67.08 87.858,75.553C79.976,86.76 69.401,97.657 57.06,103.908C55.955,104.471 54.814,104.965 53.665,105.432C53.159,105.636 52.649,105.824 52.136,106.003C51.933,106.074 51.693,106.151 51.378,106.21C49.337,106.586 47.255,106.728 45.185,106.688C41.148,106.611 37.197,105.541 33.568,103.806C17.007,95.894 9.132,75.305 6.171,58.414C3.431,42.773 3.905,23.784 13.73,10.51C15.822,7.688 18.443,5.293 21.435,3.459C22.986,2.51 25.83,1.44 26.455,1.35C27.478,1.201 28.51,1.133 29.543,1.09C40.117,0.647 50.506,5.32 59.471,10.447C60.501,11.037 63.231,8.609 64.22,9.174Z" style="fill:white;fill-rule:nonzero;"/>
        </g>
        <g transform="matrix(0.662419,0,0,0.662419,68.3939,-29.6158)">
            <path d="M25.843,129.898L25.843,150.348C25.843,154.747 24.934,157.747 22.783,160.348C20.297,163.348 16.711,165.048 12.791,165.048C7.293,165.048 2.655,161.898 0.743,156.798L7.293,156.798C8.823,158.648 10.783,159.598 13.126,159.598C17.285,159.598 20.297,156.398 20.536,151.747C18.385,154.447 15.851,155.747 12.6,155.747C9.493,155.747 6.002,154.098 3.755,151.598C1.651,149.198 0.36,145.648 0.36,142.198C0.36,134.948 5.858,129.049 12.599,129.049C16.041,129.049 18.575,130.299 20.583,132.998L20.583,129.898L25.843,129.898ZM6.098,142.248C6.098,146.748 9.205,150.248 13.269,150.248C16.998,150.248 20.105,146.698 20.105,142.498C20.105,138.049 16.998,134.549 13.029,134.549C9.158,134.549 6.098,137.948 6.098,142.248Z" style="fill:white;fill-rule:nonzero;"/>
        </g>
        <g transform="matrix(0.662419,0,0,0.662419,68.3939,-29.6158)">
            <rect x="28.424" y="139.549" width="11.952" height="5" style="fill:white;"/>
        </g>
        <g transform="matrix(0.662419,0,0,0.662419,68.3939,-29.6158)">
            <path d="M47.126,129.32L47.126,133.72C49.076,130.72 52.977,128.72 57.126,128.72C65.326,128.72 71.177,134.919 71.177,142.87C71.177,150.518 65.477,156.87 57.376,156.87C53.026,156.87 49.426,155.12 47.126,151.919L47.126,164.87L43.726,164.87L43.726,129.32L47.126,129.32ZM57.277,153.67C62.676,153.67 67.577,149.221 67.577,143.02C67.577,136.471 62.677,131.92 57.177,131.92C51.877,131.92 47.127,136.871 47.127,142.57C47.126,148.971 52.077,153.67 57.277,153.67Z" style="fill:white;fill-rule:nonzero;"/>
        </g>
        <g transform="matrix(0.662419,0,0,0.662419,68.3939,-29.6158)">
            <path d="M75.276,156.17L75.276,129.32L78.526,129.32L78.526,132.42C80.276,129.971 82.226,128.971 84.826,128.92L84.826,132.67C80.126,133.07 78.776,135.471 78.776,139.971L78.776,156.17L75.276,156.17Z" style="fill:white;fill-rule:nonzero;"/>
        </g>
        <g transform="matrix(0.662419,0,0,0.662419,68.3939,-29.6158)">
            <path d="M100.026,128.471C107.975,128.471 114.075,134.971 114.075,142.42C114.075,150.371 108.026,156.92 100.276,156.92C92.226,156.92 86.375,150.27 86.375,142.77C86.375,134.721 92.776,128.471 100.026,128.471ZM100.276,153.621C105.924,153.621 110.475,149.019 110.475,142.67C110.475,136.221 105.924,131.77 99.975,131.77C94.825,131.77 89.975,136.17 89.975,142.721C89.976,148.92 94.425,153.621 100.276,153.621Z" style="fill:white;fill-rule:nonzero;"/>
        </g>
        <g transform="matrix(0.662419,0,0,0.662419,68.3939,-29.6158)">
            <path d="M121.626,156.27C121.626,162.02 120.526,164.821 115.626,164.821L114.876,164.821L114.876,161.622C118.175,161.622 118.175,160.321 118.175,156.77L118.175,129.32L121.626,129.32L121.626,156.27ZM118.175,126.17L118.175,120.62L121.626,120.62L121.626,126.17L118.175,126.17Z" style="fill:white;fill-rule:nonzero;"/>
        </g>
        <g transform="matrix(0.662419,0,0,0.662419,68.3939,-29.6158)">
            <path d="M129.274,143.82C129.725,149.82 134.024,153.621 139.575,153.621C143.524,153.621 146.975,151.519 148.774,147.67L152.674,147.67C150.174,153.67 145.524,156.92 139.674,156.92C131.625,156.92 125.725,150.27 125.725,142.721C125.725,134.721 131.424,128.571 139.825,128.571C147.774,128.571 153.524,134.571 153.524,143.571L153.524,143.821L129.274,143.821L129.274,143.82ZM139.325,131.82C134.225,131.82 130.225,135.22 129.376,140.92L149.726,140.92C148.425,134.92 144.925,131.82 139.325,131.82Z" style="fill:white;fill-rule:nonzero;"/>
        </g>
        <g transform="matrix(0.662419,0,0,0.662419,68.3939,-29.6158)">
            <path d="M169.675,131.82C164.275,131.82 159.726,136.42 159.726,142.769C159.726,148.97 164.126,153.621 169.826,153.621C173.877,153.621 177.275,151.57 178.976,147.769L182.775,147.769C180.675,153.621 176.025,156.919 169.976,156.919C161.976,156.919 156.126,150.37 156.126,142.819C156.126,134.87 162.325,128.569 170.075,128.569C175.825,128.569 180.524,131.768 182.774,137.569L178.975,137.569C176.876,133.721 173.925,131.82 169.675,131.82Z" style="fill:white;fill-rule:nonzero;"/>
        </g>
        <g transform="matrix(0.662419,0,0,0.662419,68.3939,-29.6158)">
            <path d="M190.124,132.77L185.024,132.77L185.024,129.321L190.124,129.321L190.124,120.621L193.575,120.621L193.575,129.321L198.675,129.321L198.675,132.77L193.575,132.77L193.575,156.17L190.124,156.17L190.124,132.77Z" style="fill:white;fill-rule:nonzero;"/>
        </g>
    </g>
</svg>
