<?xml version="1.0" encoding="UTF-8" standalone="no"?>
<!DOCTYPE svg PUBLIC "-//W3C//DTD SVG 1.1//EN" "http://www.w3.org/Graphics/SVG/1.1/DTD/svg11.dtd">
<svg width="100%" height="100%" viewBox="0 0 353 79" version="1.1" xmlns="http://www.w3.org/2000/svg" xmlns:xlink="http://www.w3.org/1999/xlink" xml:space="preserve" xmlns:serif="http://www.serif.com/" style="fill-rule:evenodd;clip-rule:evenodd;stroke-linejoin:round;stroke-miterlimit:2;">
    <path d="M32.4,40.26L29.99,38.52L32.96,38.53L33.87,35.7L34.78,38.52L37.75,38.52L35.34,40.26L36.24,43.05L33.87,41.33L31.5,43.05L32.4,40.26Z" style="fill:white;fill-rule:nonzero;"/>
    <path d="M41.04,50.83L38.63,52.55L39.54,55.35L37.16,53.62L34.79,55.35L35.7,52.55L33.29,50.83L36.26,50.83L37.16,47.98L38.07,50.83L41.04,50.83Z" style="fill:white;fill-rule:nonzero;"/>
    <path d="M35.7,28L33.29,26.27L36.26,26.27L37.16,23.43L38.07,26.27L41.04,26.27L38.63,28L39.54,30.8L37.16,29.07L34.79,30.8L35.7,28Z" style="fill:white;fill-rule:nonzero;"/>
    <path d="M44.67,19L42.27,17.27L45.24,17.27L46.14,14.44L47.05,17.27L50.02,17.27L47.61,19L48.51,21.8L46.14,20.07L43.77,21.8L44.67,19Z" style="fill:white;fill-rule:nonzero;"/>
    <path d="M50.04,59.81L47.63,61.55L48.53,64.34L46.16,62.62L43.79,64.34L44.69,61.55L42.29,59.81L45.25,59.83L46.16,56.98L47.07,59.81L50.04,59.81Z" style="fill:white;fill-rule:nonzero;"/>
    <path d="M56.95,64.81L54.54,63.08L57.51,63.09L58.42,60.24L59.33,63.08L62.3,63.08L59.89,64.81L60.79,67.61L58.42,65.88L56.05,67.61L56.95,64.81Z" style="fill:white;fill-rule:nonzero;"/>
    <path d="M56.95,15.71L54.54,13.97L57.51,13.97L58.42,11.13L59.33,13.97L62.3,13.97L59.89,15.71L60.79,18.5L58.42,16.77L56.05,18.5L56.95,15.71Z" style="fill:white;fill-rule:nonzero;"/>
    <path d="M69.21,61.55L66.8,59.81L69.77,59.83L70.68,56.98L71.58,59.81L74.55,59.81L72.15,61.55L73.05,64.34L70.68,62.62L68.31,64.34L69.21,61.55Z" style="fill:white;fill-rule:nonzero;"/>
    <path d="M69.24,19L66.84,17.27L69.8,17.27L70.71,14.44L71.62,17.27L74.59,17.27L72.18,19L73.08,21.8L70.72,20.07L68.34,21.8L69.24,19Z" style="fill:white;fill-rule:nonzero;"/>
    <path d="M78.21,52.55L75.8,50.83L78.76,50.83L79.67,47.98L80.58,50.83L83.55,50.83L81.14,52.55L82.05,55.35L79.67,53.62L77.3,55.35L78.21,52.55Z" style="fill:white;fill-rule:nonzero;"/>
    <path d="M78.21,27.96L75.8,26.23L78.76,26.23L79.67,23.39L80.58,26.23L83.55,26.23L81.14,27.96L82.05,30.77L79.67,29.04L77.3,30.77L78.21,27.96Z" style="fill:white;fill-rule:nonzero;"/>
    <path d="M82.93,35.66L83.84,38.49L86.81,38.49L84.4,40.23L85.3,43.02L82.93,41.28L80.56,43.02L81.46,40.23L79.06,38.49L82.02,38.49L82.93,35.66Z" style="fill:white;fill-rule:nonzero;"/>
    <path d="M0,0L0,79.36L116.88,79.36L116.88,0L0,0ZM114.64,77.1L2.25,77.1L2.25,2.17L114.64,2.17L114.64,77.1Z" style="fill:white;fill-rule:nonzero;"/>
    <path d="M31.5,43.05L32.4,40.26L29.99,38.52L32.96,38.53L33.87,35.7L34.78,38.52L37.75,38.52L35.34,40.26L36.24,43.05L33.87,41.33L31.5,43.05Z" style="fill:white;fill-rule:nonzero;"/>
    <path d="M41.04,50.83L38.63,52.55L39.54,55.35L37.16,53.62L34.79,55.35L35.7,52.55L33.29,50.83L36.26,50.83L37.16,47.98L38.07,50.83L41.04,50.83Z" style="fill:white;fill-rule:nonzero;"/>
    <path d="M38.07,26.27L41.04,26.27L38.63,28L39.54,30.8L37.16,29.07L34.79,30.8L35.7,28L33.29,26.27L36.26,26.27L37.16,23.43L38.07,26.27Z" style="fill:white;fill-rule:nonzero;"/>
    <path d="M44.67,19L42.27,17.27L45.24,17.27L46.14,14.44L47.05,17.27L50.02,17.27L47.61,19L48.51,21.8L46.14,20.07L43.77,21.8L44.67,19Z" style="fill:white;fill-rule:nonzero;"/>
    <path d="M50.04,59.81L47.63,61.55L48.53,64.34L46.16,62.62L43.79,64.34L44.69,61.55L42.29,59.81L45.25,59.83L46.16,56.98L47.07,59.81L50.04,59.81Z" style="fill:white;fill-rule:nonzero;"/>
    <path d="M62.3,63.08L59.89,64.81L60.79,67.61L58.42,65.88L56.05,67.61L56.95,64.81L54.54,63.08L57.51,63.09L58.42,60.24L59.33,63.08L62.3,63.08Z" style="fill:white;fill-rule:nonzero;"/>
    <path d="M59.33,13.97L62.3,13.97L59.89,15.71L60.79,18.5L58.42,16.77L56.05,18.5L56.95,15.71L54.54,13.97L57.51,13.97L58.42,11.13L59.33,13.97Z" style="fill:white;fill-rule:nonzero;"/>
    <path d="M74.55,59.81L72.15,61.55L73.05,64.34L70.68,62.62L68.31,64.34L69.21,61.55L66.8,59.81L69.77,59.83L70.68,56.98L71.58,59.81L74.55,59.81Z" style="fill:white;fill-rule:nonzero;"/>
    <path d="M71.62,17.27L74.59,17.27L72.18,19L73.08,21.8L70.72,20.07L68.34,21.8L69.24,19L66.84,17.27L69.8,17.27L70.71,14.44L71.62,17.27Z" style="fill:white;fill-rule:nonzero;"/>
    <path d="M83.55,50.83L81.14,52.55L82.05,55.35L79.67,53.62L77.3,55.35L78.21,52.55L75.8,50.83L78.76,50.83L79.67,47.98L80.58,50.83L83.55,50.83Z" style="fill:white;fill-rule:nonzero;"/>
    <path d="M78.21,27.96L75.8,26.23L78.76,26.23L79.67,23.39L80.58,26.23L83.55,26.23L81.14,27.96L82.05,30.77L79.67,29.04L77.3,30.77L78.21,27.96Z" style="fill:white;fill-rule:nonzero;"/>
    <path d="M84.4,40.23L85.3,43.02L82.93,41.28L80.56,43.02L81.46,40.23L79.06,38.49L82.02,38.49L82.93,35.66L83.84,38.49L86.81,38.49L84.4,40.23Z" style="fill:white;fill-rule:nonzero;"/>
    <path d="M59.89,15.71L60.79,18.5L58.42,16.77L56.05,18.5L56.95,15.71L54.54,13.97L57.51,13.97L58.42,11.13L59.33,13.97L62.3,13.97L59.89,15.71Z" style="fill:white;fill-rule:nonzero;"/>
    <path d="M47.61,19L48.51,21.8L46.14,20.07L43.77,21.8L44.67,19L42.27,17.27L45.24,17.27L46.14,14.44L47.05,17.27L50.02,17.27L47.61,19Z" style="fill:white;fill-rule:nonzero;"/>
    <path d="M38.63,28L39.54,30.8L37.16,29.07L34.79,30.8L35.7,28L33.29,26.27L36.26,26.27L37.16,23.43L38.07,26.27L41.04,26.27L38.63,28Z" style="fill:white;fill-rule:nonzero;"/>
    <path d="M35.34,40.26L36.24,43.05L33.87,41.33L31.5,43.05L32.4,40.26L29.99,38.52L32.96,38.53L33.87,35.7L34.78,38.52L37.75,38.52L35.34,40.26Z" style="fill:white;fill-rule:nonzero;"/>
    <path d="M38.63,52.55L39.54,55.35L37.16,53.62L34.79,55.35L35.7,52.55L33.29,50.83L36.26,50.83L37.16,47.98L38.07,50.83L41.04,50.83L38.63,52.55Z" style="fill:white;fill-rule:nonzero;"/>
    <path d="M47.63,61.55L48.53,64.34L46.16,62.62L43.79,64.34L44.69,61.55L42.29,59.81L45.25,59.83L46.16,56.98L47.07,59.81L50.04,59.81L47.63,61.55Z" style="fill:white;fill-rule:nonzero;"/>
    <path d="M59.89,64.81L60.79,67.61L58.42,65.88L56.05,67.61L56.95,64.81L54.54,63.08L57.51,63.09L58.42,60.24L59.33,63.08L62.3,63.08L59.89,64.81Z" style="fill:white;fill-rule:nonzero;"/>
    <path d="M72.15,61.55L73.05,64.34L70.68,62.62L68.31,64.34L69.21,61.55L66.8,59.81L69.77,59.83L70.68,56.98L71.58,59.81L74.55,59.81L72.15,61.55Z" style="fill:white;fill-rule:nonzero;"/>
    <path d="M81.14,52.55L82.05,55.35L79.67,53.62L77.3,55.35L78.21,52.55L75.8,50.83L78.76,50.83L79.67,47.98L80.58,50.83L83.55,50.83L81.14,52.55Z" style="fill:white;fill-rule:nonzero;"/>
    <path d="M84.4,40.23L85.3,43.02L82.93,41.28L80.56,43.02L81.46,40.23L79.06,38.49L82.02,38.49L82.93,35.66L83.84,38.49L86.81,38.49L84.4,40.23Z" style="fill:white;fill-rule:nonzero;"/>
    <path d="M81.14,27.96L82.05,30.77L79.67,29.04L77.3,30.77L78.21,27.96L75.8,26.23L78.76,26.23L79.67,23.39L80.58,26.23L83.55,26.23L81.14,27.96Z" style="fill:white;fill-rule:nonzero;"/>
    <path d="M72.18,19L73.08,21.8L70.72,20.07L68.34,21.8L69.24,19L66.84,17.27L69.8,17.27L70.71,14.44L71.62,17.27L74.59,17.27L72.18,19Z" style="fill:white;fill-rule:nonzero;"/>
    <path d="M140,27.13C140.921,27.199 141.842,26.987 142.64,26.52C143.189,26.121 143.498,25.468 143.46,24.79C143.473,24.388 143.377,23.991 143.18,23.64C142.98,23.298 142.707,23.004 142.38,22.78C141.99,22.491 141.567,22.249 141.12,22.06C140.62,21.84 140.06,21.62 139.42,21.4C138.78,21.18 138.16,20.92 137.57,20.65C136.999,20.398 136.47,20.061 136,19.65C135.541,19.24 135.167,18.744 134.9,18.19C134.612,17.546 134.472,16.845 134.49,16.14C134.419,14.632 135.06,13.176 136.22,12.21C137.575,11.199 139.242,10.697 140.93,10.79C141.969,10.777 143.005,10.905 144.01,11.17C144.744,11.365 145.452,11.647 146.12,12.01L145.12,14.73C144.491,14.382 143.818,14.12 143.12,13.95C142.393,13.777 141.648,13.69 140.9,13.69C140.152,13.649 139.41,13.845 138.78,14.25C138.282,14.613 137.999,15.204 138.03,15.82C138.016,16.186 138.102,16.55 138.28,16.87C138.465,17.176 138.71,17.441 139,17.65C139.337,17.905 139.703,18.12 140.09,18.29C140.535,18.505 140.992,18.692 141.46,18.85C142.33,19.17 143.1,19.5 143.79,19.85C144.423,20.135 145.004,20.524 145.51,21C145.978,21.448 146.347,21.99 146.59,22.59C146.856,23.303 146.981,24.06 146.96,24.82C147.036,26.32 146.375,27.767 145.19,28.69C143.65,29.683 141.826,30.143 140,30C139.3,30.005 138.602,29.954 137.91,29.85C137.342,29.773 136.78,29.653 136.23,29.49C135.802,29.367 135.382,29.22 134.97,29.05C134.678,28.933 134.394,28.796 134.12,28.64L135.12,25.9C135.744,26.227 136.397,26.494 137.07,26.7C138.027,26.984 139.022,27.119 140.02,27.1L140,27.13Z" style="fill:white;fill-rule:nonzero;"/>
    <path d="M161.8,19.66C161.497,18.806 161.017,18.025 160.39,17.37C159.767,16.727 159.009,16.232 158.17,15.92C157.211,15.562 156.193,15.389 155.17,15.41C154.165,15.408 153.162,15.488 152.17,15.65C151.21,15.81 150.4,15.98 149.74,16.16L149.74,34.55L153,34.55L153,29.15C153.43,29.374 153.883,29.551 154.35,29.68C154.939,29.845 155.548,29.926 156.16,29.92C157.061,29.934 157.955,29.754 158.78,29.39C159.533,29.05 160.194,28.536 160.71,27.89C161.249,27.213 161.653,26.439 161.9,25.61C162.18,24.659 162.318,23.672 162.31,22.68C162.321,21.651 162.148,20.628 161.8,19.66ZM158.18,26C157.594,26.822 156.617,27.279 155.61,27.2C155.099,27.205 154.592,27.12 154.11,26.95C153.711,26.817 153.331,26.632 152.98,26.4L152.98,18.4C153.306,18.306 153.641,18.249 153.98,18.23L154.92,18.23C156.092,18.123 157.25,18.567 158.05,19.43C158.763,20.396 159.117,21.581 159.05,22.78C159.089,23.916 158.786,25.038 158.18,26Z" style="fill:white;fill-rule:nonzero;"/>
    <path d="M177.72,19.66C177.417,18.809 176.951,18.024 176.35,17.35C175.761,16.709 175.037,16.206 174.23,15.88C173.374,15.527 172.456,15.35 171.53,15.36C170.607,15.348 169.692,15.525 168.84,15.88C168.035,16.21 167.312,16.712 166.72,17.35C166.111,18.021 165.642,18.806 165.34,19.66C164.999,20.623 164.833,21.639 164.85,22.66C164.837,23.681 165.003,24.696 165.34,25.66C165.633,26.525 166.099,27.321 166.71,28C167.299,28.639 168.014,29.15 168.81,29.5C169.671,29.86 170.597,30.041 171.53,30.03C172.466,30.038 173.395,29.857 174.26,29.5C175.062,29.155 175.781,28.644 176.37,28C176.978,27.332 177.441,26.546 177.73,25.69C178.059,24.724 178.221,23.71 178.21,22.69C178.225,21.659 178.06,20.633 177.72,19.66ZM174,26C173.404,26.777 172.479,27.234 171.5,27.234C170.521,27.234 169.596,26.777 169,26C168.356,25.013 168.044,23.846 168.11,22.67C168.045,21.506 168.357,20.352 169,19.38C169.6,18.61 170.524,18.159 171.5,18.159C172.476,18.159 173.4,18.61 174,19.38C174.638,20.354 174.95,21.507 174.89,22.67C174.951,23.846 174.639,25.011 174,26Z" style="fill:white;fill-rule:nonzero;"/>
    <path d="M186.38,29.9C185.576,29.9 184.775,29.793 184,29.58C183.439,29.418 182.923,29.131 182.49,28.74C182.114,28.364 181.845,27.894 181.71,27.38C181.55,26.777 181.473,26.154 181.48,25.53L181.48,9.53L184.7,9L184.7,25C184.69,25.336 184.724,25.672 184.8,26C184.85,26.251 184.964,26.485 185.13,26.68C185.305,26.878 185.529,27.026 185.78,27.11C186.121,27.221 186.473,27.295 186.83,27.33L186.38,29.9Z" style="fill:white;fill-rule:nonzero;"/>
    <path d="M200.86,29.2C200.24,29.36 199.43,29.53 198.44,29.7C197.355,29.87 196.258,29.954 195.16,29.95C194.204,29.978 193.252,29.815 192.36,29.47C191.653,29.189 191.029,28.731 190.55,28.14C190.077,27.553 189.736,26.871 189.55,26.14C189.351,25.291 189.254,24.422 189.26,23.55L189.26,15.75L192.48,15.75L192.48,23C192.392,24.108 192.621,25.218 193.14,26.2C193.684,26.883 194.542,27.242 195.41,27.15L196.65,27.15C196.986,27.133 197.321,27.09 197.65,27.02L197.65,15.71L200.87,15.71L200.86,29.2Z" style="fill:white;fill-rule:nonzero;"/>
    <path d="M208.18,14.77C208.146,13.989 208.356,13.217 208.78,12.56C209.323,11.931 210.145,11.611 210.97,11.71C211.353,11.709 211.735,11.746 212.11,11.82C212.412,11.879 212.709,11.959 213,12.06L213.5,9.45C213.142,9.315 212.774,9.208 212.4,9.13C211.833,9.022 211.256,8.979 210.68,9C209.094,8.873 207.526,9.426 206.37,10.52C205.396,11.694 204.906,13.197 205,14.72L205,29.62L208.22,29.62L208.22,18.39L213.33,18.39L213.33,15.7L208.22,15.7L208.18,14.77ZM218.72,10.17C218.346,9.82 217.852,9.627 217.34,9.63C216.818,9.619 216.311,9.813 215.93,10.17C215.528,10.546 215.312,11.081 215.34,11.63C215.318,12.173 215.534,12.699 215.93,13.07C216.313,13.424 216.819,13.614 217.34,13.6C217.851,13.606 218.345,13.416 218.72,13.07C219.116,12.699 219.332,12.173 219.31,11.63C219.338,11.081 219.122,10.546 218.72,10.17ZM215.72,15.7L215.72,29.62L218.94,29.62L218.94,15.7L215.72,15.7Z" style="fill:white;fill-rule:nonzero;"/>
    <path d="M223.06,16.16C223.856,15.947 224.664,15.78 225.48,15.66C226.572,15.492 227.675,15.412 228.78,15.42C229.751,15.39 230.718,15.546 231.63,15.88C232.339,16.153 232.966,16.605 233.45,17.19C233.932,17.771 234.274,18.456 234.45,19.19C234.645,20.039 234.739,20.909 234.73,21.78L234.73,29.61L231.51,29.61L231.51,22.31C231.519,21.673 231.469,21.037 231.36,20.41C231.291,19.956 231.131,19.521 230.89,19.13C230.665,18.805 230.348,18.555 229.98,18.41C229.532,18.247 229.057,18.169 228.58,18.18C228.152,18.183 227.725,18.21 227.3,18.26L226.3,18.4L226.3,29.63L223.08,29.63L223.06,16.16Z" style="fill:white;fill-rule:nonzero;"/>
    <path d="M248.63,18.62C248.296,17.283 247.304,16.204 246,15.76C245.134,15.47 244.223,15.334 243.31,15.36C242.472,15.356 241.635,15.426 240.81,15.57C240.196,15.662 239.59,15.806 239,16L239.4,18.61C239.891,18.437 240.396,18.31 240.91,18.23C241.588,18.122 242.274,18.069 242.96,18.07C243.427,18.054 243.892,18.129 244.33,18.29C244.668,18.411 244.97,18.614 245.21,18.88C245.432,19.141 245.593,19.449 245.68,19.78C245.77,20.126 245.814,20.482 245.81,20.84L245.81,21.37C245.398,21.272 244.981,21.198 244.56,21.15C244.189,21.103 243.814,21.079 243.44,21.08C242.704,21.079 241.97,21.156 241.25,21.31C240.593,21.442 239.966,21.692 239.4,22.05C238.872,22.389 238.436,22.853 238.13,23.4C237.808,24.016 237.649,24.705 237.67,25.4C237.645,26.122 237.785,26.84 238.08,27.5C238.337,28.052 238.729,28.53 239.22,28.89C239.753,29.261 240.355,29.522 240.99,29.66C241.742,29.826 242.51,29.907 243.28,29.9C244.417,29.907 245.554,29.83 246.68,29.67C247.68,29.52 248.43,29.39 248.93,29.29L248.93,20.87C248.928,20.11 248.827,19.354 248.63,18.62ZM245.79,27.2C245.044,27.327 244.287,27.38 243.53,27.36C242.855,27.398 242.182,27.246 241.59,26.92C241.08,26.565 240.803,25.958 240.87,25.34C240.839,24.66 241.241,24.03 241.87,23.77C242.186,23.621 242.523,23.523 242.87,23.48C243.227,23.424 243.588,23.398 243.95,23.4C244.325,23.394 244.7,23.421 245.07,23.48C245.331,23.512 245.588,23.566 245.84,23.64L245.79,27.2Z" style="fill:white;fill-rule:nonzero;"/>
    <path d="M252.84,16.16C253.64,15.947 254.451,15.78 255.27,15.66C256.362,15.492 257.465,15.412 258.57,15.42C259.541,15.392 260.508,15.548 261.42,15.88C262.129,16.153 262.756,16.605 263.24,17.19C263.718,17.774 264.06,18.457 264.24,19.19C264.43,20.04 264.524,20.909 264.52,21.78L264.52,29.61L261.3,29.61L261.3,22.31C261.309,21.673 261.259,21.037 261.15,20.41C261.078,19.955 260.915,19.52 260.67,19.13C260.452,18.802 260.138,18.55 259.77,18.41C259.322,18.248 258.847,18.17 258.37,18.18C257.942,18.183 257.515,18.209 257.09,18.26C256.65,18.32 256.32,18.36 256.09,18.4L256.09,29.63L252.86,29.63L252.84,16.16Z" style="fill:white;fill-rule:nonzero;"/>
    <path d="M267.64,22.68C267.633,21.696 267.795,20.719 268.12,19.79C268.419,18.932 268.888,18.143 269.5,17.47C270.099,16.802 270.836,16.273 271.66,15.92C272.571,15.537 273.552,15.346 274.54,15.36C275.818,15.354 277.086,15.599 278.27,16.08L277.57,18.72C277.164,18.545 276.742,18.411 276.31,18.32C275.818,18.209 275.314,18.156 274.81,18.16C273.72,18.088 272.656,18.524 271.93,19.34C271.213,20.3 270.859,21.484 270.93,22.68C270.866,23.849 271.193,25.007 271.86,25.97C272.653,26.85 273.821,27.3 275,27.18C276.026,27.177 277.042,26.987 278,26.62L278.45,29.28C277.936,29.509 277.395,29.67 276.84,29.76C276.11,29.909 275.366,29.983 274.62,29.98C273.557,30 272.501,29.813 271.51,29.43C270.677,29.096 269.932,28.576 269.33,27.91C268.738,27.243 268.297,26.454 268.04,25.6C267.749,24.654 267.604,23.669 267.61,22.68L267.64,22.68Z" style="fill:white;fill-rule:nonzero;"/>
    <path d="M292.79,19.66C292.488,18.806 292.019,18.021 291.41,17.35C290.827,16.707 290.105,16.204 289.3,15.88C288.444,15.527 287.526,15.35 286.6,15.36C285.677,15.347 284.761,15.524 283.91,15.88C283.105,16.21 282.382,16.712 281.79,17.35C281.181,18.021 280.712,18.806 280.41,19.66C280.069,20.623 279.903,21.639 279.92,22.66C279.907,23.681 280.073,24.696 280.41,25.66C280.703,26.525 281.169,27.321 281.78,28C282.369,28.639 283.084,29.15 283.88,29.5C285.624,30.207 287.576,30.207 289.32,29.5C290.126,29.158 290.849,28.646 291.44,28C292.048,27.332 292.511,26.546 292.8,25.69C293.129,24.724 293.291,23.71 293.28,22.69C293.295,21.659 293.13,20.633 292.79,19.66ZM289.09,26C288.494,26.777 287.569,27.234 286.59,27.234C285.611,27.234 284.686,26.777 284.09,26C283.446,25.013 283.134,23.846 283.2,22.67C283.135,21.506 283.447,20.352 284.09,19.38C284.69,18.61 285.614,18.159 286.59,18.159C287.566,18.159 288.49,18.61 289.09,19.38C289.728,20.354 290.04,21.507 289.98,22.67C290.041,23.846 289.729,25.011 289.09,26Z" style="fill:white;fill-rule:nonzero;"/>
    <path d="M299.87,29.63C298.983,27.803 298.07,25.707 297.13,23.34C296.2,20.97 295.35,18.42 294.58,15.71L298,15.71C298.2,16.49 298.43,17.33 298.69,18.22C298.95,19.11 299.22,20.02 299.51,20.91C299.8,21.8 300.11,22.68 300.42,23.52C300.73,24.36 301.02,25.12 301.29,25.8C301.56,25.12 301.84,24.36 302.15,23.52C302.46,22.68 302.75,21.81 303.04,20.91C303.33,20.01 303.62,19.12 303.89,18.22C304.16,17.32 304.38,16.49 304.58,15.71L307.91,15.71C307.14,18.42 306.29,20.97 305.36,23.34C304.43,25.71 303.51,27.8 302.62,29.63L299.87,29.63Z" style="fill:white;fill-rule:nonzero;"/>
    <path d="M320.28,18.62C320.111,17.975 319.793,17.379 319.35,16.88C318.87,16.371 318.272,15.986 317.61,15.76C316.744,15.471 315.833,15.335 314.92,15.36C314.082,15.355 313.245,15.425 312.42,15.57C311.813,15.664 311.214,15.808 310.63,16L311.03,18.61C311.524,18.437 312.033,18.31 312.55,18.23C313.228,18.122 313.913,18.068 314.6,18.07C315.067,18.055 315.532,18.13 315.97,18.29C316.306,18.413 316.608,18.616 316.85,18.88C317.069,19.142 317.226,19.449 317.31,19.78C317.403,20.126 317.45,20.482 317.45,20.84L317.45,21.37C317.038,21.274 316.62,21.2 316.2,21.15C315.828,21.103 315.454,21.08 315.08,21.08C314.341,21.079 313.603,21.156 312.88,21.31C312.224,21.443 311.597,21.694 311.03,22.05C310.508,22.392 310.075,22.855 309.77,23.4C309.444,24.015 309.282,24.704 309.3,25.4C309.28,26.122 309.42,26.839 309.71,27.5C309.973,28.051 310.368,28.528 310.86,28.89C311.392,29.263 311.994,29.525 312.63,29.66C313.382,29.827 314.15,29.907 314.92,29.9C316.054,29.907 317.187,29.83 318.31,29.67C319.31,29.52 320.06,29.39 320.56,29.29L320.56,20.87C320.569,20.111 320.475,19.354 320.28,18.62ZM317.45,27.2C316.7,27.327 315.94,27.38 315.18,27.36C314.505,27.396 313.833,27.244 313.24,26.92C312.73,26.565 312.453,25.958 312.52,25.34C312.501,24.986 312.596,24.636 312.79,24.34C312.964,24.08 313.206,23.872 313.49,23.74C313.806,23.592 314.144,23.494 314.49,23.45C314.847,23.394 315.208,23.367 315.57,23.37C315.942,23.364 316.313,23.391 316.68,23.45C316.944,23.482 317.205,23.536 317.46,23.61L317.45,27.2ZM316.91,8.12L313,12.78L314.6,14.21L318.94,10.01L316.91,8.12Z" style="fill:white;fill-rule:nonzero;"/>
    <path d="M324.5,16.16C325.296,15.947 326.104,15.78 326.92,15.66C328.012,15.493 329.115,15.413 330.22,15.42C331.191,15.39 332.158,15.546 333.07,15.88C333.78,16.151 334.408,16.603 334.89,17.19C335.376,17.769 335.719,18.454 335.89,19.19C336.085,20.039 336.179,20.909 336.17,21.78L336.17,29.61L332.95,29.61L332.95,22.31C332.957,21.674 332.91,21.038 332.81,20.41C332.738,19.955 332.575,19.52 332.33,19.13C332.105,18.805 331.788,18.555 331.42,18.41C330.972,18.247 330.497,18.169 330.02,18.18C329.595,18.183 329.171,18.209 328.75,18.26L327.75,18.4L327.75,29.63L324.5,29.63L324.5,16.16Z" style="fill:white;fill-rule:nonzero;"/>
    <path d="M352.17,19.66C351.867,18.809 351.401,18.024 350.8,17.35C350.211,16.709 349.487,16.206 348.68,15.88C346.951,15.187 345.019,15.187 343.29,15.88C342.489,16.212 341.769,16.713 341.18,17.35C340.565,18.018 340.092,18.804 339.79,19.66C339.449,20.623 339.283,21.639 339.3,22.66C339.287,23.681 339.453,24.696 339.79,25.66C340.087,26.523 340.553,27.319 341.16,28C341.751,28.642 342.47,29.153 343.27,29.5C344.136,29.853 345.065,30.023 346,30C346.936,30.008 347.865,29.827 348.73,29.47C349.533,29.123 350.255,28.612 350.85,27.97C351.451,27.299 351.91,26.513 352.2,25.66C352.529,24.694 352.691,23.68 352.68,22.66C352.691,21.638 352.518,20.621 352.17,19.66ZM348.47,26C347.874,26.777 346.949,27.234 345.97,27.234C344.991,27.234 344.066,26.777 343.47,26C342.831,25.011 342.519,23.846 342.58,22.67C342.52,21.507 342.832,20.354 343.47,19.38C344.07,18.61 344.994,18.159 345.97,18.159C346.946,18.159 347.87,18.61 348.47,19.38C349.108,20.354 349.42,21.507 349.36,22.67C349.421,23.846 349.109,25.011 348.47,26Z" style="fill:white;fill-rule:nonzero;"/>
    <path d="M135.54,61.57L135.54,43.13L147.38,43.13L147.38,45.97L138.89,45.97L138.89,50.52L146.45,50.52L146.45,53.32L138.89,53.32L138.89,58.72L148.02,58.72L148.02,61.57L135.54,61.57Z" style="fill:white;fill-rule:nonzero;"/>
    <path d="M154,61.57C153.11,59.74 152.19,57.65 151.26,55.28C150.277,52.783 149.426,50.236 148.71,47.65L152.14,47.65C152.34,48.43 152.57,49.27 152.82,50.17C153.07,51.07 153.36,51.96 153.65,52.85C153.94,53.74 154.25,54.62 154.56,55.46C154.87,56.3 155.16,57.06 155.43,57.74C155.7,57.06 155.98,56.31 156.29,55.46C156.6,54.61 156.89,53.75 157.18,52.85C157.47,51.95 157.75,51.06 158.02,50.17C158.29,49.28 158.52,48.43 158.72,47.65L162,47.65C161.276,50.235 160.422,52.782 159.44,55.28C158.51,57.65 157.59,59.74 156.7,61.57L154,61.57Z" style="fill:white;fill-rule:nonzero;"/>
    <path d="M172.33,50.55C171.965,50.437 171.595,50.344 171.22,50.27C170.679,50.172 170.13,50.125 169.58,50.13C169.201,50.131 168.823,50.164 168.45,50.23C168.166,50.276 167.886,50.34 167.61,50.42L167.61,61.57L164.39,61.57L164.39,48.32C165.152,48.051 165.93,47.831 166.72,47.66C167.74,47.452 168.779,47.351 169.82,47.36C170.07,47.347 170.32,47.347 170.57,47.36C170.85,47.36 171.14,47.42 171.42,47.46L172.25,47.62C172.51,47.69 172.73,47.74 172.89,47.8L172.33,50.55Z" style="fill:white;fill-rule:nonzero;"/>
    <path d="M187.22,51.6C186.92,50.75 186.454,49.969 185.85,49.3C185.259,48.658 184.536,48.153 183.73,47.82C182.001,47.127 180.069,47.127 178.34,47.82C177.538,48.161 176.817,48.665 176.22,49.3C175.609,49.966 175.14,50.748 174.84,51.6C174.5,52.563 174.334,53.579 174.35,54.6C174.336,55.621 174.502,56.636 174.84,57.6C175.14,58.456 175.606,59.244 176.21,59.92C176.801,60.559 177.52,61.066 178.32,61.41C179.177,61.77 180.1,61.951 181.03,61.94C181.966,61.948 182.895,61.767 183.76,61.41C184.561,61.069 185.28,60.561 185.87,59.92C186.478,59.248 186.941,58.459 187.23,57.6C187.559,56.634 187.721,55.62 187.71,54.6C187.726,53.579 187.56,52.563 187.22,51.6ZM183.52,57.92C182.924,58.697 181.999,59.154 181.02,59.154C180.041,59.154 179.116,58.697 178.52,57.92C177.879,56.932 177.568,55.766 177.63,54.59C177.568,53.43 177.88,52.28 178.52,51.31C179.116,50.533 180.041,50.076 181.02,50.076C181.999,50.076 182.924,50.533 183.52,51.31C184.16,52.28 184.472,53.43 184.41,54.59C184.472,55.766 184.161,56.932 183.52,57.92Z" style="fill:white;fill-rule:nonzero;"/>
    <path d="M203.08,51.6C202.777,50.746 202.297,49.965 201.67,49.31C201.044,48.671 200.286,48.176 199.45,47.86C198.508,47.506 197.507,47.333 196.5,47.35C195.495,47.348 194.492,47.428 193.5,47.59C192.5,47.75 191.74,47.92 191.08,48.1L191.08,66.49L194.3,66.49L194.3,61.09C194.734,61.314 195.189,61.491 195.66,61.62C196.249,61.786 196.858,61.866 197.47,61.86C198.371,61.873 199.265,61.692 200.09,61.33C200.832,60.986 201.485,60.476 202,59.84C202.534,59.158 202.934,58.381 203.18,57.55C203.468,56.6 203.61,55.612 203.6,54.62C203.607,53.59 203.431,52.568 203.08,51.6ZM199.46,57.89C198.875,58.714 197.897,59.171 196.89,59.09C196.379,59.095 195.872,59.01 195.39,58.84C194.991,58.707 194.611,58.522 194.26,58.29L194.26,50.29C194.588,50.207 194.923,50.15 195.26,50.12L196.26,50.12C197.429,50.015 198.583,50.459 199.38,51.32C200.091,52.287 200.445,53.471 200.38,54.67C200.406,55.812 200.086,56.935 199.46,57.89Z" style="fill:white;fill-rule:nonzero;"/>
    <path d="M210.39,59.26C211.025,59.296 211.661,59.19 212.25,58.95C212.641,58.753 212.875,58.336 212.84,57.9C212.837,57.435 212.6,57.002 212.21,56.75C211.57,56.329 210.877,55.993 210.15,55.75C209.601,55.554 209.063,55.327 208.54,55.07C208.082,54.852 207.658,54.569 207.28,54.23C206.918,53.91 206.631,53.514 206.44,53.07C206.217,52.546 206.111,51.979 206.13,51.41C206.089,50.242 206.615,49.124 207.54,48.41C208.653,47.614 210.004,47.223 211.37,47.3C212.159,47.299 212.946,47.376 213.72,47.53C214.287,47.635 214.845,47.782 215.39,47.97L214.81,50.58C214.371,50.392 213.916,50.245 213.45,50.14C212.82,50 212.176,49.933 211.53,49.94C210.981,49.918 210.435,50.031 209.94,50.27C209.558,50.455 209.316,50.846 209.32,51.27C209.316,51.48 209.357,51.687 209.44,51.88C209.535,52.077 209.68,52.246 209.86,52.37C210.099,52.548 210.357,52.699 210.63,52.82C211.01,53.001 211.401,53.158 211.8,53.29C212.464,53.528 213.112,53.808 213.74,54.13C214.229,54.364 214.675,54.678 215.06,55.06C215.398,55.392 215.657,55.795 215.82,56.24C215.991,56.756 216.072,57.297 216.06,57.84C216.121,59.028 215.559,60.165 214.58,60.84C213.308,61.594 211.835,61.942 210.36,61.84C209.351,61.867 208.342,61.763 207.36,61.53C206.828,61.396 206.304,61.232 205.79,61.04L206.35,58.35C206.908,58.572 207.479,58.759 208.06,58.91C208.805,59.099 209.571,59.19 210.34,59.18L210.39,59.26Z" style="fill:white;fill-rule:nonzero;"/>
    <path d="M222.29,53.08L223.59,51.71L225,50.25L226.26,48.83C226.66,48.38 227.01,47.99 227.26,47.65L231.07,47.65C230.18,48.65 229.24,49.65 228.26,50.74C227.28,51.83 226.26,52.84 225.26,53.85C225.871,54.352 226.452,54.89 227,55.46C227.58,56.09 228.15,56.76 228.7,57.46C229.25,58.16 229.76,58.88 230.24,59.59C230.72,60.3 231.11,60.96 231.43,61.59L227.71,61.59C227.39,61.04 227.02,60.46 226.6,59.86C226.18,59.26 225.74,58.67 225.26,58.1C224.78,57.53 224.26,57 223.79,56.5C223.339,56.028 222.851,55.593 222.33,55.2L222.33,61.59L219.11,61.59L219.11,41.45L222.33,40.92L222.29,53.08Z" style="fill:white;fill-rule:nonzero;"/>
    <path d="M245.14,51.6C244.84,50.75 244.374,49.969 243.77,49.3C243.179,48.658 242.456,48.153 241.65,47.82C239.921,47.127 237.989,47.127 236.26,47.82C235.46,48.159 234.741,48.663 234.15,49.3C233.533,49.963 233.06,50.746 232.76,51.6C232.42,52.563 232.254,53.579 232.27,54.6C232.256,55.621 232.422,56.636 232.76,57.6C233.06,58.456 233.526,59.244 234.13,59.92C234.721,60.559 235.44,61.066 236.24,61.41C237.097,61.77 238.02,61.951 238.95,61.94C239.886,61.948 240.815,61.767 241.68,61.41C242.483,61.067 243.205,60.559 243.8,59.92C244.401,59.245 244.861,58.456 245.15,57.6C245.479,56.634 245.641,55.62 245.63,54.6C245.646,53.579 245.48,52.563 245.14,51.6ZM241.44,57.92C240.844,58.697 239.919,59.154 238.94,59.154C237.961,59.154 237.036,58.697 236.44,57.92C235.799,56.932 235.488,55.766 235.55,54.59C235.488,53.43 235.8,52.28 236.44,51.31C237.036,50.533 237.961,50.076 238.94,50.076C239.919,50.076 240.844,50.533 241.44,51.31C242.08,52.28 242.392,53.43 242.33,54.59C242.392,55.766 242.081,56.932 241.44,57.92Z" style="fill:white;fill-rule:nonzero;"/>
    <path d="M260.38,61.15C259.76,61.31 258.95,61.47 257.96,61.64C256.876,61.815 255.778,61.899 254.68,61.89C253.721,61.918 252.766,61.755 251.87,61.41C251.165,61.124 250.543,60.667 250.06,60.08C249.589,59.492 249.248,58.81 249.06,58.08C248.861,57.228 248.764,56.355 248.77,55.48L248.77,47.68L252,47.68L252,54.97C251.917,56.076 252.142,57.184 252.65,58.17C253.186,58.873 254.049,59.252 254.93,59.17C255.32,59.17 255.73,59.17 256.17,59.11C256.506,59.093 256.841,59.049 257.17,58.98L257.17,47.65L260.39,47.65L260.38,61.15Z" style="fill:white;fill-rule:nonzero;"/>
    <path d="M282.1,61.15C281.48,61.31 280.67,61.47 279.68,61.64C278.596,61.815 277.498,61.899 276.4,61.89C275.441,61.918 274.486,61.755 273.59,61.41C272.885,61.124 272.263,60.667 271.78,60.08C271.309,59.492 270.968,58.81 270.78,58.08C270.581,57.228 270.484,56.355 270.49,55.48L270.49,47.68L273.71,47.68L273.71,54.97C273.627,56.076 273.852,57.184 274.36,58.17C274.896,58.873 275.759,59.252 276.64,59.17C277.03,59.17 277.44,59.17 277.88,59.11C278.216,59.093 278.551,59.049 278.88,58.98L278.88,47.65L282.1,47.65L282.1,61.15Z" style="fill:white;fill-rule:nonzero;"/>
    <path d="M286.2,48.1C286.997,47.891 287.805,47.725 288.62,47.6C289.712,47.432 290.815,47.352 291.92,47.36C292.891,47.33 293.858,47.486 294.77,47.82C295.477,48.097 296.103,48.547 296.59,49.13C297.068,49.714 297.41,50.397 297.59,51.13C297.785,51.983 297.879,52.855 297.87,53.73L297.87,61.55L294.65,61.55L294.65,54.25C294.659,53.613 294.609,52.977 294.5,52.35C294.431,51.895 294.267,51.459 294.02,51.07C293.802,50.742 293.488,50.49 293.12,50.35C292.671,50.191 292.196,50.116 291.72,50.13C291.292,50.128 290.864,50.155 290.44,50.21C290,50.21 289.67,50.3 289.44,50.34L289.44,61.57L286.2,61.57L286.2,48.1Z" style="fill:white;fill-rule:nonzero;"/>
    <path d="M304.78,42.11C303.985,41.405 302.775,41.405 301.98,42.11C301.581,42.487 301.368,43.022 301.4,43.57C301.378,44.112 301.598,44.636 302,45C302.795,45.705 304.005,45.705 304.8,45C305.197,44.63 305.41,44.102 305.38,43.56C305.404,43.012 305.184,42.481 304.78,42.11ZM301.78,47.65L301.78,61.57L305,61.57L305,47.65L301.78,47.65Z" style="fill:white;fill-rule:nonzero;"/>
    <path d="M312.55,40.06L308.63,44.72L310.23,46.15L314.57,41.95L312.55,40.06ZM309.14,47.65L309.14,61.57L312.36,61.57L312.36,47.65L309.14,47.65Z" style="fill:white;fill-rule:nonzero;"/>
</svg>
