<?xml version="1.0" encoding="UTF-8" standalone="no"?>
<!DOCTYPE svg PUBLIC "-//W3C//DTD SVG 1.1//EN" "http://www.w3.org/Graphics/SVG/1.1/DTD/svg11.dtd">
<svg width="100%" height="100%" viewBox="0 0 80 100" version="1.1" xmlns="http://www.w3.org/2000/svg" xmlns:xlink="http://www.w3.org/1999/xlink" xml:space="preserve" xmlns:serif="http://www.serif.com/" style="fill-rule:evenodd;clip-rule:evenodd;stroke-linejoin:round;stroke-miterlimit:2;">
    <g id="marker" transform="matrix(0.555867,0,0,0.555867,-724.746,-3232.74)">
        <g transform="matrix(-0.669012,-8.19303e-17,7.29702e-17,-0.595847,2079.17,9727.51)">
            <path d="M1050.86,6264.38C1050.86,6264.38 943.839,6366.2 943.839,6437.19C943.839,6503.5 991.794,6557.35 1050.86,6557.35C1109.93,6557.35 1157.88,6503.5 1157.88,6437.19C1157.88,6366.2 1050.86,6264.38 1050.86,6264.38Z" style="fill:rgb(229,76,76);"/>
        </g>
        <g transform="matrix(0.804986,0,0,0.804986,204.846,1152.07)">
            <circle cx="1455.04" cy="5886.44" r="67.238" style="fill:white;"/>
        </g>
    </g>
    <g transform="matrix(0.307547,0,0,0.307547,12.7321,22.9874)">
        <text x="13.84px" y="54px" style="font-family:'OpenSans-Bold', 'Open Sans', sans-serif;font-weight:700;font-size:33.505px;fill:rgb(229,76,76);">STŘECHY</text>
        <text x="7.468px" y="87.505px" style="font-family:'OpenSans-Bold', 'Open Sans', sans-serif;font-weight:700;font-size:33.505px;fill:rgb(229,76,76);">BOHEMIA</text>
    </g>
</svg>
