<?xml version="1.0" encoding="UTF-8" standalone="no"?>
<!DOCTYPE svg PUBLIC "-//W3C//DTD SVG 1.1//EN" "http://www.w3.org/Graphics/SVG/1.1/DTD/svg11.dtd">
<svg width="80" height="100" viewBox="0 0 80 100" version="1.1" xmlns="http://www.w3.org/2000/svg" xmlns:xlink="http://www.w3.org/1999/xlink" xml:space="preserve" xmlns:serif="http://www.serif.com/" style="fill-rule:evenodd;clip-rule:evenodd;stroke-linejoin:round;stroke-miterlimit:2;">
    <g id="marker" transform="matrix(0.555867,0,0,0.555867,-724.746,-3232.74)">
        <g transform="matrix(-0.669012,-8.19303e-17,7.29702e-17,-0.595847,2079.17,9727.51)">
            <path d="M1050.86,6264.38C1050.86,6264.38 943.839,6366.2 943.839,6437.19C943.839,6503.5 991.794,6557.35 1050.86,6557.35C1109.93,6557.35 1157.88,6503.5 1157.88,6437.19C1157.88,6366.2 1050.86,6264.38 1050.86,6264.38Z" style="fill:rgb(229,76,76);"/>
        </g>
        <g transform="matrix(0.804986,0,0,0.804986,204.846,1152.07)">
            <circle cx="1455.04" cy="5886.44" r="67.238" style="fill:white;"/>
        </g>
    </g>
    <g transform="matrix(0.0302915,0,0,0.0302915,-1.23082,-38.5429)">
        <path d="M1958.33,3244.22C1928.87,3172.34 1881.85,3106.49 1817.84,3062.49C1832.63,3034.42 1854.41,3010.06 1880.66,2992.25C1921.76,2964.3 1940.33,2996.47 1964,3026.11C1990.25,3059.03 2013.85,3093.97 2034.31,3130.79C2074.72,3203.43 2103.11,3282.74 2117.96,3364.51C2126.34,3410.52 2130.43,3457.29 2129.92,3504.06C2129.17,3576.89 2117.84,3649.02 2105.81,3720.91C2105.81,3720.91 2124.68,3807.62 2114.19,3834.23C2114.19,3834.23 2108.72,3907.16 2059.44,3933.24C2059.44,3933.24 2015.98,3961.42 2011.6,3933.94C2011.6,3933.94 1948.82,3954.05 1953.55,3904.69C1953.55,3904.69 1885.71,3925.96 1898.17,3859.81C1898.17,3859.81 1846.4,3864.55 1873.55,3811.6C1873.55,3811.6 1880.27,3799.54 1881.9,3762.19C1881.9,3762.19 1885.63,3719.36 1932.56,3705.64C1932.56,3705.64 1937.47,3695.12 1969.09,3651.16C1977.72,3638.83 1984.64,3625.29 1989.87,3611.32C2006.23,3567 2006.99,3518.6 2004.47,3471.46C2000.38,3393.9 1987.73,3316.1 1958.33,3244.22Z" style="fill:rgb(253,195,136);fill-rule:nonzero;"/>
    </g>
    <g transform="matrix(0.0302915,0,0,0.0302915,-1.23082,-38.5429)">
        <path d="M2073.31,3054.31L1924.63,3234.65L1826.38,3191.53L1754.93,3816.9C1754.93,3816.9 1657.3,3879.97 1382.67,3873.99C1130.63,3875.5 984.661,3816.9 984.661,3816.9L926.689,3191.53L828.43,3234.65L804.84,3206.04L724.26,3108.3L679.749,3054.31L1033.64,2790.02L1043.33,2783L1044.02,2783L1345,2781.63L1345,2781.38L1376.46,2781.5L1408,2781.38L1408,2781.63L1709.04,2783L1709.67,2783L1714.77,2786.62L2073.31,3054.31Z" style="fill:rgb(229,76,76);fill-rule:nonzero;"/>
    </g>
    <g transform="matrix(0.0302915,0,0,0.0302915,-1.23082,-38.5429)">
        <path d="M1711.85,2784.54L1709.67,2783L1711.85,2784.54ZM1709.04,2783L1708.73,2783C1708.86,2782.86 1708.99,2782.71 1709.12,2782.58C1718.94,2771.87 1727.93,2760.46 1736,2748.43L1736,2748.6C1727.91,2760.71 1718.89,2772.21 1709.04,2783Z" style="fill:rgb(174,185,184);fill-rule:nonzero;"/>
    </g>
    <g transform="matrix(0.0302915,0,0,0.0302915,-1.23082,-38.5429)">
        <path d="M1736,2748.6L1736,2748.43C1744.62,2735.58 1752.2,2722.03 1758.61,2707.9C1752.2,2722.08 1744.63,2735.69 1736,2748.6Z" style="fill:rgb(174,185,184);fill-rule:nonzero;"/>
    </g>
    <g transform="matrix(0.0302915,0,0,0.0302915,-1.23082,-38.5429)">
        <path d="M1044.02,2783C1020.72,2757.58 1001.98,2728.07 989.185,2695.85C1001.93,2727.87 1020.59,2757.19 1043.84,2782.58C1043.97,2782.71 1044.1,2782.86 1044.23,2783L1044.02,2783Z" style="fill:rgb(174,185,184);fill-rule:nonzero;"/>
    </g>
    <g transform="matrix(0.0302915,0,0,0.0302915,-1.23082,-38.5429)">
        <path d="M1372.79,2935.9C1309.91,2935.9 1266.09,2895.65 1266.09,2895.65C1172.56,2895.65 1088.65,2854.49 1033.64,2790.04L1043.33,2783L1044.23,2783C1099.24,2842.93 1180.2,2880.89 1269.82,2880.89C1269.82,2880.89 1313.7,2921.18 1376.52,2921.18C1439.4,2921.18 1483.23,2880.89 1483.23,2880.89C1572.91,2880.89 1653.73,2842.93 1708.73,2783L1709.67,2783L1711.85,2784.54L1714.77,2786.63C1659.82,2853.03 1574.65,2895.73 1479.48,2895.73C1479.48,2895.73 1435.61,2935.9 1372.79,2935.9Z" style="fill:rgb(126,63,62);fill-rule:nonzero;"/>
    </g>
    <g transform="matrix(0.0302915,0,0,0.0302915,-1.23082,-38.5429)">
        <path d="M1783,2235.39L1783,2596C1783,2621.81 1779.19,2646.93 1772.33,2670.72C1760.25,2712.58 1738.33,2750.72 1709.12,2782.58C1654.11,2842.75 1573.12,2880.89 1483.23,2880.89C1483.23,2880.89 1439.4,2921.18 1376.52,2921.18C1313.7,2921.18 1269.82,2880.89 1269.82,2880.89C1179.99,2880.89 1098.86,2842.75 1043.84,2782.58C998.014,2732.53 969.999,2667.2 969.999,2596L969.999,2235.39C969.999,2215.18 972.455,2195.17 976.672,2176.16C1005.44,2047.5 1126.36,1950 1269.81,1950L1483.19,1950C1647.92,1950 1783,2078.71 1783,2235.39Z" style="fill:rgb(253,195,136);fill-rule:nonzero;"/>
    </g>
    <g transform="matrix(0.0302915,0,0,0.0302915,-1.23082,-38.5429)">
        <path d="M1550.02,2679.64C1535.36,2719.28 1498.08,2766.74 1405.77,2790.46C1405.77,2790.46 1270.36,2831.69 1206.9,2687.84C1204.3,2682.24 1201.94,2676.33 1199.73,2670.18C1199.73,2670.18 1357.46,2746.56 1557.98,2614.69C1557.98,2614.69 1563.19,2644.01 1550.02,2679.64Z" style="fill:white;fill-rule:nonzero;"/>
    </g>
    <g transform="matrix(0.0302915,0,0,0.0302915,-1.23082,-38.5429)">
        <path d="M1205.23,2675.87C1206.71,2679.66 1208.21,2683.18 1209.76,2686.51C1271.34,2826.12 1399.42,2789.11 1404.82,2787.45C1497.95,2763.51 1534,2715.02 1547,2678.55C1557,2652.51 1556.2,2629.71 1555.4,2620.09C1380.98,2732.57 1237.66,2688.37 1205.23,2675.87ZM1362.56,2798.84C1316.42,2798.84 1245.04,2782.09 1204.03,2689.11C1201.54,2683.76 1199.16,2677.9 1196.77,2671.24L1194.17,2664L1201.1,2667.35C1202.66,2668.1 1359.67,2741.33 1556.25,2612.05L1560.24,2609.43L1561.09,2614.14C1561.31,2615.37 1566,2644.72 1553,2680.73C1539,2718.61 1502.21,2768.93 1406.57,2793.51C1406.12,2793.65 1388.24,2798.84 1362.56,2798.84Z" style="fill:rgb(245,208,184);fill-rule:nonzero;"/>
    </g>
    <g transform="matrix(0.0302915,0,0,0.0302915,-1.23082,-38.5429)">
        <path d="M1550.02,2679.64C1535.36,2719.28 1498.08,2766.74 1405.77,2790.46C1405.77,2790.46 1270.36,2831.69 1206.9,2687.84C1273.19,2724.41 1415.47,2779.51 1550.02,2679.64Z" style="fill:rgb(199,60,42);fill-rule:nonzero;"/>
    </g>
    <g transform="matrix(0.0302915,0,0,0.0302915,-1.23082,-38.5429)">
        <path d="M1795.35,2593.38L1785.05,2604.92C1785.05,2604.92 1781.29,2418.63 1769.16,2371.92C1769.16,2371.92 1741.56,2266.75 1698.79,2246.12C1698.79,2246.12 1736.4,2116.59 1638.12,2073.6C1638.12,2073.6 1518.91,2193.96 1324.16,2193.1C1324.16,2193.1 1188.57,2203.42 1065.72,2119.17C1065.72,2119.17 1036.6,2167.31 1060.26,2230.07C1060.26,2230.07 981.084,2313.46 971.075,2415.76C971.075,2415.76 967.023,2549.61 973.27,2584.03C973.27,2584.03 966.055,2580.78 938.649,2551.28C916.547,2527.48 907.482,2496.81 899.862,2465.98C876.295,2370.63 876.147,2224.84 896.756,2146.96C896.756,2146.96 927.09,2016.29 953.785,2005.97C953.785,2005.97 893.116,1820.28 905.856,1772.71C905.856,1772.71 941.651,1863.27 1061.17,1852.38C1061.17,1852.38 1010.21,1782.46 1021.73,1707.95C1021.73,1707.95 1112.73,1775.01 1209.2,1757.24C1209.2,1757.24 1270.51,1750.66 1310.22,1735.57C1327.05,1729.18 1344.35,1723.97 1362.18,1720.86C1430.07,1709.03 1575.22,1696.07 1645.4,1783.03C1645.4,1783.03 1700.91,1840.63 1710.01,1898.66C1710.01,1898.66 1859.25,2003.11 1866.53,2185.36C1866.53,2185.36 1879.64,2317.63 1862.47,2434.16C1856.48,2474.79 1843.56,2514.23 1824.51,2551.09C1816.67,2566.27 1806.88,2580.47 1795.35,2593.38Z" style="fill:rgb(74,67,66);fill-rule:nonzero;"/>
    </g>
    <g transform="matrix(0.0302915,0,0,0.0302915,-1.23082,-38.5429)">
        <path d="M937.721,1850.08C937.721,1850.08 1057.84,2271.91 1495.87,2120.6C1495.87,2120.6 1063.91,2148.11 937.721,1850.08Z" style="fill:rgb(102,99,98);fill-rule:nonzero;"/>
    </g>
    <g transform="matrix(0.0302915,0,0,0.0302915,-1.23082,-38.5429)">
        <path d="M1056.91,1771.09C1056.91,1771.09 1193.63,2140.35 1574.29,1977.94C1574.29,1977.94 1190.41,2029.41 1056.91,1771.09Z" style="fill:rgb(102,99,98);fill-rule:nonzero;"/>
    </g>
    <g transform="matrix(0.0302915,0,0,0.0302915,-1.23082,-38.5429)">
        <path d="M1179.73,2404.68C1170.62,2414.29 1166.68,2429.04 1171.39,2441.42C1174.78,2450.31 1182.22,2457.33 1190.86,2461.33C1199.5,2465.34 1209.24,2466.53 1218.74,2466.02C1229.84,2465.43 1241.06,2462.45 1249.98,2455.84C1258.91,2449.22 1265.25,2438.62 1265.08,2427.51C1264.91,2416.3 1258.14,2405.82 1248.88,2399.51C1233.28,2388.88 1209.66,2387.37 1192.66,2395.43C1187.84,2397.71 1183.4,2400.8 1179.73,2404.68Z" style="fill:rgb(62,44,56);fill-rule:nonzero;"/>
    </g>
    <g transform="matrix(0.0302915,0,0,0.0302915,-1.23082,-38.5429)">
        <path d="M1224.46,2398.82C1220.33,2398.6 1215.83,2400.18 1213.71,2403.73C1211.42,2407.58 1212.45,2412.54 1214.27,2416.63C1217.45,2423.78 1222.87,2429.93 1229.57,2433.98C1234.2,2436.77 1240.07,2438.56 1244.98,2436.29C1249.27,2434.31 1251.82,2429.5 1251.9,2424.78C1251.98,2420.06 1249.89,2415.51 1246.93,2411.83C1241.52,2405.09 1233.33,2399.28 1224.46,2398.82Z" style="fill:white;fill-rule:nonzero;"/>
    </g>
    <g transform="matrix(0.0302915,0,0,0.0302915,-1.23082,-38.5429)">
        <path d="M1507.05,2404.68C1497.94,2414.29 1494,2429.04 1498.71,2441.42C1502.1,2450.31 1509.54,2457.33 1518.18,2461.33C1526.81,2465.34 1536.56,2466.53 1546.06,2466.02C1557.16,2465.43 1568.38,2462.45 1577.3,2455.84C1586.23,2449.22 1592.57,2438.62 1592.4,2427.51C1592.23,2416.3 1585.46,2405.82 1576.2,2399.51C1560.6,2388.88 1536.97,2387.37 1519.97,2395.43C1515.16,2397.71 1510.72,2400.8 1507.05,2404.68Z" style="fill:rgb(62,44,56);fill-rule:nonzero;"/>
    </g>
    <g transform="matrix(0.0302915,0,0,0.0302915,-1.23082,-38.5429)">
        <path d="M1551.78,2398.82C1547.64,2398.6 1543.15,2400.18 1541.03,2403.73C1538.74,2407.58 1539.77,2412.54 1541.58,2416.63C1544.77,2423.78 1550.18,2429.93 1556.89,2433.98C1561.52,2436.77 1567.39,2438.56 1572.3,2436.29C1576.58,2434.31 1579.14,2429.5 1579.22,2424.78C1579.3,2420.06 1577.21,2415.51 1574.25,2411.83C1568.84,2405.09 1560.65,2399.28 1551.78,2398.82Z" style="fill:white;fill-rule:nonzero;"/>
    </g>
    <g transform="matrix(0.0302915,0,0,0.0302915,-1.23082,-38.5429)">
        <path d="M1694.07,2511.4C1666.38,2542.88 1630.62,2557.23 1591.41,2558.23C1558.87,2557.92 1531.04,2549.74 1506.24,2532.11C1442.92,2487.29 1434.36,2401 1487.74,2346.11C1541.93,2290.4 1635.09,2290.27 1689.42,2345.85C1734.73,2392.12 1736.94,2462.81 1694.07,2511.4ZM1243.89,2532.11C1219.08,2549.74 1191.26,2557.92 1158.72,2558.23C1119.5,2557.23 1083.75,2542.88 1056.05,2511.4C1013.19,2462.81 1015.39,2392.12 1060.71,2345.85C1115.03,2290.27 1208.19,2290.4 1262.39,2346.11C1315.77,2401 1307.21,2487.29 1243.89,2532.11ZM1780.56,2353.91C1778.48,2344.85 1774.01,2339.19 1763.63,2337.86C1748.71,2335.97 1735.24,2329.36 1722.65,2321.18C1692.94,2301.92 1660.9,2288.58 1625.65,2283.54C1593.93,2279.01 1562.83,2282.34 1531.67,2289.14C1498.06,2296.38 1471.37,2314.95 1446.63,2337.3C1441.28,2342.14 1436.12,2347.24 1430.9,2352.21C1421.77,2360.84 1414.84,2361.53 1404.27,2354.67C1394.64,2348.44 1384.88,2345.1 1375.06,2344.28C1365.24,2345.1 1355.48,2348.44 1345.86,2354.67C1335.28,2361.53 1328.36,2360.84 1319.23,2352.21C1314,2347.24 1308.84,2342.14 1303.49,2337.3C1278.76,2314.95 1252.07,2296.38 1218.46,2289.14C1187.3,2282.34 1156.2,2279.01 1124.48,2283.54C1089.23,2288.58 1057.19,2301.92 1027.47,2321.18C1014.89,2329.36 1001.41,2335.97 986.499,2337.86C976.114,2339.19 971.644,2344.85 969.566,2353.91C968.559,2358.57 967.929,2363.29 967.047,2368.01L967.047,2385.89C969.566,2388.78 971.515,2392.62 974.663,2394.51C986.812,2401.88 993.359,2412.45 996.129,2426.18C998.71,2439.02 1001.6,2451.92 1005.51,2464.45C1016.52,2499.95 1035.16,2529.78 1067.45,2550.37C1108.11,2576.3 1151.16,2587.82 1198.88,2575.42C1232.93,2566.61 1263.65,2551.56 1288.13,2525.57C1308.4,2504.1 1321.06,2478.36 1329.93,2450.54C1332.7,2442.04 1334.84,2433.41 1337.61,2424.92C1341.26,2413.71 1348.94,2406.35 1360.71,2404.96C1365.43,2404.46 1370.28,2404.14 1375.06,2404.02C1379.85,2404.14 1384.69,2404.46 1389.41,2404.96C1401.19,2406.35 1408.87,2413.71 1412.52,2424.92C1415.28,2433.41 1417.43,2442.04 1420.19,2450.54C1429.07,2478.36 1441.72,2504.1 1461.99,2525.57C1486.48,2551.56 1517.2,2566.61 1551.25,2575.42C1598.96,2587.82 1642.02,2576.3 1682.68,2550.37C1714.97,2529.78 1733.6,2499.95 1744.62,2464.45C1748.52,2451.92 1751.42,2439.02 1754,2426.18C1756.77,2412.45 1763.31,2401.88 1775.46,2394.51C1778.61,2392.62 1780.56,2388.78 1783.08,2385.89L1783.08,2368.01C1782.2,2363.29 1781.57,2358.57 1780.56,2353.91Z" style="fill:rgb(51,51,51);fill-rule:nonzero;"/>
    </g>
    <g transform="matrix(0.0302915,0,0,0.0302915,-1.23082,-38.5429)">
        <path d="M1158.72,2558.23C1119.5,2557.23 1083.75,2542.88 1056.05,2511.4C1035.46,2488.06 1025.27,2459.61 1025.26,2431.22C1025.26,2400.52 1037.17,2369.89 1060.71,2345.85C1087.82,2318.11 1124.62,2304.25 1161.41,2304.25C1198.33,2304.25 1235.24,2318.2 1262.39,2346.11C1286,2370.39 1297.5,2400.82 1297.49,2431.08C1297.48,2469.23 1279.19,2507.12 1243.89,2532.11C1219.08,2549.74 1191.26,2557.92 1158.72,2558.23ZM1216.81,2390.3C1208.31,2390.3 1199.89,2392 1192.66,2395.43C1187.84,2397.71 1183.4,2400.8 1179.73,2404.68C1170.62,2414.29 1166.68,2429.04 1171.39,2441.42C1174.78,2450.31 1182.22,2457.33 1190.86,2461.33C1198.26,2464.76 1206.48,2466.13 1214.66,2466.13C1216.03,2466.13 1217.39,2466.09 1218.74,2466.02C1229.84,2465.43 1241.06,2462.45 1249.98,2455.84C1258.91,2449.22 1265.25,2438.62 1265.08,2427.51C1264.91,2416.3 1258.14,2405.82 1248.88,2399.51C1239.91,2393.4 1228.3,2390.3 1216.81,2390.3Z" style="fill:rgb(254,225,196);fill-rule:nonzero;"/>
    </g>
    <g transform="matrix(0.0302915,0,0,0.0302915,-1.23082,-38.5429)">
        <path d="M1214.66,2466.13C1206.48,2466.13 1198.26,2464.76 1190.86,2461.33C1182.22,2457.33 1174.78,2450.31 1171.39,2441.42C1166.68,2429.04 1170.62,2414.29 1179.73,2404.68C1183.4,2400.8 1187.84,2397.71 1192.66,2395.43C1199.89,2392 1208.31,2390.3 1216.81,2390.3C1228.3,2390.3 1239.91,2393.4 1248.88,2399.51C1258.14,2405.82 1264.91,2416.3 1265.08,2427.51C1265.25,2438.62 1258.91,2449.22 1249.98,2455.84C1241.06,2462.45 1229.84,2465.43 1218.74,2466.02C1217.39,2466.09 1216.03,2466.13 1214.66,2466.13ZM1223.71,2398.8C1219.79,2398.8 1215.7,2400.39 1213.71,2403.73C1211.42,2407.58 1212.45,2412.54 1214.27,2416.63C1217.45,2423.78 1222.87,2429.93 1229.57,2433.98C1232.73,2435.88 1236.47,2437.32 1240.08,2437.32C1241.77,2437.32 1243.42,2437.01 1244.98,2436.29C1249.27,2434.31 1251.82,2429.5 1251.9,2424.78C1251.98,2420.06 1249.89,2415.51 1246.93,2411.83C1241.52,2405.09 1233.33,2399.28 1224.46,2398.82C1224.21,2398.81 1223.96,2398.8 1223.71,2398.8Z" style="fill:rgb(159,150,156);fill-rule:nonzero;"/>
    </g>
    <g transform="matrix(0.0302915,0,0,0.0302915,-1.23082,-38.5429)">
        <path d="M1240.08,2437.32C1236.47,2437.32 1232.73,2435.88 1229.57,2433.98C1222.87,2429.93 1217.45,2423.78 1214.27,2416.63C1212.45,2412.54 1211.42,2407.58 1213.71,2403.73C1215.7,2400.39 1219.79,2398.8 1223.71,2398.8C1223.96,2398.8 1224.21,2398.81 1224.46,2398.82C1233.33,2399.28 1241.52,2405.09 1246.93,2411.83C1249.89,2415.51 1251.98,2420.06 1251.9,2424.78C1251.82,2429.5 1249.27,2434.31 1244.98,2436.29C1243.42,2437.01 1241.77,2437.32 1240.08,2437.32Z" style="fill:white;fill-rule:nonzero;"/>
    </g>
    <g transform="matrix(0.0302915,0,0,0.0302915,-1.23082,-38.5429)">
        <path d="M1591.41,2558.23C1558.87,2557.92 1531.04,2549.74 1506.24,2532.11C1470.93,2507.12 1452.65,2469.23 1452.64,2431.08C1452.63,2400.82 1464.12,2370.39 1487.74,2346.11C1514.88,2318.21 1551.8,2304.25 1588.72,2304.25C1625.51,2304.25 1662.3,2318.11 1689.42,2345.85C1712.96,2369.89 1724.87,2400.52 1724.86,2431.22C1724.86,2459.61 1714.67,2488.06 1694.07,2511.4C1666.38,2542.88 1630.62,2557.23 1591.41,2558.23ZM1544.13,2390.3C1535.63,2390.3 1527.21,2392 1519.97,2395.43C1515.16,2397.71 1510.72,2400.8 1507.05,2404.68C1497.94,2414.29 1494,2429.04 1498.71,2441.42C1502.1,2450.31 1509.54,2457.33 1518.18,2461.33C1525.58,2464.76 1533.8,2466.13 1541.98,2466.13C1543.34,2466.13 1544.7,2466.09 1546.06,2466.02C1557.16,2465.43 1568.38,2462.45 1577.3,2455.84C1586.23,2449.22 1592.57,2438.62 1592.4,2427.51C1592.23,2416.3 1585.46,2405.82 1576.2,2399.51C1567.23,2393.4 1555.61,2390.3 1544.13,2390.3Z" style="fill:rgb(254,225,196);fill-rule:nonzero;"/>
    </g>
    <g transform="matrix(0.0302915,0,0,0.0302915,-1.23082,-38.5429)">
        <path d="M1541.98,2466.13C1533.8,2466.13 1525.58,2464.76 1518.18,2461.33C1509.54,2457.33 1502.1,2450.31 1498.71,2441.42C1494,2429.04 1497.94,2414.29 1507.05,2404.68C1510.72,2400.8 1515.16,2397.71 1519.97,2395.43C1527.21,2392 1535.63,2390.3 1544.13,2390.3C1555.61,2390.3 1567.23,2393.4 1576.2,2399.51C1585.46,2405.82 1592.23,2416.3 1592.4,2427.51C1592.57,2438.62 1586.23,2449.22 1577.3,2455.84C1568.38,2462.45 1557.16,2465.43 1546.06,2466.02C1544.7,2466.09 1543.34,2466.13 1541.98,2466.13ZM1551.03,2398.8C1547.11,2398.8 1543.02,2400.39 1541.03,2403.73C1538.74,2407.58 1539.77,2412.54 1541.58,2416.63C1544.77,2423.78 1550.18,2429.93 1556.89,2433.98C1560.05,2435.88 1563.79,2437.32 1567.4,2437.32C1569.08,2437.32 1570.74,2437.01 1572.3,2436.29C1576.58,2434.31 1579.14,2429.5 1579.22,2424.78C1579.3,2420.06 1577.21,2415.51 1574.25,2411.83C1568.84,2405.09 1560.65,2399.28 1551.78,2398.82C1551.53,2398.81 1551.28,2398.8 1551.03,2398.8Z" style="fill:rgb(159,150,156);fill-rule:nonzero;"/>
    </g>
    <g transform="matrix(0.0302915,0,0,0.0302915,-1.23082,-38.5429)">
        <path d="M1567.4,2437.32C1563.79,2437.32 1560.05,2435.88 1556.89,2433.98C1550.18,2429.93 1544.77,2423.78 1541.58,2416.63C1539.77,2412.54 1538.74,2407.58 1541.03,2403.73C1543.02,2400.39 1547.11,2398.8 1551.03,2398.8C1551.28,2398.8 1551.53,2398.81 1551.78,2398.82C1560.65,2399.28 1568.84,2405.09 1574.25,2411.83C1577.21,2415.51 1579.3,2420.06 1579.22,2424.78C1579.14,2429.5 1576.58,2434.31 1572.3,2436.29C1570.74,2437.01 1569.08,2437.32 1567.4,2437.32Z" style="fill:white;fill-rule:nonzero;"/>
    </g>
    <g transform="matrix(0.0302915,0,0,0.0302915,-1.23082,-38.5429)">
        <path d="M1070.16,2245.88C1070.16,2245.88 1083.93,2209.3 1149.81,2203.68C1149.81,2203.68 1282.17,2193.83 1305.59,2237.4L1201.86,2228.79C1193.87,2228.13 1185.81,2227.94 1177.78,2228.31C1155.6,2229.31 1110.14,2232.91 1070.16,2245.88Z" style="fill:rgb(61,55,54);fill-rule:nonzero;"/>
    </g>
    <g transform="matrix(0.0302915,0,0,0.0302915,-1.23082,-38.5429)">
        <path d="M1685.37,2245.88C1685.37,2245.88 1671.6,2209.3 1605.72,2203.68C1605.72,2203.68 1473.36,2193.83 1449.94,2237.4L1553.68,2228.79C1561.66,2228.13 1569.72,2227.94 1577.75,2228.31C1599.93,2229.31 1645.4,2232.91 1685.37,2245.88Z" style="fill:rgb(61,55,54);fill-rule:nonzero;"/>
    </g>
    <g transform="matrix(0.0302915,0,0,0.0302915,-1.23082,-38.5429)">
        <path d="M1014.87,1552.5C1014.87,1552.5 1062.87,1508.05 1119.55,1511.92L1119.55,1847.52C1119.55,1847.52 1022.77,1858.47 1022.77,1853.97C1022.77,1849.46 1014.87,1552.5 1014.87,1552.5Z" style="fill:rgb(225,142,37);fill-rule:nonzero;"/>
    </g>
    <g transform="matrix(0.0302915,0,0,0.0302915,-1.23082,-38.5429)">
        <path d="M1232.28,1450.43C1238.07,1450.43 1261.26,1432.25 1327.61,1450.93L1355.96,1823.75C1355.96,1823.75 1234.85,1827.29 1234.85,1823.75C1234.85,1816.66 1232.28,1450.43 1232.28,1450.43Z" style="fill:rgb(225,142,37);fill-rule:nonzero;"/>
    </g>
    <g transform="matrix(0.0302915,0,0,0.0302915,-1.23082,-38.5429)">
        <path d="M1455.16,1431.4C1457.09,1431.4 1493.81,1428.82 1566.6,1477.78L1555,1805.01C1555,1805.01 1438.41,1805.01 1438.41,1799.21C1438.41,1793.41 1455.16,1431.4 1455.16,1431.4Z" style="fill:rgb(225,142,37);fill-rule:nonzero;"/>
    </g>
    <g transform="matrix(0.0302915,0,0,0.0302915,-1.23082,-38.5429)">
        <path d="M1668.37,1501.61C1670.95,1504.19 1701.87,1503.54 1762.42,1597.59L1758.56,1797.92C1758.56,1797.92 1659.36,1829.99 1659.36,1824.91C1659.36,1819.82 1668.37,1501.61 1668.37,1501.61Z" style="fill:rgb(225,142,37);fill-rule:nonzero;"/>
    </g>
    <g transform="matrix(0.0302915,0,0,0.0302915,-1.23082,-38.5429)">
        <path d="M777.309,2156.72C777.309,2156.72 823.183,1683.21 1009.18,1547.13C1015.98,1542.16 1023.75,1539.82 1024.43,1548.2L1044.83,1778.6L1078.32,1778.6L1078.32,1502.9C1078.32,1502.9 1120.56,1448.44 1219.48,1432.43C1232.1,1430.38 1243.66,1439.9 1244.19,1452.68L1257.4,1769.58L1292.18,1768.29L1292.18,1447.51C1292.18,1443.61 1293.43,1439.83 1295.73,1436.7C1300.89,1429.64 1311.99,1418.14 1330.83,1415.29C1330.83,1415.29 1391.15,1402.77 1452.96,1413.04C1463.27,1414.75 1471.31,1422.93 1472.88,1433.27C1473.47,1437.15 1473.84,1441.84 1473.84,1447.5C1473.84,1486.15 1480.28,1760.56 1480.28,1760.56L1511.2,1760.56L1528.4,1465.73C1529.02,1455.08 1535.57,1446.93 1545.66,1443.47C1553.43,1440.81 1567.41,1439.78 1577.87,1441.86C1577.87,1441.86 1659.83,1455.94 1683.73,1490.45C1684.66,1491.78 1685.15,1493.38 1685.21,1495L1695.43,1768.29L1716.04,1768.29L1730.56,1555.99C1730.68,1554.36 1732.15,1553.16 1733.76,1553.4C1746.28,1555.25 1796.02,1569.95 1846.16,1685.84C1846.16,1685.84 1946.65,1839.2 1942.79,2038.89L1950.52,2156.72L777.309,2156.72Z" style="fill:rgb(246,163,27);fill-rule:nonzero;"/>
    </g>
    <g transform="matrix(0.0302915,0,0,0.0302915,-1.23082,-38.5429)">
        <path d="M1614.31,2124.85L1508.03,2153.19L1230.3,2153.19L1124.01,2124.85L779.489,2124.85L779.489,2206.05C779.489,2206.05 918.564,2193.86 964.074,2206.05C1000.41,2215.78 1045.39,2239.85 1071.35,2253.78C1085.43,2261.34 1100.66,2266.54 1116.64,2266.54L1621.68,2266.54C1637.66,2266.54 1653.38,2261.34 1667.47,2253.78C1693.42,2239.85 1738.03,2216.34 1774.37,2206.61C1819.88,2194.42 1959.08,2206.05 1959.08,2206.05L1959.08,2124.85L1614.31,2124.85Z" style="fill:rgb(225,142,37);fill-rule:nonzero;"/>
    </g>
    <g transform="matrix(0.0302915,0,0,0.0302915,-1.23082,-38.5429)">
        <path d="M847.36,3859.81C859.82,3925.96 791.99,3904.69 791.99,3904.69C796.71,3954.05 733.93,3933.94 733.93,3933.94C729.55,3961.42 686.1,3933.24 686.1,3933.24C636.82,3907.16 631.34,3834.23 631.34,3834.23C620.85,3807.62 639.72,3720.91 639.72,3720.91C627.7,3649.02 616.37,3576.89 615.61,3504.06C615.11,3457.29 619.2,3410.52 627.57,3364.51C642.43,3282.74 670.81,3203.43 711.23,3130.79C715.44,3123.21 719.78,3115.72 724.26,3108.3L804.84,3206.04C798.39,3218.51 792.51,3231.27 787.2,3244.22C757.8,3316.1 745.15,3393.9 741.06,3471.45C738.54,3518.6 739.3,3567 755.67,3611.32C760.89,3625.29 767.82,3638.83 776.44,3651.16C808.07,3695.12 812.98,3705.64 812.98,3705.64C859.9,3719.36 863.63,3762.19 863.63,3762.19C865.27,3799.54 871.98,3811.6 871.98,3811.6C899.13,3864.55 847.36,3859.81 847.36,3859.81Z" style="fill:rgb(253,195,136);fill-rule:nonzero;"/>
    </g>
</svg>
