<?xml version="1.0" encoding="UTF-8" standalone="no"?><!DOCTYPE svg PUBLIC "-//W3C//DTD SVG 1.1//EN" "http://www.w3.org/Graphics/SVG/1.1/DTD/svg11.dtd"><svg width="100%" height="100%" viewBox="0 0 1875 2500" version="1.1" xmlns="http://www.w3.org/2000/svg" xmlns:xlink="http://www.w3.org/1999/xlink" xml:space="preserve" xmlns:serif="http://www.serif.com/" style="fill-rule:evenodd;clip-rule:evenodd;stroke-linejoin:round;stroke-miterlimit:2;"><g id="Book"><rect x="113.649" y="-0" width="1761.35" height="2500" style="fill:#fff;"/><clipPath id="_clip1"><rect x="113.649" y="-0" width="1761.35" height="2500"/></clipPath><g clip-path="url(#_clip1)"><g opacity="0.03"><path d="M776.165,1373.48c-671.2,-366.324 -1006.17,-833.852 -1032.43,-1394.3l1432.85,-345.62c-489.276,443.171 -773.587,965.149 -400.415,1739.92Z" style="fill:#0f2a63;"/><path d="M-60.88,-1168.17c-1215.62,-78.553 -382.351,1382.24 -83.816,1333.31c639.198,-104.763 1517.66,-249.985 1581.91,536.788c88.634,1085.29 -1248.33,1731.3 -1136.01,1919.91c47.623,79.969 1576.2,-685.209 1704.4,-1582.86c146.649,-1026.78 -426.881,-2101.19 -2066.49,-2207.14Z" style="fill:#3172e4;"/><path d="M-107.424,-859.915c-1129.77,-254.149 -134.711,1264.31 304.803,1212.7c524.692,-61.616 1066.42,-50.13 1116.06,505.524c89.045,996.662 -1183.98,1590.7 -1077.45,1763.99c45.168,73.475 1523.95,-625.343 1616.54,-1454.32c98.461,-881.599 -525.166,-1705.14 -1959.96,-2027.9Z" style="fill:#181ead;"/><path d="M-2215.14,691.86c582.811,-293.426 1360.38,-961.722 1586.88,-803.385c147.135,102.858 97.298,326.949 79.845,424.259c-76.322,425.552 -526.436,-13.455 -1527.27,517.411c1273.06,12.198 1549.44,-104.376 1999.05,-336.672c262.922,-135.843 588.693,-738.551 758.576,-1081.11c-0,-0 -664.44,-688.214 -863.945,-640.391c-1336.85,320.459 -1930.04,1009.07 -2033.13,1919.88Z" style="fill:#3172e4;"/><path d="M711.609,2460.82c25.102,-71.288 -51.234,-239.493 -112.202,-250.826c-841.512,-156.425 -1690,-177.359 -2542.87,-113.01c1588.76,155.131 2252.39,824.136 1700.89,2168.1c401.925,-587.014 736.331,-1185.63 954.173,-1804.26Z" style="fill:#181ead;"/></g></g><path d="M1563.62,344.464l-158.213,-113.094l-176.747,-56.034l-353.285,-29.126l-261.154,65.025l-230.055,185.224l-88.613,329.109l15.337,316.986l179.514,306.923l376.251,121.823l309.685,-85.368l297.368,65.001l81.291,-149.758l138.093,-279.777l-69.466,-237.326l63.066,-230.778l-123.072,-208.83Z" style="fill:#613358;"/><path d="M113.649,-0l-85.237,-0c-15.681,-0 -28.412,12.731 -28.412,28.412l-0,2443.18c-0,15.681 12.731,28.412 28.412,28.412l85.237,0l0,-2500Z" style="fill:#613358;"/><path d="M27.458,76.535c0,-4.489 0.608,-8.829 1.825,-13.02c1.217,-4.192 2.799,-7.558 4.746,-10.1l9.897,4.462c-1.785,2.433 -3.218,5.327 -4.299,8.68c-1.082,3.353 -1.623,6.706 -1.623,10.059c0,3.732 0.554,6.49 1.663,8.275c1.109,1.784 2.583,2.677 4.421,2.677c1.352,-0 2.475,-0.528 3.367,-1.582c0.892,-1.055 1.609,-2.407 2.15,-4.056c0.541,-1.65 1.135,-3.881 1.784,-6.693c1.028,-4.327 2.056,-7.869 3.083,-10.627c1.028,-2.758 2.677,-5.125 4.949,-7.099c2.271,-1.974 5.3,-2.961 9.085,-2.961c3.3,0 6.288,0.893 8.965,2.678c2.677,1.784 4.799,4.475 6.368,8.071c1.568,3.597 2.352,7.991 2.352,13.183c0,3.623 -0.432,7.166 -1.298,10.627c-0.865,3.461 -2.109,6.49 -3.731,9.086l-9.978,-4.056c2.974,-5.246 4.461,-10.492 4.461,-15.738c0,-3.678 -0.595,-6.395 -1.784,-8.153c-1.19,-1.758 -2.759,-2.637 -4.706,-2.637c-1.946,0 -3.393,1.014 -4.34,3.042c-0.946,2.029 -1.879,5.125 -2.798,9.289c-1.028,4.327 -2.056,7.869 -3.083,10.627c-1.028,2.758 -2.65,5.125 -4.867,7.099c-2.218,1.974 -5.219,2.961 -9.005,2.961c-3.245,-0 -6.206,-0.906 -8.883,-2.718c-2.677,-1.812 -4.8,-4.529 -6.368,-8.153c-1.569,-3.623 -2.353,-8.031 -2.353,-13.223Z" style="fill:#fff;fill-opacity:0.25;fill-rule:nonzero;"/><path d="M74.51,120.585l-0,-18.172l10.708,0l-0,49.486l-10.708,-0l-0,-18.172l-46.078,-0l-0,-13.142l46.078,-0Z" style="fill:#fff;fill-opacity:0.25;fill-rule:nonzero;"/><path d="M28.432,195.137l15.819,-10.951l-0,-12.088l-15.819,0l-0,-13.142l56.786,0l-0,24.581c-0,5.029 -0.838,9.397 -2.515,13.101c-1.676,3.705 -4.056,6.558 -7.139,8.559c-3.082,2.001 -6.733,3.001 -10.951,3.001c-4.219,0 -7.856,-1.014 -10.912,-3.042c-3.055,-2.028 -5.394,-4.908 -7.017,-8.639l-18.252,12.736l-0,-14.116Zm36.181,-0.243c3.19,0 5.638,-1.028 7.341,-3.083c1.704,-2.055 2.556,-5.056 2.556,-9.004l-0,-10.709l-19.794,0l-0,10.709c-0,3.948 0.865,6.949 2.595,9.004c1.731,2.055 4.165,3.083 7.302,3.083Z" style="fill:#fff;fill-opacity:0.25;fill-rule:nonzero;"/><path d="M40.6,255.98l0,-26.365l-12.168,-5.03l-0,-13.466l56.786,25.31l-0,12.98l-56.786,25.392l-0,-13.791l12.168,-5.03Zm9.978,-4.137l21.741,-9.005l-21.741,-9.005l0,18.01Z" style="fill:#fff;fill-opacity:0.25;fill-rule:nonzero;"/><path d="M74.51,289.646l-0,-18.171l10.708,-0l-0,49.485l-10.708,-0l-0,-18.172l-46.078,0l-0,-13.142l46.078,0Z" style="fill:#fff;fill-opacity:0.25;fill-rule:nonzero;"/><path d="M38.978,371.987l-10.546,-0l-0,-43.969l56.786,-0l-0,42.914l-10.546,-0l-0,-29.853l-12.331,-0l0,26.365l-10.221,-0l-0,-26.365l-13.142,-0l-0,30.908Z" style="fill:#fff;fill-opacity:0.25;fill-rule:nonzero;"/><path d="M57.717,420.661l0,12.006l-23.039,-0c-2.326,-3.083 -4.11,-6.652 -5.354,-10.708c-1.244,-4.057 -1.866,-8.14 -1.866,-12.25c0,-5.895 1.257,-11.195 3.772,-15.9c2.515,-4.705 6.003,-8.397 10.465,-11.074c4.462,-2.677 9.505,-4.015 15.13,-4.015c5.624,-0 10.667,1.338 15.129,4.015c4.462,2.677 7.95,6.396 10.465,11.155c2.515,4.759 3.772,10.113 3.772,16.062c0,4.976 -0.838,9.492 -2.514,13.548c-1.677,4.056 -4.111,7.463 -7.302,10.222l-7.787,-8.437c4.272,-4.057 6.408,-8.951 6.408,-14.684c0,-3.623 -0.757,-6.841 -2.271,-9.653c-1.514,-2.813 -3.651,-5.003 -6.409,-6.571c-2.758,-1.569 -5.922,-2.353 -9.491,-2.353c-3.516,0 -6.652,0.784 -9.411,2.353c-2.758,1.568 -4.908,3.745 -6.449,6.53c-1.541,2.785 -2.312,5.963 -2.312,9.532c0,3.786 0.811,7.193 2.434,10.222l16.63,-0Z" style="fill:#fff;fill-opacity:0.25;fill-rule:nonzero;"/><path d="M85.218,444.835l-0,13.142l-56.786,0l-0,-13.142l56.786,0Z" style="fill:#fff;fill-opacity:0.25;fill-rule:nonzero;"/><path d="M27.458,498.945c0,-5.895 1.271,-11.209 3.813,-15.941c2.542,-4.732 6.044,-8.437 10.505,-11.114c4.462,-2.677 9.478,-4.016 15.049,-4.016c5.57,0 10.586,1.339 15.048,4.016c4.462,2.677 7.964,6.382 10.506,11.114c2.541,4.732 3.812,10.046 3.812,15.941c0,5.895 -1.271,11.195 -3.812,15.9c-2.542,4.705 -6.044,8.41 -10.506,11.114c-4.462,2.704 -9.478,4.056 -15.048,4.056c-5.571,0 -10.587,-1.352 -15.049,-4.056c-4.461,-2.704 -7.963,-6.409 -10.505,-11.114c-2.542,-4.705 -3.813,-10.005 -3.813,-15.9Zm11.195,-0c0,3.353 0.771,6.381 2.312,9.086c1.541,2.704 3.691,4.826 6.449,6.368c2.759,1.541 5.895,2.312 9.411,2.312c3.515,-0 6.652,-0.771 9.41,-2.312c2.758,-1.542 4.908,-3.664 6.449,-6.368c1.542,-2.705 2.312,-5.733 2.312,-9.086c0,-3.353 -0.77,-6.382 -2.312,-9.086c-1.541,-2.704 -3.691,-4.827 -6.449,-6.368c-2.758,-1.542 -5.895,-2.312 -9.41,-2.312c-3.516,-0 -6.652,0.77 -9.411,2.312c-2.758,1.541 -4.908,3.664 -6.449,6.368c-1.541,2.704 -2.312,5.733 -2.312,9.086Z" style="fill:#fff;fill-opacity:0.25;fill-rule:nonzero;"/><path d="M57.717,601.241l0,12.007l-23.039,-0c-2.326,-3.083 -4.11,-6.652 -5.354,-10.709c-1.244,-4.056 -1.866,-8.139 -1.866,-12.249c0,-5.895 1.257,-11.195 3.772,-15.9c2.515,-4.706 6.003,-8.397 10.465,-11.074c4.462,-2.677 9.505,-4.015 15.13,-4.015c5.624,-0 10.667,1.338 15.129,4.015c4.462,2.677 7.95,6.395 10.465,11.155c2.515,4.759 3.772,10.113 3.772,16.062c0,4.976 -0.838,9.492 -2.514,13.548c-1.677,4.056 -4.111,7.463 -7.302,10.221l-7.787,-8.437c4.272,-4.056 6.408,-8.95 6.408,-14.683c0,-3.623 -0.757,-6.841 -2.271,-9.654c-1.514,-2.812 -3.651,-5.002 -6.409,-6.571c-2.758,-1.568 -5.922,-2.352 -9.491,-2.352c-3.516,-0 -6.652,0.784 -9.411,2.352c-2.758,1.569 -4.908,3.746 -6.449,6.531c-1.541,2.785 -2.312,5.962 -2.312,9.532c0,3.786 0.811,7.193 2.434,10.221l16.63,0Z" style="fill:#fff;fill-opacity:0.25;fill-rule:nonzero;"/><path d="M27.458,650.646c0,-8.113 2.244,-14.427 6.733,-18.943c4.489,-4.516 10.898,-6.774 19.227,-6.774l31.8,0l-0,13.143l-31.314,-0c-10.167,-0 -15.251,4.218 -15.251,12.655c0,4.11 1.23,7.247 3.691,9.41c2.461,2.163 6.314,3.245 11.56,3.245l31.314,0l-0,12.98l-31.8,-0c-8.329,-0 -14.738,-2.258 -19.227,-6.774c-4.489,-4.516 -6.733,-10.83 -6.733,-18.942Z" style="fill:#fff;fill-opacity:0.25;fill-rule:nonzero;"/><path d="M85.218,689.342l-0,13.142l-56.786,-0l-0,-13.142l56.786,-0Z" style="fill:#fff;fill-opacity:0.25;fill-rule:nonzero;"/><path d="M85.218,715.95l-0,25.797c-0,6.166 -1.176,11.614 -3.529,16.347c-2.353,4.732 -5.665,8.409 -9.938,11.032c-4.272,2.623 -9.248,3.935 -14.926,3.935c-5.679,-0 -10.655,-1.312 -14.927,-3.935c-4.273,-2.623 -7.585,-6.3 -9.938,-11.032c-2.352,-4.733 -3.528,-10.181 -3.528,-16.347l-0,-25.797l56.786,0Zm-45.997,25.148c-0,5.679 1.582,10.208 4.746,13.588c3.163,3.381 7.449,5.071 12.858,5.071c5.408,-0 9.694,-1.69 12.858,-5.071c3.164,-3.38 4.746,-7.909 4.746,-13.588l-0,-12.006l-35.208,0l-0,12.006Z" style="fill:#fff;fill-opacity:0.25;fill-rule:nonzero;"/><path d="M38.978,826.927l-10.546,-0l-0,-43.969l56.786,-0l-0,42.914l-10.546,0l-0,-29.853l-12.331,-0l0,26.365l-10.221,-0l-0,-26.365l-13.142,-0l-0,30.908Z" style="fill:#fff;fill-opacity:0.25;fill-rule:nonzero;"/><path d="M85.218,837.392l-0,13.142l-46.078,-0l-0,28.474l-10.708,0l-0,-41.616l56.786,-0Z" style="fill:#fff;fill-opacity:0.25;fill-rule:nonzero;"/><path d="M85.218,886.39l-0,13.142l-56.786,0l-0,-13.142l56.786,0Z" style="fill:#fff;fill-opacity:0.25;fill-rule:nonzero;"/><path d="M85.218,965.08l-56.786,0l-0,-10.789l34.477,-28.312l-34.477,-0l-0,-12.98l56.786,-0l-0,10.87l-34.478,28.231l34.478,0l-0,12.98Z" style="fill:#fff;fill-opacity:0.25;fill-rule:nonzero;"/><path d="M38.978,1022.52l-10.546,-0l-0,-43.969l56.786,-0l-0,42.914l-10.546,-0l-0,-29.853l-12.331,-0l0,26.365l-10.221,-0l-0,-26.365l-13.142,-0l-0,30.908Z" style="fill:#fff;fill-opacity:0.25;fill-rule:nonzero;"/><path d="M27.458,1051.64c0,-4.489 0.608,-8.829 1.825,-13.02c1.217,-4.192 2.799,-7.558 4.746,-10.1l9.897,4.461c-1.785,2.434 -3.218,5.328 -4.299,8.681c-1.082,3.353 -1.623,6.706 -1.623,10.059c0,3.732 0.554,6.49 1.663,8.275c1.109,1.784 2.583,2.677 4.421,2.677c1.352,-0 2.475,-0.528 3.367,-1.582c0.892,-1.055 1.609,-2.407 2.15,-4.056c0.541,-1.65 1.135,-3.881 1.784,-6.693c1.028,-4.327 2.056,-7.869 3.083,-10.627c1.028,-2.758 2.677,-5.125 4.949,-7.099c2.271,-1.974 5.3,-2.961 9.085,-2.961c3.3,0 6.288,0.893 8.965,2.678c2.677,1.784 4.799,4.475 6.368,8.071c1.568,3.597 2.352,7.991 2.352,13.183c0,3.623 -0.432,7.166 -1.298,10.627c-0.865,3.461 -2.109,6.49 -3.731,9.086l-9.978,-4.056c2.974,-5.246 4.461,-10.492 4.461,-15.738c0,-3.678 -0.595,-6.396 -1.784,-8.153c-1.19,-1.758 -2.759,-2.637 -4.706,-2.637c-1.946,0 -3.393,1.014 -4.34,3.042c-0.946,2.029 -1.879,5.125 -2.798,9.289c-1.028,4.327 -2.056,7.869 -3.083,10.627c-1.028,2.758 -2.65,5.125 -4.867,7.099c-2.218,1.974 -5.219,2.961 -9.005,2.961c-3.245,-0 -6.206,-0.906 -8.883,-2.718c-2.677,-1.812 -4.8,-4.529 -6.368,-8.153c-1.569,-3.623 -2.353,-8.031 -2.353,-13.223Z" style="fill:#fff;fill-opacity:0.25;fill-rule:nonzero;"/><path d="M539.924,585.769c-13.222,-0 -25.373,-2.468 -36.454,-7.403c-11.08,-4.935 -20.158,-11.965 -27.235,-21.09l25.14,-30.168c10.615,14.339 22.72,21.509 36.314,21.509c18.437,-0 27.655,-10.801 27.655,-32.404l-0,-93.019l-68.717,-0l-0,-36.314l113.69,-0l0,126.819c0,24.023 -5.959,42.041 -17.877,54.052c-11.919,12.012 -29.424,18.018 -52.516,18.018Z" style="fill:#fff;fill-rule:nonzero;"/><path d="M779.596,540.516l-90.785,-0l-17.319,41.901l-46.37,-0l87.154,-195.537l44.694,-0l87.433,195.537l-47.488,-0l-17.319,-41.901Zm-14.246,-34.359l-31.007,-74.862l-31.006,74.862l62.013,0Z" style="fill:#fff;fill-rule:nonzero;"/><path d="M936.025,505.599l-26.257,27.375l-0,49.443l-44.974,-0l0,-195.537l44.974,-0l-0,91.343l86.594,-91.343l50.281,-0l-81.008,87.153l85.757,108.384l-52.795,-0l-62.572,-76.818Z" style="fill:#fff;fill-rule:nonzero;"/><path d="M1214.81,585.769c-15.457,-0 -30.402,-2.095 -44.834,-6.286c-14.432,-4.19 -26.025,-9.637 -34.778,-16.341l15.364,-34.079c8.38,6.145 18.343,11.08 29.889,14.805c11.546,3.724 23.092,5.587 34.638,5.587c12.85,-0 22.347,-1.909 28.493,-5.727c6.145,-3.817 9.218,-8.892 9.218,-15.224c-0,-4.655 -1.816,-8.52 -5.447,-11.592c-3.632,-3.073 -8.287,-5.54 -13.967,-7.403c-5.68,-1.862 -13.362,-3.91 -23.046,-6.145c-14.898,-3.538 -27.095,-7.077 -36.593,-10.615c-9.497,-3.538 -17.645,-9.218 -24.442,-17.04c-6.797,-7.821 -10.196,-18.25 -10.196,-31.285c0,-11.36 3.073,-21.649 9.218,-30.867c6.146,-9.218 15.41,-16.528 27.794,-21.928c12.384,-5.401 27.515,-8.101 45.393,-8.101c12.477,-0 24.675,1.49 36.593,4.469c11.919,2.98 22.347,7.263 31.286,12.85l-13.967,34.358c-18.064,-10.242 -36.128,-15.363 -54.191,-15.363c-12.664,-0 -22.022,2.048 -28.074,6.145c-6.052,4.097 -9.078,9.498 -9.078,16.202c-0,6.704 3.491,11.685 10.475,14.944c6.983,3.259 17.645,6.472 31.984,9.638c14.898,3.538 27.096,7.076 36.593,10.614c9.498,3.539 17.645,9.125 24.442,16.761c6.798,7.635 10.196,17.97 10.196,31.006c0,11.174 -3.119,21.37 -9.358,30.588c-6.238,9.218 -15.596,16.527 -28.073,21.928c-12.477,5.4 -27.655,8.101 -45.532,8.101Z" style="fill:#fff;fill-rule:nonzero;"/><path d="M1480.18,546.103l-0,36.314l-151.401,-0l-0,-195.537l147.769,-0l0,36.314l-102.796,-0l0,42.459l90.785,0l-0,35.197l-90.785,-0l0,45.253l106.428,-0Z" style="fill:#fff;fill-rule:nonzero;"/><path d="M433.544,1716.32l-48.605,0l-0,47.488l-36.035,-0l0,-47.488l-48.325,0l-0,-34.079l48.325,0l0,-47.487l36.035,-0l-0,47.487l48.605,0l-0,34.079Z" style="fill:#613358;fill-rule:nonzero;"/><path d="M531.033,1601.51l-0,195.537l-45.253,0l-0,-159.223l-39.107,0l-0,-36.314l84.36,0Z" style="fill:#613358;fill-rule:nonzero;"/><path d="M648.913,1800.4c-16.201,0 -30.634,-4.004 -43.297,-12.011c-12.663,-8.008 -22.58,-19.601 -29.75,-34.778c-7.169,-15.177 -10.754,-33.288 -10.754,-54.331c-0,-21.044 3.585,-39.154 10.754,-54.332c7.17,-15.177 17.087,-26.769 29.75,-34.777c12.663,-8.008 27.096,-12.012 43.297,-12.012c16.202,0 30.634,4.004 43.298,12.012c12.663,8.008 22.579,19.6 29.749,34.777c7.17,15.178 10.755,33.288 10.755,54.332c-0,21.043 -3.585,39.154 -10.755,54.331c-7.17,15.177 -17.086,26.77 -29.749,34.778c-12.664,8.007 -27.096,12.011 -43.298,12.011Zm0,-38.269c11.919,-0 21.276,-5.121 28.074,-15.364c6.797,-10.242 10.196,-26.071 10.196,-47.487c-0,-21.416 -3.399,-37.245 -10.196,-47.488c-6.798,-10.242 -16.155,-15.363 -28.074,-15.363c-11.732,-0 -20.997,5.121 -27.794,15.363c-6.797,10.243 -10.196,26.072 -10.196,47.488c0,21.416 3.399,37.245 10.196,47.487c6.797,10.243 16.062,15.364 27.794,15.364Z" style="fill:#613358;fill-rule:nonzero;"/><path d="M544.345,689.633c11.037,0 20.62,1.84 28.75,5.519c8.129,3.679 14.389,8.901 18.781,15.665c4.391,6.765 6.586,14.776 6.586,24.032c0,9.139 -2.195,17.12 -6.586,23.944c-4.392,6.824 -10.652,12.045 -18.781,15.665c-8.13,3.62 -17.713,5.43 -28.75,5.43l-25.1,-0l-0,34.357l-28.839,-0l0,-124.612l53.939,0Zm-1.602,66.756c8.664,0 15.25,-1.869 19.76,-5.607c4.51,-3.738 6.765,-9.049 6.765,-15.933c-0,-7.002 -2.255,-12.372 -6.765,-16.11c-4.51,-3.738 -11.096,-5.608 -19.76,-5.608l-23.498,0l-0,43.258l23.498,0Z" style="fill:#fff;fill-rule:nonzero;"/><path d="M698.329,814.245l-24.032,-34.714l-26.524,0l-0,34.714l-28.839,-0l0,-124.612l53.939,0c11.037,0 20.62,1.84 28.749,5.519c8.13,3.679 14.39,8.901 18.781,15.665c4.391,6.765 6.587,14.776 6.587,24.032c-0,9.257 -2.225,17.238 -6.676,23.944c-4.45,6.705 -10.77,11.838 -18.959,15.398l27.949,40.054l-30.975,-0Zm-0.534,-79.396c0,-7.002 -2.255,-12.372 -6.764,-16.11c-4.51,-3.738 -11.097,-5.608 -19.76,-5.608l-23.498,0l-0,43.436l23.498,0c8.663,0 15.25,-1.898 19.76,-5.696c4.509,-3.798 6.764,-9.138 6.764,-16.022Zm8.901,-80.997l-23.498,25.634l-24.566,0l-23.499,-25.634l20.294,0l15.488,13.351l15.487,-13.351l20.294,0Z" style="fill:#fff;fill-rule:nonzero;"/><rect x="749.776" y="689.633" width="28.839" height="124.611" style="fill:#fff;fill-rule:nonzero;"/><path d="M862.104,689.633c11.037,0 20.62,1.84 28.75,5.519c8.129,3.679 14.389,8.901 18.78,15.665c4.391,6.765 6.587,14.776 6.587,24.032c-0,9.139 -2.196,17.12 -6.587,23.944c-4.391,6.824 -10.651,12.045 -18.78,15.665c-8.13,3.62 -17.713,5.43 -28.75,5.43l-25.1,-0l-0,34.357l-28.839,-0l0,-124.612l53.939,0Zm-1.602,66.756c8.663,0 15.25,-1.869 19.76,-5.607c4.509,-3.738 6.764,-9.049 6.764,-15.933c0,-7.002 -2.255,-12.372 -6.764,-16.11c-4.51,-3.738 -11.097,-5.608 -19.76,-5.608l-23.498,0l-0,43.258l23.498,0Z" style="fill:#fff;fill-rule:nonzero;"/><path d="M1016.09,814.245l-24.032,-34.714l-26.525,0l0,34.714l-28.838,-0l-0,-124.612l53.939,0c11.037,0 20.62,1.84 28.749,5.519c8.13,3.679 14.39,8.901 18.781,15.665c4.391,6.765 6.587,14.776 6.587,24.032c-0,9.257 -2.226,17.238 -6.676,23.944c-4.45,6.705 -10.77,11.838 -18.959,15.398l27.949,40.054l-30.975,-0Zm-0.534,-79.396c-0,-7.002 -2.255,-12.372 -6.765,-16.11c-4.509,-3.738 -11.096,-5.608 -19.76,-5.608l-23.498,0l0,43.436l23.498,0c8.664,0 15.251,-1.898 19.76,-5.696c4.51,-3.798 6.765,-9.138 6.765,-16.022Z" style="fill:#fff;fill-rule:nonzero;"/><path d="M1149.6,787.542l-57.855,0l-11.037,26.703l-29.551,-0l55.541,-124.612l28.483,0l55.719,124.612l-30.263,-0l-11.037,-26.703Zm-9.079,-21.896l-19.76,-47.708l-19.759,47.708l39.519,0Z" style="fill:#fff;fill-rule:nonzero;"/><path d="M1316.93,689.633l-53.939,124.612l-28.482,-0l-53.761,-124.612l31.153,0l37.917,89.008l38.452,-89.008l28.66,0Z" style="fill:#fff;fill-rule:nonzero;"/><rect x="1327.26" y="689.633" width="28.839" height="124.611" style="fill:#fff;fill-rule:nonzero;"/><path d="M1411.46,713.131l-39.876,0l0,-23.498l108.59,0l-0,23.498l-39.876,0l0,101.114l-28.838,-0l-0,-101.114Z" style="fill:#fff;fill-rule:nonzero;"/><path d="M579.104,910.098l0,96.711l-18.375,0l-48.217,-58.717l-0,58.717l-22.106,0l0,-96.711l18.514,0l48.079,58.718l-0,-58.718l22.105,0Z" style="fill:#fff;fill-rule:nonzero;"/><path d="M665.73,986.085l-44.902,0l-8.566,20.724l-22.934,0l43.106,-96.711l22.105,0l43.244,96.711l-23.487,0l-8.566,-20.724Zm-7.046,-16.993l-15.336,-37.027l-15.335,37.027l30.671,-0Z" style="fill:#fff;fill-rule:nonzero;"/><path d="M746.967,910.098l43.935,0c10.5,0 19.779,2.003 27.839,6.01c8.059,4.007 14.322,9.648 18.789,16.924c4.467,7.277 6.701,15.751 6.701,25.422c0,9.671 -2.234,18.145 -6.701,25.421c-4.467,7.276 -10.73,12.918 -18.789,16.924c-8.06,4.007 -17.339,6.01 -27.839,6.01l-43.935,0l0,-96.711Zm42.829,78.336c9.672,0 17.385,-2.694 23.142,-8.082c5.757,-5.388 8.635,-12.688 8.635,-21.898c-0,-9.211 -2.878,-16.51 -8.635,-21.898c-5.757,-5.389 -13.47,-8.083 -23.142,-8.083l-20.447,0l-0,59.961l20.447,0Z" style="fill:#fff;fill-rule:nonzero;"/><rect x="861.086" y="910.098" width="22.382" height="96.711" style="fill:#fff;fill-rule:nonzero;"/><path d="M971.752,956.934l20.447,-0l0,39.237c-5.25,3.961 -11.329,7 -18.237,9.119c-6.908,2.118 -13.862,3.177 -20.862,3.177c-10.039,0 -19.066,-2.141 -27.079,-6.424c-8.013,-4.283 -14.299,-10.224 -18.859,-17.823c-4.559,-7.598 -6.839,-16.187 -6.839,-25.766c0,-9.579 2.28,-18.168 6.839,-25.767c4.56,-7.599 10.892,-13.539 18.997,-17.822c8.105,-4.283 17.224,-6.425 27.356,-6.425c8.473,0 16.164,1.428 23.072,4.283c6.908,2.855 12.711,7 17.408,12.434l-14.368,13.264c-6.908,-7.277 -15.244,-10.915 -25.007,-10.915c-6.171,0 -11.652,1.29 -16.441,3.869c-4.79,2.579 -8.52,6.217 -11.191,10.914c-2.671,4.698 -4.006,10.086 -4.006,16.165c-0,5.987 1.335,11.329 4.006,16.026c2.671,4.698 6.378,8.359 11.122,10.984c4.743,2.625 10.155,3.937 16.234,3.937c6.447,0 12.25,-1.381 17.408,-4.145l-0,-28.322Z" style="fill:#fff;fill-rule:nonzero;"/><rect x="1012.92" y="910.098" width="22.382" height="96.711" style="fill:#fff;fill-rule:nonzero;"/><path d="M1078.27,928.335l-30.948,0l0,-18.237l84.277,0l0,18.237l-30.947,0l-0,78.474l-22.382,0l-0,-78.474Z" style="fill:#fff;fill-rule:nonzero;"/><path d="M1202.48,986.085l-44.902,0l-8.566,20.724l-22.934,0l43.105,-96.711l22.106,0l43.244,96.711l-23.487,0l-8.566,-20.724Zm-7.046,-16.993l-15.336,-37.027l-15.336,37.027l30.672,-0Zm-9.119,-86.764l23.211,0l-25.007,19.895l-16.855,0l18.651,-19.895Z" style="fill:#fff;fill-rule:nonzero;"/><path d="M1244.62,910.098l22.382,0l-0,78.474l48.494,0l-0,18.237l-70.876,0l0,-96.711Z" style="fill:#fff;fill-rule:nonzero;"/><path d="M1416.76,910.098l0,96.711l-18.375,0l-48.218,-58.717l0,58.717l-22.105,0l0,-96.711l18.513,0l48.08,58.718l-0,-58.718l22.105,0Z" style="fill:#fff;fill-rule:nonzero;"/><path d="M1439.69,910.098l22.382,0l0,96.711l-22.382,0l0,-96.711Zm17.27,-27.77l23.211,0l-25.007,19.895l-16.855,0l18.651,-19.895Z" style="fill:#fff;fill-rule:nonzero;"/><path d="M553.931,1096.42c12.999,0 24.285,2.166 33.859,6.499c9.574,4.333 16.947,10.483 22.118,18.45c5.172,7.967 7.757,17.401 7.757,28.303c0,10.762 -2.585,20.161 -7.757,28.198c-5.171,8.037 -12.544,14.187 -22.118,18.449c-9.574,4.263 -20.86,6.395 -33.859,6.395l-29.561,-0l0,40.463l-33.964,-0l0,-146.757l63.525,0Zm-1.887,78.62c10.203,-0 17.96,-2.202 23.272,-6.604c5.311,-4.403 7.966,-10.658 7.966,-18.764c0,-8.247 -2.655,-14.571 -7.966,-18.974c-5.312,-4.402 -13.069,-6.604 -23.272,-6.604l-27.674,0l0,50.946l27.674,-0Z" style="fill:#fff;fill-rule:nonzero;"/><path d="M735.281,1243.17l-28.304,-40.882l-31.238,-0l0,40.882l-33.964,-0l0,-146.757l63.525,0c12.999,0 24.285,2.166 33.859,6.499c9.574,4.333 16.947,10.483 22.118,18.45c5.172,7.967 7.758,17.401 7.758,28.303c-0,10.902 -2.621,20.301 -7.862,28.198c-5.242,7.897 -12.684,13.942 -22.328,18.135l32.915,47.172l-36.479,-0Zm-0.629,-93.505c-0,-8.247 -2.656,-14.571 -7.967,-18.974c-5.311,-4.402 -13.069,-6.604 -23.272,-6.604l-27.674,0l0,51.155l27.674,0c10.203,0 17.961,-2.236 23.272,-6.708c5.311,-4.473 7.967,-10.763 7.967,-18.869Z" style="fill:#fff;fill-rule:nonzero;"/><path d="M866.942,1245.69c-15.234,-0 -28.967,-3.285 -41.196,-9.854c-12.23,-6.569 -21.804,-15.619 -28.723,-27.15c-6.918,-11.531 -10.378,-24.494 -10.378,-38.891c0,-14.396 3.46,-27.359 10.378,-38.89c6.919,-11.531 16.493,-20.581 28.723,-27.15c12.229,-6.569 25.962,-9.854 41.196,-9.854c15.235,0 28.932,3.285 41.092,9.854c12.16,6.569 21.734,15.619 28.723,27.15c6.988,11.531 10.482,24.494 10.482,38.89c0,14.397 -3.494,27.36 -10.482,38.891c-6.989,11.531 -16.563,20.581 -28.723,27.15c-12.16,6.569 -25.857,9.854 -41.092,9.854Zm0,-28.932c8.666,-0 16.493,-1.992 23.481,-5.975c6.989,-3.984 12.475,-9.54 16.458,-16.668c3.983,-7.128 5.975,-15.235 5.975,-24.32c0,-9.084 -1.992,-17.191 -5.975,-24.319c-3.983,-7.128 -9.469,-12.684 -16.458,-16.668c-6.988,-3.983 -14.815,-5.975 -23.481,-5.975c-8.665,0 -16.492,1.992 -23.481,5.975c-6.988,3.984 -12.474,9.54 -16.458,16.668c-3.983,7.128 -5.975,15.235 -5.975,24.319c0,9.085 1.992,17.192 5.975,24.32c3.984,7.128 9.47,12.684 16.458,16.668c6.989,3.983 14.816,5.975 23.481,5.975Z" style="fill:#fff;fill-rule:nonzero;"/><path d="M996.717,1245.69c-9.923,-0 -19.043,-1.852 -27.359,-5.556c-8.317,-3.704 -15.13,-8.98 -20.442,-15.829l18.869,-22.642c7.967,10.762 17.052,16.143 27.255,16.143c13.837,-0 20.756,-8.107 20.756,-24.32l-0,-69.814l-51.575,-0l0,-27.255l85.329,0l-0,95.182c-0,18.03 -4.473,31.553 -13.418,40.568c-8.945,9.015 -22.084,13.523 -39.415,13.523Z" style="fill:#fff;fill-rule:nonzero;"/><path d="M1196.73,1215.92l-0,27.255l-113.632,-0l0,-146.757l110.906,0l0,27.255l-77.152,-0l0,31.867l68.137,0l0,26.416l-68.137,0l0,33.964l79.878,-0Z" style="fill:#fff;fill-rule:nonzero;"/><path d="M1277.23,1185.52l-19.707,20.546l-0,37.109l-33.754,-0l-0,-146.757l33.754,0l-0,68.556l64.992,-68.556l37.738,0l-60.8,65.412l64.364,81.345l-39.625,-0l-46.962,-57.655Z" style="fill:#fff;fill-rule:nonzero;"/><path d="M1399.25,1124.09l-46.962,0l-0,-27.674l127.888,0l-0,27.674l-46.962,0l-0,119.083l-33.964,-0l0,-119.083Z" style="fill:#fff;fill-rule:nonzero;"/><g transform="matrix(2.64966,0,0,2.64966,-287.243,329.868)"><g transform="matrix(29.2816,0,0,29.2816,214,600)"><path d="M0.07,-0.508c0.025,-0.007 0.058,-0.014 0.098,-0.02c0.04,-0.007 0.082,-0.01 0.126,-0.01c0.045,0 0.082,0.006 0.111,0.018c0.03,0.011 0.054,0.028 0.071,0.049c0.017,0.021 0.03,0.047 0.037,0.076c0.007,0.029 0.011,0.062 0.011,0.098l0,0.297l-0.149,0l0,-0.279c0,-0.048 -0.006,-0.082 -0.019,-0.102c-0.013,-0.02 -0.036,-0.03 -0.071,-0.03c-0.011,0 -0.022,0.001 -0.034,0.002c-0.012,0.001 -0.023,0.002 -0.032,0.003l0,0.406l-0.149,0l0,-0.508Z" style="fill:#613358;fill-rule:nonzero;"/></g><g transform="matrix(29.2816,0,0,29.2816,231.247,600)"><path d="M0.045,-0.259c0,-0.047 0.007,-0.088 0.022,-0.123c0.014,-0.035 0.033,-0.064 0.056,-0.087c0.023,-0.023 0.05,-0.041 0.081,-0.053c0.03,-0.012 0.061,-0.018 0.093,-0.018c0.075,0 0.134,0.023 0.177,0.069c0.043,0.045 0.065,0.112 0.065,0.201c0,0.009 -0,0.018 -0.001,0.029c-0.001,0.01 -0.001,0.019 -0.002,0.027l-0.338,0c0.003,0.031 0.018,0.055 0.043,0.073c0.025,0.018 0.059,0.027 0.102,0.027c0.027,0 0.054,-0.002 0.08,-0.007c0.027,-0.005 0.048,-0.012 0.065,-0.019l0.02,0.121c-0.008,0.004 -0.019,0.008 -0.032,0.012c-0.013,0.004 -0.028,0.008 -0.044,0.011c-0.017,0.003 -0.034,0.005 -0.053,0.007c-0.019,0.002 -0.037,0.003 -0.056,0.003c-0.047,0 -0.089,-0.007 -0.124,-0.021c-0.035,-0.014 -0.064,-0.033 -0.087,-0.057c-0.022,-0.025 -0.04,-0.054 -0.051,-0.087c-0.011,-0.033 -0.016,-0.069 -0.016,-0.108Zm0.35,-0.057c-0.001,-0.013 -0.003,-0.025 -0.007,-0.037c-0.003,-0.012 -0.009,-0.023 -0.017,-0.032c-0.007,-0.009 -0.017,-0.017 -0.028,-0.023c-0.012,-0.006 -0.027,-0.009 -0.044,-0.009c-0.017,0 -0.031,0.003 -0.043,0.009c-0.012,0.005 -0.022,0.013 -0.03,0.022c-0.008,0.009 -0.014,0.02 -0.018,0.033c-0.005,0.012 -0.008,0.024 -0.01,0.037l0.197,0Z" style="fill:#613358;fill-rule:nonzero;"/></g><g transform="matrix(29.2816,0,0,29.2816,248.347,600)"><path d="M0.021,0.185c-0.009,-0 -0.023,-0.001 -0.042,-0.003c-0.018,-0.002 -0.035,-0.006 -0.051,-0.011l0.02,-0.121c0.01,0.003 0.019,0.006 0.028,0.007c0.008,0.001 0.018,0.002 0.031,0.002c0.023,0 0.04,-0.007 0.049,-0.021c0.009,-0.014 0.014,-0.034 0.014,-0.061l0,-0.503l0.149,0l0,0.507c0,0.069 -0.017,0.121 -0.051,0.154c-0.034,0.033 -0.083,0.05 -0.147,0.05Zm0.212,-0.863c0,0.027 -0.009,0.049 -0.026,0.064c-0.018,0.016 -0.039,0.024 -0.063,0.024c-0.024,-0 -0.045,-0.008 -0.062,-0.024c-0.018,-0.015 -0.027,-0.037 -0.027,-0.064c0,-0.027 0.009,-0.049 0.027,-0.065c0.017,-0.015 0.038,-0.023 0.062,-0.023c0.024,-0 0.045,0.008 0.063,0.023c0.017,0.016 0.026,0.038 0.026,0.065Z" style="fill:#613358;fill-rule:nonzero;"/></g><g transform="matrix(29.2816,0,0,29.2816,256.81,600)"><path d="M0.197,-0.267c-0,0.046 0.01,0.083 0.031,0.111c0.021,0.028 0.051,0.042 0.092,0.042c0.013,0 0.026,-0 0.037,-0.001c0.011,-0.001 0.021,-0.003 0.028,-0.004l0,-0.271c-0.009,-0.006 -0.022,-0.011 -0.036,-0.015c-0.015,-0.004 -0.031,-0.006 -0.046,-0.006c-0.071,0 -0.106,0.048 -0.106,0.144Zm0.337,0.25c-0.013,0.004 -0.029,0.008 -0.046,0.012c-0.017,0.003 -0.036,0.006 -0.055,0.009c-0.019,0.003 -0.038,0.005 -0.058,0.007c-0.019,0.001 -0.038,0.002 -0.056,0.002c-0.043,0 -0.082,-0.006 -0.116,-0.019c-0.034,-0.013 -0.063,-0.031 -0.086,-0.054c-0.023,-0.024 -0.041,-0.053 -0.054,-0.086c-0.012,-0.034 -0.018,-0.072 -0.018,-0.114c-0,-0.043 0.005,-0.081 0.016,-0.115c0.011,-0.035 0.026,-0.064 0.046,-0.088c0.02,-0.024 0.044,-0.042 0.073,-0.055c0.029,-0.013 0.063,-0.019 0.1,-0.019c0.021,0 0.039,0.002 0.055,0.006c0.017,0.004 0.033,0.01 0.05,0.017l0,-0.238l0.149,-0.024l0,0.759Z" style="fill:#613358;fill-rule:nonzero;"/></g><g transform="matrix(29.2816,0,0,29.2816,274.496,600)"><path d="M0.519,-0.018c-0.025,0.007 -0.058,0.014 -0.098,0.021c-0.04,0.006 -0.082,0.009 -0.126,0.009c-0.045,0 -0.082,-0.006 -0.112,-0.018c-0.029,-0.012 -0.053,-0.029 -0.07,-0.051c-0.017,-0.021 -0.03,-0.047 -0.037,-0.077c-0.007,-0.03 -0.011,-0.063 -0.011,-0.099l-0,-0.293l0.149,0l-0,0.275c-0,0.048 0.006,0.083 0.019,0.104c0.013,0.021 0.036,0.032 0.071,0.032c0.011,-0 0.022,-0.001 0.034,-0.002c0.012,-0.001 0.023,-0.002 0.032,-0.003l-0,-0.406l0.149,0l-0,0.508Zm-0.106,-0.681c-0,0.019 -0.003,0.035 -0.01,0.05c-0.006,0.014 -0.015,0.026 -0.026,0.035c-0.011,0.01 -0.023,0.018 -0.038,0.022c-0.014,0.005 -0.029,0.008 -0.045,0.008c-0.015,0 -0.03,-0.003 -0.044,-0.008c-0.014,-0.004 -0.027,-0.012 -0.038,-0.022c-0.011,-0.009 -0.019,-0.021 -0.026,-0.035c-0.006,-0.015 -0.009,-0.031 -0.009,-0.05c-0,-0.019 0.003,-0.035 0.009,-0.049c0.007,-0.015 0.015,-0.027 0.026,-0.036c0.011,-0.01 0.024,-0.017 0.038,-0.022c0.014,-0.005 0.029,-0.008 0.044,-0.008c0.016,0 0.031,0.003 0.045,0.008c0.015,0.005 0.027,0.012 0.038,0.022c0.011,0.009 0.02,0.021 0.026,0.036c0.007,0.014 0.01,0.03 0.01,0.049Zm-0.073,0c-0,-0.015 -0.005,-0.027 -0.014,-0.035c-0.009,-0.008 -0.02,-0.012 -0.032,-0.012c-0.011,0 -0.022,0.004 -0.031,0.012c-0.009,0.008 -0.014,0.02 -0.014,0.035c-0,0.015 0.005,0.027 0.014,0.035c0.009,0.008 0.02,0.012 0.031,0.012c0.012,0 0.023,-0.004 0.032,-0.012c0.009,-0.008 0.014,-0.02 0.014,-0.035Z" style="fill:#613358;fill-rule:nonzero;"/></g><g transform="matrix(29.2816,0,0,29.2816,291.743,600)"><path d="M0.28,0.01c-0.043,-0.001 -0.079,-0.005 -0.106,-0.014c-0.027,-0.009 -0.048,-0.021 -0.064,-0.037c-0.015,-0.015 -0.026,-0.034 -0.032,-0.057c-0.005,-0.022 -0.008,-0.047 -0.008,-0.075l-0,-0.579l0.149,-0.024l-0,0.573c-0,0.013 0.001,0.025 0.003,0.036c0.002,0.011 0.006,0.02 0.011,0.027c0.006,0.007 0.014,0.013 0.025,0.018c0.011,0.005 0.025,0.008 0.043,0.009l-0.021,0.123Z" style="fill:#613358;fill-rule:nonzero;"/></g><g transform="matrix(29.2816,0,0,29.2816,300.996,600)"><path d="M0.045,-0.259c0,-0.047 0.007,-0.088 0.022,-0.123c0.014,-0.035 0.033,-0.064 0.056,-0.087c0.023,-0.023 0.05,-0.041 0.081,-0.053c0.03,-0.012 0.061,-0.018 0.093,-0.018c0.075,0 0.134,0.023 0.177,0.069c0.043,0.045 0.065,0.112 0.065,0.201c0,0.009 -0,0.018 -0.001,0.029c-0.001,0.01 -0.001,0.019 -0.002,0.027l-0.338,0c0.003,0.031 0.018,0.055 0.043,0.073c0.025,0.018 0.059,0.027 0.102,0.027c0.027,0 0.054,-0.002 0.08,-0.007c0.027,-0.005 0.048,-0.012 0.065,-0.019l0.02,0.121c-0.008,0.004 -0.019,0.008 -0.032,0.012c-0.013,0.004 -0.028,0.008 -0.044,0.011c-0.017,0.003 -0.034,0.005 -0.053,0.007c-0.019,0.002 -0.037,0.003 -0.056,0.003c-0.047,0 -0.089,-0.007 -0.124,-0.021c-0.035,-0.014 -0.064,-0.033 -0.087,-0.057c-0.022,-0.025 -0.04,-0.054 -0.051,-0.087c-0.011,-0.033 -0.016,-0.069 -0.016,-0.108Zm0.35,-0.057c-0.001,-0.013 -0.003,-0.025 -0.007,-0.037c-0.003,-0.012 -0.009,-0.023 -0.017,-0.032c-0.007,-0.009 -0.017,-0.017 -0.028,-0.023c-0.012,-0.006 -0.027,-0.009 -0.044,-0.009c-0.017,0 -0.031,0.003 -0.043,0.009c-0.012,0.005 -0.022,0.013 -0.03,0.022c-0.008,0.009 -0.014,0.02 -0.018,0.033c-0.005,0.012 -0.008,0.024 -0.01,0.037l0.197,0Z" style="fill:#613358;fill-rule:nonzero;"/></g><g transform="matrix(29.2816,0,0,29.2816,318.096,600)"><path d="M0.465,-0.426c-0.012,0.013 -0.028,0.031 -0.049,0.054c-0.02,0.023 -0.042,0.048 -0.065,0.075c-0.023,0.027 -0.047,0.056 -0.071,0.086c-0.023,0.03 -0.045,0.059 -0.064,0.087l0.254,-0l0,0.124l-0.435,-0l-0,-0.088c0.014,-0.024 0.031,-0.05 0.05,-0.078c0.02,-0.027 0.041,-0.055 0.062,-0.083c0.022,-0.028 0.044,-0.055 0.065,-0.082c0.021,-0.026 0.041,-0.05 0.059,-0.071l-0.224,-0l-0,-0.124l0.418,0l0,0.1Zm-0.363,-0.297l0.055,-0.066l0.1,0.077l0.1,-0.077l0.057,0.066l-0.157,0.137l-0.155,-0.137Z" style="fill:#613358;fill-rule:nonzero;"/></g><g transform="matrix(29.2816,0,0,29.2816,332.737,600)"><path d="M0.219,-0l-0.149,-0l0,-0.526l0.149,0l0,0.526Zm0.014,-0.678c0,0.027 -0.009,0.049 -0.026,0.065c-0.018,0.015 -0.039,0.023 -0.063,0.023c-0.024,0 -0.045,-0.008 -0.063,-0.024c-0.017,-0.015 -0.026,-0.037 -0.026,-0.064c-0,-0.027 0.009,-0.049 0.026,-0.065c0.018,-0.015 0.039,-0.023 0.063,-0.023c0.024,-0 0.045,0.008 0.063,0.023c0.017,0.016 0.026,0.038 0.026,0.065Z" style="fill:#613358;fill-rule:nonzero;"/></g><g transform="matrix(29.2816,0,0,29.2816,341.199,600)"><path d="M0.065,-0.657l0.149,-0.024l0,0.155l0.179,0l0,0.124l-0.179,0l-0,0.185c-0,0.031 0.005,0.056 0.016,0.075c0.011,0.019 0.034,0.028 0.067,0.028c0.016,0 0.032,-0.001 0.049,-0.004c0.017,-0.003 0.033,-0.008 0.047,-0.013l0.021,0.116c-0.018,0.007 -0.038,0.014 -0.06,0.019c-0.022,0.005 -0.049,0.008 -0.081,0.008c-0.041,0 -0.074,-0.005 -0.101,-0.016c-0.027,-0.011 -0.048,-0.027 -0.064,-0.046c-0.016,-0.02 -0.027,-0.044 -0.034,-0.072c-0.006,-0.028 -0.009,-0.059 -0.009,-0.093l0,-0.442Z" style="fill:#613358;fill-rule:nonzero;"/></g><g transform="matrix(29.2816,0,0,29.2816,353.614,600)"><path d="M0.045,-0.259c0,-0.047 0.007,-0.088 0.022,-0.123c0.014,-0.035 0.033,-0.064 0.056,-0.087c0.023,-0.023 0.05,-0.041 0.081,-0.053c0.03,-0.012 0.061,-0.018 0.093,-0.018c0.075,0 0.134,0.023 0.177,0.069c0.043,0.045 0.065,0.112 0.065,0.201c0,0.009 -0,0.018 -0.001,0.029c-0.001,0.01 -0.001,0.019 -0.002,0.027l-0.338,0c0.003,0.031 0.018,0.055 0.043,0.073c0.025,0.018 0.059,0.027 0.102,0.027c0.027,0 0.054,-0.002 0.08,-0.007c0.027,-0.005 0.048,-0.012 0.065,-0.019l0.02,0.121c-0.008,0.004 -0.019,0.008 -0.032,0.012c-0.013,0.004 -0.028,0.008 -0.044,0.011c-0.017,0.003 -0.034,0.005 -0.053,0.007c-0.019,0.002 -0.037,0.003 -0.056,0.003c-0.047,0 -0.089,-0.007 -0.124,-0.021c-0.035,-0.014 -0.064,-0.033 -0.087,-0.057c-0.022,-0.025 -0.04,-0.054 -0.051,-0.087c-0.011,-0.033 -0.016,-0.069 -0.016,-0.108Zm0.35,-0.057c-0.001,-0.013 -0.003,-0.025 -0.007,-0.037c-0.003,-0.012 -0.009,-0.023 -0.017,-0.032c-0.007,-0.009 -0.017,-0.017 -0.028,-0.023c-0.012,-0.006 -0.027,-0.009 -0.044,-0.009c-0.017,0 -0.031,0.003 -0.043,0.009c-0.012,0.005 -0.022,0.013 -0.03,0.022c-0.008,0.009 -0.014,0.02 -0.018,0.033c-0.005,0.012 -0.008,0.024 -0.01,0.037l0.197,0Zm-0.252,-0.407l0.055,-0.066l0.1,0.077l0.1,-0.077l0.057,0.066l-0.157,0.137l-0.155,-0.137Z" style="fill:#613358;fill-rule:nonzero;"/></g><g transform="matrix(29.2816,0,0,29.2816,370.715,600)"><path d="M0.021,0.185c-0.009,-0 -0.023,-0.001 -0.042,-0.003c-0.018,-0.002 -0.035,-0.006 -0.051,-0.011l0.02,-0.121c0.01,0.003 0.019,0.006 0.028,0.007c0.008,0.001 0.018,0.002 0.031,0.002c0.023,0 0.04,-0.007 0.049,-0.021c0.009,-0.014 0.014,-0.034 0.014,-0.061l0,-0.503l0.149,0l0,0.507c0,0.069 -0.017,0.121 -0.051,0.154c-0.034,0.033 -0.083,0.05 -0.147,0.05Zm0.212,-0.863c0,0.027 -0.009,0.049 -0.026,0.064c-0.018,0.016 -0.039,0.024 -0.063,0.024c-0.024,-0 -0.045,-0.008 -0.062,-0.024c-0.018,-0.015 -0.027,-0.037 -0.027,-0.064c0,-0.027 0.009,-0.049 0.027,-0.065c0.017,-0.015 0.038,-0.023 0.062,-0.023c0.024,-0 0.045,0.008 0.063,0.023c0.017,0.016 0.026,0.038 0.026,0.065Z" style="fill:#613358;fill-rule:nonzero;"/></g><g transform="matrix(29.2816,0,0,29.2816,379.177,600)"><path d="M0.221,-0.107c0.027,0 0.047,-0.003 0.058,-0.008c0.011,-0.005 0.017,-0.016 0.017,-0.031c-0,-0.012 -0.007,-0.023 -0.022,-0.032c-0.015,-0.009 -0.037,-0.019 -0.067,-0.03c-0.023,-0.009 -0.045,-0.018 -0.064,-0.027c-0.019,-0.009 -0.035,-0.021 -0.048,-0.034c-0.013,-0.013 -0.024,-0.028 -0.031,-0.046c-0.007,-0.018 -0.011,-0.04 -0.011,-0.065c-0,-0.049 0.018,-0.088 0.055,-0.117c0.037,-0.029 0.087,-0.043 0.151,-0.043c0.032,0 0.063,0.003 0.092,0.009c0.029,0.005 0.053,0.011 0.07,0.018l-0.026,0.116c-0.017,-0.006 -0.036,-0.011 -0.056,-0.016c-0.021,-0.005 -0.044,-0.007 -0.069,-0.007c-0.047,0 -0.07,0.013 -0.07,0.039c0,0.006 0.001,0.011 0.003,0.016c0.002,0.005 0.006,0.009 0.012,0.014c0.006,0.004 0.014,0.009 0.025,0.014c0.01,0.005 0.023,0.01 0.039,0.016c0.033,0.012 0.06,0.024 0.081,0.035c0.021,0.012 0.038,0.025 0.051,0.039c0.012,0.013 0.021,0.028 0.026,0.045c0.005,0.017 0.007,0.036 0.007,0.058c0,0.052 -0.019,0.091 -0.058,0.118c-0.039,0.027 -0.095,0.04 -0.166,0.04c-0.047,0 -0.086,-0.004 -0.116,-0.012c-0.031,-0.008 -0.053,-0.015 -0.065,-0.02l0.025,-0.121c0.025,0.01 0.051,0.018 0.078,0.024c0.027,0.005 0.053,0.008 0.079,0.008Zm-0.117,-0.616l0.055,-0.066l0.1,0.077l0.1,-0.077l0.057,0.066l-0.157,0.137l-0.155,-0.137Z" style="fill:#613358;fill-rule:nonzero;"/></g><g transform="matrix(29.2816,0,0,29.2816,393.379,600)"><path d="M0.219,-0l-0.149,-0l0,-0.526l0.149,0l0,0.526Zm0.055,-0.715l-0.165,0.139l-0.068,-0.061l0.142,-0.162l0.091,0.084Z" style="fill:#613358;fill-rule:nonzero;"/></g><g transform="matrix(29.2816,0,0,29.2816,401.841,600)"><path d="M0.045,-0.263c0,-0.038 0.006,-0.074 0.019,-0.107c0.012,-0.034 0.03,-0.064 0.053,-0.089c0.023,-0.025 0.052,-0.044 0.085,-0.059c0.033,-0.015 0.071,-0.022 0.114,-0.022c0.028,0 0.054,0.003 0.077,0.008c0.023,0.005 0.046,0.012 0.068,0.021l-0.031,0.119c-0.014,-0.005 -0.029,-0.01 -0.046,-0.014c-0.017,-0.004 -0.035,-0.006 -0.056,-0.006c-0.044,-0 -0.077,0.014 -0.099,0.041c-0.021,0.027 -0.032,0.063 -0.032,0.108c-0,0.047 0.01,0.084 0.03,0.11c0.021,0.026 0.056,0.039 0.107,0.039c0.018,0 0.037,-0.002 0.058,-0.005c0.021,-0.003 0.04,-0.009 0.057,-0.016l0.021,0.122c-0.017,0.007 -0.039,0.014 -0.065,0.019c-0.026,0.005 -0.055,0.008 -0.086,0.008c-0.048,0 -0.089,-0.007 -0.124,-0.021c-0.035,-0.015 -0.063,-0.034 -0.086,-0.059c-0.022,-0.025 -0.038,-0.054 -0.049,-0.087c-0.01,-0.034 -0.015,-0.071 -0.015,-0.11Z" style="fill:#613358;fill-rule:nonzero;"/></g><g transform="matrix(29.2816,0,0,29.2816,416.482,600)"><path d="M0.07,-0l0,-0.752l0.149,-0.024l0,0.252c0.01,-0.003 0.023,-0.006 0.039,-0.009c0.015,-0.004 0.03,-0.005 0.045,-0.005c0.043,0 0.078,0.006 0.107,0.018c0.028,0.011 0.05,0.028 0.068,0.049c0.017,0.021 0.028,0.047 0.035,0.076c0.008,0.029 0.011,0.062 0.011,0.098l0,0.297l-0.149,0l0,-0.279c0,-0.048 -0.006,-0.082 -0.019,-0.102c-0.012,-0.02 -0.035,-0.03 -0.068,-0.03c-0.013,0 -0.026,0.001 -0.037,0.004c-0.012,0.002 -0.023,0.004 -0.032,0.007l0,0.4l-0.149,0Z" style="fill:#613358;fill-rule:nonzero;"/></g><g transform="matrix(29.2816,0,0,29.2816,440.756,600)"><path d="M0.219,-0l-0.149,-0l0,-0.526l0.149,0l0,0.526Zm0.014,-0.678c0,0.027 -0.009,0.049 -0.026,0.065c-0.018,0.015 -0.039,0.023 -0.063,0.023c-0.024,0 -0.045,-0.008 -0.063,-0.024c-0.017,-0.015 -0.026,-0.037 -0.026,-0.064c-0,-0.027 0.009,-0.049 0.026,-0.065c0.018,-0.015 0.039,-0.023 0.063,-0.023c0.024,-0 0.045,0.008 0.063,0.023c0.017,0.016 0.026,0.038 0.026,0.065Z" style="fill:#613358;fill-rule:nonzero;"/></g><g transform="matrix(29.2816,0,0,29.2816,449.219,600)"><path d="M0.07,-0.508c0.025,-0.007 0.058,-0.014 0.098,-0.02c0.04,-0.007 0.082,-0.01 0.126,-0.01c0.045,0 0.082,0.006 0.111,0.018c0.03,0.011 0.054,0.028 0.071,0.049c0.017,0.021 0.03,0.047 0.037,0.076c0.007,0.029 0.011,0.062 0.011,0.098l0,0.297l-0.149,0l0,-0.279c0,-0.048 -0.006,-0.082 -0.019,-0.102c-0.013,-0.02 -0.036,-0.03 -0.071,-0.03c-0.011,0 -0.022,0.001 -0.034,0.002c-0.012,0.001 -0.023,0.002 -0.032,0.003l0,0.406l-0.149,0l0,-0.508Z" style="fill:#613358;fill-rule:nonzero;"/></g><g transform="matrix(29.2816,0,0,29.2816,466.466,600)"><path d="M0.298,-0.776c0.028,-0 0.054,0.003 0.077,0.008c0.023,0.006 0.041,0.012 0.054,0.017l-0.029,0.119c-0.013,-0.006 -0.028,-0.01 -0.043,-0.013c-0.016,-0.003 -0.031,-0.005 -0.044,-0.005c-0.018,0 -0.033,0.003 -0.045,0.008c-0.013,0.004 -0.022,0.011 -0.029,0.02c-0.008,0.009 -0.013,0.019 -0.016,0.031c-0.003,0.012 -0.004,0.025 -0.004,0.039l-0,0.026l0.184,-0l0,0.124l-0.184,-0l-0,0.402l-0.149,-0l-0,-0.554c-0,-0.068 0.019,-0.122 0.057,-0.162c0.039,-0.04 0.096,-0.06 0.171,-0.06Z" style="fill:#613358;fill-rule:nonzero;"/></g><g transform="matrix(29.2816,0,0,29.2816,478.588,600)"><path d="M0.562,-0.264c0,0.041 -0.006,0.079 -0.018,0.114c-0.012,0.034 -0.029,0.063 -0.052,0.088c-0.023,0.024 -0.05,0.043 -0.082,0.056c-0.031,0.013 -0.067,0.02 -0.106,0.02c-0.039,0 -0.074,-0.007 -0.106,-0.02c-0.031,-0.013 -0.058,-0.032 -0.081,-0.056c-0.023,-0.025 -0.04,-0.054 -0.053,-0.088c-0.013,-0.035 -0.019,-0.073 -0.019,-0.114c-0,-0.041 0.006,-0.079 0.019,-0.113c0.013,-0.034 0.031,-0.063 0.054,-0.087c0.023,-0.024 0.051,-0.043 0.082,-0.056c0.032,-0.013 0.067,-0.02 0.104,-0.02c0.038,0 0.073,0.007 0.104,0.02c0.032,0.013 0.059,0.032 0.082,0.056c0.023,0.024 0.04,0.053 0.053,0.087c0.013,0.034 0.019,0.072 0.019,0.113Zm-0.152,0c-0,-0.046 -0.009,-0.082 -0.028,-0.108c-0.018,-0.027 -0.044,-0.04 -0.078,-0.04c-0.034,-0 -0.06,0.013 -0.079,0.039c-0.019,0.027 -0.028,0.063 -0.028,0.109c0,0.046 0.009,0.083 0.028,0.11c0.019,0.027 0.045,0.04 0.079,0.04c0.034,0 0.06,-0.013 0.079,-0.04c0.018,-0.027 0.027,-0.064 0.027,-0.11Z" style="fill:#613358;fill-rule:nonzero;"/></g><g transform="matrix(29.2816,0,0,29.2816,496.362,600)"><path d="M0.387,-0.394c-0.013,-0.003 -0.029,-0.007 -0.047,-0.011c-0.018,-0.003 -0.037,-0.005 -0.058,-0.005c-0.009,0 -0.021,0.001 -0.034,0.003c-0.013,0.001 -0.022,0.003 -0.029,0.005l-0,0.402l-0.149,-0l-0,-0.498c0.027,-0.009 0.058,-0.018 0.094,-0.026c0.037,-0.009 0.077,-0.013 0.122,-0.013c0.008,0 0.018,0 0.029,0.002c0.011,0.001 0.023,0.002 0.034,0.004c0.011,0.001 0.023,0.003 0.034,0.006c0.011,0.002 0.021,0.005 0.029,0.008l-0.025,0.123Z" style="fill:#613358;fill-rule:nonzero;"/></g><g transform="matrix(29.2816,0,0,29.2816,508.719,600)"><path d="M0.359,-0.279c0,-0.048 -0.006,-0.082 -0.018,-0.102c-0.013,-0.02 -0.034,-0.03 -0.064,-0.03c-0.009,0 -0.019,0.001 -0.029,0.002c-0.01,0.001 -0.02,0.002 -0.029,0.003l0,0.406l-0.149,-0l0,-0.508c0.013,-0.003 0.028,-0.007 0.045,-0.01c0.017,-0.004 0.035,-0.007 0.054,-0.01c0.019,-0.003 0.038,-0.006 0.058,-0.007c0.02,-0.002 0.04,-0.003 0.059,-0.003c0.038,0 0.069,0.005 0.093,0.015c0.023,0.009 0.043,0.021 0.058,0.034c0.021,-0.015 0.046,-0.027 0.074,-0.036c0.027,-0.009 0.053,-0.013 0.076,-0.013c0.042,0 0.077,0.006 0.104,0.018c0.026,0.011 0.048,0.028 0.064,0.049c0.016,0.021 0.027,0.047 0.033,0.076c0.006,0.029 0.009,0.062 0.009,0.098l0,0.297l-0.149,0l0,-0.279c0,-0.048 -0.006,-0.082 -0.018,-0.102c-0.013,-0.02 -0.034,-0.03 -0.064,-0.03c-0.008,0 -0.019,0.002 -0.033,0.006c-0.015,0.004 -0.027,0.009 -0.036,0.015c0.005,0.015 0.008,0.032 0.009,0.049c0.001,0.017 0.002,0.035 0.002,0.054l0,0.287l-0.149,0l0,-0.279Z" style="fill:#613358;fill-rule:nonzero;"/></g><g transform="matrix(29.2816,0,0,29.2816,533.96,600)"><path d="M0.271,-0.104c0.015,-0 0.029,-0 0.042,-0.001c0.013,-0.001 0.024,-0.002 0.032,-0.003l0,-0.113c-0.006,-0.001 -0.015,-0.003 -0.027,-0.004c-0.012,-0.001 -0.023,-0.002 -0.033,-0.002c-0.014,0 -0.027,0.001 -0.039,0.003c-0.013,0.001 -0.024,0.004 -0.033,0.009c-0.009,0.005 -0.017,0.011 -0.022,0.019c-0.005,0.008 -0.008,0.018 -0.008,0.03c0,0.023 0.008,0.04 0.024,0.049c0.015,0.009 0.037,0.013 0.064,0.013Zm-0.012,-0.436c0.044,0 0.081,0.005 0.11,0.015c0.029,0.01 0.053,0.024 0.071,0.043c0.017,0.019 0.03,0.041 0.037,0.068c0.007,0.027 0.011,0.056 0.011,0.089l0,0.31c-0.021,0.005 -0.051,0.01 -0.089,0.017c-0.038,0.006 -0.084,0.009 -0.138,0.009c-0.034,0 -0.065,-0.003 -0.092,-0.009c-0.028,-0.006 -0.052,-0.016 -0.072,-0.029c-0.02,-0.014 -0.035,-0.032 -0.046,-0.054c-0.011,-0.022 -0.016,-0.049 -0.016,-0.081c0,-0.031 0.006,-0.057 0.019,-0.078c0.012,-0.021 0.028,-0.038 0.049,-0.051c0.021,-0.013 0.044,-0.022 0.071,-0.027c0.027,-0.006 0.054,-0.009 0.083,-0.009c0.019,0 0.037,0.001 0.052,0.003c0.015,0.001 0.027,0.003 0.036,0.006l0,-0.014c0,-0.025 -0.008,-0.046 -0.023,-0.061c-0.015,-0.015 -0.042,-0.023 -0.08,-0.023c-0.025,0 -0.05,0.002 -0.075,0.006c-0.025,0.003 -0.046,0.008 -0.064,0.015l-0.019,-0.12c0.009,-0.003 0.02,-0.005 0.033,-0.008c0.013,-0.003 0.027,-0.006 0.042,-0.008c0.015,-0.003 0.032,-0.005 0.049,-0.006c0.017,-0.002 0.034,-0.003 0.051,-0.003Z" style="fill:#613358;fill-rule:nonzero;"/></g><g transform="matrix(29.2816,0,0,29.2816,550.152,600)"><path d="M0.045,-0.263c0,-0.038 0.006,-0.074 0.019,-0.107c0.012,-0.034 0.03,-0.064 0.053,-0.089c0.023,-0.025 0.052,-0.044 0.085,-0.059c0.033,-0.015 0.071,-0.022 0.114,-0.022c0.028,0 0.054,0.003 0.077,0.008c0.023,0.005 0.046,0.012 0.068,0.021l-0.031,0.119c-0.014,-0.005 -0.029,-0.01 -0.046,-0.014c-0.017,-0.004 -0.035,-0.006 -0.056,-0.006c-0.044,-0 -0.077,0.014 -0.099,0.041c-0.021,0.027 -0.032,0.063 -0.032,0.108c-0,0.047 0.01,0.084 0.03,0.11c0.021,0.026 0.056,0.039 0.107,0.039c0.018,0 0.037,-0.002 0.058,-0.005c0.021,-0.003 0.04,-0.009 0.057,-0.016l0.021,0.122c-0.017,0.007 -0.039,0.014 -0.065,0.019c-0.026,0.005 -0.055,0.008 -0.086,0.008c-0.048,0 -0.089,-0.007 -0.124,-0.021c-0.035,-0.015 -0.063,-0.034 -0.086,-0.059c-0.022,-0.025 -0.038,-0.054 -0.049,-0.087c-0.01,-0.034 -0.015,-0.071 -0.015,-0.11Z" style="fill:#613358;fill-rule:nonzero;"/></g><g transform="matrix(29.2816,0,0,29.2816,564.793,600)"><path d="M0.219,-0l-0.149,-0l0,-0.526l0.149,0l0,0.526Zm0.055,-0.715l-0.165,0.139l-0.068,-0.061l0.142,-0.162l0.091,0.084Z" style="fill:#613358;fill-rule:nonzero;"/></g><g transform="matrix(29.2816,0,0,29.2816,573.256,600)"><path d="M0.211,-0.152c0.001,0.016 0.002,0.027 0.003,0.034c-0,0.007 0,0.012 0,0.017c0,0.02 -0.002,0.041 -0.006,0.064c-0.003,0.022 -0.008,0.044 -0.015,0.067c-0.007,0.023 -0.015,0.045 -0.025,0.068c-0.01,0.023 -0.021,0.044 -0.034,0.065l-0.117,-0.029c0.015,-0.044 0.026,-0.085 0.032,-0.124c0.006,-0.039 0.009,-0.071 0.009,-0.096c0,-0.004 -0,-0.009 -0.001,-0.016l-0.002,-0.038c0,-0.006 0,-0.01 0,-0.012l0.156,-0Z" style="fill:#613358;fill-rule:nonzero;"/></g><g transform="matrix(29.2816,0,0,29.2816,587.486,600)"><path d="M0.219,-0.336c0.015,-0.016 0.03,-0.033 0.046,-0.05c0.015,-0.017 0.03,-0.035 0.045,-0.051c0.015,-0.018 0.029,-0.034 0.042,-0.049c0.013,-0.015 0.024,-0.029 0.033,-0.04l0.177,0c-0.035,0.041 -0.07,0.079 -0.104,0.116c-0.033,0.038 -0.07,0.076 -0.11,0.115c0.02,0.018 0.041,0.04 0.062,0.065c0.021,0.025 0.042,0.05 0.062,0.077c0.02,0.027 0.038,0.053 0.055,0.08c0.017,0.027 0.031,0.051 0.042,0.073l-0.171,0c-0.011,-0.017 -0.023,-0.036 -0.037,-0.057c-0.013,-0.021 -0.028,-0.042 -0.043,-0.063c-0.015,-0.021 -0.032,-0.042 -0.049,-0.061c-0.017,-0.019 -0.033,-0.036 -0.05,-0.049l-0,0.23l-0.149,0l-0,-0.752l0.149,-0.024l-0,0.44Z" style="fill:#613358;fill-rule:nonzero;"/></g><g transform="matrix(29.2816,0,0,29.2816,604.206,600)"><path d="M0.065,-0.657l0.149,-0.024l0,0.155l0.179,0l0,0.124l-0.179,0l-0,0.185c-0,0.031 0.005,0.056 0.016,0.075c0.011,0.019 0.034,0.028 0.067,0.028c0.016,0 0.032,-0.001 0.049,-0.004c0.017,-0.003 0.033,-0.008 0.047,-0.013l0.021,0.116c-0.018,0.007 -0.038,0.014 -0.06,0.019c-0.022,0.005 -0.049,0.008 -0.081,0.008c-0.041,0 -0.074,-0.005 -0.101,-0.016c-0.027,-0.011 -0.048,-0.027 -0.064,-0.046c-0.016,-0.02 -0.027,-0.044 -0.034,-0.072c-0.006,-0.028 -0.009,-0.059 -0.009,-0.093l0,-0.442Z" style="fill:#613358;fill-rule:nonzero;"/></g><g transform="matrix(29.2816,0,0,29.2816,616.622,600)"><path d="M0.045,-0.259c0,-0.047 0.007,-0.088 0.022,-0.123c0.014,-0.035 0.033,-0.064 0.056,-0.087c0.023,-0.023 0.05,-0.041 0.081,-0.053c0.03,-0.012 0.061,-0.018 0.093,-0.018c0.075,0 0.134,0.023 0.177,0.069c0.043,0.045 0.065,0.112 0.065,0.201c0,0.009 -0,0.018 -0.001,0.029c-0.001,0.01 -0.001,0.019 -0.002,0.027l-0.338,0c0.003,0.031 0.018,0.055 0.043,0.073c0.025,0.018 0.059,0.027 0.102,0.027c0.027,0 0.054,-0.002 0.08,-0.007c0.027,-0.005 0.048,-0.012 0.065,-0.019l0.02,0.121c-0.008,0.004 -0.019,0.008 -0.032,0.012c-0.013,0.004 -0.028,0.008 -0.044,0.011c-0.017,0.003 -0.034,0.005 -0.053,0.007c-0.019,0.002 -0.037,0.003 -0.056,0.003c-0.047,0 -0.089,-0.007 -0.124,-0.021c-0.035,-0.014 -0.064,-0.033 -0.087,-0.057c-0.022,-0.025 -0.04,-0.054 -0.051,-0.087c-0.011,-0.033 -0.016,-0.069 -0.016,-0.108Zm0.35,-0.057c-0.001,-0.013 -0.003,-0.025 -0.007,-0.037c-0.003,-0.012 -0.009,-0.023 -0.017,-0.032c-0.007,-0.009 -0.017,-0.017 -0.028,-0.023c-0.012,-0.006 -0.027,-0.009 -0.044,-0.009c-0.017,0 -0.031,0.003 -0.043,0.009c-0.012,0.005 -0.022,0.013 -0.03,0.022c-0.008,0.009 -0.014,0.02 -0.018,0.033c-0.005,0.012 -0.008,0.024 -0.01,0.037l0.197,0Z" style="fill:#613358;fill-rule:nonzero;"/></g><g transform="matrix(29.2816,0,0,29.2816,633.722,600)"><path d="M0.387,-0.394c-0.013,-0.003 -0.029,-0.007 -0.047,-0.011c-0.018,-0.003 -0.037,-0.005 -0.058,-0.005c-0.009,0 -0.021,0.001 -0.034,0.003c-0.013,0.001 -0.022,0.003 -0.029,0.005l-0,0.402l-0.149,-0l-0,-0.498c0.027,-0.009 0.058,-0.018 0.094,-0.026c0.037,-0.009 0.077,-0.013 0.122,-0.013c0.008,0 0.018,0 0.029,0.002c0.011,0.001 0.023,0.002 0.034,0.004c0.011,0.001 0.023,0.003 0.034,0.006c0.011,0.002 0.021,0.005 0.029,0.008l-0.025,0.123Z" style="fill:#613358;fill-rule:nonzero;"/></g><g transform="matrix(29.2816,0,0,29.2816,645.786,600)"><path d="M0.045,-0.259c0,-0.047 0.007,-0.088 0.022,-0.123c0.014,-0.035 0.033,-0.064 0.056,-0.087c0.023,-0.023 0.05,-0.041 0.081,-0.053c0.03,-0.012 0.061,-0.018 0.093,-0.018c0.075,0 0.134,0.023 0.177,0.069c0.043,0.045 0.065,0.112 0.065,0.201c0,0.009 -0,0.018 -0.001,0.029c-0.001,0.01 -0.001,0.019 -0.002,0.027l-0.338,0c0.003,0.031 0.018,0.055 0.043,0.073c0.025,0.018 0.059,0.027 0.102,0.027c0.027,0 0.054,-0.002 0.08,-0.007c0.027,-0.005 0.048,-0.012 0.065,-0.019l0.02,0.121c-0.008,0.004 -0.019,0.008 -0.032,0.012c-0.013,0.004 -0.028,0.008 -0.044,0.011c-0.017,0.003 -0.034,0.005 -0.053,0.007c-0.019,0.002 -0.037,0.003 -0.056,0.003c-0.047,0 -0.089,-0.007 -0.124,-0.021c-0.035,-0.014 -0.064,-0.033 -0.087,-0.057c-0.022,-0.025 -0.04,-0.054 -0.051,-0.087c-0.011,-0.033 -0.016,-0.069 -0.016,-0.108Zm0.35,-0.057c-0.001,-0.013 -0.003,-0.025 -0.007,-0.037c-0.003,-0.012 -0.009,-0.023 -0.017,-0.032c-0.007,-0.009 -0.017,-0.017 -0.028,-0.023c-0.012,-0.006 -0.027,-0.009 -0.044,-0.009c-0.017,0 -0.031,0.003 -0.043,0.009c-0.012,0.005 -0.022,0.013 -0.03,0.022c-0.008,0.009 -0.014,0.02 -0.018,0.033c-0.005,0.012 -0.008,0.024 -0.01,0.037l0.197,0Zm0.023,-0.399l-0.165,0.139l-0.068,-0.061l0.142,-0.162l0.091,0.084Z" style="fill:#613358;fill-rule:nonzero;"/></g><g transform="matrix(29.2816,0,0,29.2816,214,643.922)"><path d="M0.359,-0.279c0,-0.048 -0.006,-0.082 -0.018,-0.102c-0.013,-0.02 -0.034,-0.03 -0.064,-0.03c-0.009,0 -0.019,0.001 -0.029,0.002c-0.01,0.001 -0.02,0.002 -0.029,0.003l0,0.406l-0.149,-0l0,-0.508c0.013,-0.003 0.028,-0.007 0.045,-0.01c0.017,-0.004 0.035,-0.007 0.054,-0.01c0.019,-0.003 0.038,-0.006 0.058,-0.007c0.02,-0.002 0.04,-0.003 0.059,-0.003c0.038,0 0.069,0.005 0.093,0.015c0.023,0.009 0.043,0.021 0.058,0.034c0.021,-0.015 0.046,-0.027 0.074,-0.036c0.027,-0.009 0.053,-0.013 0.076,-0.013c0.042,0 0.077,0.006 0.104,0.018c0.026,0.011 0.048,0.028 0.064,0.049c0.016,0.021 0.027,0.047 0.033,0.076c0.006,0.029 0.009,0.062 0.009,0.098l0,0.297l-0.149,0l0,-0.279c0,-0.048 -0.006,-0.082 -0.018,-0.102c-0.013,-0.02 -0.034,-0.03 -0.064,-0.03c-0.008,0 -0.019,0.002 -0.033,0.006c-0.015,0.004 -0.027,0.009 -0.036,0.015c0.005,0.015 0.008,0.032 0.009,0.049c0.001,0.017 0.002,0.035 0.002,0.054l0,0.287l-0.149,0l0,-0.279Z" style="fill:#613358;fill-rule:nonzero;"/></g><g transform="matrix(29.2816,0,0,29.2816,239.241,643.922)"><path d="M0.519,-0.018c-0.025,0.007 -0.058,0.014 -0.098,0.021c-0.04,0.006 -0.082,0.009 -0.126,0.009c-0.045,0 -0.082,-0.006 -0.112,-0.018c-0.029,-0.012 -0.053,-0.029 -0.07,-0.051c-0.017,-0.021 -0.03,-0.047 -0.037,-0.077c-0.007,-0.03 -0.011,-0.063 -0.011,-0.099l-0,-0.293l0.149,0l-0,0.275c-0,0.048 0.006,0.083 0.019,0.104c0.013,0.021 0.036,0.032 0.071,0.032c0.011,-0 0.022,-0.001 0.034,-0.002c0.012,-0.001 0.023,-0.002 0.032,-0.003l-0,-0.406l0.149,0l-0,0.508Z" style="fill:#613358;fill-rule:nonzero;"/></g><g transform="matrix(29.2816,0,0,29.2816,256.488,643.922)"><path d="M0.221,-0.107c0.027,0 0.047,-0.003 0.058,-0.008c0.011,-0.005 0.017,-0.016 0.017,-0.031c-0,-0.012 -0.007,-0.023 -0.022,-0.032c-0.015,-0.009 -0.037,-0.019 -0.067,-0.03c-0.023,-0.009 -0.045,-0.018 -0.064,-0.027c-0.019,-0.009 -0.035,-0.021 -0.048,-0.034c-0.013,-0.013 -0.024,-0.028 -0.031,-0.046c-0.007,-0.018 -0.011,-0.04 -0.011,-0.065c-0,-0.049 0.018,-0.088 0.055,-0.117c0.037,-0.029 0.087,-0.043 0.151,-0.043c0.032,0 0.063,0.003 0.092,0.009c0.029,0.005 0.053,0.011 0.07,0.018l-0.026,0.116c-0.017,-0.006 -0.036,-0.011 -0.056,-0.016c-0.021,-0.005 -0.044,-0.007 -0.069,-0.007c-0.047,0 -0.07,0.013 -0.07,0.039c0,0.006 0.001,0.011 0.003,0.016c0.002,0.005 0.006,0.009 0.012,0.014c0.006,0.004 0.014,0.009 0.025,0.014c0.01,0.005 0.023,0.01 0.039,0.016c0.033,0.012 0.06,0.024 0.081,0.035c0.021,0.012 0.038,0.025 0.051,0.039c0.012,0.013 0.021,0.028 0.026,0.045c0.005,0.017 0.007,0.036 0.007,0.058c0,0.052 -0.019,0.091 -0.058,0.118c-0.039,0.027 -0.095,0.04 -0.166,0.04c-0.047,0 -0.086,-0.004 -0.116,-0.012c-0.031,-0.008 -0.053,-0.015 -0.065,-0.02l0.025,-0.121c0.025,0.01 0.051,0.018 0.078,0.024c0.027,0.005 0.053,0.008 0.079,0.008Z" style="fill:#613358;fill-rule:nonzero;"/></g><g transform="matrix(29.2816,0,0,29.2816,270.689,643.922)"><path d="M0.219,-0l-0.149,-0l0,-0.526l0.149,0l0,0.526Zm0.055,-0.715l-0.165,0.139l-0.068,-0.061l0.142,-0.162l0.091,0.084Z" style="fill:#613358;fill-rule:nonzero;"/></g><g transform="matrix(29.2816,0,0,29.2816,279.151,643.922)"><path d="M0.065,-0.657l0.149,-0.024l0,0.155l0.179,0l0,0.124l-0.179,0l-0,0.185c-0,0.031 0.005,0.056 0.016,0.075c0.011,0.019 0.034,0.028 0.067,0.028c0.016,0 0.032,-0.001 0.049,-0.004c0.017,-0.003 0.033,-0.008 0.047,-0.013l0.021,0.116c-0.018,0.007 -0.038,0.014 -0.06,0.019c-0.022,0.005 -0.049,0.008 -0.081,0.008c-0.041,0 -0.074,-0.005 -0.101,-0.016c-0.027,-0.011 -0.048,-0.027 -0.064,-0.046c-0.016,-0.02 -0.027,-0.044 -0.034,-0.072c-0.006,-0.028 -0.009,-0.059 -0.009,-0.093l0,-0.442Z" style="fill:#613358;fill-rule:nonzero;"/></g><g transform="matrix(29.2816,0,0,29.2816,291.567,643.922)"><path d="M0.045,-0.259c0,-0.047 0.007,-0.088 0.022,-0.123c0.014,-0.035 0.033,-0.064 0.056,-0.087c0.023,-0.023 0.05,-0.041 0.081,-0.053c0.03,-0.012 0.061,-0.018 0.093,-0.018c0.075,0 0.134,0.023 0.177,0.069c0.043,0.045 0.065,0.112 0.065,0.201c0,0.009 -0,0.018 -0.001,0.029c-0.001,0.01 -0.001,0.019 -0.002,0.027l-0.338,0c0.003,0.031 0.018,0.055 0.043,0.073c0.025,0.018 0.059,0.027 0.102,0.027c0.027,0 0.054,-0.002 0.08,-0.007c0.027,-0.005 0.048,-0.012 0.065,-0.019l0.02,0.121c-0.008,0.004 -0.019,0.008 -0.032,0.012c-0.013,0.004 -0.028,0.008 -0.044,0.011c-0.017,0.003 -0.034,0.005 -0.053,0.007c-0.019,0.002 -0.037,0.003 -0.056,0.003c-0.047,0 -0.089,-0.007 -0.124,-0.021c-0.035,-0.014 -0.064,-0.033 -0.087,-0.057c-0.022,-0.025 -0.04,-0.054 -0.051,-0.087c-0.011,-0.033 -0.016,-0.069 -0.016,-0.108Zm0.35,-0.057c-0.001,-0.013 -0.003,-0.025 -0.007,-0.037c-0.003,-0.012 -0.009,-0.023 -0.017,-0.032c-0.007,-0.009 -0.017,-0.017 -0.028,-0.023c-0.012,-0.006 -0.027,-0.009 -0.044,-0.009c-0.017,0 -0.031,0.003 -0.043,0.009c-0.012,0.005 -0.022,0.013 -0.03,0.022c-0.008,0.009 -0.014,0.02 -0.018,0.033c-0.005,0.012 -0.008,0.024 -0.01,0.037l0.197,0Z" style="fill:#613358;fill-rule:nonzero;"/></g><g transform="matrix(29.2816,0,0,29.2816,315.695,643.922)"><path d="M0.465,-0.426c-0.012,0.013 -0.028,0.031 -0.049,0.054c-0.02,0.023 -0.042,0.048 -0.065,0.075c-0.023,0.027 -0.047,0.056 -0.071,0.086c-0.023,0.03 -0.045,0.059 -0.064,0.087l0.254,-0l0,0.124l-0.435,-0l-0,-0.088c0.014,-0.024 0.031,-0.05 0.05,-0.078c0.02,-0.027 0.041,-0.055 0.062,-0.083c0.022,-0.028 0.044,-0.055 0.065,-0.082c0.021,-0.026 0.041,-0.05 0.059,-0.071l-0.224,-0l-0,-0.124l0.418,0l0,0.1Z" style="fill:#613358;fill-rule:nonzero;"/></g><g transform="matrix(29.2816,0,0,29.2816,330.336,643.922)"><path d="M0.07,-0.508c0.025,-0.007 0.058,-0.014 0.098,-0.02c0.04,-0.007 0.082,-0.01 0.126,-0.01c0.045,0 0.082,0.006 0.111,0.018c0.03,0.011 0.054,0.028 0.071,0.049c0.017,0.021 0.03,0.047 0.037,0.076c0.007,0.029 0.011,0.062 0.011,0.098l0,0.297l-0.149,0l0,-0.279c0,-0.048 -0.006,-0.082 -0.019,-0.102c-0.013,-0.02 -0.036,-0.03 -0.071,-0.03c-0.011,0 -0.022,0.001 -0.034,0.002c-0.012,0.001 -0.023,0.002 -0.032,0.003l0,0.406l-0.149,0l0,-0.508Z" style="fill:#613358;fill-rule:nonzero;"/></g><g transform="matrix(29.2816,0,0,29.2816,347.582,643.922)"><path d="M0.271,-0.104c0.015,-0 0.029,-0 0.042,-0.001c0.013,-0.001 0.024,-0.002 0.032,-0.003l0,-0.113c-0.006,-0.001 -0.015,-0.003 -0.027,-0.004c-0.012,-0.001 -0.023,-0.002 -0.033,-0.002c-0.014,0 -0.027,0.001 -0.039,0.003c-0.013,0.001 -0.024,0.004 -0.033,0.009c-0.009,0.005 -0.017,0.011 -0.022,0.019c-0.005,0.008 -0.008,0.018 -0.008,0.03c0,0.023 0.008,0.04 0.024,0.049c0.015,0.009 0.037,0.013 0.064,0.013Zm-0.012,-0.436c0.044,0 0.081,0.005 0.11,0.015c0.029,0.01 0.053,0.024 0.071,0.043c0.017,0.019 0.03,0.041 0.037,0.068c0.007,0.027 0.011,0.056 0.011,0.089l0,0.31c-0.021,0.005 -0.051,0.01 -0.089,0.017c-0.038,0.006 -0.084,0.009 -0.138,0.009c-0.034,0 -0.065,-0.003 -0.092,-0.009c-0.028,-0.006 -0.052,-0.016 -0.072,-0.029c-0.02,-0.014 -0.035,-0.032 -0.046,-0.054c-0.011,-0.022 -0.016,-0.049 -0.016,-0.081c0,-0.031 0.006,-0.057 0.019,-0.078c0.012,-0.021 0.028,-0.038 0.049,-0.051c0.021,-0.013 0.044,-0.022 0.071,-0.027c0.027,-0.006 0.054,-0.009 0.083,-0.009c0.019,0 0.037,0.001 0.052,0.003c0.015,0.001 0.027,0.003 0.036,0.006l0,-0.014c0,-0.025 -0.008,-0.046 -0.023,-0.061c-0.015,-0.015 -0.042,-0.023 -0.08,-0.023c-0.025,0 -0.05,0.002 -0.075,0.006c-0.025,0.003 -0.046,0.008 -0.064,0.015l-0.019,-0.12c0.009,-0.003 0.02,-0.005 0.033,-0.008c0.013,-0.003 0.027,-0.006 0.042,-0.008c0.015,-0.003 0.032,-0.005 0.049,-0.006c0.017,-0.002 0.034,-0.003 0.051,-0.003Zm0.138,-0.175l-0.165,0.139l-0.068,-0.061l0.142,-0.162l0.091,0.084Z" style="fill:#613358;fill-rule:nonzero;"/></g><g transform="matrix(29.2816,0,0,29.2816,363.775,643.922)"><path d="M0.065,-0.657l0.149,-0.024l0,0.155l0.179,0l0,0.124l-0.179,0l-0,0.185c-0,0.031 0.005,0.056 0.016,0.075c0.011,0.019 0.034,0.028 0.067,0.028c0.016,0 0.032,-0.001 0.049,-0.004c0.017,-0.003 0.033,-0.008 0.047,-0.013l0.021,0.116c-0.018,0.007 -0.038,0.014 -0.06,0.019c-0.022,0.005 -0.049,0.008 -0.081,0.008c-0.041,0 -0.074,-0.005 -0.101,-0.016c-0.027,-0.011 -0.048,-0.027 -0.064,-0.046c-0.016,-0.02 -0.027,-0.044 -0.034,-0.072c-0.006,-0.028 -0.009,-0.059 -0.009,-0.093l0,-0.442Z" style="fill:#613358;fill-rule:nonzero;"/></g><g transform="matrix(29.2816,0,0,29.2816,377.274,643.922)"><path d="M0.211,-0.152c0.001,0.016 0.002,0.027 0.003,0.034c-0,0.007 0,0.012 0,0.017c0,0.02 -0.002,0.041 -0.006,0.064c-0.003,0.022 -0.008,0.044 -0.015,0.067c-0.007,0.023 -0.015,0.045 -0.025,0.068c-0.01,0.023 -0.021,0.044 -0.034,0.065l-0.117,-0.029c0.015,-0.044 0.026,-0.085 0.032,-0.124c0.006,-0.039 0.009,-0.071 0.009,-0.096c0,-0.004 -0,-0.009 -0.001,-0.016l-0.002,-0.038c0,-0.006 0,-0.01 0,-0.012l0.156,-0Z" style="fill:#613358;fill-rule:nonzero;"/></g><g transform="matrix(29.2816,0,0,29.2816,391.505,643.922)"><path d="M0.407,-0.259c0,-0.046 -0.01,-0.083 -0.031,-0.11c-0.021,-0.028 -0.051,-0.042 -0.092,-0.042c-0.013,-0 -0.026,0 -0.037,0.001c-0.011,0.001 -0.021,0.003 -0.028,0.004l-0,0.269c0.009,0.006 0.021,0.011 0.036,0.015c0.016,0.004 0.031,0.006 0.046,0.006c0.071,-0 0.106,-0.048 0.106,-0.143Zm0.152,-0.004c0,0.041 -0.005,0.078 -0.015,0.111c-0.01,0.033 -0.025,0.062 -0.044,0.086c-0.019,0.024 -0.043,0.043 -0.072,0.056c-0.029,0.013 -0.062,0.02 -0.099,0.02c-0.021,-0 -0.04,-0.002 -0.058,-0.006c-0.018,-0.004 -0.035,-0.01 -0.052,-0.017l0,0.198l-0.149,-0l0,-0.693c0.013,-0.004 0.029,-0.008 0.046,-0.011c0.017,-0.004 0.036,-0.007 0.055,-0.01c0.019,-0.003 0.038,-0.005 0.058,-0.006c0.019,-0.002 0.038,-0.003 0.056,-0.003c0.043,0 0.082,0.007 0.116,0.02c0.034,0.013 0.063,0.031 0.086,0.054c0.023,0.024 0.041,0.053 0.053,0.087c0.013,0.034 0.019,0.072 0.019,0.114Z" style="fill:#613358;fill-rule:nonzero;"/></g><g transform="matrix(29.2816,0,0,29.2816,409.191,643.922)"><path d="M0.562,-0.264c0,0.041 -0.006,0.079 -0.018,0.114c-0.012,0.034 -0.029,0.063 -0.052,0.088c-0.023,0.024 -0.05,0.043 -0.082,0.056c-0.031,0.013 -0.067,0.02 -0.106,0.02c-0.039,0 -0.074,-0.007 -0.106,-0.02c-0.031,-0.013 -0.058,-0.032 -0.081,-0.056c-0.023,-0.025 -0.04,-0.054 -0.053,-0.088c-0.013,-0.035 -0.019,-0.073 -0.019,-0.114c-0,-0.041 0.006,-0.079 0.019,-0.113c0.013,-0.034 0.031,-0.063 0.054,-0.087c0.023,-0.024 0.051,-0.043 0.082,-0.056c0.032,-0.013 0.067,-0.02 0.104,-0.02c0.038,0 0.073,0.007 0.104,0.02c0.032,0.013 0.059,0.032 0.082,0.056c0.023,0.024 0.04,0.053 0.053,0.087c0.013,0.034 0.019,0.072 0.019,0.113Zm-0.152,0c-0,-0.046 -0.009,-0.082 -0.028,-0.108c-0.018,-0.027 -0.044,-0.04 -0.078,-0.04c-0.034,-0 -0.06,0.013 -0.079,0.039c-0.019,0.027 -0.028,0.063 -0.028,0.109c0,0.046 0.009,0.083 0.028,0.11c0.019,0.027 0.045,0.04 0.079,0.04c0.034,0 0.06,-0.013 0.079,-0.04c0.018,-0.027 0.027,-0.064 0.027,-0.11Z" style="fill:#613358;fill-rule:nonzero;"/></g><g transform="matrix(29.2816,0,0,29.2816,426.965,643.922)"><path d="M0.219,-0.336c0.015,-0.016 0.03,-0.033 0.046,-0.05c0.015,-0.017 0.03,-0.035 0.045,-0.051c0.015,-0.018 0.029,-0.034 0.042,-0.049c0.013,-0.015 0.024,-0.029 0.033,-0.04l0.177,0c-0.035,0.041 -0.07,0.079 -0.104,0.116c-0.033,0.038 -0.07,0.076 -0.11,0.115c0.02,0.018 0.041,0.04 0.062,0.065c0.021,0.025 0.042,0.05 0.062,0.077c0.02,0.027 0.038,0.053 0.055,0.08c0.017,0.027 0.031,0.051 0.042,0.073l-0.171,0c-0.011,-0.017 -0.023,-0.036 -0.037,-0.057c-0.013,-0.021 -0.028,-0.042 -0.043,-0.063c-0.015,-0.021 -0.032,-0.042 -0.049,-0.061c-0.017,-0.019 -0.033,-0.036 -0.05,-0.049l-0,0.23l-0.149,0l-0,-0.752l0.149,-0.024l-0,0.44Z" style="fill:#613358;fill-rule:nonzero;"/></g><g transform="matrix(29.2816,0,0,29.2816,443.626,643.922)"><path d="M0.519,-0.018c-0.025,0.007 -0.058,0.014 -0.098,0.021c-0.04,0.006 -0.082,0.009 -0.126,0.009c-0.045,0 -0.082,-0.006 -0.112,-0.018c-0.029,-0.012 -0.053,-0.029 -0.07,-0.051c-0.017,-0.021 -0.03,-0.047 -0.037,-0.077c-0.007,-0.03 -0.011,-0.063 -0.011,-0.099l-0,-0.293l0.149,0l-0,0.275c-0,0.048 0.006,0.083 0.019,0.104c0.013,0.021 0.036,0.032 0.071,0.032c0.011,-0 0.022,-0.001 0.034,-0.002c0.012,-0.001 0.023,-0.002 0.032,-0.003l-0,-0.406l0.149,0l-0,0.508Z" style="fill:#613358;fill-rule:nonzero;"/></g><g transform="matrix(29.2816,0,0,29.2816,460.873,643.922)"><path d="M0.197,-0.267c-0,0.046 0.01,0.083 0.031,0.111c0.021,0.028 0.051,0.042 0.092,0.042c0.013,0 0.026,-0 0.037,-0.001c0.011,-0.001 0.021,-0.003 0.028,-0.004l0,-0.271c-0.009,-0.006 -0.022,-0.011 -0.036,-0.015c-0.015,-0.004 -0.031,-0.006 -0.046,-0.006c-0.071,0 -0.106,0.048 -0.106,0.144Zm0.337,0.25c-0.013,0.004 -0.029,0.008 -0.046,0.012c-0.017,0.003 -0.036,0.006 -0.055,0.009c-0.019,0.003 -0.038,0.005 -0.058,0.007c-0.019,0.001 -0.038,0.002 -0.056,0.002c-0.043,0 -0.082,-0.006 -0.116,-0.019c-0.034,-0.013 -0.063,-0.031 -0.086,-0.054c-0.023,-0.024 -0.041,-0.053 -0.054,-0.086c-0.012,-0.034 -0.018,-0.072 -0.018,-0.114c-0,-0.043 0.005,-0.081 0.016,-0.115c0.011,-0.035 0.026,-0.064 0.046,-0.088c0.02,-0.024 0.044,-0.042 0.073,-0.055c0.029,-0.013 0.063,-0.019 0.1,-0.019c0.021,0 0.039,0.002 0.055,0.006c0.017,0.004 0.033,0.01 0.05,0.017l0,-0.238l0.149,-0.024l0,0.759Z" style="fill:#613358;fill-rule:nonzero;"/></g><g transform="matrix(29.2816,0,0,29.2816,485.587,643.922)"><path d="M0.07,-0.508c0.025,-0.007 0.058,-0.014 0.098,-0.02c0.04,-0.007 0.082,-0.01 0.126,-0.01c0.045,0 0.082,0.006 0.111,0.018c0.03,0.011 0.054,0.028 0.071,0.049c0.017,0.021 0.03,0.047 0.037,0.076c0.007,0.029 0.011,0.062 0.011,0.098l0,0.297l-0.149,0l0,-0.279c0,-0.048 -0.006,-0.082 -0.019,-0.102c-0.013,-0.02 -0.036,-0.03 -0.071,-0.03c-0.011,0 -0.022,0.001 -0.034,0.002c-0.012,0.001 -0.023,0.002 -0.032,0.003l0,0.406l-0.149,0l0,-0.508Z" style="fill:#613358;fill-rule:nonzero;"/></g><g transform="matrix(29.2816,0,0,29.2816,502.833,643.922)"><path d="M0.045,-0.259c0,-0.047 0.007,-0.088 0.022,-0.123c0.014,-0.035 0.033,-0.064 0.056,-0.087c0.023,-0.023 0.05,-0.041 0.081,-0.053c0.03,-0.012 0.061,-0.018 0.093,-0.018c0.075,0 0.134,0.023 0.177,0.069c0.043,0.045 0.065,0.112 0.065,0.201c0,0.009 -0,0.018 -0.001,0.029c-0.001,0.01 -0.001,0.019 -0.002,0.027l-0.338,0c0.003,0.031 0.018,0.055 0.043,0.073c0.025,0.018 0.059,0.027 0.102,0.027c0.027,0 0.054,-0.002 0.08,-0.007c0.027,-0.005 0.048,-0.012 0.065,-0.019l0.02,0.121c-0.008,0.004 -0.019,0.008 -0.032,0.012c-0.013,0.004 -0.028,0.008 -0.044,0.011c-0.017,0.003 -0.034,0.005 -0.053,0.007c-0.019,0.002 -0.037,0.003 -0.056,0.003c-0.047,0 -0.089,-0.007 -0.124,-0.021c-0.035,-0.014 -0.064,-0.033 -0.087,-0.057c-0.022,-0.025 -0.04,-0.054 -0.051,-0.087c-0.011,-0.033 -0.016,-0.069 -0.016,-0.108Zm0.35,-0.057c-0.001,-0.013 -0.003,-0.025 -0.007,-0.037c-0.003,-0.012 -0.009,-0.023 -0.017,-0.032c-0.007,-0.009 -0.017,-0.017 -0.028,-0.023c-0.012,-0.006 -0.027,-0.009 -0.044,-0.009c-0.017,0 -0.031,0.003 -0.043,0.009c-0.012,0.005 -0.022,0.013 -0.03,0.022c-0.008,0.009 -0.014,0.02 -0.018,0.033c-0.005,0.012 -0.008,0.024 -0.01,0.037l0.197,0Z" style="fill:#613358;fill-rule:nonzero;"/></g><g transform="matrix(29.2816,0,0,29.2816,519.934,643.922)"><path d="M0.045,-0.263c0,-0.038 0.006,-0.074 0.019,-0.107c0.012,-0.034 0.03,-0.064 0.053,-0.089c0.023,-0.025 0.052,-0.044 0.085,-0.059c0.033,-0.015 0.071,-0.022 0.114,-0.022c0.028,0 0.054,0.003 0.077,0.008c0.023,0.005 0.046,0.012 0.068,0.021l-0.031,0.119c-0.014,-0.005 -0.029,-0.01 -0.046,-0.014c-0.017,-0.004 -0.035,-0.006 -0.056,-0.006c-0.044,-0 -0.077,0.014 -0.099,0.041c-0.021,0.027 -0.032,0.063 -0.032,0.108c-0,0.047 0.01,0.084 0.03,0.11c0.021,0.026 0.056,0.039 0.107,0.039c0.018,0 0.037,-0.002 0.058,-0.005c0.021,-0.003 0.04,-0.009 0.057,-0.016l0.021,0.122c-0.017,0.007 -0.039,0.014 -0.065,0.019c-0.026,0.005 -0.055,0.008 -0.086,0.008c-0.048,0 -0.089,-0.007 -0.124,-0.021c-0.035,-0.015 -0.063,-0.034 -0.086,-0.059c-0.022,-0.025 -0.038,-0.054 -0.049,-0.087c-0.01,-0.034 -0.015,-0.071 -0.015,-0.11Z" style="fill:#613358;fill-rule:nonzero;"/></g><g transform="matrix(29.2816,0,0,29.2816,534.575,643.922)"><path d="M0.07,-0l0,-0.752l0.149,-0.024l0,0.252c0.01,-0.003 0.023,-0.006 0.039,-0.009c0.015,-0.004 0.03,-0.005 0.045,-0.005c0.043,0 0.078,0.006 0.107,0.018c0.028,0.011 0.05,0.028 0.068,0.049c0.017,0.021 0.028,0.047 0.035,0.076c0.008,0.029 0.011,0.062 0.011,0.098l0,0.297l-0.149,0l0,-0.279c0,-0.048 -0.006,-0.082 -0.019,-0.102c-0.012,-0.02 -0.035,-0.03 -0.068,-0.03c-0.013,0 -0.026,0.001 -0.037,0.004c-0.012,0.002 -0.023,0.004 -0.032,0.007l0,0.4l-0.149,0Z" style="fill:#613358;fill-rule:nonzero;"/></g><g transform="matrix(29.2816,0,0,29.2816,551.821,643.922)"><path d="M0.045,-0.263c0,-0.038 0.006,-0.074 0.019,-0.107c0.012,-0.034 0.03,-0.064 0.053,-0.089c0.023,-0.025 0.052,-0.044 0.085,-0.059c0.033,-0.015 0.071,-0.022 0.114,-0.022c0.028,0 0.054,0.003 0.077,0.008c0.023,0.005 0.046,0.012 0.068,0.021l-0.031,0.119c-0.014,-0.005 -0.029,-0.01 -0.046,-0.014c-0.017,-0.004 -0.035,-0.006 -0.056,-0.006c-0.044,-0 -0.077,0.014 -0.099,0.041c-0.021,0.027 -0.032,0.063 -0.032,0.108c-0,0.047 0.01,0.084 0.03,0.11c0.021,0.026 0.056,0.039 0.107,0.039c0.018,0 0.037,-0.002 0.058,-0.005c0.021,-0.003 0.04,-0.009 0.057,-0.016l0.021,0.122c-0.017,0.007 -0.039,0.014 -0.065,0.019c-0.026,0.005 -0.055,0.008 -0.086,0.008c-0.048,0 -0.089,-0.007 -0.124,-0.021c-0.035,-0.015 -0.063,-0.034 -0.086,-0.059c-0.022,-0.025 -0.038,-0.054 -0.049,-0.087c-0.01,-0.034 -0.015,-0.071 -0.015,-0.11Z" style="fill:#613358;fill-rule:nonzero;"/></g><g transform="matrix(29.2816,0,0,29.2816,565.73,643.922)"><path d="M0.045,-0.259c0,-0.047 0.007,-0.088 0.022,-0.123c0.014,-0.035 0.033,-0.064 0.056,-0.087c0.023,-0.023 0.05,-0.041 0.081,-0.053c0.03,-0.012 0.061,-0.018 0.093,-0.018c0.075,0 0.134,0.023 0.177,0.069c0.043,0.045 0.065,0.112 0.065,0.201c0,0.009 -0,0.018 -0.001,0.029c-0.001,0.01 -0.001,0.019 -0.002,0.027l-0.338,0c0.003,0.031 0.018,0.055 0.043,0.073c0.025,0.018 0.059,0.027 0.102,0.027c0.027,0 0.054,-0.002 0.08,-0.007c0.027,-0.005 0.048,-0.012 0.065,-0.019l0.02,0.121c-0.008,0.004 -0.019,0.008 -0.032,0.012c-0.013,0.004 -0.028,0.008 -0.044,0.011c-0.017,0.003 -0.034,0.005 -0.053,0.007c-0.019,0.002 -0.037,0.003 -0.056,0.003c-0.047,0 -0.089,-0.007 -0.124,-0.021c-0.035,-0.014 -0.064,-0.033 -0.087,-0.057c-0.022,-0.025 -0.04,-0.054 -0.051,-0.087c-0.011,-0.033 -0.016,-0.069 -0.016,-0.108Zm0.35,-0.057c-0.001,-0.013 -0.003,-0.025 -0.007,-0.037c-0.003,-0.012 -0.009,-0.023 -0.017,-0.032c-0.007,-0.009 -0.017,-0.017 -0.028,-0.023c-0.012,-0.006 -0.027,-0.009 -0.044,-0.009c-0.017,0 -0.031,0.003 -0.043,0.009c-0.012,0.005 -0.022,0.013 -0.03,0.022c-0.008,0.009 -0.014,0.02 -0.018,0.033c-0.005,0.012 -0.008,0.024 -0.01,0.037l0.197,0Z" style="fill:#613358;fill-rule:nonzero;"/></g><g transform="matrix(29.2816,0,0,29.2816,582.831,643.922)"><path d="M0.065,-0.657l0.149,-0.024l0,0.155l0.179,0l0,0.124l-0.179,0l-0,0.185c-0,0.031 0.005,0.056 0.016,0.075c0.011,0.019 0.034,0.028 0.067,0.028c0.016,0 0.032,-0.001 0.049,-0.004c0.017,-0.003 0.033,-0.008 0.047,-0.013l0.021,0.116c-0.018,0.007 -0.038,0.014 -0.06,0.019c-0.022,0.005 -0.049,0.008 -0.081,0.008c-0.041,0 -0.074,-0.005 -0.101,-0.016c-0.027,-0.011 -0.048,-0.027 -0.064,-0.046c-0.016,-0.02 -0.027,-0.044 -0.034,-0.072c-0.006,-0.028 -0.009,-0.059 -0.009,-0.093l0,-0.442Z" style="fill:#613358;fill-rule:nonzero;"/></g><g transform="matrix(29.2816,0,0,29.2816,595.246,643.922)"><path d="M0.045,-0.259c0,-0.047 0.007,-0.088 0.022,-0.123c0.014,-0.035 0.033,-0.064 0.056,-0.087c0.023,-0.023 0.05,-0.041 0.081,-0.053c0.03,-0.012 0.061,-0.018 0.093,-0.018c0.075,0 0.134,0.023 0.177,0.069c0.043,0.045 0.065,0.112 0.065,0.201c0,0.009 -0,0.018 -0.001,0.029c-0.001,0.01 -0.001,0.019 -0.002,0.027l-0.338,0c0.003,0.031 0.018,0.055 0.043,0.073c0.025,0.018 0.059,0.027 0.102,0.027c0.027,0 0.054,-0.002 0.08,-0.007c0.027,-0.005 0.048,-0.012 0.065,-0.019l0.02,0.121c-0.008,0.004 -0.019,0.008 -0.032,0.012c-0.013,0.004 -0.028,0.008 -0.044,0.011c-0.017,0.003 -0.034,0.005 -0.053,0.007c-0.019,0.002 -0.037,0.003 -0.056,0.003c-0.047,0 -0.089,-0.007 -0.124,-0.021c-0.035,-0.014 -0.064,-0.033 -0.087,-0.057c-0.022,-0.025 -0.04,-0.054 -0.051,-0.087c-0.011,-0.033 -0.016,-0.069 -0.016,-0.108Zm0.35,-0.057c-0.001,-0.013 -0.003,-0.025 -0.007,-0.037c-0.003,-0.012 -0.009,-0.023 -0.017,-0.032c-0.007,-0.009 -0.017,-0.017 -0.028,-0.023c-0.012,-0.006 -0.027,-0.009 -0.044,-0.009c-0.017,0 -0.031,0.003 -0.043,0.009c-0.012,0.005 -0.022,0.013 -0.03,0.022c-0.008,0.009 -0.014,0.02 -0.018,0.033c-0.005,0.012 -0.008,0.024 -0.01,0.037l0.197,0Z" style="fill:#613358;fill-rule:nonzero;"/></g><g transform="matrix(29.2816,0,0,29.2816,619.374,643.922)"><path d="M0.407,-0.259c0,-0.046 -0.01,-0.083 -0.031,-0.11c-0.021,-0.028 -0.051,-0.042 -0.092,-0.042c-0.013,-0 -0.026,0 -0.037,0.001c-0.011,0.001 -0.021,0.003 -0.028,0.004l-0,0.269c0.009,0.006 0.021,0.011 0.036,0.015c0.016,0.004 0.031,0.006 0.046,0.006c0.071,-0 0.106,-0.048 0.106,-0.143Zm0.152,-0.004c0,0.041 -0.005,0.078 -0.015,0.111c-0.01,0.033 -0.025,0.062 -0.044,0.086c-0.019,0.024 -0.043,0.043 -0.072,0.056c-0.029,0.013 -0.062,0.02 -0.099,0.02c-0.021,-0 -0.04,-0.002 -0.058,-0.006c-0.018,-0.004 -0.035,-0.01 -0.052,-0.017l0,0.198l-0.149,-0l0,-0.693c0.013,-0.004 0.029,-0.008 0.046,-0.011c0.017,-0.004 0.036,-0.007 0.055,-0.01c0.019,-0.003 0.038,-0.005 0.058,-0.006c0.019,-0.002 0.038,-0.003 0.056,-0.003c0.043,0 0.082,0.007 0.116,0.02c0.034,0.013 0.063,0.031 0.086,0.054c0.023,0.024 0.041,0.053 0.053,0.087c0.013,0.034 0.019,0.072 0.019,0.114Z" style="fill:#613358;fill-rule:nonzero;"/></g><g transform="matrix(29.2816,0,0,29.2816,637.06,643.922)"><path d="M0.387,-0.394c-0.013,-0.003 -0.029,-0.007 -0.047,-0.011c-0.018,-0.003 -0.037,-0.005 -0.058,-0.005c-0.009,0 -0.021,0.001 -0.034,0.003c-0.013,0.001 -0.022,0.003 -0.029,0.005l-0,0.402l-0.149,-0l-0,-0.498c0.027,-0.009 0.058,-0.018 0.094,-0.026c0.037,-0.009 0.077,-0.013 0.122,-0.013c0.008,0 0.018,0 0.029,0.002c0.011,0.001 0.023,0.002 0.034,0.004c0.011,0.001 0.023,0.003 0.034,0.006c0.011,0.002 0.021,0.005 0.029,0.008l-0.025,0.123Z" style="fill:#613358;fill-rule:nonzero;"/></g><g transform="matrix(29.2816,0,0,29.2816,649.124,643.922)"><path d="M0.562,-0.264c0,0.041 -0.006,0.079 -0.018,0.114c-0.012,0.034 -0.029,0.063 -0.052,0.088c-0.023,0.024 -0.05,0.043 -0.082,0.056c-0.031,0.013 -0.067,0.02 -0.106,0.02c-0.039,0 -0.074,-0.007 -0.106,-0.02c-0.031,-0.013 -0.058,-0.032 -0.081,-0.056c-0.023,-0.025 -0.04,-0.054 -0.053,-0.088c-0.013,-0.035 -0.019,-0.073 -0.019,-0.114c-0,-0.041 0.006,-0.079 0.019,-0.113c0.013,-0.034 0.031,-0.063 0.054,-0.087c0.023,-0.024 0.051,-0.043 0.082,-0.056c0.032,-0.013 0.067,-0.02 0.104,-0.02c0.038,0 0.073,0.007 0.104,0.02c0.032,0.013 0.059,0.032 0.082,0.056c0.023,0.024 0.04,0.053 0.053,0.087c0.013,0.034 0.019,0.072 0.019,0.113Zm-0.152,0c-0,-0.046 -0.009,-0.082 -0.028,-0.108c-0.018,-0.027 -0.044,-0.04 -0.078,-0.04c-0.034,-0 -0.06,0.013 -0.079,0.039c-0.019,0.027 -0.028,0.063 -0.028,0.109c0,0.046 0.009,0.083 0.028,0.11c0.019,0.027 0.045,0.04 0.079,0.04c0.034,0 0.06,-0.013 0.079,-0.04c0.018,-0.027 0.027,-0.064 0.027,-0.11Z" style="fill:#613358;fill-rule:nonzero;"/></g><g transform="matrix(29.2816,0,0,29.2816,666.898,643.922)"><path d="M0.197,-0.267c-0,0.046 0.01,0.083 0.031,0.111c0.021,0.028 0.051,0.042 0.092,0.042c0.013,0 0.026,-0 0.037,-0.001c0.011,-0.001 0.021,-0.003 0.028,-0.004l0,-0.271c-0.009,-0.006 -0.022,-0.011 -0.036,-0.015c-0.015,-0.004 -0.031,-0.006 -0.046,-0.006c-0.071,0 -0.106,0.048 -0.106,0.144Zm0.337,0.25c-0.013,0.004 -0.029,0.008 -0.046,0.012c-0.017,0.003 -0.036,0.006 -0.055,0.009c-0.019,0.003 -0.038,0.005 -0.058,0.007c-0.019,0.001 -0.038,0.002 -0.056,0.002c-0.043,0 -0.082,-0.006 -0.116,-0.019c-0.034,-0.013 -0.063,-0.031 -0.086,-0.054c-0.023,-0.024 -0.041,-0.053 -0.054,-0.086c-0.012,-0.034 -0.018,-0.072 -0.018,-0.114c-0,-0.043 0.005,-0.081 0.016,-0.115c0.011,-0.035 0.026,-0.064 0.046,-0.088c0.02,-0.024 0.044,-0.042 0.073,-0.055c0.029,-0.013 0.063,-0.019 0.1,-0.019c0.021,0 0.039,0.002 0.055,0.006c0.017,0.004 0.033,0.01 0.05,0.017l0,-0.238l0.149,-0.024l0,0.759Z" style="fill:#613358;fill-rule:nonzero;"/></g><g transform="matrix(29.2816,0,0,29.2816,684.584,643.922)"><path d="M0.045,-0.259c0,-0.047 0.007,-0.088 0.022,-0.123c0.014,-0.035 0.033,-0.064 0.056,-0.087c0.023,-0.023 0.05,-0.041 0.081,-0.053c0.03,-0.012 0.061,-0.018 0.093,-0.018c0.075,0 0.134,0.023 0.177,0.069c0.043,0.045 0.065,0.112 0.065,0.201c0,0.009 -0,0.018 -0.001,0.029c-0.001,0.01 -0.001,0.019 -0.002,0.027l-0.338,0c0.003,0.031 0.018,0.055 0.043,0.073c0.025,0.018 0.059,0.027 0.102,0.027c0.027,0 0.054,-0.002 0.08,-0.007c0.027,-0.005 0.048,-0.012 0.065,-0.019l0.02,0.121c-0.008,0.004 -0.019,0.008 -0.032,0.012c-0.013,0.004 -0.028,0.008 -0.044,0.011c-0.017,0.003 -0.034,0.005 -0.053,0.007c-0.019,0.002 -0.037,0.003 -0.056,0.003c-0.047,0 -0.089,-0.007 -0.124,-0.021c-0.035,-0.014 -0.064,-0.033 -0.087,-0.057c-0.022,-0.025 -0.04,-0.054 -0.051,-0.087c-0.011,-0.033 -0.016,-0.069 -0.016,-0.108Zm0.35,-0.057c-0.001,-0.013 -0.003,-0.025 -0.007,-0.037c-0.003,-0.012 -0.009,-0.023 -0.017,-0.032c-0.007,-0.009 -0.017,-0.017 -0.028,-0.023c-0.012,-0.006 -0.027,-0.009 -0.044,-0.009c-0.017,0 -0.031,0.003 -0.043,0.009c-0.012,0.005 -0.022,0.013 -0.03,0.022c-0.008,0.009 -0.014,0.02 -0.018,0.033c-0.005,0.012 -0.008,0.024 -0.01,0.037l0.197,0Zm-0.252,-0.407l0.055,-0.066l0.1,0.077l0.1,-0.077l0.057,0.066l-0.157,0.137l-0.155,-0.137Z" style="fill:#613358;fill-rule:nonzero;"/></g><g transform="matrix(29.2816,0,0,29.2816,701.684,643.922)"><path d="M0.28,0.01c-0.043,-0.001 -0.079,-0.005 -0.106,-0.014c-0.027,-0.009 -0.048,-0.021 -0.064,-0.037c-0.015,-0.015 -0.026,-0.034 -0.032,-0.057c-0.005,-0.022 -0.008,-0.047 -0.008,-0.075l-0,-0.579l0.149,-0.024l-0,0.573c-0,0.013 0.001,0.025 0.003,0.036c0.002,0.011 0.006,0.02 0.011,0.027c0.006,0.007 0.014,0.013 0.025,0.018c0.011,0.005 0.025,0.008 0.043,0.009l-0.021,0.123Z" style="fill:#613358;fill-rule:nonzero;"/></g><g transform="matrix(29.2816,0,0,29.2816,711.377,643.922)"><path d="M0.271,-0.104c0.015,-0 0.029,-0 0.042,-0.001c0.013,-0.001 0.024,-0.002 0.032,-0.003l0,-0.113c-0.006,-0.001 -0.015,-0.003 -0.027,-0.004c-0.012,-0.001 -0.023,-0.002 -0.033,-0.002c-0.014,0 -0.027,0.001 -0.039,0.003c-0.013,0.001 -0.024,0.004 -0.033,0.009c-0.009,0.005 -0.017,0.011 -0.022,0.019c-0.005,0.008 -0.008,0.018 -0.008,0.03c0,0.023 0.008,0.04 0.024,0.049c0.015,0.009 0.037,0.013 0.064,0.013Zm-0.012,-0.436c0.044,0 0.081,0.005 0.11,0.015c0.029,0.01 0.053,0.024 0.071,0.043c0.017,0.019 0.03,0.041 0.037,0.068c0.007,0.027 0.011,0.056 0.011,0.089l0,0.31c-0.021,0.005 -0.051,0.01 -0.089,0.017c-0.038,0.006 -0.084,0.009 -0.138,0.009c-0.034,0 -0.065,-0.003 -0.092,-0.009c-0.028,-0.006 -0.052,-0.016 -0.072,-0.029c-0.02,-0.014 -0.035,-0.032 -0.046,-0.054c-0.011,-0.022 -0.016,-0.049 -0.016,-0.081c0,-0.031 0.006,-0.057 0.019,-0.078c0.012,-0.021 0.028,-0.038 0.049,-0.051c0.021,-0.013 0.044,-0.022 0.071,-0.027c0.027,-0.006 0.054,-0.009 0.083,-0.009c0.019,0 0.037,0.001 0.052,0.003c0.015,0.001 0.027,0.003 0.036,0.006l0,-0.014c0,-0.025 -0.008,-0.046 -0.023,-0.061c-0.015,-0.015 -0.042,-0.023 -0.08,-0.023c-0.025,0 -0.05,0.002 -0.075,0.006c-0.025,0.003 -0.046,0.008 -0.064,0.015l-0.019,-0.12c0.009,-0.003 0.02,-0.005 0.033,-0.008c0.013,-0.003 0.027,-0.006 0.042,-0.008c0.015,-0.003 0.032,-0.005 0.049,-0.006c0.017,-0.002 0.034,-0.003 0.051,-0.003Z" style="fill:#613358;fill-rule:nonzero;"/></g><g transform="matrix(29.2816,0,0,29.2816,727.569,643.922)"><path d="M0.065,-0.657l0.149,-0.024l0,0.155l0.179,0l0,0.124l-0.179,0l-0,0.185c-0,0.031 0.005,0.056 0.016,0.075c0.011,0.019 0.034,0.028 0.067,0.028c0.016,0 0.032,-0.001 0.049,-0.004c0.017,-0.003 0.033,-0.008 0.047,-0.013l0.021,0.116c-0.018,0.007 -0.038,0.014 -0.06,0.019c-0.022,0.005 -0.049,0.008 -0.081,0.008c-0.041,0 -0.074,-0.005 -0.101,-0.016c-0.027,-0.011 -0.048,-0.027 -0.064,-0.046c-0.016,-0.02 -0.027,-0.044 -0.034,-0.072c-0.006,-0.028 -0.009,-0.059 -0.009,-0.093l0,-0.442Z" style="fill:#613358;fill-rule:nonzero;"/></g><g transform="matrix(29.2816,0,0,29.2816,741.068,643.922)"><path d="M0.216,-0.079c0,0.03 -0.01,0.053 -0.028,0.069c-0.019,0.015 -0.041,0.023 -0.065,0.023c-0.024,-0 -0.046,-0.008 -0.065,-0.024c-0.018,-0.015 -0.028,-0.038 -0.028,-0.068c0,-0.03 0.01,-0.053 0.029,-0.068c0.019,-0.016 0.04,-0.024 0.064,-0.024c0.024,0 0.046,0.008 0.065,0.024c0.018,0.015 0.028,0.038 0.028,0.068Z" style="fill:#613358;fill-rule:nonzero;"/></g></g><path d="M1875,2150.86l-419.653,102.537l-517.847,-37.168l-667.218,72.562l-156.633,4.31l0,206.897l1761.35,0l0,-349.138Z" style="fill:#613358;fill-opacity:0.84;"/><path d="M1619.66,2431.96c-0.781,-0 -1.438,-0.267 -1.971,-0.8c-0.534,-0.534 -0.8,-1.2 -0.8,-2c-0,-0.819 0.266,-1.481 0.8,-1.986c0.533,-0.504 1.19,-0.757 1.971,-0.757c0.781,0 1.438,0.253 1.971,0.757c0.533,0.505 0.8,1.167 0.8,1.986c-0,0.8 -0.267,1.466 -0.8,2c-0.533,0.533 -1.19,0.8 -1.971,0.8Z" style="fill:#f59a00;fill-rule:nonzero;"/><path d="M1640.92,2410.53l-0,21.198l-4.257,0l0,-1.771c-1.105,1.333 -2.704,2 -4.799,2c-1.448,-0 -2.757,-0.324 -3.929,-0.972c-1.171,-0.647 -2.09,-1.571 -2.756,-2.771c-0.667,-1.2 -1,-2.59 -1,-4.171c-0,-1.581 0.333,-2.971 1,-4.171c0.666,-1.2 1.585,-2.123 2.756,-2.771c1.172,-0.648 2.481,-0.971 3.929,-0.971c1.961,-0 3.494,0.619 4.599,1.857l0,-7.457l4.457,0Zm-8.285,17.77c1.124,-0 2.057,-0.386 2.8,-1.157c0.742,-0.771 1.114,-1.805 1.114,-3.1c-0,-1.295 -0.372,-2.328 -1.114,-3.1c-0.743,-0.771 -1.676,-1.157 -2.8,-1.157c-1.143,0 -2.086,0.386 -2.828,1.157c-0.743,0.772 -1.115,1.805 -1.115,3.1c0,1.295 0.372,2.329 1.115,3.1c0.742,0.771 1.685,1.157 2.828,1.157Z" style="fill:#f59a00;fill-rule:nonzero;"/><path d="M1645.03,2416.36l4.456,0l0,15.37l-4.456,0l-0,-15.37Zm2.228,-2.142c-0.819,-0 -1.485,-0.239 -2,-0.715c-0.514,-0.476 -0.771,-1.066 -0.771,-1.771c-0,-0.705 0.257,-1.295 0.771,-1.771c0.515,-0.476 1.181,-0.714 2,-0.714c0.819,-0 1.486,0.228 2,0.685c0.514,0.457 0.771,1.029 0.771,1.714c0,0.743 -0.257,1.357 -0.771,1.843c-0.514,0.486 -1.181,0.729 -2,0.729Z" style="fill:#f59a00;fill-rule:nonzero;"/><path d="M1669.49,2416.36l-0,12.799c-0,2.819 -0.734,4.914 -2.2,6.285c-1.467,1.371 -3.609,2.057 -6.428,2.057c-1.486,0 -2.895,-0.181 -4.228,-0.543c-1.334,-0.362 -2.438,-0.885 -3.314,-1.571l1.771,-3.2c0.647,0.534 1.466,0.957 2.457,1.272c0.99,0.314 1.981,0.471 2.971,0.471c1.543,-0 2.681,-0.348 3.414,-1.043c0.733,-0.695 1.1,-1.747 1.1,-3.157l-0,-0.657c-1.162,1.276 -2.781,1.914 -4.857,1.914c-1.409,0 -2.7,-0.309 -3.871,-0.928c-1.171,-0.619 -2.1,-1.49 -2.785,-2.614c-0.686,-1.124 -1.029,-2.419 -1.029,-3.886c0,-1.466 0.343,-2.761 1.029,-3.885c0.685,-1.124 1.614,-1.995 2.785,-2.614c1.171,-0.619 2.462,-0.928 3.871,-0.928c2.228,-0 3.924,0.733 5.085,2.199l0,-1.971l4.229,0Zm-8.428,10.971c1.181,-0 2.147,-0.348 2.899,-1.043c0.753,-0.695 1.129,-1.605 1.129,-2.729c-0,-1.123 -0.376,-2.033 -1.129,-2.728c-0.752,-0.695 -1.718,-1.043 -2.899,-1.043c-1.181,0 -2.152,0.348 -2.914,1.043c-0.762,0.695 -1.143,1.605 -1.143,2.728c0,1.124 0.381,2.034 1.143,2.729c0.762,0.695 1.733,1.043 2.914,1.043Z" style="fill:#f59a00;fill-rule:nonzero;"/><path d="M1673.63,2416.36l4.457,0l-0,15.37l-4.457,0l-0,-15.37Zm2.228,-2.142c-0.819,-0 -1.485,-0.239 -1.999,-0.715c-0.515,-0.476 -0.772,-1.066 -0.772,-1.771c0,-0.705 0.257,-1.295 0.772,-1.771c0.514,-0.476 1.18,-0.714 1.999,-0.714c0.819,-0 1.486,0.228 2,0.685c0.514,0.457 0.771,1.029 0.771,1.714c0,0.743 -0.257,1.357 -0.771,1.843c-0.514,0.486 -1.181,0.729 -2,0.729Z" style="fill:#f59a00;fill-rule:nonzero;"/><path d="M1692.14,2430.99c-0.438,0.324 -0.976,0.567 -1.614,0.729c-0.638,0.162 -1.309,0.243 -2.014,0.243c-1.828,-0 -3.242,-0.467 -4.242,-1.4c-1,-0.933 -1.5,-2.305 -1.5,-4.114l-0,-6.314l-2.371,0l-0,-3.428l2.371,0l-0,-3.742l4.457,-0l-0,3.742l3.828,0l-0,3.428l-3.828,0l-0,6.257c-0,0.647 0.166,1.147 0.5,1.5c0.333,0.352 0.804,0.528 1.414,0.528c0.704,0 1.304,-0.19 1.8,-0.571l1.199,3.142Z" style="fill:#f59a00;fill-rule:nonzero;"/><path d="M1700.86,2416.13c2.381,-0 4.209,0.566 5.485,1.699c1.276,1.134 1.914,2.843 1.914,5.129l0,8.77l-4.171,0l0,-1.914c-0.838,1.428 -2.4,2.143 -4.685,2.143c-1.181,-0 -2.205,-0.2 -3.071,-0.6c-0.867,-0.4 -1.529,-0.953 -1.986,-1.657c-0.457,-0.705 -0.685,-1.505 -0.685,-2.4c-0,-1.428 0.538,-2.552 1.614,-3.371c1.076,-0.819 2.738,-1.229 4.985,-1.229l3.542,0c0,-0.971 -0.295,-1.718 -0.885,-2.242c-0.591,-0.524 -1.476,-0.786 -2.657,-0.786c-0.819,0 -1.624,0.129 -2.414,0.386c-0.79,0.257 -1.462,0.605 -2.014,1.043l-1.6,-3.114c0.838,-0.591 1.843,-1.048 3.014,-1.372c1.171,-0.323 2.376,-0.485 3.614,-0.485Zm-0.343,12.827c0.762,-0 1.438,-0.176 2.028,-0.529c0.591,-0.352 1.01,-0.871 1.257,-1.557l0,-1.571l-3.056,0c-1.829,0 -2.743,0.6 -2.743,1.8c0,0.571 0.224,1.024 0.671,1.357c0.448,0.333 1.062,0.5 1.843,0.5Z" style="fill:#f59a00;fill-rule:nonzero;"/><rect x="1712.28" y="2410.53" width="4.457" height="21.198" style="fill:#f59a00;fill-rule:nonzero;"/><path d="M1355.06,2404.41c-3.581,0 -7.042,-0.485 -10.385,-1.456c-3.343,-0.97 -6.028,-2.232 -8.055,-3.785l3.558,-7.893c1.941,1.423 4.249,2.566 6.923,3.429c2.675,0.862 5.349,1.294 8.023,1.294c2.977,-0 5.176,-0.442 6.6,-1.327c1.423,-0.884 2.135,-2.059 2.135,-3.526c0,-1.078 -0.421,-1.973 -1.262,-2.685c-0.841,-0.712 -1.919,-1.283 -3.235,-1.715c-1.315,-0.431 -3.095,-0.905 -5.338,-1.423c-3.45,-0.82 -6.276,-1.639 -8.476,-2.459c-2.199,-0.819 -4.087,-2.135 -5.661,-3.946c-1.574,-1.812 -2.362,-4.228 -2.362,-7.247c0,-2.631 0.712,-5.014 2.136,-7.15c1.423,-2.135 3.569,-3.828 6.437,-5.079c2.869,-1.251 6.374,-1.876 10.514,-1.876c2.89,0 5.716,0.345 8.476,1.035c2.761,0.69 5.176,1.682 7.247,2.977l-3.235,7.958c-4.184,-2.373 -8.368,-3.559 -12.552,-3.559c-2.933,0 -5.101,0.475 -6.503,1.424c-1.402,0.949 -2.103,2.2 -2.103,3.752c0,1.553 0.809,2.707 2.427,3.462c1.617,0.755 4.087,1.499 7.408,2.232c3.451,0.82 6.276,1.639 8.476,2.459c2.2,0.819 4.087,2.113 5.661,3.882c1.575,1.768 2.362,4.162 2.362,7.182c-0,2.588 -0.723,4.949 -2.168,7.085c-1.445,2.135 -3.612,3.828 -6.502,5.079c-2.89,1.251 -6.406,1.876 -10.546,1.876Z" style="fill:#fff;fill-rule:nonzero;"/><path d="M1390.19,2366.89l-14.494,0l0,-8.541l39.468,0l0,8.541l-14.493,0l0,36.751l-10.481,-0l-0,-36.751Z" style="fill:#fff;fill-rule:nonzero;"/><path d="M1449.65,2403.64l-8.734,-12.617l-9.641,-0l0,12.617l-10.481,-0l-0,-45.292l19.604,0c4.012,0 7.495,0.669 10.449,2.006c2.955,1.337 5.231,3.235 6.826,5.694c1.596,2.459 2.394,5.37 2.394,8.735c0,3.364 -0.808,6.265 -2.426,8.702c-1.617,2.437 -3.914,4.303 -6.891,5.597l10.159,14.558l-11.259,-0Zm-0.194,-28.857c0,-2.545 -0.819,-4.497 -2.458,-5.856c-1.639,-1.359 -4.033,-2.038 -7.182,-2.038l-8.541,0l0,15.787l8.541,0c3.149,0 5.543,-0.69 7.182,-2.07c1.639,-1.38 2.458,-3.322 2.458,-5.823Z" style="fill:#fff;fill-rule:nonzero;"/><path d="M1498.18,2393.93l-21.028,0l-4.012,9.706l-10.74,-0l20.187,-45.292l10.352,0l20.252,45.292l-11,-0l-4.011,-9.706Zm-3.3,-7.958l-7.182,-17.34l-7.182,17.34l14.364,0Z" style="fill:#fff;fill-rule:nonzero;"/><path d="M1525.03,2366.89l-14.493,0l-0,-8.541l39.468,0l-0,8.541l-14.493,0l-0,36.751l-10.482,-0l-0,-36.751Z" style="fill:#fff;fill-rule:nonzero;"/><path d="M1590.7,2395.22l0,8.412l-35.068,-0l-0,-45.292l34.227,0l0,8.412l-23.81,-0l-0,9.834l21.028,0l-0,8.153l-21.028,-0l-0,10.481l24.651,0Z" style="fill:#fff;fill-rule:nonzero;"/><path d="M1629.52,2380.28l9.576,0l0,18.376c-2.459,1.854 -5.305,3.278 -8.541,4.27c-3.235,0.992 -6.491,1.488 -9.77,1.488c-4.701,0 -8.928,-1.003 -12.681,-3.009c-3.753,-2.005 -6.697,-4.788 -8.832,-8.346c-2.135,-3.559 -3.203,-7.581 -3.203,-12.067c0,-4.486 1.068,-8.508 3.203,-12.067c2.135,-3.558 5.101,-6.341 8.897,-8.346c3.795,-2.006 8.066,-3.009 12.811,-3.009c3.968,0 7.57,0.669 10.805,2.006c3.235,1.337 5.952,3.278 8.152,5.823l-6.729,6.211c-3.235,-3.407 -7.139,-5.111 -11.711,-5.111c-2.89,-0 -5.456,0.604 -7.699,1.811c-2.243,1.208 -3.99,2.912 -5.241,5.112c-1.251,2.2 -1.877,4.723 -1.877,7.57c0,2.804 0.626,5.306 1.877,7.505c1.251,2.2 2.987,3.915 5.208,5.144c2.222,1.23 4.756,1.844 7.603,1.844c3.019,0 5.737,-0.647 8.152,-1.941l0,-13.264Z" style="fill:#fff;fill-rule:nonzero;"/><rect x="1648.8" y="2358.35" width="10.482" height="45.291" style="fill:#fff;fill-rule:nonzero;"/><path d="M1691.96,2404.41c-4.701,0 -8.939,-1.014 -12.714,-3.041c-3.774,-2.027 -6.729,-4.82 -8.864,-8.379c-2.135,-3.558 -3.202,-7.559 -3.202,-12.002c-0,-4.443 1.067,-8.444 3.202,-12.002c2.135,-3.559 5.09,-6.352 8.864,-8.379c3.775,-2.027 8.013,-3.041 12.714,-3.041c4.702,0 8.929,1.014 12.682,3.041c3.753,2.027 6.707,4.82 8.864,8.379c2.157,3.558 3.235,7.559 3.235,12.002c0,4.443 -1.078,8.444 -3.235,12.002c-2.157,3.559 -5.111,6.352 -8.864,8.379c-3.753,2.027 -7.98,3.041 -12.682,3.041Zm0,-8.929c2.675,0 5.09,-0.614 7.247,-1.844c2.157,-1.229 3.85,-2.944 5.079,-5.144c1.229,-2.199 1.844,-4.701 1.844,-7.505c0,-2.804 -0.615,-5.306 -1.844,-7.505c-1.229,-2.2 -2.922,-3.915 -5.079,-5.144c-2.157,-1.229 -4.572,-1.844 -7.247,-1.844c-2.674,-0 -5.09,0.615 -7.246,1.844c-2.157,1.229 -3.85,2.944 -5.079,5.144c-1.23,2.199 -1.844,4.701 -1.844,7.505c-0,2.804 0.614,5.306 1.844,7.505c1.229,2.2 2.922,3.915 5.079,5.144c2.156,1.23 4.572,1.844 7.246,1.844Z" style="fill:#fff;fill-rule:nonzero;"/></g></svg>