<?xml version="1.0" encoding="UTF-8" standalone="no"?><!DOCTYPE svg PUBLIC "-//W3C//DTD SVG 1.1//EN" "http://www.w3.org/Graphics/SVG/1.1/DTD/svg11.dtd"><svg width="100%" height="100%" viewBox="0 0 1186 508" version="1.1" xmlns="http://www.w3.org/2000/svg" xmlns:xlink="http://www.w3.org/1999/xlink" xml:space="preserve" xmlns:serif="http://www.serif.com/" style="fill-rule:evenodd;clip-rule:evenodd;stroke-linejoin:round;stroke-miterlimit:2;"><g id="logo"><path d="M644.625,494.674c-1.779,-0 -3.275,-0.608 -4.49,-1.822c-1.214,-1.215 -1.822,-2.733 -1.822,-4.555c0,-1.865 0.608,-3.372 1.822,-4.521c1.215,-1.15 2.711,-1.725 4.49,-1.725c1.778,0 3.275,0.575 4.489,1.725c1.215,1.149 1.822,2.656 1.822,4.521c-0,1.822 -0.607,3.34 -1.822,4.555c-1.214,1.214 -2.711,1.822 -4.489,1.822Z" style="fill:#f59a00;fill-rule:nonzero;"/><path d="M693.032,445.876l0,48.277l-9.694,0l-0,-4.034c-2.516,3.037 -6.16,4.555 -10.931,4.555c-3.297,-0 -6.279,-0.738 -8.946,-2.212c-2.668,-1.475 -4.761,-3.579 -6.279,-6.312c-1.518,-2.732 -2.277,-5.899 -2.277,-9.499c-0,-3.6 0.759,-6.767 2.277,-9.499c1.518,-2.733 3.611,-4.837 6.279,-6.311c2.667,-1.475 5.649,-2.213 8.946,-2.213c4.468,0 7.959,1.41 10.475,4.229l0,-16.981l10.15,-0Zm-18.868,40.47c2.559,-0 4.684,-0.879 6.376,-2.636c1.692,-1.756 2.537,-4.109 2.537,-7.059c0,-2.95 -0.845,-5.303 -2.537,-7.059c-1.692,-1.757 -3.817,-2.635 -6.376,-2.635c-2.603,-0 -4.75,0.878 -6.442,2.635c-1.691,1.756 -2.537,4.109 -2.537,7.059c-0,2.95 0.846,5.303 2.537,7.059c1.692,1.757 3.839,2.636 6.442,2.636Z" style="fill:#f59a00;fill-rule:nonzero;"/><path d="M702.401,459.149l10.15,-0l0,35.004l-10.15,0l0,-35.004Zm5.075,-4.88c-1.865,0 -3.383,-0.542 -4.554,-1.627c-1.171,-1.084 -1.757,-2.429 -1.757,-4.033c0,-1.605 0.586,-2.95 1.757,-4.034c1.171,-1.085 2.689,-1.627 4.554,-1.627c1.865,-0 3.384,0.52 4.555,1.561c1.171,1.042 1.757,2.343 1.757,3.904c-0,1.692 -0.586,3.091 -1.757,4.197c-1.171,1.106 -2.69,1.659 -4.555,1.659Z" style="fill:#f59a00;fill-rule:nonzero;"/><path d="M758.096,459.149l-0,29.148c-0,6.42 -1.67,11.191 -5.01,14.314c-3.34,3.124 -8.22,4.685 -14.639,4.685c-3.384,0 -6.593,-0.412 -9.63,-1.236c-3.036,-0.824 -5.552,-2.017 -7.547,-3.579l4.034,-7.287c1.475,1.215 3.34,2.18 5.595,2.896c2.256,0.715 4.511,1.073 6.767,1.073c3.513,0 6.105,-0.792 7.775,-2.375c1.67,-1.583 2.505,-3.979 2.505,-7.189l0,-1.497c-2.646,2.906 -6.333,4.36 -11.061,4.36c-3.21,-0 -6.148,-0.705 -8.816,-2.115c-2.668,-1.41 -4.782,-3.394 -6.344,-5.953c-1.561,-2.56 -2.342,-5.509 -2.342,-8.849c0,-3.34 0.781,-6.29 2.342,-8.849c1.562,-2.559 3.676,-4.543 6.344,-5.953c2.668,-1.41 5.606,-2.115 8.816,-2.115c5.075,0 8.936,1.67 11.582,5.01l-0,-4.489l9.629,-0Zm-19.194,24.984c2.689,0 4.891,-0.791 6.604,-2.374c1.713,-1.584 2.57,-3.655 2.57,-6.214c0,-2.559 -0.857,-4.63 -2.57,-6.214c-1.713,-1.583 -3.915,-2.374 -6.604,-2.374c-2.689,-0 -4.901,0.791 -6.636,2.374c-1.735,1.584 -2.603,3.655 -2.603,6.214c0,2.559 0.868,4.63 2.603,6.214c1.735,1.583 3.947,2.374 6.636,2.374Z" style="fill:#f59a00;fill-rule:nonzero;"/><path d="M767.53,459.149l10.15,-0l0,35.004l-10.15,0l0,-35.004Zm5.075,-4.88c-1.865,0 -3.383,-0.542 -4.554,-1.627c-1.171,-1.084 -1.757,-2.429 -1.757,-4.033c0,-1.605 0.586,-2.95 1.757,-4.034c1.171,-1.085 2.689,-1.627 4.554,-1.627c1.865,-0 3.384,0.52 4.555,1.561c1.171,1.042 1.756,2.343 1.756,3.904c0,1.692 -0.585,3.091 -1.756,4.197c-1.171,1.106 -2.69,1.659 -4.555,1.659Z" style="fill:#f59a00;fill-rule:nonzero;"/><path d="M809.692,492.462c-0.998,0.737 -2.223,1.29 -3.677,1.659c-1.453,0.368 -2.982,0.553 -4.587,0.553c-4.164,-0 -7.384,-1.063 -9.661,-3.188c-2.278,-2.126 -3.416,-5.249 -3.416,-9.37l-0,-14.379l-5.401,0l0,-7.807l5.401,-0l-0,-8.524l10.15,0l-0,8.524l8.718,-0l0,7.807l-8.718,0l-0,14.249c-0,1.475 0.379,2.614 1.138,3.416c0.759,0.803 1.833,1.204 3.221,1.204c1.605,-0 2.971,-0.434 4.099,-1.301l2.733,7.157Z" style="fill:#f59a00;fill-rule:nonzero;"/><path d="M829.536,458.628c5.422,0 9.586,1.291 12.492,3.872c2.907,2.581 4.36,6.473 4.36,11.679l-0,19.974l-9.5,0l0,-4.359c-1.908,3.253 -5.465,4.88 -10.67,4.88c-2.689,-0 -5.021,-0.456 -6.995,-1.367c-1.973,-0.911 -3.48,-2.168 -4.521,-3.773c-1.042,-1.605 -1.562,-3.427 -1.562,-5.466c-0,-3.253 1.225,-5.812 3.676,-7.677c2.451,-1.865 6.235,-2.798 11.354,-2.798l8.068,0c-0,-2.212 -0.673,-3.915 -2.017,-5.107c-1.345,-1.193 -3.362,-1.79 -6.051,-1.79c-1.865,0 -3.698,0.293 -5.498,0.879c-1.8,0.585 -3.329,1.377 -4.587,2.374l-3.644,-7.092c1.909,-1.344 4.197,-2.385 6.864,-3.123c2.668,-0.737 5.412,-1.106 8.231,-1.106Zm-0.781,29.214c1.735,-0 3.275,-0.401 4.62,-1.204c1.344,-0.802 2.299,-1.984 2.863,-3.546l-0,-3.578l-6.962,-0c-4.164,-0 -6.246,1.366 -6.246,4.099c-0,1.301 0.509,2.331 1.529,3.09c1.019,0.759 2.418,1.139 4.196,1.139Z" style="fill:#f59a00;fill-rule:nonzero;"/><rect x="855.562" y="445.876" width="10.15" height="48.277" style="fill:#f59a00;fill-rule:nonzero;"/><path d="M41.996,431.942c-8.153,0 -16.037,-1.105 -23.65,-3.315c-7.614,-2.211 -13.729,-5.084 -18.346,-8.621l8.105,-17.977c4.42,3.242 9.676,5.845 15.767,7.81c6.09,1.965 12.181,2.947 18.272,2.947c6.778,-0 11.788,-1.007 15.03,-3.021c3.242,-2.014 4.863,-4.691 4.863,-8.031c-0,-2.456 -0.958,-4.494 -2.874,-6.115c-1.916,-1.621 -4.371,-2.923 -7.368,-3.905c-2.996,-0.982 -7.048,-2.063 -12.156,-3.242c-7.859,-1.866 -14.294,-3.733 -19.304,-5.599c-5.01,-1.867 -9.308,-4.863 -12.894,-8.989c-3.585,-4.126 -5.378,-9.627 -5.378,-16.504c-0,-5.992 1.621,-11.42 4.863,-16.282c3.242,-4.863 8.129,-8.719 14.662,-11.568c6.532,-2.849 14.514,-4.273 23.945,-4.273c6.582,-0 13.016,0.786 19.303,2.358c6.287,1.571 11.789,3.831 16.504,6.778l-7.368,18.125c-9.529,-5.403 -19.058,-8.105 -28.587,-8.105c-6.68,0 -11.616,1.081 -14.809,3.242c-3.192,2.161 -4.789,5.01 -4.789,8.546c0,3.537 1.842,6.165 5.526,7.884c3.684,1.719 9.308,3.414 16.872,5.084c7.859,1.866 14.294,3.733 19.304,5.599c5.01,1.867 9.308,4.814 12.893,8.842c3.586,4.027 5.379,9.479 5.379,16.356c-0,5.894 -1.646,11.273 -4.937,16.135c-3.291,4.863 -8.227,8.719 -14.809,11.568c-6.582,2.849 -14.588,4.273 -24.019,4.273Z" style="fill:#fff;fill-rule:nonzero;"/><path d="M122.01,346.476l-33.007,0l-0,-19.451l89.886,0l0,19.451l-33.007,0l-0,83.698l-23.872,-0l0,-83.698Z" style="fill:#fff;fill-rule:nonzero;"/><path d="M257.429,430.174l-19.892,-28.734l-21.956,-0l-0,28.734l-23.872,-0l0,-103.149l44.649,0c9.136,0 17.068,1.523 23.798,4.568c6.729,3.046 11.911,7.368 15.546,12.967c3.634,5.6 5.452,12.231 5.452,19.893c-0,7.663 -1.842,14.269 -5.526,19.82c-3.684,5.55 -8.915,9.799 -15.694,12.746l23.135,33.155l-25.64,-0Zm-0.442,-65.721c0,-5.796 -1.866,-10.241 -5.599,-13.335c-3.733,-3.095 -9.185,-4.642 -16.357,-4.642l-19.45,0l-0,35.955l19.45,-0c7.172,-0 12.624,-1.572 16.357,-4.716c3.733,-3.143 5.599,-7.564 5.599,-13.262Z" style="fill:#fff;fill-rule:nonzero;"/><path d="M367.946,408.071l-47.891,-0l-9.136,22.103l-24.461,-0l45.975,-103.149l23.577,0l46.122,103.149l-25.05,-0l-9.136,-22.103Zm-7.515,-18.125l-16.357,-39.491l-16.356,39.491l32.713,-0Z" style="fill:#fff;fill-rule:nonzero;"/><path d="M429.098,346.476l-33.007,0l-0,-19.451l89.886,0l0,19.451l-33.007,0l-0,83.698l-23.872,-0l0,-83.698Z" style="fill:#fff;fill-rule:nonzero;"/><path d="M578.664,411.018l-0,19.156l-79.867,-0l0,-103.149l77.951,0l0,19.156l-54.227,0l0,22.398l47.891,0l-0,18.567l-47.891,0l0,23.872l56.143,-0Z" style="fill:#fff;fill-rule:nonzero;"/><path d="M667.077,376.979l21.808,-0l0,41.848c-5.599,4.225 -12.083,7.466 -19.451,9.726c-7.367,2.259 -14.784,3.389 -22.25,3.389c-10.708,0 -20.335,-2.284 -28.882,-6.852c-8.546,-4.568 -15.251,-10.904 -20.114,-19.009c-4.862,-8.104 -7.294,-17.265 -7.294,-27.482c0,-10.216 2.432,-19.377 7.294,-27.481c4.863,-8.105 11.617,-14.441 20.262,-19.009c8.644,-4.568 18.37,-6.852 29.176,-6.852c9.038,-0 17.24,1.523 24.608,4.568c7.368,3.045 13.557,7.466 18.567,13.262l-15.325,14.146c-7.368,-7.761 -16.258,-11.641 -26.671,-11.641c-6.582,-0 -12.427,1.375 -17.536,4.126c-5.108,2.75 -9.086,6.631 -11.935,11.641c-2.849,5.01 -4.274,10.757 -4.274,17.24c0,6.386 1.425,12.084 4.274,17.094c2.849,5.01 6.803,8.915 11.862,11.714c5.059,2.8 10.83,4.2 17.314,4.2c6.877,0 13.066,-1.474 18.567,-4.421l-0,-30.207Z" style="fill:#fff;fill-rule:nonzero;"/><rect x="710.989" y="327.025" width="23.872" height="103.149" style="fill:#fff;fill-rule:nonzero;"/><path d="M809.275,431.942c-10.708,0 -20.36,-2.309 -28.956,-6.926c-8.595,-4.617 -15.325,-10.978 -20.187,-19.082c-4.863,-8.105 -7.294,-17.216 -7.294,-27.335c-0,-10.118 2.431,-19.229 7.294,-27.334c4.862,-8.104 11.592,-14.465 20.187,-19.082c8.596,-4.618 18.248,-6.926 28.956,-6.926c10.707,-0 20.335,2.308 28.881,6.926c8.547,4.617 15.276,10.978 20.188,19.082c4.912,8.105 7.368,17.216 7.368,27.334c-0,10.119 -2.456,19.23 -7.368,27.335c-4.912,8.104 -11.641,14.465 -20.188,19.082c-8.546,4.617 -18.174,6.926 -28.881,6.926Zm-0,-20.335c6.09,0 11.591,-1.4 16.503,-4.2c4.912,-2.799 8.768,-6.704 11.568,-11.714c2.799,-5.01 4.199,-10.708 4.199,-17.094c0,-6.385 -1.4,-12.083 -4.199,-17.093c-2.8,-5.01 -6.656,-8.915 -11.568,-11.714c-4.912,-2.8 -10.413,-4.2 -16.503,-4.2c-6.091,-0 -11.592,1.4 -16.504,4.2c-4.912,2.799 -8.768,6.704 -11.568,11.714c-2.799,5.01 -4.199,10.708 -4.199,17.093c-0,6.386 1.4,12.084 4.199,17.094c2.8,5.01 6.656,8.915 11.568,11.714c4.912,2.8 10.413,4.2 16.504,4.2Z" style="fill:#fff;fill-rule:nonzero;"/><path d="M991.938,0c106.914,0 193.715,86.801 193.715,193.715c0,106.915 -86.801,193.716 -193.715,193.716c-50.194,-0 -57.553,-71.739 -91.979,-103.102c-38.903,-35.441 -101.737,-33.893 -101.737,-90.614c0,-106.914 86.801,-193.715 193.716,-193.715Z" style="fill:#fff;"/><g><path d="M958.107,214.256c38.854,-19.389 58.245,-44.134 59.765,-73.798l-82.945,-18.293c28.324,23.456 44.782,51.084 23.18,92.091Z" style="fill:#0f2a63;"/><path d="M1006.56,79.73c70.37,-4.158 22.133,73.16 4.852,70.57c-37.002,-5.545 -87.855,-13.231 -91.574,28.411c-5.131,57.443 72.263,91.636 65.761,101.618c-2.756,4.233 -91.243,-36.267 -98.665,-83.778c-8.489,-54.346 24.712,-111.213 119.626,-116.821Z" style="fill:#3172e4;"/><path d="M1009.26,96.046c65.401,-13.452 7.798,66.918 -17.644,64.186c-30.374,-3.261 -61.734,-2.653 -64.607,26.757c-5.155,52.752 68.538,84.193 62.371,93.365c-2.614,3.889 -88.219,-33.098 -93.578,-76.975c-5.7,-46.661 30.401,-90.25 113.458,-107.333Z" style="fill:#181ead;"/><path d="M1079.94,140.011c27.086,10.158 47.29,16.174 51.332,38.104c1.338,7.259 -6.469,8.322 -20.176,6.878c-13.692,-1.443 -31.601,-7.322 -45.542,-12.747c-1.644,-0.64 -10.031,-1.116 -11.587,-0.716c-28.538,7.319 -32.778,-17.028 -25.486,-38.932c4.964,-14.911 24.373,-2.746 51.459,7.413Z" style="fill:#dcdcdc;"/><path d="M1047.41,146.299c8.347,5.597 8.063,18.166 7.288,25.947l-22.208,-0c6.092,-4.47 13.95,-16.679 14.92,-25.947Z" style="fill:#fff;"/><path d="M1058.7,152.629c8.347,5.597 8.063,18.166 7.288,25.947l-22.208,-0c6.092,-4.469 13.95,-16.679 14.92,-25.947Z" style="fill:#fff;"/><path d="M1069.99,155.592c8.347,5.596 8.062,18.165 7.288,25.946l-22.208,0c6.092,-4.469 13.95,-16.678 14.92,-25.946Z" style="fill:#fff;"/><path d="M1082.23,160.477c4.607,5.056 4.56,12.294 3.237,18.726c-0.621,3.017 -16.513,-1.413 -12.773,-5.076c4.162,-4.077 7.874,-9.031 9.536,-13.65Z" style="fill:#fff;"/><path d="M1091.5,164.008c3.391,3.722 4.261,8.625 3.956,13.519c-0.304,4.874 -15.953,2.849 -11.799,-1.604c3.454,-3.703 6.411,-7.934 7.843,-11.915Z" style="fill:#fff;"/><path d="M1099.06,169.541c3.033,3.328 4.049,7.602 4.011,11.969c-0.009,1.09 -12.871,1.032 -11.905,0c3.476,-3.716 6.454,-7.969 7.894,-11.969Z" style="fill:#fff;"/><path d="M1042.68,155.592c-8.559,-5.266 -8.768,-17.836 -8.298,-25.642l22.191,-0.869c-5.913,4.704 -13.287,17.212 -13.893,26.511Z" style="fill:#fff;"/><path d="M1055.86,150.538c-8.559,-5.266 -8.767,-17.836 -8.298,-25.642l22.191,-0.869c-5.912,4.704 -13.286,17.212 -13.893,26.511Z" style="fill:#fff;"/><path d="M1067.02,155.592c-8.559,-5.266 -8.767,-17.836 -8.298,-25.642l22.191,-0.869c-5.912,4.704 -13.286,17.212 -13.893,26.511Z" style="fill:#fff;"/><path d="M1078.87,158.523c-9.094,-4.276 -10.706,-16.744 -11.112,-24.553l21.954,-3.345c-5.349,5.336 -11.279,18.59 -10.842,27.898Z" style="fill:#fff;"/><path d="M1089.85,164.008c-9.094,-4.275 -10.706,-16.744 -11.112,-24.553l21.955,-3.344c-5.35,5.335 -11.28,18.589 -10.843,27.897Z" style="fill:#fff;"/><path d="M1100.83,168.933c-9.095,-4.276 -10.707,-16.745 -11.113,-24.553l21.955,-3.345c-5.349,5.336 -11.279,18.589 -10.842,27.898Z" style="fill:#fff;"/><path d="M1131.27,178.179c-33.738,-15.531 -78.75,-50.903 -91.861,-42.522c-8.518,5.444 -5.633,17.305 -4.622,22.455c4.418,22.524 30.474,-0.712 88.411,27.386c-73.695,0.646 -89.694,-5.524 -115.721,-17.82c-15.22,-7.19 -34.079,-39.09 -43.913,-57.221c0,0 38.463,-36.426 50.012,-33.895c77.388,16.962 111.727,53.409 117.694,101.617Z" style="fill:#3172e4;"/><path d="M913.549,36.34c52.286,1.875 81.09,7.925 100.026,40.217c-8.288,19.365 -41.136,34.832 -80.497,41.289c16.149,-40.531 27.204,-46.772 -19.529,-81.506Z" style="fill:#3172e4;"/><path d="M961.844,271.807c-1.453,-3.773 2.966,-12.676 6.495,-13.276c48.714,-8.279 97.831,-9.387 147.202,-5.981c-91.97,8.211 -130.387,43.62 -98.462,114.754c-23.267,-31.07 -42.625,-62.753 -55.235,-95.497Z" style="fill:#181ead;"/><path d="M1035.71,112.354l-6.246,-14.421l21.7,11.564l-15.454,2.857Z" style="fill:#fff;"/></g></g></svg>