<svg xmlns="http://www.w3.org/2000/svg" width="106" height="40" viewBox="0 0 106 40"><path fill="#2050E0" d="M6 0h94c3.3 0 6 2.7 6 6v28c0 3.3-2.7 6-6 6H6c-3.3 0-6-2.7-6-6V6c0-3.3 2.7-6 6-6z"/><path fill="none" d="M6 0h94c3.3 0 6 2.7 6 6v28c0 3.3-2.7 6-6 6H6c-3.3 0-6-2.7-6-6V6c0-3.3 2.7-6 6-6z"/><g fill="#F8D12E"><path d="M22 6l.5 1.5h1.4l-1.2.9.5 1.4-1.2-.9-1.2.9.5-1.4-1.2-.9h1.4zM22 30.2l.5 1.4h1.4l-1.2.9.5 1.5-1.2-.9-1.2.9.5-1.5-1.2-.9h1.4zM28 8.2l.5 1.5H30l-1.2.9.4 1.4-1.2-.9-1.1.9.4-1.4-1.2-.9h1.5zM32.9 24l.5 1.5h1.4l-1.1.9.4 1.4-1.2-.9-1.2.9.5-1.4-1.2-.9h1.5zM34.1 18.1l.4 1.4H36l-1.2 1 .5 1.4-1.2-.9-1.2.9.4-1.4-1.1-1h1.4zM9.9 18.1l.5 1.4h1.4l-1.1 1 .4 1.4-1.2-.9-1.2.9.5-1.4-1.2-1h1.5zM10.9 24l.5 1.5h1.4l-1.1.9.4 1.4-1.2-.9-1.2.9.5-1.4-1.2-.9h1.5zM32.9 12l.5 1.5h1.4l-1.1.9.4 1.4-1.2-.9-1.2.9.5-1.4-1.2-.9h1.5zM11.4 12l.5 1.5h1.4l-1.1.9.4 1.4-1.2-.9-1.2.9.5-1.4-1.2-.9H11zM29.1 29.1l.5 1.4h1.5l-1.2.9.4 1.5-1.2-.9-1.2.9.5-1.5-1.2-.9h1.5zM16 8.2l.4 1.5h1.5l-1.2.9.4 1.4-1.1-.9-1.2.9.4-1.4-1.2-.9h1.5zM14.9 29.1l.4 1.4h1.5l-1.2.9.5 1.5-1.2-.9-1.2.9.4-1.5-1.2-.9h1.5z"/></g><path fill="#FFF" d="M45 15.6c0 2.8 2.2 4.6 4.8 4.6 1.7 0 3-.7 3.9-1.7V15h-4.3v1.9h2v.7c-.4.3-1 .5-1.7.5-1.5 0-2.5-1.1-2.5-2.6s1-2.6 2.5-2.6c.8 0 1.5.5 1.9 1.1l1.9-1c-.5-1-1.7-2-3.7-2-2.6 0-4.8 1.8-4.8 4.6zM55.1 20v-8.9h3.7c2.8 0 4.8 1.7 4.8 4.4s-2 4.4-4.8 4.4h-3.7zm2.3-2h1.4c1.6 0 2.5-1.1 2.5-2.5s-.8-2.4-2.5-2.4h-1.5V18zm7.4 2v-8.9h4.5c2 0 3.1 1.3 3.1 3 0 1.6-1.1 2.9-3.1 2.9h-2.2v3h-2.3zm5.2-5.9c0-.6-.5-1-1.1-1H67v2h2c.6 0 1-.4 1-1zm8.4 5.9l-1.5-3h-1.2v3h-2.3v-8.9h4.5c2 0 3.1 1.3 3.1 3 0 1.5-.9 2.4-1.8 2.7L81 20h-2.6zm.2-5.9c0-.6-.5-1-1.1-1h-1.8v2h1.8c.6 0 1.1-.4 1.1-1zM25.1 19.1h-.4v-1.3c0-1.5-1.2-2.8-2.7-2.8s-2.7 1.3-2.7 2.8v1.3h-.4c-.5 0-.9.4-.9.9v3.5c0 .5.4.9.9.9h6.3c.5 0 .9-.4.9-.9V20c-.1-.5-.5-.9-1-.9zm-1.8 0h-2.6v-1.3c0-.7.6-1.3 1.3-1.3s1.3.6 1.3 1.3v1.3z"/><g fill="#FFF"><path d="M49.2 27.8c-.1-.4-.2-.6-.5-.7-.1-.1-.3-.1-.5-.1-.3 0-.5.1-.7.4-.2.3-.3.6-.3 1s.1.7.2 1c.2.3.4.5.7.5.3 0 .4-.1.6-.2.1-.1.3-.4.4-.8h1.7c-.1.7-.3 1.3-.8 1.7s-1.1.6-1.9.6c-.8 0-1.5-.2-1.9-.6-.6-.5-.9-1.2-.9-2.2 0-.9.3-1.6.9-2.1.5-.4 1.1-.6 2-.6.7 0 1.3.2 1.8.5.5.4.9.9.9 1.6h-1.7zM57.4 28.3c0 1-.3 1.7-.9 2.2-.5.4-1.1.6-1.9.6-.8 0-1.5-.2-1.9-.6-.6-.5-.9-1.2-.9-2.2 0-.9.3-1.6.9-2.1.5-.4 1.1-.6 2-.6.8 0 1.4.2 1.9.6.5.5.8 1.2.8 2.1zm-2.9 1.6c.3 0 .6-.2.8-.5.2-.3.2-.6.2-1.1 0-.4-.1-.7-.2-1-.2-.3-.4-.4-.8-.4s-.6.1-.8.4c-.2.3-.2.6-.2 1 0 .5.1.8.2 1.1.2.3.5.5.8.5zM60.3 25.8l.8 3.4 1-3.4h2.1V31h-1.8v-1.7l.1-1.6-.8 3.3h-1.1l-.8-3.2.1 1.6V31h-1.7v-5.2h2.1zM65.1 25.8h2.7c.7 0 1.2.2 1.6.6.4.3.5.8.5 1.3s-.2.9-.5 1.3c-.4.4-.9.6-1.6.6h-1V31h-1.7v-5.2zm1.7 1.2v1.1h.7c.2 0 .4-.1.5-.2.1-.1.2-.2.2-.4s-.1-.3-.2-.4-.3-.1-.5-.1h-.7zM70.7 25.8h1.7v4h2.4V31h-4.1v-5.2zM75.6 25.8h1.7V31h-1.7v-5.2zM80 25.8h1.7l2 5.2h-1.8l-.2-.7H80l-.2.7H78l2-5.2zm.8 1.7l-.5 1.8h1l-.5-1.8zM84.5 25.8h1.7l1.7 3-.1-1.1v-1.8h1.7V31h-1.7L86 28l.1 1.1V31h-1.7v-5.2zM90.2 25.8H95V27h-1.6v4h-1.7v-4h-1.6v-1.2z"/></g></svg>