<?xml version="1.0" encoding="UTF-8" standalone="no"?><!DOCTYPE svg PUBLIC "-//W3C//DTD SVG 1.1//EN"
        "http://www.w3.org/Graphics/SVG/1.1/DTD/svg11.dtd">
<svg width="100%" height="100%" viewBox="0 0 4297 5848" version="1.1" xmlns="http://www.w3.org/2000/svg"
     xml:space="preserve"
     style="fill-rule:evenodd;clip-rule:evenodd;stroke-linejoin:round;stroke-miterlimit:2;"><g id="shark" opacity="0.2"><path d="M3029.03,3143.23c-679.664,-342.545 -1018.86,-779.723 -1045.45,-1303.79l1450.91,-323.184c-495.445,414.403 -783.34,902.497 -405.463,1626.97Z" style="fill:#0f2a63;"/><path
        d="M2181.43,766.566c-1230.94,-73.454 -387.171,1292.51 -84.873,1246.76c647.259,-97.962 1536.8,-233.757 1601.86,501.943c89.752,1014.83 -1264.07,1618.91 -1150.34,1795.28c48.223,74.778 1596.07,-640.728 1725.89,-1480.11c148.498,-960.125 -432.264,-1964.79 -2092.55,-2063.87Z"
        style="fill:#3172e4;"/><path
        d="M2134.3,1054.82c-1144.02,-237.651 -136.41,1182.24 308.646,1133.98c531.308,-57.616 1079.87,-46.876 1130.14,472.708c90.167,931.964 -1198.91,1487.44 -1091.03,1649.48c45.737,68.705 1543.17,-584.749 1636.92,-1359.91c99.702,-824.37 -531.788,-1594.45 -1984.67,-1896.26Z"
        style="fill:#0015ca;"/><path
        d="M1466.8,1942.64c-146.002,98.877 -141.031,320.934 -127.48,458.396l388.471,0c-106.562,-78.958 -244.024,-294.659 -260.991,-458.396Z"
        style="fill:#fff;"/><path
        d="M1269.4,2054.48c-146.003,98.876 -141.032,320.933 -127.481,458.396l388.472,-0c-106.563,-78.959 -244.025,-294.66 -260.991,-458.396Z"
        style="fill:#fff;"/><path
        d="M1072,2106.81c-146.002,98.877 -141.031,320.934 -127.48,458.396l388.471,0c-106.563,-78.958 -244.024,-294.659 -260.991,-458.396Z"
        style="fill:#fff;"/><path
        d="M857.816,2193.13c-80.591,89.322 -79.766,217.194 -56.622,330.818c10.858,53.307 288.854,-24.955 223.432,-89.676c-72.805,-72.024 -137.742,-159.552 -166.81,-241.142Z"
        style="fill:#fff;"/><path
        d="M695.629,2255.51c-59.316,65.742 -74.528,152.367 -69.198,238.824c5.309,86.12 279.059,50.346 206.394,-28.325c-60.428,-65.422 -112.139,-140.167 -137.196,-210.499Z"
        style="fill:#fff;"/><path
        d="M563.335,2353.25c-53.055,58.802 -70.825,134.31 -70.172,211.462c0.163,19.253 225.152,18.239 208.258,0c-60.81,-65.651 -112.906,-140.784 -138.086,-211.462Z"
        style="fill:#fff;"/><path
        d="M1549.55,2106.81c149.723,-93.028 153.364,-315.111 145.152,-453.004l-388.174,-15.36c103.421,83.111 232.415,304.082 243.022,468.364Z"
        style="fill:#fff;"/><path
        d="M1319.15,2017.52c149.723,-93.027 153.363,-315.111 145.151,-453.004l-388.174,-15.36c103.421,83.112 232.416,304.082 243.023,468.364Z"
        style="fill:#fff;"/><path
        d="M1123.81,2106.81c149.723,-93.028 153.364,-315.111 145.152,-453.004l-388.174,-15.36c103.421,83.111 232.415,304.082 243.022,468.364Z"
        style="fill:#fff;"/><path
        d="M916.557,2158.6c159.082,-75.539 187.282,-295.819 194.385,-433.775l-384.04,-59.092c93.572,94.267 197.299,328.418 189.655,492.867Z"
        style="fill:#fff;"/><path
        d="M724.537,2255.51c159.082,-75.54 187.282,-295.82 194.385,-433.776l-384.04,-59.092c93.572,94.268 197.299,328.418 189.655,492.868Z"
        style="fill:#fff;"/><path
        d="M532.517,2342.51c159.082,-75.539 187.282,-295.819 194.385,-433.775l-384.04,-59.092c93.572,94.267 197.299,328.418 189.655,492.867Z"
        style="fill:#fff;"/><path
        d="M0,2505.86c590.16,-274.378 1377.53,-899.292 1606.88,-751.233c148.99,96.18 98.525,305.724 80.853,396.717c-77.285,397.928 -533.075,-12.581 -1546.53,483.825c1289.12,11.405 1568.98,-97.602 2024.25,-314.818c266.238,-127.025 596.116,-690.608 768.141,-1010.93c0,0 -672.817,-643.538 -874.838,-598.819c-1353.71,299.656 -1954.38,943.57 -2058.76,1795.25Z"
        style="fill:#3172e4;"/><path
        d="M3808.44,-0c-914.602,33.13 -1418.46,140.018 -1749.69,710.505c144.972,342.122 719.558,615.385 1408.08,729.455c-282.489,-716.064 -475.858,-826.308 341.602,-1439.96Z"
        style="fill:#3172e4;"/><path
        d="M2963.66,4159.98c25.419,-66.661 -51.88,-223.947 -113.616,-234.544c-852.124,-146.27 -1711.31,-165.846 -2574.93,-105.674c1608.79,145.061 2280.79,770.637 1722.34,2027.36c406.994,-548.907 745.616,-1108.66 966.205,-1687.14Z"
        style="fill:#393b94;"/><path d="M1671.49,1342.93l109.262,-254.774l-379.586,204.3l270.324,50.474Z"
                                     style="fill:#fff;"/></g></svg>