<?xml version="1.0" encoding="UTF-8" standalone="no"?>
<!DOCTYPE svg PUBLIC "-//W3C//DTD SVG 1.1//EN" "http://www.w3.org/Graphics/SVG/1.1/DTD/svg11.dtd">
<svg width="100%" height="100%" viewBox="0 0 385 385" version="1.1" xmlns="http://www.w3.org/2000/svg" xmlns:xlink="http://www.w3.org/1999/xlink" xml:space="preserve" xmlns:serif="http://www.serif.com/" style="fill-rule:evenodd;clip-rule:evenodd;stroke-linejoin:round;stroke-miterlimit:2;">
    <g transform="matrix(1,0,0,1,-833.82,-313.925)">
        <g transform="matrix(0.17943,0,0,0.17943,699.505,203.992)">
            <path d="M1821.38,612.676C2413.47,612.676 2894.18,1093.39 2894.18,1685.49C2894.18,2277.58 2413.47,2758.29 1821.38,2758.29C1543.4,2758.29 1502.65,2361 1311.99,2187.31C1096.54,1991.04 748.567,1999.61 748.567,1685.49C748.567,1093.39 1229.28,612.676 1821.38,612.676Z" style="fill:white;"/>
        </g>
        <g transform="matrix(0.201389,0,0,0.201389,640.033,201.739)">
            <g transform="matrix(0.685013,0.151077,0.151077,-0.685013,637.431,1784.07)">
                <path d="M1498.3,578.358C1735.82,770.403 1831.52,969.755 1797.03,1175.82L1199.57,1175.82C1429.65,1057.6 1584.56,892.763 1498.3,578.358Z" style="fill:rgb(15,42,99);"/>
            </g>
            <g transform="matrix(1,0,0,1,852.169,-276.517)">
                <path d="M1138.08,1226.98C1485.3,1206.47 1247.29,1587.97 1162.02,1575.19C979.443,1547.83 728.526,1509.9 710.173,1715.38C684.856,1998.81 1066.74,2167.52 1034.65,2216.78C1021.05,2237.67 584.442,2037.83 547.822,1803.4C505.934,1535.25 669.753,1254.65 1138.08,1226.98Z" style="fill:rgb(49,114,228);"/>
            </g>
            <g transform="matrix(0.948447,0,0,0.918788,924.134,-96.3666)">
                <path d="M1138.08,1226.98C1478.32,1154.74 1178.65,1586.36 1046.29,1571.68C888.269,1554.17 725.123,1557.43 710.173,1715.38C683.356,1998.67 1066.74,2167.52 1034.65,2216.78C1021.05,2237.67 575.704,2039.03 547.822,1803.4C518.17,1552.81 705.98,1318.73 1138.08,1226.98Z" style="fill:rgb(24,30,173);"/>
            </g>
            <g transform="matrix(0.825163,0.309471,-0.267979,0.71453,1271.76,-268.071)">
                <path d="M1752.06,1362.8C1914.03,1362.8 2065.34,1324.88 1972.34,1428.61C1952.23,1451.05 1951.12,1471.57 1963.66,1492.48C1983.29,1525.23 1998.57,1553.26 1959.6,1571.52C1935.74,1582.71 1915.81,1587.95 1892.91,1592.57C1838.2,1603.6 1799.06,1591.46 1740.02,1590.61C1730.15,1590.47 1685.24,1606.64 1677.87,1612.59C1542.66,1721.69 1472.56,1583.92 1467.72,1434.76C1464.43,1333.22 1590.1,1362.8 1752.06,1362.8Z" style="fill:rgb(205,205,205);"/>
            </g>
            <g transform="matrix(1.18626,0,8.23131e-18,1.06025,-602.299,-233.776)">
                <path d="M2355.41,1426.75C2390.13,1452.8 2388.95,1511.29 2385.73,1547.5L2293.35,1547.5C2318.69,1526.7 2351.38,1469.88 2355.41,1426.75Z" style="fill:white;"/>
            </g>
            <g transform="matrix(1.18626,0,8.23131e-18,1.06025,-546.617,-202.541)">
                <path d="M2355.41,1426.75C2390.13,1452.8 2388.95,1511.29 2385.73,1547.5L2293.35,1547.5C2318.69,1526.7 2351.38,1469.88 2355.41,1426.75Z" style="fill:white;"/>
            </g>
            <g transform="matrix(1.18626,0,8.23131e-18,1.06025,-490.935,-187.924)">
                <path d="M2355.41,1426.75C2390.13,1452.8 2388.95,1511.29 2385.73,1547.5L2293.35,1547.5C2318.69,1526.7 2351.38,1469.88 2355.41,1426.75Z" style="fill:white;"/>
            </g>
            <g transform="matrix(1.15194,0.283267,-0.253177,1.02957,11.533,-787.268)">
                <path d="M2355.41,1426.75C2379.05,1444.48 2386.04,1477.24 2387.09,1507.78C2387.58,1522.1 2318.99,1519.75 2330.45,1499.03C2343.22,1475.98 2353.29,1449.47 2355.41,1426.75Z" style="fill:white;"/>
            </g>
            <g transform="matrix(1.15194,0.283267,-0.253177,1.02957,57.282,-769.846)">
                <path d="M2355.41,1426.75C2372.81,1439.8 2381.19,1460.99 2384.82,1483.45C2388.44,1505.81 2323.21,1514.05 2335.57,1489.31C2345.85,1468.74 2353.58,1446.34 2355.41,1426.75Z" style="fill:white;"/>
            </g>
            <g transform="matrix(1.15194,0.283267,-0.253177,1.02957,94.5991,-742.549)">
                <path d="M2355.41,1426.75C2370.97,1438.42 2379.32,1456.61 2383.51,1476.39C2384.55,1481.32 2332.54,1495.36 2335.42,1489.62C2345.77,1468.96 2353.57,1446.43 2355.41,1426.75Z" style="fill:white;"/>
            </g>
            <g transform="matrix(-1.18535,0.0464417,-0.0415084,-1.05943,5019.69,2726.94)">
                <path d="M2355.41,1426.75C2390.13,1452.8 2388.95,1511.29 2385.73,1547.5L2293.35,1547.5C2318.69,1526.7 2351.38,1469.88 2355.41,1426.75Z" style="fill:white;"/>
            </g>
            <g transform="matrix(-1.18535,0.0464417,-0.0415084,-1.05943,5084.68,2702)">
                <path d="M2355.41,1426.75C2390.13,1452.8 2388.95,1511.29 2385.73,1547.5L2293.35,1547.5C2318.69,1526.7 2351.38,1469.88 2355.41,1426.75Z" style="fill:white;"/>
            </g>
            <g transform="matrix(-1.18535,0.0464417,-0.0415084,-1.05943,5139.78,2726.94)">
                <path d="M2355.41,1426.75C2390.13,1452.8 2388.95,1511.29 2385.73,1547.5L2293.35,1547.5C2318.69,1526.7 2351.38,1469.88 2355.41,1426.75Z" style="fill:white;"/>
            </g>
            <g transform="matrix(-1.17272,0.178666,-0.159687,-1.04815,5337.12,2413.87)">
                <path d="M2355.41,1426.75C2390.13,1452.8 2388.95,1511.29 2385.73,1547.5L2293.35,1547.5C2318.69,1526.7 2351.38,1469.88 2355.41,1426.75Z" style="fill:white;"/>
            </g>
            <g transform="matrix(-1.17272,0.178666,-0.159687,-1.04815,5391.29,2440.93)">
                <path d="M2355.41,1426.75C2390.13,1452.8 2388.95,1511.29 2385.73,1547.5L2293.35,1547.5C2318.69,1526.7 2351.38,1469.88 2355.41,1426.75Z" style="fill:white;"/>
            </g>
            <g transform="matrix(-1.17272,0.178666,-0.159687,-1.04815,5445.45,2465.23)">
                <path d="M2355.41,1426.75C2390.13,1452.8 2388.95,1511.29 2385.73,1547.5L2293.35,1547.5C2318.69,1526.7 2351.38,1469.88 2355.41,1426.75Z" style="fill:white;"/>
            </g>
            <g transform="matrix(-0.058084,1.07495,-1.23722,-0.0668522,3931.83,-1048.05)">
                <path d="M2370.81,960.662C2308.08,1098.16 2157.32,1284.75 2198.92,1335.09C2225.94,1367.79 2279.51,1353.77 2302.83,1348.64C2404.83,1326.24 2292.04,1227.61 2406.31,991.19C2427.49,1284.1 2403.21,1349.05 2353.37,1455.19C2324.23,1517.26 2182.89,1599.1 2102.34,1642.1C2102.34,1642.1 1926.11,1496.98 1934.84,1450.51C1993.33,1139.13 2151.65,994.75 2370.81,960.662Z" style="fill:rgb(49,114,228);"/>
            </g>
            <g transform="matrix(0.633784,-0.516338,0.559514,0.686781,258.108,1112.79)">
                <path d="M1498.3,578.358C1735.82,770.403 1847.54,897.866 1813.04,1103.93C1700.43,1158.4 1487.76,1109.63 1278.95,999.034C1509.04,880.82 1584.56,892.763 1498.3,578.358Z" style="fill:rgb(49,114,228);"/>
            </g>
            <g transform="matrix(0.653387,-1.14358,1.21668,0.695158,-1810.67,2650.3)">
                <path d="M1844.36,1952.18C1853.93,1941.15 1891.11,1939.11 1899.62,1948.85C2017.08,2083.32 2111.97,2231.56 2192.65,2388.46C1995.01,2121.61 1808.43,2066.01 1636.38,2287.88C1694.2,2162.47 1761.29,2047.94 1844.36,1952.18Z" style="fill:rgb(24,30,173);"/>
            </g>
            <g transform="matrix(-0.808539,-0.430874,0.403236,-0.756677,3091.91,2576.82)">
                <path d="M1674.83,982.906L1741.04,1039.24L1608.62,1039.24L1674.83,982.906Z" style="fill:white;"/>
            </g>
        </g>
    </g>
</svg>
