<?xml version="1.0" encoding="UTF-8" standalone="no"?>
<!DOCTYPE svg PUBLIC "-//W3C//DTD SVG 1.1//EN" "http://www.w3.org/Graphics/SVG/1.1/DTD/svg11.dtd">
<svg width="200" height="90" viewBox="0 0 200 90" version="1.1" xmlns="http://www.w3.org/2000/svg" xmlns:xlink="http://www.w3.org/1999/xlink" xml:space="preserve" xmlns:serif="http://www.serif.com/" style="fill-rule:evenodd;clip-rule:evenodd;stroke-linejoin:round;stroke-miterlimit:2;">
    <g transform="matrix(1.40171,0,0,1.40171,100,45)">
        <g transform="matrix(1,0,0,1,-58.5,-27.5)">
            <g>
                <g>
                    <clipPath id="_clip1">
                        <path d="M-40,246.734L143.643,166.729L143.643,-80L-40,1.091L-40,246.734Z"/>
                    </clipPath>
                    <g clip-path="url(#_clip1)">
                        <path d="M5.99,37.301L24.068,37.301L5.99,37.301Z" style="fill:rgb(237,28,36);fill-rule:nonzero;"/>
                    </g>
                </g>
                <g>
                    <g>
                        <clipPath id="_clip2">
                            <path d="M-40,246.734L143.643,166.729L143.643,-80L-40,1.091L-40,246.734Z"/>
                        </clipPath>
                        <g clip-path="url(#_clip2)">
                            <g>
                                <clipPath id="_clip3">
                                    <path d="M-40,1.091L143.643,-80L143.643,166.729L-40,246.734L-40,1.091Z"/>
                                </clipPath>
                                <g clip-path="url(#_clip3)">
                                    <path d="M5.99,37.63C5.99,37.63 7.12,37.527 8.815,37.453C9.239,37.433 9.698,37.412 10.183,37.399C10.669,37.383 11.181,37.364 11.71,37.358C12.239,37.35 12.787,37.331 13.344,37.33C13.899,37.327 14.464,37.323 15.029,37.319C15.594,37.322 16.159,37.326 16.715,37.33C17.272,37.33 17.819,37.348 18.348,37.357C19.407,37.378 20.396,37.412 21.244,37.452C22.938,37.526 24.068,37.629 24.068,37.629C24.068,37.629 22.938,37.735 21.244,37.808C20.397,37.849 19.408,37.881 18.348,37.904C17.818,37.911 17.271,37.929 16.715,37.929C16.159,37.933 15.594,37.936 15.029,37.94C14.464,37.936 13.899,37.932 13.344,37.928C12.787,37.928 12.24,37.91 11.71,37.902C11.18,37.894 10.669,37.875 10.183,37.86C9.698,37.846 9.239,37.826 8.815,37.805C7.12,37.735 5.99,37.63 5.99,37.63" style="fill:rgb(190,30,45);fill-rule:nonzero;"/>
                                </g>
                            </g>
                            <g>
                                <clipPath id="_clip4">
                                    <path d="M-40,1.091L143.643,-80L143.643,166.729L-40,246.734L-40,1.091Z"/>
                                </clipPath>
                                <g clip-path="url(#_clip4)">
                                    <path d="M5.99,37.63L33.374,3.192" style="fill:none;fill-rule:nonzero;"/>
                                </g>
                            </g>
                            <g>
                                <clipPath id="_clip5">
                                    <path d="M-40,1.091L143.643,-80L143.643,166.729L-40,246.734L-40,1.091Z"/>
                                </clipPath>
                                <g clip-path="url(#_clip5)">
                                    <path d="M5.99,37.63C5.99,37.63 6.093,37.493 6.284,37.233C6.478,36.975 6.76,36.596 7.119,36.114C7.847,35.156 8.873,33.775 10.129,32.139C10.757,31.322 11.439,30.436 12.159,29.5C12.885,28.565 13.649,27.581 14.439,26.563C15.235,25.55 16.057,24.501 16.892,23.436C17.732,22.374 18.584,21.295 19.438,20.217C20.295,19.144 21.153,18.069 21.999,17.012C22.842,15.953 23.685,14.922 24.494,13.917C26.115,11.913 27.639,10.05 28.955,8.46C30.265,6.867 31.378,5.558 32.148,4.632C32.538,4.173 32.843,3.812 33.052,3.566C33.261,3.32 33.373,3.19 33.373,3.19C33.373,3.19 33.27,3.329 33.078,3.587C32.885,3.846 32.603,4.225 32.243,4.708C31.514,5.666 30.49,7.047 29.233,8.682C27.982,10.322 26.51,12.225 24.923,14.257C24.127,15.271 23.312,16.325 22.47,17.384C21.63,18.446 20.778,19.525 19.925,20.603C19.066,21.677 18.208,22.751 17.362,23.809C16.513,24.863 15.677,25.9 14.868,26.902C14.055,27.902 13.267,28.87 12.522,29.785C11.772,30.699 11.062,31.561 10.408,32.358C9.097,33.951 7.984,35.262 7.214,36.187C6.826,36.646 6.52,37.007 6.311,37.253C6.102,37.5 5.99,37.63 5.99,37.63" style="fill:rgb(190,30,45);fill-rule:nonzero;"/>
                                </g>
                            </g>
                            <g>
                                <clipPath id="_clip6">
                                    <path d="M-40,1.091L143.643,-80L143.643,166.729L-40,246.734L-40,1.091Z"/>
                                </clipPath>
                                <g clip-path="url(#_clip6)">
                                    <path d="M33.374,3.192L60.845,37.743" style="fill:none;fill-rule:nonzero;"/>
                                </g>
                            </g>
                            <g>
                                <clipPath id="_clip7">
                                    <path d="M-40,1.091L143.643,-80L143.643,166.729L-40,246.734L-40,1.091Z"/>
                                </clipPath>
                                <g clip-path="url(#_clip7)">
                                    <path d="M33.374,3.192C33.374,3.192 33.484,3.323 33.694,3.57C33.903,3.817 34.211,4.178 34.601,4.639C35.372,5.567 36.49,6.881 37.805,8.479C38.461,9.278 39.173,10.146 39.926,11.061C40.674,11.98 41.463,12.951 42.279,13.955C43.091,14.961 43.93,16.002 44.781,17.059C45.629,18.119 46.491,19.196 47.352,20.273C48.208,21.355 49.064,22.437 49.907,23.502C50.752,24.565 51.57,25.622 52.367,26.639C53.96,28.677 55.436,30.587 56.692,32.232C57.954,33.873 58.983,35.258 59.713,36.219C60.073,36.704 60.357,37.084 60.55,37.344C60.743,37.604 60.845,37.742 60.845,37.742C60.845,37.742 60.733,37.611 60.523,37.365C60.315,37.118 60.007,36.756 59.617,36.295C58.845,35.368 57.728,34.054 56.413,32.456C55.094,30.86 53.565,28.992 51.938,26.981C51.127,25.974 50.281,24.939 49.435,23.877C48.588,22.815 47.726,21.738 46.865,20.662C46.01,19.579 45.154,18.498 44.312,17.432C43.474,16.364 42.649,15.312 41.851,14.294C41.058,13.273 40.291,12.285 39.563,11.349C38.84,10.411 38.157,9.522 37.525,8.701C36.265,7.06 35.236,5.675 34.506,4.714C34.145,4.231 33.86,3.851 33.667,3.591C33.476,3.332 33.374,3.192 33.374,3.192" style="fill:rgb(190,30,45);fill-rule:nonzero;"/>
                                </g>
                            </g>
                            <g>
                                <clipPath id="_clip8">
                                    <path d="M-40,1.091L143.643,-80L143.643,166.729L-40,246.734L-40,1.091Z"/>
                                </clipPath>
                                <g clip-path="url(#_clip8)">
                                    <path d="M24.068,37.63L42.413,14.56" style="fill:none;fill-rule:nonzero;"/>
                                </g>
                            </g>
                            <g>
                                <clipPath id="_clip9">
                                    <path d="M-40,1.091L143.643,-80L143.643,166.729L-40,246.734L-40,1.091Z"/>
                                </clipPath>
                                <g clip-path="url(#_clip9)">
                                    <path d="M24.068,37.63C24.068,37.63 25.133,36.124 26.796,33.916C27.212,33.363 27.66,32.765 28.143,32.136C28.623,31.508 29.129,30.843 29.659,30.162C30.19,29.48 30.732,28.772 31.296,28.061C31.857,27.349 32.428,26.626 32.999,25.903C33.575,25.184 34.151,24.465 34.718,23.758C35.282,23.048 35.851,22.361 36.395,21.69C37.486,20.352 38.516,19.111 39.407,18.055C41.185,15.938 42.414,14.56 42.414,14.56C42.414,14.56 41.349,16.069 39.687,18.277C38.858,19.383 37.882,20.666 36.823,22.031C36.292,22.712 35.751,23.422 35.187,24.132C34.625,24.844 34.055,25.567 33.484,26.291C32.908,27.01 32.332,27.728 31.765,28.436C31.2,29.144 30.631,29.832 30.087,30.503C29.543,31.174 29.009,31.815 28.504,32.425C28.002,33.037 27.519,33.61 27.074,34.138C25.297,36.254 24.068,37.63 24.068,37.63" style="fill:rgb(190,30,45);fill-rule:nonzero;"/>
                                </g>
                            </g>
                            <g>
                                <clipPath id="_clip10">
                                    <path d="M-40,1.091L143.643,-80L143.643,166.729L-40,246.734L-40,1.091Z"/>
                                </clipPath>
                                <g clip-path="url(#_clip10)">
                                    <path d="M53.08,27.768L62.917,15.396" style="fill:none;fill-rule:nonzero;"/>
                                </g>
                            </g>
                            <g>
                                <clipPath id="_clip11">
                                    <path d="M-40,1.091L143.643,-80L143.643,166.729L-40,246.734L-40,1.091Z"/>
                                </clipPath>
                                <g clip-path="url(#_clip11)">
                                    <path d="M53.08,27.768C53.08,27.768 53.614,26.93 54.478,25.724C54.693,25.422 54.927,25.095 55.181,24.755C55.432,24.413 55.696,24.051 55.977,23.684C56.26,23.315 56.544,22.931 56.846,22.55C57.146,22.167 57.45,21.778 57.754,21.39C58.065,21.006 58.375,20.621 58.681,20.243C58.984,19.862 59.295,19.499 59.59,19.141C60.183,18.43 60.747,17.774 61.239,17.219C62.219,16.106 62.916,15.398 62.916,15.398C62.916,15.398 62.383,16.237 61.519,17.441C61.089,18.046 60.577,18.744 60.018,19.482C59.735,19.85 59.453,20.235 59.15,20.616C58.85,20.998 58.546,21.387 58.241,21.776C57.931,22.16 57.621,22.545 57.316,22.922C57.012,23.302 56.701,23.666 56.407,24.023C56.112,24.381 55.819,24.72 55.542,25.043C55.268,25.367 55.002,25.667 54.756,25.946C53.777,27.059 53.08,27.768 53.08,27.768" style="fill:rgb(190,30,45);fill-rule:nonzero;"/>
                                </g>
                            </g>
                            <g>
                                <clipPath id="_clip12">
                                    <path d="M-40,1.091L143.643,-80L143.643,166.729L-40,246.734L-40,1.091Z"/>
                                </clipPath>
                                <g clip-path="url(#_clip12)">
                                    <path d="M62.917,15.397L80.685,37.743" style="fill:none;fill-rule:nonzero;"/>
                                </g>
                            </g>
                            <g>
                                <clipPath id="_clip13">
                                    <path d="M-40,1.091L143.643,-80L143.643,166.729L-40,246.734L-40,1.091Z"/>
                                </clipPath>
                                <g clip-path="url(#_clip13)">
                                    <path d="M62.917,15.397C62.917,15.397 64.109,16.728 65.832,18.777C66.264,19.289 66.731,19.843 67.22,20.435C67.709,21.025 68.227,21.646 68.753,22.296C69.28,22.946 69.831,23.611 70.378,24.298C70.927,24.983 71.486,25.68 72.044,26.375C72.596,27.076 73.149,27.778 73.693,28.466C74.24,29.154 74.763,29.841 75.277,30.501C76.301,31.824 77.247,33.067 78.048,34.14C79.655,36.281 80.684,37.742 80.684,37.742C80.684,37.742 79.492,36.41 77.768,34.362C76.903,33.34 75.906,32.137 74.848,30.842C74.321,30.193 73.769,29.527 73.223,28.84C72.674,28.154 72.116,27.459 71.558,26.763C71.006,26.061 70.453,25.361 69.909,24.672C69.364,23.984 68.839,23.297 68.325,22.637C67.81,21.977 67.323,21.333 66.857,20.722C66.39,20.114 65.956,19.534 65.555,18.998C63.946,16.858 62.917,15.397 62.917,15.397" style="fill:rgb(190,30,45);fill-rule:nonzero;"/>
                                </g>
                            </g>
                            <g>
                                <clipPath id="_clip14">
                                    <path d="M-40,1.091L143.643,-80L143.643,166.729L-40,246.734L-40,1.091Z"/>
                                </clipPath>
                                <g clip-path="url(#_clip14)">
                                    <path d="M60.806,37.708L70.732,25.224" style="fill:none;fill-rule:nonzero;"/>
                                </g>
                            </g>
                            <g>
                                <clipPath id="_clip15">
                                    <path d="M-40,1.091L143.643,-80L143.643,166.729L-40,246.734L-40,1.091Z"/>
                                </clipPath>
                                <g clip-path="url(#_clip15)">
                                    <path d="M60.806,37.708C60.806,37.708 61.345,36.863 62.218,35.646C62.435,35.342 62.671,35.011 62.927,34.669C63.181,34.323 63.447,33.959 63.732,33.588C64.017,33.217 64.304,32.828 64.607,32.443C64.91,32.057 65.218,31.664 65.524,31.272C65.837,30.884 66.149,30.497 66.459,30.114C66.763,29.729 67.078,29.363 67.376,29.003C67.975,28.285 68.543,27.623 69.04,27.063C70.028,25.938 70.731,25.223 70.731,25.223C70.731,25.223 70.192,26.069 69.319,27.285C68.885,27.895 68.369,28.598 67.804,29.343C67.519,29.715 67.234,30.104 66.928,30.488C66.625,30.874 66.318,31.266 66.01,31.659C65.698,32.047 65.385,32.434 65.077,32.816C64.769,33.2 64.456,33.567 64.159,33.927C63.863,34.288 63.566,34.629 63.288,34.955C63.011,35.282 62.743,35.586 62.494,35.867C61.507,36.993 60.806,37.708 60.806,37.708" style="fill:rgb(190,30,45);fill-rule:nonzero;"/>
                                </g>
                            </g>
                            <g>
                                <clipPath id="_clip16">
                                    <path d="M-40,1.091L143.643,-80L143.643,166.729L-40,246.734L-40,1.091Z"/>
                                </clipPath>
                                <g clip-path="url(#_clip16)">
                                    <path d="M80.687,37.757L109.195,37.727" style="fill:none;fill-rule:nonzero;"/>
                                </g>
                            </g>
                            <g>
                                <clipPath id="_clip17">
                                    <path d="M-40,1.091L143.643,-80L143.643,166.729L-40,246.734L-40,1.091Z"/>
                                </clipPath>
                                <g clip-path="url(#_clip17)">
                                    <path d="M80.687,37.757C80.687,37.757 82.468,37.652 85.14,37.575C85.808,37.555 86.533,37.534 87.298,37.519C88.063,37.502 88.87,37.483 89.706,37.475C90.541,37.466 91.404,37.448 92.281,37.445C93.158,37.441 94.05,37.437 94.94,37.432C95.832,37.434 96.722,37.438 97.599,37.44C98.476,37.439 99.339,37.457 100.175,37.463C101.846,37.483 103.404,37.514 104.741,37.553C107.414,37.624 109.196,37.727 109.196,37.727C109.196,37.727 107.414,37.834 104.742,37.91C103.405,37.952 101.846,37.987 100.176,38.01C99.341,38.019 98.477,38.038 97.601,38.039C96.724,38.044 95.833,38.048 94.942,38.052C94.051,38.05 93.16,38.047 92.282,38.045C91.406,38.045 90.542,38.028 89.707,38.021C88.872,38.014 88.064,37.996 87.299,37.981C86.533,37.969 85.809,37.949 85.141,37.93C82.467,37.86 80.687,37.757 80.687,37.757" style="fill:rgb(190,30,45);fill-rule:nonzero;"/>
                                </g>
                            </g>
                        </g>
                    </g>
                </g>
                <g>
                    <g>
                        <clipPath id="_clip18">
                            <path d="M-40,246.734L143.643,166.729L143.643,-80L-40,1.091L-40,246.734Z"/>
                        </clipPath>
                        <g clip-path="url(#_clip18)">
                            <g transform="matrix(1.2927,0,0,1,4.9531,51.8096)">
                                <g transform="matrix(9.1186,0,0,9.1186,0,0)">
                                    <path d="M0.492,-0.175C0.492,-0.214 0.478,-0.245 0.451,-0.268C0.423,-0.291 0.372,-0.313 0.299,-0.334C0.225,-0.354 0.172,-0.377 0.138,-0.401C0.09,-0.436 0.065,-0.481 0.065,-0.537C0.065,-0.591 0.088,-0.636 0.133,-0.67C0.177,-0.704 0.235,-0.721 0.304,-0.721C0.351,-0.721 0.394,-0.712 0.431,-0.693C0.468,-0.675 0.497,-0.65 0.518,-0.617C0.538,-0.585 0.548,-0.548 0.548,-0.508L0.488,-0.508C0.488,-0.557 0.471,-0.596 0.438,-0.625C0.405,-0.655 0.36,-0.669 0.304,-0.669C0.25,-0.669 0.207,-0.657 0.174,-0.633C0.142,-0.609 0.126,-0.577 0.126,-0.538C0.126,-0.502 0.14,-0.472 0.169,-0.45C0.198,-0.427 0.245,-0.407 0.309,-0.389C0.372,-0.372 0.421,-0.354 0.454,-0.335C0.486,-0.316 0.511,-0.294 0.528,-0.268C0.544,-0.242 0.553,-0.211 0.553,-0.176C0.553,-0.12 0.53,-0.075 0.486,-0.041C0.441,-0.007 0.382,0.01 0.309,0.01C0.258,0.01 0.212,0.001 0.171,-0.017C0.129,-0.035 0.097,-0.06 0.075,-0.092C0.054,-0.125 0.043,-0.161 0.043,-0.203L0.103,-0.203C0.103,-0.153 0.122,-0.113 0.159,-0.084C0.197,-0.056 0.246,-0.041 0.309,-0.041C0.364,-0.041 0.408,-0.053 0.442,-0.078C0.475,-0.102 0.492,-0.134 0.492,-0.175Z" style="fill:rgb(190,30,45);fill-rule:nonzero;"/>
                                </g>
                                <g transform="matrix(9.1186,0,0,9.1186,5.40081,0)">
                                    <path d="M0.572,-0.66L0.329,-0.66L0.329,-0L0.269,-0L0.269,-0.66L0.025,-0.66L0.025,-0.711L0.572,-0.711L0.572,-0.66Z" style="fill:rgb(190,30,45);fill-rule:nonzero;"/>
                                </g>
                                <g transform="matrix(9.1186,0,0,9.1186,10.8461,0)">
                                    <path d="M0.355,-0.296L0.149,-0.296L0.149,-0L0.088,-0L0.088,-0.711L0.319,-0.711C0.395,-0.711 0.454,-0.693 0.497,-0.656C0.54,-0.619 0.561,-0.568 0.561,-0.501C0.561,-0.456 0.548,-0.416 0.521,-0.381C0.494,-0.346 0.458,-0.322 0.414,-0.309L0.591,-0.006L0.591,-0L0.527,-0L0.355,-0.296ZM0.149,-0.347L0.333,-0.347C0.383,-0.347 0.424,-0.361 0.455,-0.39C0.485,-0.419 0.5,-0.456 0.5,-0.501C0.5,-0.552 0.485,-0.59 0.453,-0.618C0.421,-0.646 0.376,-0.66 0.318,-0.66L0.149,-0.66L0.149,-0.347ZM0.296,-0.803L0.38,-0.897L0.432,-0.897L0.432,-0.892L0.317,-0.764L0.275,-0.764L0.16,-0.892L0.16,-0.897L0.212,-0.897L0.296,-0.803Z" style="fill:rgb(190,30,45);fill-rule:nonzero;"/>
                                </g>
                                <g transform="matrix(9.1186,0,0,9.1186,16.6343,0)">
                                    <path d="M0.482,-0.341L0.15,-0.341L0.15,-0.051L0.532,-0.051L0.532,-0L0.09,-0L0.09,-0.711L0.53,-0.711L0.53,-0.66L0.15,-0.66L0.15,-0.392L0.482,-0.392L0.482,-0.341Z" style="fill:rgb(190,30,45);fill-rule:nonzero;"/>
                                </g>
                                <g transform="matrix(9.1186,0,0,9.1186,21.8214,0)">
                                    <path d="M0.593,-0.222C0.585,-0.147 0.558,-0.09 0.513,-0.05C0.468,-0.01 0.407,0.01 0.332,0.01C0.279,0.01 0.232,-0.003 0.192,-0.03C0.151,-0.056 0.12,-0.094 0.098,-0.142C0.076,-0.19 0.064,-0.245 0.064,-0.308L0.064,-0.4C0.064,-0.463 0.075,-0.519 0.097,-0.568C0.119,-0.617 0.151,-0.654 0.193,-0.681C0.234,-0.707 0.282,-0.721 0.336,-0.721C0.412,-0.721 0.472,-0.7 0.516,-0.659C0.56,-0.618 0.586,-0.561 0.593,-0.488L0.533,-0.488C0.518,-0.609 0.452,-0.669 0.336,-0.669C0.271,-0.669 0.22,-0.645 0.182,-0.597C0.144,-0.549 0.125,-0.482 0.125,-0.397L0.125,-0.311C0.125,-0.229 0.143,-0.163 0.18,-0.114C0.218,-0.065 0.268,-0.041 0.332,-0.041C0.394,-0.041 0.442,-0.056 0.474,-0.086C0.506,-0.116 0.525,-0.161 0.533,-0.222L0.593,-0.222Z" style="fill:rgb(190,30,45);fill-rule:nonzero;"/>
                                </g>
                                <g transform="matrix(9.1186,0,0,9.1186,27.743,0)">
                                    <g>
                                        <path d="M0.617,-0L0.556,-0L0.556,-0.341L0.15,-0.341L0.15,-0L0.09,-0L0.09,-0.711L0.15,-0.711L0.15,-0.392L0.556,-0.392L0.556,-0.711L0.617,-0.711L0.617,-0Z" style="fill:rgb(190,30,45);fill-rule:nonzero;"/>
                                    </g>
                                </g>
                                <g transform="matrix(1,0,0,1,34.076,0)">
                                    <g transform="matrix(9.1186,0,0,9.1186,0,0)">
                                        <path d="M0.298,-0.323L0.516,-0.711L0.585,-0.711L0.328,-0.268L0.328,-0L0.268,-0L0.268,-0.268L0.012,-0.711L0.083,-0.711L0.298,-0.323Z" style="fill:rgb(190,30,45);fill-rule:nonzero;"/>
                                    </g>
                                    <g transform="matrix(9.1186,0,0,9.1186,7.67601,0)">
                                        <path d="M0.09,-0L0.09,-0.711L0.3,-0.711C0.376,-0.711 0.434,-0.695 0.473,-0.664C0.513,-0.632 0.532,-0.586 0.532,-0.525C0.532,-0.488 0.522,-0.456 0.502,-0.429C0.482,-0.402 0.455,-0.382 0.42,-0.371C0.461,-0.361 0.495,-0.341 0.52,-0.31C0.545,-0.278 0.558,-0.242 0.558,-0.2C0.558,-0.137 0.537,-0.088 0.497,-0.053C0.456,-0.018 0.4,-0 0.328,-0L0.09,-0ZM0.15,-0.342L0.15,-0.051L0.33,-0.051C0.382,-0.051 0.422,-0.064 0.452,-0.09C0.483,-0.116 0.498,-0.153 0.498,-0.199C0.498,-0.243 0.483,-0.278 0.454,-0.303C0.426,-0.329 0.386,-0.342 0.335,-0.342L0.15,-0.342ZM0.15,-0.392L0.314,-0.392C0.364,-0.393 0.403,-0.405 0.43,-0.427C0.458,-0.45 0.472,-0.483 0.472,-0.526C0.472,-0.572 0.457,-0.606 0.429,-0.627C0.4,-0.649 0.357,-0.66 0.3,-0.66L0.15,-0.66L0.15,-0.392Z" style="fill:rgb(190,30,45);fill-rule:nonzero;"/>
                                    </g>
                                    <g transform="matrix(9.1186,0,0,9.1186,13.2638,0)">
                                        <path d="M0.615,-0.317C0.615,-0.251 0.604,-0.194 0.581,-0.145C0.559,-0.095 0.526,-0.057 0.484,-0.03C0.442,-0.004 0.394,0.01 0.339,0.01C0.256,0.01 0.189,-0.02 0.138,-0.079C0.087,-0.139 0.061,-0.219 0.061,-0.32L0.061,-0.393C0.061,-0.458 0.073,-0.515 0.095,-0.565C0.118,-0.615 0.151,-0.654 0.193,-0.68C0.235,-0.707 0.283,-0.721 0.338,-0.721C0.393,-0.721 0.441,-0.708 0.483,-0.681C0.524,-0.655 0.557,-0.618 0.58,-0.569C0.602,-0.521 0.614,-0.465 0.615,-0.402L0.615,-0.317ZM0.555,-0.394C0.555,-0.48 0.536,-0.547 0.497,-0.595C0.458,-0.644 0.405,-0.668 0.338,-0.668C0.272,-0.668 0.219,-0.644 0.18,-0.595C0.141,-0.546 0.121,-0.478 0.121,-0.391L0.121,-0.317C0.121,-0.233 0.141,-0.166 0.18,-0.116C0.219,-0.067 0.272,-0.042 0.339,-0.042C0.407,-0.042 0.46,-0.067 0.498,-0.115C0.536,-0.164 0.555,-0.232 0.555,-0.319L0.555,-0.394Z" style="fill:rgb(190,30,45);fill-rule:nonzero;"/>
                                    </g>
                                    <g transform="matrix(9.1186,0,0,9.1186,19.4349,0)">
                                        <path d="M0.617,-0L0.556,-0L0.556,-0.341L0.15,-0.341L0.15,-0L0.09,-0L0.09,-0.711L0.15,-0.711L0.15,-0.392L0.556,-0.392L0.556,-0.711L0.617,-0.711L0.617,-0Z" style="fill:rgb(190,30,45);fill-rule:nonzero;"/>
                                    </g>
                                    <g transform="matrix(9.1186,0,0,9.1186,25.8865,0)">
                                        <path d="M0.482,-0.341L0.15,-0.341L0.15,-0.051L0.532,-0.051L0.532,-0L0.09,-0L0.09,-0.711L0.53,-0.711L0.53,-0.66L0.15,-0.66L0.15,-0.392L0.482,-0.392L0.482,-0.341Z" style="fill:rgb(190,30,45);fill-rule:nonzero;"/>
                                    </g>
                                    <g transform="matrix(9.1186,0,0,9.1186,31.0736,0)">
                                        <path d="M0.169,-0.711L0.432,-0.083L0.695,-0.711L0.775,-0.711L0.775,-0L0.715,-0L0.715,-0.31L0.72,-0.627L0.455,-0L0.409,-0L0.145,-0.625L0.15,-0.312L0.15,-0L0.09,-0L0.09,-0.711L0.169,-0.711Z" style="fill:rgb(190,30,45);fill-rule:nonzero;"/>
                                    </g>
                                </g>
                                <g transform="matrix(9.1186,0,0,9.1186,73.039,0)">
                                    <g>
                                        <rect x="0.103" y="-0.711" width="0.06" height="0.711" style="fill:rgb(190,30,45);"/>
                                    </g>
                                </g>
                                <g transform="matrix(9.1186,0,0,9.1186,75.53,0)">
                                    <g>
                                        <path d="M0.474,-0.199L0.151,-0.199L0.078,-0L0.015,-0L0.284,-0.711L0.341,-0.711L0.61,-0L0.547,-0L0.474,-0.199ZM0.169,-0.25L0.455,-0.25L0.312,-0.638L0.169,-0.25Z" style="fill:rgb(190,30,45);fill-rule:nonzero;"/>
                                    </g>
                                </g>
                            </g>
                        </g>
                    </g>
                </g>
            </g>
        </g>
    </g>
</svg>
