<?xml version="1.0" encoding="UTF-8" standalone="no"?>
<!DOCTYPE svg PUBLIC "-//W3C//DTD SVG 1.1//EN" "http://www.w3.org/Graphics/SVG/1.1/DTD/svg11.dtd">
<svg width="100%" height="100%" viewBox="0 0 400 570" version="1.1" xmlns="http://www.w3.org/2000/svg" xmlns:xlink="http://www.w3.org/1999/xlink" xml:space="preserve" xmlns:serif="http://www.serif.com/" style="fill-rule:evenodd;clip-rule:evenodd;stroke-linejoin:round;stroke-miterlimit:2;">
    <g transform="matrix(0.176403,0,0,0.176403,-29.1958,-155.55)">
        <path d="M1958.33,3244.22C1928.87,3172.34 1881.85,3106.49 1817.84,3062.49C1832.63,3034.42 1854.41,3010.06 1880.66,2992.25C1921.76,2964.3 1940.33,2996.47 1964,3026.11C1990.25,3059.03 2013.85,3093.97 2034.31,3130.79C2074.72,3203.43 2103.11,3282.74 2117.96,3364.51C2126.34,3410.52 2130.43,3457.29 2129.92,3504.06C2129.17,3576.89 2117.84,3649.02 2105.81,3720.91C2105.81,3720.91 2124.68,3807.62 2114.19,3834.23C2114.19,3834.23 2108.72,3907.16 2059.44,3933.24C2059.44,3933.24 2015.98,3961.42 2011.6,3933.94C2011.6,3933.94 1948.82,3954.05 1953.55,3904.69C1953.55,3904.69 1885.71,3925.96 1898.17,3859.81C1898.17,3859.81 1846.4,3864.55 1873.55,3811.6C1873.55,3811.6 1880.27,3799.54 1881.9,3762.19C1881.9,3762.19 1885.63,3719.36 1932.56,3705.64C1932.56,3705.64 1937.47,3695.12 1969.09,3651.16C1977.72,3638.83 1984.64,3625.29 1989.87,3611.32C2006.23,3567 2006.99,3518.6 2004.47,3471.46C2000.38,3393.9 1987.73,3316.1 1958.33,3244.22Z" style="fill:rgb(253,195,136);fill-rule:nonzero;"/>
    </g>
    <g transform="matrix(0.176403,0,0,0.176403,-29.1958,-155.55)">
        <path d="M984.432,3816.89C984.432,3816.89 1089.83,4304 1140.7,4461L1316.69,4461C1316.69,4461 1293.78,4067.81 1303.41,3933.07C1303.41,3933.07 1358,3939.28 1374,3934.13L1374,3817.6L984.432,3816.89Z" style="fill:rgb(74,67,66);fill-rule:nonzero;"/>
    </g>
    <g transform="matrix(0.176403,0,0,0.176403,-29.1958,-155.55)">
        <path d="M1754.84,3816.89C1754.84,3816.89 1648.72,4304 1597.85,4461L1421.86,4461C1421.86,4461 1445.49,4067.81 1435.87,3933.07C1435.87,3933.07 1383,3939.28 1366,3934.13L1366,3817.6L1754.84,3816.89Z" style="fill:rgb(74,67,66);fill-rule:nonzero;"/>
    </g>
    <g transform="matrix(0.176403,0,0,0.176403,-29.1958,-155.55)">
        <path d="M2073.31,3054.31L1924.63,3234.65L1826.38,3191.53L1754.93,3816.9C1754.93,3816.9 1657.3,3879.97 1382.67,3873.99C1130.63,3875.5 984.661,3816.9 984.661,3816.9L926.689,3191.53L828.43,3234.65L804.84,3206.04L724.26,3108.3L679.749,3054.31L1033.64,2790.02L1043.33,2783L1044.02,2783L1345,2781.63L1345,2781.38L1376.46,2781.5L1408,2781.38L1408,2781.63L1709.04,2783L1709.67,2783L1714.77,2786.62L2073.31,3054.31Z" style="fill:rgb(229,76,76);fill-rule:nonzero;"/>
    </g>
    <g transform="matrix(0.176403,0,0,0.176403,-29.1958,-155.55)">
        <path d="M1711.85,2784.54L1709.67,2783L1711.85,2784.54ZM1709.04,2783L1708.73,2783C1708.86,2782.86 1708.99,2782.71 1709.12,2782.58C1718.94,2771.87 1727.93,2760.46 1736,2748.43L1736,2748.6C1727.91,2760.71 1718.89,2772.21 1709.04,2783Z" style="fill:rgb(174,185,184);fill-rule:nonzero;"/>
    </g>
    <g transform="matrix(0.176403,0,0,0.176403,-29.1958,-155.55)">
        <path d="M1736,2748.6L1736,2748.43C1744.62,2735.58 1752.2,2722.03 1758.61,2707.9C1752.2,2722.08 1744.63,2735.69 1736,2748.6Z" style="fill:rgb(174,185,184);fill-rule:nonzero;"/>
    </g>
    <g transform="matrix(0.176403,0,0,0.176403,-29.1958,-155.55)">
        <path d="M1044.02,2783C1020.72,2757.58 1001.98,2728.07 989.185,2695.85C1001.93,2727.87 1020.59,2757.19 1043.84,2782.58C1043.97,2782.71 1044.1,2782.86 1044.23,2783L1044.02,2783Z" style="fill:rgb(174,185,184);fill-rule:nonzero;"/>
    </g>
    <g transform="matrix(0.176403,0,0,0.176403,-29.1958,-155.55)">
        <path d="M1372.79,2935.9C1309.91,2935.9 1266.09,2895.65 1266.09,2895.65C1172.56,2895.65 1088.65,2854.49 1033.64,2790.04L1043.33,2783L1044.23,2783C1099.24,2842.93 1180.2,2880.89 1269.82,2880.89C1269.82,2880.89 1313.7,2921.18 1376.52,2921.18C1439.4,2921.18 1483.23,2880.89 1483.23,2880.89C1572.91,2880.89 1653.73,2842.93 1708.73,2783L1709.67,2783L1711.85,2784.54L1714.77,2786.63C1659.82,2853.03 1574.65,2895.73 1479.48,2895.73C1479.48,2895.73 1435.61,2935.9 1372.79,2935.9Z" style="fill:rgb(126,63,62);fill-rule:nonzero;"/>
    </g>
    <g transform="matrix(0.176403,0,0,0.176403,-29.1958,-155.55)">
        <path d="M1783,2235.39L1783,2596C1783,2621.81 1779.19,2646.93 1772.33,2670.72C1760.25,2712.58 1738.33,2750.72 1709.12,2782.58C1654.11,2842.75 1573.12,2880.89 1483.23,2880.89C1483.23,2880.89 1439.4,2921.18 1376.52,2921.18C1313.7,2921.18 1269.82,2880.89 1269.82,2880.89C1179.99,2880.89 1098.86,2842.75 1043.84,2782.58C998.014,2732.53 969.999,2667.2 969.999,2596L969.999,2235.39C969.999,2215.18 972.455,2195.17 976.672,2176.16C1005.44,2047.5 1126.36,1950 1269.81,1950L1483.19,1950C1647.92,1950 1783,2078.71 1783,2235.39Z" style="fill:rgb(253,195,136);fill-rule:nonzero;"/>
    </g>
    <g transform="matrix(0.176403,0,0,0.176403,-29.1958,-155.55)">
        <path d="M1550.02,2679.64C1535.36,2719.28 1498.08,2766.74 1405.77,2790.46C1405.77,2790.46 1270.36,2831.69 1206.9,2687.84C1204.3,2682.24 1201.94,2676.33 1199.73,2670.18C1199.73,2670.18 1357.46,2746.56 1557.98,2614.69C1557.98,2614.69 1563.19,2644.01 1550.02,2679.64Z" style="fill:white;fill-rule:nonzero;"/>
    </g>
    <g transform="matrix(0.176403,0,0,0.176403,-29.1958,-155.55)">
        <path d="M1205.23,2675.87C1206.71,2679.66 1208.21,2683.18 1209.76,2686.51C1271.34,2826.12 1399.42,2789.11 1404.82,2787.45C1497.95,2763.51 1534,2715.02 1547,2678.55C1557,2652.51 1556.2,2629.71 1555.4,2620.09C1380.98,2732.57 1237.66,2688.37 1205.23,2675.87ZM1362.56,2798.84C1316.42,2798.84 1245.04,2782.09 1204.03,2689.11C1201.54,2683.76 1199.16,2677.9 1196.77,2671.24L1194.17,2664L1201.1,2667.35C1202.66,2668.1 1359.67,2741.33 1556.25,2612.05L1560.24,2609.43L1561.09,2614.14C1561.31,2615.37 1566,2644.72 1553,2680.73C1539,2718.61 1502.21,2768.93 1406.57,2793.51C1406.12,2793.65 1388.24,2798.84 1362.56,2798.84Z" style="fill:rgb(245,208,184);fill-rule:nonzero;"/>
    </g>
    <g transform="matrix(0.176403,0,0,0.176403,-29.1958,-155.55)">
        <path d="M1550.02,2679.64C1535.36,2719.28 1498.08,2766.74 1405.77,2790.46C1405.77,2790.46 1270.36,2831.69 1206.9,2687.84C1273.19,2724.41 1415.47,2779.51 1550.02,2679.64Z" style="fill:rgb(199,60,42);fill-rule:nonzero;"/>
    </g>
    <g transform="matrix(0.176403,0,0,0.176403,-29.1958,-155.55)">
        <path d="M1795.35,2593.38L1785.05,2604.92C1785.05,2604.92 1781.29,2418.63 1769.16,2371.92C1769.16,2371.92 1741.56,2266.75 1698.79,2246.12C1698.79,2246.12 1736.4,2116.59 1638.12,2073.6C1638.12,2073.6 1518.91,2193.96 1324.16,2193.1C1324.16,2193.1 1188.57,2203.42 1065.72,2119.17C1065.72,2119.17 1036.6,2167.31 1060.26,2230.07C1060.26,2230.07 981.084,2313.46 971.075,2415.76C971.075,2415.76 967.023,2549.61 973.27,2584.03C973.27,2584.03 966.055,2580.78 938.649,2551.28C916.547,2527.48 907.482,2496.81 899.862,2465.98C876.295,2370.63 876.147,2224.84 896.756,2146.96C896.756,2146.96 927.09,2016.29 953.785,2005.97C953.785,2005.97 893.116,1820.28 905.856,1772.71C905.856,1772.71 941.651,1863.27 1061.17,1852.38C1061.17,1852.38 1010.21,1782.46 1021.73,1707.95C1021.73,1707.95 1112.73,1775.01 1209.2,1757.24C1209.2,1757.24 1270.51,1750.66 1310.22,1735.57C1327.05,1729.18 1344.35,1723.97 1362.18,1720.86C1430.07,1709.03 1575.22,1696.07 1645.4,1783.03C1645.4,1783.03 1700.91,1840.63 1710.01,1898.66C1710.01,1898.66 1859.25,2003.11 1866.53,2185.36C1866.53,2185.36 1879.64,2317.63 1862.47,2434.16C1856.48,2474.79 1843.56,2514.23 1824.51,2551.09C1816.67,2566.27 1806.88,2580.47 1795.35,2593.38Z" style="fill:rgb(74,67,66);fill-rule:nonzero;"/>
    </g>
    <g transform="matrix(0.176403,0,0,0.176403,-29.1958,-155.55)">
        <path d="M937.721,1850.08C937.721,1850.08 1057.84,2271.91 1495.87,2120.6C1495.87,2120.6 1063.91,2148.11 937.721,1850.08Z" style="fill:rgb(102,99,98);fill-rule:nonzero;"/>
    </g>
    <g transform="matrix(0.176403,0,0,0.176403,-29.1958,-155.55)">
        <path d="M1056.91,1771.09C1056.91,1771.09 1193.63,2140.35 1574.29,1977.94C1574.29,1977.94 1190.41,2029.41 1056.91,1771.09Z" style="fill:rgb(102,99,98);fill-rule:nonzero;"/>
    </g>
    <g transform="matrix(0.176403,0,0,0.176403,-29.1958,-155.55)">
        <path d="M1179.73,2404.68C1170.62,2414.29 1166.68,2429.04 1171.39,2441.42C1174.78,2450.31 1182.22,2457.33 1190.86,2461.33C1199.5,2465.34 1209.24,2466.53 1218.74,2466.02C1229.84,2465.43 1241.06,2462.45 1249.98,2455.84C1258.91,2449.22 1265.25,2438.62 1265.08,2427.51C1264.91,2416.3 1258.14,2405.82 1248.88,2399.51C1233.28,2388.88 1209.66,2387.37 1192.66,2395.43C1187.84,2397.71 1183.4,2400.8 1179.73,2404.68Z" style="fill:rgb(62,44,56);fill-rule:nonzero;"/>
    </g>
    <g transform="matrix(0.176403,0,0,0.176403,-29.1958,-155.55)">
        <path d="M1224.46,2398.82C1220.33,2398.6 1215.83,2400.18 1213.71,2403.73C1211.42,2407.58 1212.45,2412.54 1214.27,2416.63C1217.45,2423.78 1222.87,2429.93 1229.57,2433.98C1234.2,2436.77 1240.07,2438.56 1244.98,2436.29C1249.27,2434.31 1251.82,2429.5 1251.9,2424.78C1251.98,2420.06 1249.89,2415.51 1246.93,2411.83C1241.52,2405.09 1233.33,2399.28 1224.46,2398.82Z" style="fill:white;fill-rule:nonzero;"/>
    </g>
    <g transform="matrix(0.176403,0,0,0.176403,-29.1958,-155.55)">
        <path d="M1507.05,2404.68C1497.94,2414.29 1494,2429.04 1498.71,2441.42C1502.1,2450.31 1509.54,2457.33 1518.18,2461.33C1526.81,2465.34 1536.56,2466.53 1546.06,2466.02C1557.16,2465.43 1568.38,2462.45 1577.3,2455.84C1586.23,2449.22 1592.57,2438.62 1592.4,2427.51C1592.23,2416.3 1585.46,2405.82 1576.2,2399.51C1560.6,2388.88 1536.97,2387.37 1519.97,2395.43C1515.16,2397.71 1510.72,2400.8 1507.05,2404.68Z" style="fill:rgb(62,44,56);fill-rule:nonzero;"/>
    </g>
    <g transform="matrix(0.176403,0,0,0.176403,-29.1958,-155.55)">
        <path d="M1551.78,2398.82C1547.64,2398.6 1543.15,2400.18 1541.03,2403.73C1538.74,2407.58 1539.77,2412.54 1541.58,2416.63C1544.77,2423.78 1550.18,2429.93 1556.89,2433.98C1561.52,2436.77 1567.39,2438.56 1572.3,2436.29C1576.58,2434.31 1579.14,2429.5 1579.22,2424.78C1579.3,2420.06 1577.21,2415.51 1574.25,2411.83C1568.84,2405.09 1560.65,2399.28 1551.78,2398.82Z" style="fill:white;fill-rule:nonzero;"/>
    </g>
    <g transform="matrix(0.176403,0,0,0.176403,-29.1958,-155.55)">
        <path d="M1694.07,2511.4C1666.38,2542.88 1630.62,2557.23 1591.41,2558.23C1558.87,2557.92 1531.04,2549.74 1506.24,2532.11C1442.92,2487.29 1434.36,2401 1487.74,2346.11C1541.93,2290.4 1635.09,2290.27 1689.42,2345.85C1734.73,2392.12 1736.94,2462.81 1694.07,2511.4ZM1243.89,2532.11C1219.08,2549.74 1191.26,2557.92 1158.72,2558.23C1119.5,2557.23 1083.75,2542.88 1056.05,2511.4C1013.19,2462.81 1015.39,2392.12 1060.71,2345.85C1115.03,2290.27 1208.19,2290.4 1262.39,2346.11C1315.77,2401 1307.21,2487.29 1243.89,2532.11ZM1780.56,2353.91C1778.48,2344.85 1774.01,2339.19 1763.63,2337.86C1748.71,2335.97 1735.24,2329.36 1722.65,2321.18C1692.94,2301.92 1660.9,2288.58 1625.65,2283.54C1593.93,2279.01 1562.83,2282.34 1531.67,2289.14C1498.06,2296.38 1471.37,2314.95 1446.63,2337.3C1441.28,2342.14 1436.12,2347.24 1430.9,2352.21C1421.77,2360.84 1414.84,2361.53 1404.27,2354.67C1394.64,2348.44 1384.88,2345.1 1375.06,2344.28C1365.24,2345.1 1355.48,2348.44 1345.86,2354.67C1335.28,2361.53 1328.36,2360.84 1319.23,2352.21C1314,2347.24 1308.84,2342.14 1303.49,2337.3C1278.76,2314.95 1252.07,2296.38 1218.46,2289.14C1187.3,2282.34 1156.2,2279.01 1124.48,2283.54C1089.23,2288.58 1057.19,2301.92 1027.47,2321.18C1014.89,2329.36 1001.41,2335.97 986.499,2337.86C976.114,2339.19 971.644,2344.85 969.566,2353.91C968.559,2358.57 967.929,2363.29 967.047,2368.01L967.047,2385.89C969.566,2388.78 971.515,2392.62 974.663,2394.51C986.812,2401.88 993.359,2412.45 996.129,2426.18C998.71,2439.02 1001.6,2451.92 1005.51,2464.45C1016.52,2499.95 1035.16,2529.78 1067.45,2550.37C1108.11,2576.3 1151.16,2587.82 1198.88,2575.42C1232.93,2566.61 1263.65,2551.56 1288.13,2525.57C1308.4,2504.1 1321.06,2478.36 1329.93,2450.54C1332.7,2442.04 1334.84,2433.41 1337.61,2424.92C1341.26,2413.71 1348.94,2406.35 1360.71,2404.96C1365.43,2404.46 1370.28,2404.14 1375.06,2404.02C1379.85,2404.14 1384.69,2404.46 1389.41,2404.96C1401.19,2406.35 1408.87,2413.71 1412.52,2424.92C1415.28,2433.41 1417.43,2442.04 1420.19,2450.54C1429.07,2478.36 1441.72,2504.1 1461.99,2525.57C1486.48,2551.56 1517.2,2566.61 1551.25,2575.42C1598.96,2587.82 1642.02,2576.3 1682.68,2550.37C1714.97,2529.78 1733.6,2499.95 1744.62,2464.45C1748.52,2451.92 1751.42,2439.02 1754,2426.18C1756.77,2412.45 1763.31,2401.88 1775.46,2394.51C1778.61,2392.62 1780.56,2388.78 1783.08,2385.89L1783.08,2368.01C1782.2,2363.29 1781.57,2358.57 1780.56,2353.91Z" style="fill:rgb(51,51,51);fill-rule:nonzero;"/>
    </g>
    <g transform="matrix(0.176403,0,0,0.176403,-29.1958,-155.55)">
        <path d="M1158.72,2558.23C1119.5,2557.23 1083.75,2542.88 1056.05,2511.4C1035.46,2488.06 1025.27,2459.61 1025.26,2431.22C1025.26,2400.52 1037.17,2369.89 1060.71,2345.85C1087.82,2318.11 1124.62,2304.25 1161.41,2304.25C1198.33,2304.25 1235.24,2318.2 1262.39,2346.11C1286,2370.39 1297.5,2400.82 1297.49,2431.08C1297.48,2469.23 1279.19,2507.12 1243.89,2532.11C1219.08,2549.74 1191.26,2557.92 1158.72,2558.23ZM1216.81,2390.3C1208.31,2390.3 1199.89,2392 1192.66,2395.43C1187.84,2397.71 1183.4,2400.8 1179.73,2404.68C1170.62,2414.29 1166.68,2429.04 1171.39,2441.42C1174.78,2450.31 1182.22,2457.33 1190.86,2461.33C1198.26,2464.76 1206.48,2466.13 1214.66,2466.13C1216.03,2466.13 1217.39,2466.09 1218.74,2466.02C1229.84,2465.43 1241.06,2462.45 1249.98,2455.84C1258.91,2449.22 1265.25,2438.62 1265.08,2427.51C1264.91,2416.3 1258.14,2405.82 1248.88,2399.51C1239.91,2393.4 1228.3,2390.3 1216.81,2390.3Z" style="fill:rgb(254,225,196);fill-rule:nonzero;"/>
    </g>
    <g transform="matrix(0.176403,0,0,0.176403,-29.1958,-155.55)">
        <path d="M1214.66,2466.13C1206.48,2466.13 1198.26,2464.76 1190.86,2461.33C1182.22,2457.33 1174.78,2450.31 1171.39,2441.42C1166.68,2429.04 1170.62,2414.29 1179.73,2404.68C1183.4,2400.8 1187.84,2397.71 1192.66,2395.43C1199.89,2392 1208.31,2390.3 1216.81,2390.3C1228.3,2390.3 1239.91,2393.4 1248.88,2399.51C1258.14,2405.82 1264.91,2416.3 1265.08,2427.51C1265.25,2438.62 1258.91,2449.22 1249.98,2455.84C1241.06,2462.45 1229.84,2465.43 1218.74,2466.02C1217.39,2466.09 1216.03,2466.13 1214.66,2466.13ZM1223.71,2398.8C1219.79,2398.8 1215.7,2400.39 1213.71,2403.73C1211.42,2407.58 1212.45,2412.54 1214.27,2416.63C1217.45,2423.78 1222.87,2429.93 1229.57,2433.98C1232.73,2435.88 1236.47,2437.32 1240.08,2437.32C1241.77,2437.32 1243.42,2437.01 1244.98,2436.29C1249.27,2434.31 1251.82,2429.5 1251.9,2424.78C1251.98,2420.06 1249.89,2415.51 1246.93,2411.83C1241.52,2405.09 1233.33,2399.28 1224.46,2398.82C1224.21,2398.81 1223.96,2398.8 1223.71,2398.8Z" style="fill:rgb(159,150,156);fill-rule:nonzero;"/>
    </g>
    <g transform="matrix(0.176403,0,0,0.176403,-29.1958,-155.55)">
        <path d="M1240.08,2437.32C1236.47,2437.32 1232.73,2435.88 1229.57,2433.98C1222.87,2429.93 1217.45,2423.78 1214.27,2416.63C1212.45,2412.54 1211.42,2407.58 1213.71,2403.73C1215.7,2400.39 1219.79,2398.8 1223.71,2398.8C1223.96,2398.8 1224.21,2398.81 1224.46,2398.82C1233.33,2399.28 1241.52,2405.09 1246.93,2411.83C1249.89,2415.51 1251.98,2420.06 1251.9,2424.78C1251.82,2429.5 1249.27,2434.31 1244.98,2436.29C1243.42,2437.01 1241.77,2437.32 1240.08,2437.32Z" style="fill:white;fill-rule:nonzero;"/>
    </g>
    <g transform="matrix(0.176403,0,0,0.176403,-29.1958,-155.55)">
        <path d="M1591.41,2558.23C1558.87,2557.92 1531.04,2549.74 1506.24,2532.11C1470.93,2507.12 1452.65,2469.23 1452.64,2431.08C1452.63,2400.82 1464.12,2370.39 1487.74,2346.11C1514.88,2318.21 1551.8,2304.25 1588.72,2304.25C1625.51,2304.25 1662.3,2318.11 1689.42,2345.85C1712.96,2369.89 1724.87,2400.52 1724.86,2431.22C1724.86,2459.61 1714.67,2488.06 1694.07,2511.4C1666.38,2542.88 1630.62,2557.23 1591.41,2558.23ZM1544.13,2390.3C1535.63,2390.3 1527.21,2392 1519.97,2395.43C1515.16,2397.71 1510.72,2400.8 1507.05,2404.68C1497.94,2414.29 1494,2429.04 1498.71,2441.42C1502.1,2450.31 1509.54,2457.33 1518.18,2461.33C1525.58,2464.76 1533.8,2466.13 1541.98,2466.13C1543.34,2466.13 1544.7,2466.09 1546.06,2466.02C1557.16,2465.43 1568.38,2462.45 1577.3,2455.84C1586.23,2449.22 1592.57,2438.62 1592.4,2427.51C1592.23,2416.3 1585.46,2405.82 1576.2,2399.51C1567.23,2393.4 1555.61,2390.3 1544.13,2390.3Z" style="fill:rgb(254,225,196);fill-rule:nonzero;"/>
    </g>
    <g transform="matrix(0.176403,0,0,0.176403,-29.1958,-155.55)">
        <path d="M1541.98,2466.13C1533.8,2466.13 1525.58,2464.76 1518.18,2461.33C1509.54,2457.33 1502.1,2450.31 1498.71,2441.42C1494,2429.04 1497.94,2414.29 1507.05,2404.68C1510.72,2400.8 1515.16,2397.71 1519.97,2395.43C1527.21,2392 1535.63,2390.3 1544.13,2390.3C1555.61,2390.3 1567.23,2393.4 1576.2,2399.51C1585.46,2405.82 1592.23,2416.3 1592.4,2427.51C1592.57,2438.62 1586.23,2449.22 1577.3,2455.84C1568.38,2462.45 1557.16,2465.43 1546.06,2466.02C1544.7,2466.09 1543.34,2466.13 1541.98,2466.13ZM1551.03,2398.8C1547.11,2398.8 1543.02,2400.39 1541.03,2403.73C1538.74,2407.58 1539.77,2412.54 1541.58,2416.63C1544.77,2423.78 1550.18,2429.93 1556.89,2433.98C1560.05,2435.88 1563.79,2437.32 1567.4,2437.32C1569.08,2437.32 1570.74,2437.01 1572.3,2436.29C1576.58,2434.31 1579.14,2429.5 1579.22,2424.78C1579.3,2420.06 1577.21,2415.51 1574.25,2411.83C1568.84,2405.09 1560.65,2399.28 1551.78,2398.82C1551.53,2398.81 1551.28,2398.8 1551.03,2398.8Z" style="fill:rgb(159,150,156);fill-rule:nonzero;"/>
    </g>
    <g transform="matrix(0.176403,0,0,0.176403,-29.1958,-155.55)">
        <path d="M1567.4,2437.32C1563.79,2437.32 1560.05,2435.88 1556.89,2433.98C1550.18,2429.93 1544.77,2423.78 1541.58,2416.63C1539.77,2412.54 1538.74,2407.58 1541.03,2403.73C1543.02,2400.39 1547.11,2398.8 1551.03,2398.8C1551.28,2398.8 1551.53,2398.81 1551.78,2398.82C1560.65,2399.28 1568.84,2405.09 1574.25,2411.83C1577.21,2415.51 1579.3,2420.06 1579.22,2424.78C1579.14,2429.5 1576.58,2434.31 1572.3,2436.29C1570.74,2437.01 1569.08,2437.32 1567.4,2437.32Z" style="fill:white;fill-rule:nonzero;"/>
    </g>
    <g transform="matrix(0.176403,0,0,0.176403,-29.1958,-155.55)">
        <path d="M1070.16,2245.88C1070.16,2245.88 1083.93,2209.3 1149.81,2203.68C1149.81,2203.68 1282.17,2193.83 1305.59,2237.4L1201.86,2228.79C1193.87,2228.13 1185.81,2227.94 1177.78,2228.31C1155.6,2229.31 1110.14,2232.91 1070.16,2245.88Z" style="fill:rgb(61,55,54);fill-rule:nonzero;"/>
    </g>
    <g transform="matrix(0.176403,0,0,0.176403,-29.1958,-155.55)">
        <path d="M1685.37,2245.88C1685.37,2245.88 1671.6,2209.3 1605.72,2203.68C1605.72,2203.68 1473.36,2193.83 1449.94,2237.4L1553.68,2228.79C1561.66,2228.13 1569.72,2227.94 1577.75,2228.31C1599.93,2229.31 1645.4,2232.91 1685.37,2245.88Z" style="fill:rgb(61,55,54);fill-rule:nonzero;"/>
    </g>
    <g transform="matrix(0.176403,0,0,0.176403,-29.1958,-155.55)">
        <path d="M1014.87,1552.5C1014.87,1552.5 1062.87,1508.05 1119.55,1511.92L1119.55,1847.52C1119.55,1847.52 1022.77,1858.47 1022.77,1853.97C1022.77,1849.46 1014.87,1552.5 1014.87,1552.5Z" style="fill:rgb(225,142,37);fill-rule:nonzero;"/>
    </g>
    <g transform="matrix(0.176403,0,0,0.176403,-29.1958,-155.55)">
        <path d="M1232.28,1450.43C1238.07,1450.43 1261.26,1432.25 1327.61,1450.93L1355.96,1823.75C1355.96,1823.75 1234.85,1827.29 1234.85,1823.75C1234.85,1816.66 1232.28,1450.43 1232.28,1450.43Z" style="fill:rgb(225,142,37);fill-rule:nonzero;"/>
    </g>
    <g transform="matrix(0.176403,0,0,0.176403,-29.1958,-155.55)">
        <path d="M1455.16,1431.4C1457.09,1431.4 1493.81,1428.82 1566.6,1477.78L1555,1805.01C1555,1805.01 1438.41,1805.01 1438.41,1799.21C1438.41,1793.41 1455.16,1431.4 1455.16,1431.4Z" style="fill:rgb(225,142,37);fill-rule:nonzero;"/>
    </g>
    <g transform="matrix(0.176403,0,0,0.176403,-29.1958,-155.55)">
        <path d="M1668.37,1501.61C1670.95,1504.19 1701.87,1503.54 1762.42,1597.59L1758.56,1797.92C1758.56,1797.92 1659.36,1829.99 1659.36,1824.91C1659.36,1819.82 1668.37,1501.61 1668.37,1501.61Z" style="fill:rgb(225,142,37);fill-rule:nonzero;"/>
    </g>
    <g transform="matrix(0.176403,0,0,0.176403,-29.1958,-155.55)">
        <path d="M777.309,2156.72C777.309,2156.72 823.183,1683.21 1009.18,1547.13C1015.98,1542.16 1023.75,1539.82 1024.43,1548.2L1044.83,1778.6L1078.32,1778.6L1078.32,1502.9C1078.32,1502.9 1120.56,1448.44 1219.48,1432.43C1232.1,1430.38 1243.66,1439.9 1244.19,1452.68L1257.4,1769.58L1292.18,1768.29L1292.18,1447.51C1292.18,1443.61 1293.43,1439.83 1295.73,1436.7C1300.89,1429.64 1311.99,1418.14 1330.83,1415.29C1330.83,1415.29 1391.15,1402.77 1452.96,1413.04C1463.27,1414.75 1471.31,1422.93 1472.88,1433.27C1473.47,1437.15 1473.84,1441.84 1473.84,1447.5C1473.84,1486.15 1480.28,1760.56 1480.28,1760.56L1511.2,1760.56L1528.4,1465.73C1529.02,1455.08 1535.57,1446.93 1545.66,1443.47C1553.43,1440.81 1567.41,1439.78 1577.87,1441.86C1577.87,1441.86 1659.83,1455.94 1683.73,1490.45C1684.66,1491.78 1685.15,1493.38 1685.21,1495L1695.43,1768.29L1716.04,1768.29L1730.56,1555.99C1730.68,1554.36 1732.15,1553.16 1733.76,1553.4C1746.28,1555.25 1796.02,1569.95 1846.16,1685.84C1846.16,1685.84 1946.65,1839.2 1942.79,2038.89L1950.52,2156.72L777.309,2156.72Z" style="fill:rgb(246,163,27);fill-rule:nonzero;"/>
    </g>
    <g transform="matrix(0.176403,0,0,0.176403,-29.1958,-155.55)">
        <path d="M1614.31,2124.85L1508.03,2153.19L1230.3,2153.19L1124.01,2124.85L779.489,2124.85L779.489,2206.05C779.489,2206.05 918.564,2193.86 964.074,2206.05C1000.41,2215.78 1045.39,2239.85 1071.35,2253.78C1085.43,2261.34 1100.66,2266.54 1116.64,2266.54L1621.68,2266.54C1637.66,2266.54 1653.38,2261.34 1667.47,2253.78C1693.42,2239.85 1738.03,2216.34 1774.37,2206.61C1819.88,2194.42 1959.08,2206.05 1959.08,2206.05L1959.08,2124.85L1614.31,2124.85Z" style="fill:rgb(225,142,37);fill-rule:nonzero;"/>
    </g>
    <g transform="matrix(0.176403,0,0,0.176403,-29.1958,-155.55)">
        <path d="M903.25,4068.71L475.967,3671.37C466.616,3662.67 466.084,3648.04 474.78,3638.69L1002.04,3071.69C1010.74,3062.34 1025.37,3061.81 1034.72,3070.51L1462,3467.84C1471.35,3476.54 1471.88,3491.17 1463.19,3500.52L935.928,4067.52C927.231,4076.87 912.601,4077.4 903.25,4068.71Z" style="fill:rgb(45,41,41);fill-rule:nonzero;"/>
    </g>
    <g transform="matrix(0.176403,0,0,0.176403,-29.1958,-155.55)">
        <path d="M931.029,3995.44L553.025,3643.93L1021.71,3139.92L1399.71,3491.44L931.029,3995.44Z" style="fill:white;fill-rule:nonzero;"/>
    </g>
    <g transform="matrix(0.620919,-0.654583,0.654583,0.620919,90.7142,492.586)">
        <g>
            <g>
                <g>
                    <g>
                        <clipPath id="_clip1">
                            <path d="M-40,246.734L143.643,166.729L143.643,-80L-40,1.091L-40,246.734Z"/>
                        </clipPath>
                        <g clip-path="url(#_clip1)">
                            <path d="M5.99,37.301L24.068,37.301L5.99,37.301Z" style="fill:rgb(237,28,36);fill-rule:nonzero;"/>
                        </g>
                    </g>
                </g>
                <g>
                    <g>
                        <g>
                            <clipPath id="_clip2">
                                <path d="M-40,246.734L143.643,166.729L143.643,-80L-40,1.091L-40,246.734Z"/>
                            </clipPath>
                            <g clip-path="url(#_clip2)">
                                <g>
                                    <g>
                                        <clipPath id="_clip3">
                                            <path d="M-40,1.091L143.643,-80L143.643,166.729L-40,246.734L-40,1.091Z"/>
                                        </clipPath>
                                        <g clip-path="url(#_clip3)">
                                            <path d="M5.99,37.63C5.99,37.63 7.12,37.527 8.815,37.453C9.239,37.433 9.698,37.412 10.183,37.399C10.669,37.383 11.181,37.364 11.71,37.358C12.239,37.35 12.787,37.331 13.344,37.33C13.899,37.327 14.464,37.323 15.029,37.319C15.594,37.322 16.159,37.326 16.715,37.33C17.272,37.33 17.819,37.348 18.348,37.357C19.407,37.378 20.396,37.412 21.244,37.452C22.938,37.526 24.068,37.629 24.068,37.629C24.068,37.629 22.938,37.735 21.244,37.808C20.397,37.849 19.408,37.881 18.348,37.904C17.818,37.911 17.271,37.929 16.715,37.929C16.159,37.933 15.594,37.936 15.029,37.94C14.464,37.936 13.899,37.932 13.344,37.928C12.787,37.928 12.24,37.91 11.71,37.902C11.18,37.894 10.669,37.875 10.183,37.86C9.698,37.846 9.239,37.826 8.815,37.805C7.12,37.735 5.99,37.63 5.99,37.63" style="fill:rgb(190,30,45);fill-rule:nonzero;"/>
                                        </g>
                                    </g>
                                </g>
                                <g>
                                    <g>
                                        <clipPath id="_clip4">
                                            <path d="M-40,1.091L143.643,-80L143.643,166.729L-40,246.734L-40,1.091Z"/>
                                        </clipPath>
                                        <g clip-path="url(#_clip4)">
                                            <path d="M5.99,37.63L33.374,3.192" style="fill:none;fill-rule:nonzero;"/>
                                        </g>
                                    </g>
                                </g>
                                <g>
                                    <g>
                                        <clipPath id="_clip5">
                                            <path d="M-40,1.091L143.643,-80L143.643,166.729L-40,246.734L-40,1.091Z"/>
                                        </clipPath>
                                        <g clip-path="url(#_clip5)">
                                            <path d="M5.99,37.63C5.99,37.63 6.093,37.493 6.284,37.233C6.478,36.975 6.76,36.596 7.119,36.114C7.847,35.156 8.873,33.775 10.129,32.139C10.757,31.322 11.439,30.436 12.159,29.5C12.885,28.565 13.649,27.581 14.439,26.563C15.235,25.55 16.057,24.501 16.892,23.436C17.732,22.374 18.584,21.295 19.438,20.217C20.295,19.144 21.153,18.069 21.999,17.012C22.842,15.953 23.685,14.922 24.494,13.917C26.115,11.913 27.639,10.05 28.955,8.46C30.265,6.867 31.378,5.558 32.148,4.632C32.538,4.173 32.843,3.812 33.052,3.566C33.261,3.32 33.373,3.19 33.373,3.19C33.373,3.19 33.27,3.329 33.078,3.587C32.885,3.846 32.603,4.225 32.243,4.708C31.514,5.666 30.49,7.047 29.233,8.682C27.982,10.322 26.51,12.225 24.923,14.257C24.127,15.271 23.312,16.325 22.47,17.384C21.63,18.446 20.778,19.525 19.925,20.603C19.066,21.677 18.208,22.751 17.362,23.809C16.513,24.863 15.677,25.9 14.868,26.902C14.055,27.902 13.267,28.87 12.522,29.785C11.772,30.699 11.062,31.561 10.408,32.358C9.097,33.951 7.984,35.262 7.214,36.187C6.826,36.646 6.52,37.007 6.311,37.253C6.102,37.5 5.99,37.63 5.99,37.63" style="fill:rgb(190,30,45);fill-rule:nonzero;"/>
                                        </g>
                                    </g>
                                </g>
                                <g>
                                    <g>
                                        <clipPath id="_clip6">
                                            <path d="M-40,1.091L143.643,-80L143.643,166.729L-40,246.734L-40,1.091Z"/>
                                        </clipPath>
                                        <g clip-path="url(#_clip6)">
                                            <path d="M33.374,3.192L60.845,37.743" style="fill:none;fill-rule:nonzero;"/>
                                        </g>
                                    </g>
                                </g>
                                <g>
                                    <g>
                                        <clipPath id="_clip7">
                                            <path d="M-40,1.091L143.643,-80L143.643,166.729L-40,246.734L-40,1.091Z"/>
                                        </clipPath>
                                        <g clip-path="url(#_clip7)">
                                            <path d="M33.374,3.192C33.374,3.192 33.484,3.323 33.694,3.57C33.903,3.817 34.211,4.178 34.601,4.639C35.372,5.567 36.49,6.881 37.805,8.479C38.461,9.278 39.173,10.146 39.926,11.061C40.674,11.98 41.463,12.951 42.279,13.955C43.091,14.961 43.93,16.002 44.781,17.059C45.629,18.119 46.491,19.196 47.352,20.273C48.208,21.355 49.064,22.437 49.907,23.502C50.752,24.565 51.57,25.622 52.367,26.639C53.96,28.677 55.436,30.587 56.692,32.232C57.954,33.873 58.983,35.258 59.713,36.219C60.073,36.704 60.357,37.084 60.55,37.344C60.743,37.604 60.845,37.742 60.845,37.742C60.845,37.742 60.733,37.611 60.523,37.365C60.315,37.118 60.007,36.756 59.617,36.295C58.845,35.368 57.728,34.054 56.413,32.456C55.094,30.86 53.565,28.992 51.938,26.981C51.127,25.974 50.281,24.939 49.435,23.877C48.588,22.815 47.726,21.738 46.865,20.662C46.01,19.579 45.154,18.498 44.312,17.432C43.474,16.364 42.649,15.312 41.851,14.294C41.058,13.273 40.291,12.285 39.563,11.349C38.84,10.411 38.157,9.522 37.525,8.701C36.265,7.06 35.236,5.675 34.506,4.714C34.145,4.231 33.86,3.851 33.667,3.591C33.476,3.332 33.374,3.192 33.374,3.192" style="fill:rgb(190,30,45);fill-rule:nonzero;"/>
                                        </g>
                                    </g>
                                </g>
                                <g>
                                    <g>
                                        <clipPath id="_clip8">
                                            <path d="M-40,1.091L143.643,-80L143.643,166.729L-40,246.734L-40,1.091Z"/>
                                        </clipPath>
                                        <g clip-path="url(#_clip8)">
                                            <path d="M24.068,37.63L42.413,14.56" style="fill:none;fill-rule:nonzero;"/>
                                        </g>
                                    </g>
                                </g>
                                <g>
                                    <g>
                                        <clipPath id="_clip9">
                                            <path d="M-40,1.091L143.643,-80L143.643,166.729L-40,246.734L-40,1.091Z"/>
                                        </clipPath>
                                        <g clip-path="url(#_clip9)">
                                            <path d="M24.068,37.63C24.068,37.63 25.133,36.124 26.796,33.916C27.212,33.363 27.66,32.765 28.143,32.136C28.623,31.508 29.129,30.843 29.659,30.162C30.19,29.48 30.732,28.772 31.296,28.061C31.857,27.349 32.428,26.626 32.999,25.903C33.575,25.184 34.151,24.465 34.718,23.758C35.282,23.048 35.851,22.361 36.395,21.69C37.486,20.352 38.516,19.111 39.407,18.055C41.185,15.938 42.414,14.56 42.414,14.56C42.414,14.56 41.349,16.069 39.687,18.277C38.858,19.383 37.882,20.666 36.823,22.031C36.292,22.712 35.751,23.422 35.187,24.132C34.625,24.844 34.055,25.567 33.484,26.291C32.908,27.01 32.332,27.728 31.765,28.436C31.2,29.144 30.631,29.832 30.087,30.503C29.543,31.174 29.009,31.815 28.504,32.425C28.002,33.037 27.519,33.61 27.074,34.138C25.297,36.254 24.068,37.63 24.068,37.63" style="fill:rgb(190,30,45);fill-rule:nonzero;"/>
                                        </g>
                                    </g>
                                </g>
                                <g>
                                    <g>
                                        <clipPath id="_clip10">
                                            <path d="M-40,1.091L143.643,-80L143.643,166.729L-40,246.734L-40,1.091Z"/>
                                        </clipPath>
                                        <g clip-path="url(#_clip10)">
                                            <path d="M53.08,27.768L62.917,15.396" style="fill:none;fill-rule:nonzero;"/>
                                        </g>
                                    </g>
                                </g>
                                <g>
                                    <g>
                                        <clipPath id="_clip11">
                                            <path d="M-40,1.091L143.643,-80L143.643,166.729L-40,246.734L-40,1.091Z"/>
                                        </clipPath>
                                        <g clip-path="url(#_clip11)">
                                            <path d="M53.08,27.768C53.08,27.768 53.614,26.93 54.478,25.724C54.693,25.422 54.927,25.095 55.181,24.755C55.432,24.413 55.696,24.051 55.977,23.684C56.26,23.315 56.544,22.931 56.846,22.55C57.146,22.167 57.45,21.778 57.754,21.39C58.065,21.006 58.375,20.621 58.681,20.243C58.984,19.862 59.295,19.499 59.59,19.141C60.183,18.43 60.747,17.774 61.239,17.219C62.219,16.106 62.916,15.398 62.916,15.398C62.916,15.398 62.383,16.237 61.519,17.441C61.089,18.046 60.577,18.744 60.018,19.482C59.735,19.85 59.453,20.235 59.15,20.616C58.85,20.998 58.546,21.387 58.241,21.776C57.931,22.16 57.621,22.545 57.316,22.922C57.012,23.302 56.701,23.666 56.407,24.023C56.112,24.381 55.819,24.72 55.542,25.043C55.268,25.367 55.002,25.667 54.756,25.946C53.777,27.059 53.08,27.768 53.08,27.768" style="fill:rgb(190,30,45);fill-rule:nonzero;"/>
                                        </g>
                                    </g>
                                </g>
                                <g>
                                    <g>
                                        <clipPath id="_clip12">
                                            <path d="M-40,1.091L143.643,-80L143.643,166.729L-40,246.734L-40,1.091Z"/>
                                        </clipPath>
                                        <g clip-path="url(#_clip12)">
                                            <path d="M62.917,15.397L80.685,37.743" style="fill:none;fill-rule:nonzero;"/>
                                        </g>
                                    </g>
                                </g>
                                <g>
                                    <g>
                                        <clipPath id="_clip13">
                                            <path d="M-40,1.091L143.643,-80L143.643,166.729L-40,246.734L-40,1.091Z"/>
                                        </clipPath>
                                        <g clip-path="url(#_clip13)">
                                            <path d="M62.917,15.397C62.917,15.397 64.109,16.728 65.832,18.777C66.264,19.289 66.731,19.843 67.22,20.435C67.709,21.025 68.227,21.646 68.753,22.296C69.28,22.946 69.831,23.611 70.378,24.298C70.927,24.983 71.486,25.68 72.044,26.375C72.596,27.076 73.149,27.778 73.693,28.466C74.24,29.154 74.763,29.841 75.277,30.501C76.301,31.824 77.247,33.067 78.048,34.14C79.655,36.281 80.684,37.742 80.684,37.742C80.684,37.742 79.492,36.41 77.768,34.362C76.903,33.34 75.906,32.137 74.848,30.842C74.321,30.193 73.769,29.527 73.223,28.84C72.674,28.154 72.116,27.459 71.558,26.763C71.006,26.061 70.453,25.361 69.909,24.672C69.364,23.984 68.839,23.297 68.325,22.637C67.81,21.977 67.323,21.333 66.857,20.722C66.39,20.114 65.956,19.534 65.555,18.998C63.946,16.858 62.917,15.397 62.917,15.397" style="fill:rgb(190,30,45);fill-rule:nonzero;"/>
                                        </g>
                                    </g>
                                </g>
                                <g>
                                    <g>
                                        <clipPath id="_clip14">
                                            <path d="M-40,1.091L143.643,-80L143.643,166.729L-40,246.734L-40,1.091Z"/>
                                        </clipPath>
                                        <g clip-path="url(#_clip14)">
                                            <path d="M60.806,37.708L70.732,25.224" style="fill:none;fill-rule:nonzero;"/>
                                        </g>
                                    </g>
                                </g>
                                <g>
                                    <g>
                                        <clipPath id="_clip15">
                                            <path d="M-40,1.091L143.643,-80L143.643,166.729L-40,246.734L-40,1.091Z"/>
                                        </clipPath>
                                        <g clip-path="url(#_clip15)">
                                            <path d="M60.806,37.708C60.806,37.708 61.345,36.863 62.218,35.646C62.435,35.342 62.671,35.011 62.927,34.669C63.181,34.323 63.447,33.959 63.732,33.588C64.017,33.217 64.304,32.828 64.607,32.443C64.91,32.057 65.218,31.664 65.524,31.272C65.837,30.884 66.149,30.497 66.459,30.114C66.763,29.729 67.078,29.363 67.376,29.003C67.975,28.285 68.543,27.623 69.04,27.063C70.028,25.938 70.731,25.223 70.731,25.223C70.731,25.223 70.192,26.069 69.319,27.285C68.885,27.895 68.369,28.598 67.804,29.343C67.519,29.715 67.234,30.104 66.928,30.488C66.625,30.874 66.318,31.266 66.01,31.659C65.698,32.047 65.385,32.434 65.077,32.816C64.769,33.2 64.456,33.567 64.159,33.927C63.863,34.288 63.566,34.629 63.288,34.955C63.011,35.282 62.743,35.586 62.494,35.867C61.507,36.993 60.806,37.708 60.806,37.708" style="fill:rgb(190,30,45);fill-rule:nonzero;"/>
                                        </g>
                                    </g>
                                </g>
                                <g>
                                    <g>
                                        <clipPath id="_clip16">
                                            <path d="M-40,1.091L143.643,-80L143.643,166.729L-40,246.734L-40,1.091Z"/>
                                        </clipPath>
                                        <g clip-path="url(#_clip16)">
                                            <path d="M80.687,37.757L109.195,37.727" style="fill:none;fill-rule:nonzero;"/>
                                        </g>
                                    </g>
                                </g>
                                <g>
                                    <g>
                                        <clipPath id="_clip17">
                                            <path d="M-40,1.091L143.643,-80L143.643,166.729L-40,246.734L-40,1.091Z"/>
                                        </clipPath>
                                        <g clip-path="url(#_clip17)">
                                            <path d="M80.687,37.757C80.687,37.757 82.468,37.652 85.14,37.575C85.808,37.555 86.533,37.534 87.298,37.519C88.063,37.502 88.87,37.483 89.706,37.475C90.541,37.466 91.404,37.448 92.281,37.445C93.158,37.441 94.05,37.437 94.94,37.432C95.832,37.434 96.722,37.438 97.599,37.44C98.476,37.439 99.339,37.457 100.175,37.463C101.846,37.483 103.404,37.514 104.741,37.553C107.414,37.624 109.196,37.727 109.196,37.727C109.196,37.727 107.414,37.834 104.742,37.91C103.405,37.952 101.846,37.987 100.176,38.01C99.341,38.019 98.477,38.038 97.601,38.039C96.724,38.044 95.833,38.048 94.942,38.052C94.051,38.05 93.16,38.047 92.282,38.045C91.406,38.045 90.542,38.028 89.707,38.021C88.872,38.014 88.064,37.996 87.299,37.981C86.533,37.969 85.809,37.949 85.141,37.93C82.467,37.86 80.687,37.757 80.687,37.757" style="fill:rgb(190,30,45);fill-rule:nonzero;"/>
                                        </g>
                                    </g>
                                </g>
                            </g>
                        </g>
                    </g>
                </g>
                <g>
                    <g>
                        <g>
                            <clipPath id="_clip18">
                                <path d="M-40,246.734L143.643,166.729L143.643,-80L-40,1.091L-40,246.734Z"/>
                            </clipPath>
                            <g clip-path="url(#_clip18)">
                                <g transform="matrix(1.2927,0,0,1,4.9531,51.8096)">
                                    <g transform="matrix(9.1186,0,0,9.1186,0,0)">
                                        <path d="M0.492,-0.175C0.492,-0.214 0.478,-0.245 0.451,-0.268C0.423,-0.291 0.372,-0.313 0.299,-0.334C0.225,-0.354 0.172,-0.377 0.138,-0.401C0.09,-0.436 0.065,-0.481 0.065,-0.537C0.065,-0.591 0.088,-0.636 0.133,-0.67C0.177,-0.704 0.235,-0.721 0.304,-0.721C0.351,-0.721 0.394,-0.712 0.431,-0.693C0.468,-0.675 0.497,-0.65 0.518,-0.617C0.538,-0.585 0.548,-0.548 0.548,-0.508L0.488,-0.508C0.488,-0.557 0.471,-0.596 0.438,-0.625C0.405,-0.655 0.36,-0.669 0.304,-0.669C0.25,-0.669 0.207,-0.657 0.174,-0.633C0.142,-0.609 0.126,-0.577 0.126,-0.538C0.126,-0.502 0.14,-0.472 0.169,-0.45C0.198,-0.427 0.245,-0.407 0.309,-0.389C0.372,-0.372 0.421,-0.354 0.454,-0.335C0.486,-0.316 0.511,-0.294 0.528,-0.268C0.544,-0.242 0.553,-0.211 0.553,-0.176C0.553,-0.12 0.53,-0.075 0.486,-0.041C0.441,-0.007 0.382,0.01 0.309,0.01C0.258,0.01 0.212,0.001 0.171,-0.017C0.129,-0.035 0.097,-0.06 0.075,-0.092C0.054,-0.125 0.043,-0.161 0.043,-0.203L0.103,-0.203C0.103,-0.153 0.122,-0.113 0.159,-0.084C0.197,-0.056 0.246,-0.041 0.309,-0.041C0.364,-0.041 0.408,-0.053 0.442,-0.078C0.475,-0.102 0.492,-0.134 0.492,-0.175Z" style="fill:rgb(190,30,45);fill-rule:nonzero;"/>
                                    </g>
                                    <g transform="matrix(9.1186,0,0,9.1186,5.40081,0)">
                                        <path d="M0.572,-0.66L0.329,-0.66L0.329,-0L0.269,-0L0.269,-0.66L0.025,-0.66L0.025,-0.711L0.572,-0.711L0.572,-0.66Z" style="fill:rgb(190,30,45);fill-rule:nonzero;"/>
                                    </g>
                                    <g transform="matrix(9.1186,0,0,9.1186,10.8461,0)">
                                        <path d="M0.355,-0.296L0.149,-0.296L0.149,-0L0.088,-0L0.088,-0.711L0.319,-0.711C0.395,-0.711 0.454,-0.693 0.497,-0.656C0.54,-0.619 0.561,-0.568 0.561,-0.501C0.561,-0.456 0.548,-0.416 0.521,-0.381C0.494,-0.346 0.458,-0.322 0.414,-0.309L0.591,-0.006L0.591,-0L0.527,-0L0.355,-0.296ZM0.149,-0.347L0.333,-0.347C0.383,-0.347 0.424,-0.361 0.455,-0.39C0.485,-0.419 0.5,-0.456 0.5,-0.501C0.5,-0.552 0.485,-0.59 0.453,-0.618C0.421,-0.646 0.376,-0.66 0.318,-0.66L0.149,-0.66L0.149,-0.347ZM0.296,-0.803L0.38,-0.897L0.432,-0.897L0.432,-0.892L0.317,-0.764L0.275,-0.764L0.16,-0.892L0.16,-0.897L0.212,-0.897L0.296,-0.803Z" style="fill:rgb(190,30,45);fill-rule:nonzero;"/>
                                    </g>
                                    <g transform="matrix(9.1186,0,0,9.1186,16.6343,0)">
                                        <path d="M0.482,-0.341L0.15,-0.341L0.15,-0.051L0.532,-0.051L0.532,-0L0.09,-0L0.09,-0.711L0.53,-0.711L0.53,-0.66L0.15,-0.66L0.15,-0.392L0.482,-0.392L0.482,-0.341Z" style="fill:rgb(190,30,45);fill-rule:nonzero;"/>
                                    </g>
                                    <g transform="matrix(9.1186,0,0,9.1186,21.8214,0)">
                                        <path d="M0.593,-0.222C0.585,-0.147 0.558,-0.09 0.513,-0.05C0.468,-0.01 0.407,0.01 0.332,0.01C0.279,0.01 0.232,-0.003 0.192,-0.03C0.151,-0.056 0.12,-0.094 0.098,-0.142C0.076,-0.19 0.064,-0.245 0.064,-0.308L0.064,-0.4C0.064,-0.463 0.075,-0.519 0.097,-0.568C0.119,-0.617 0.151,-0.654 0.193,-0.681C0.234,-0.707 0.282,-0.721 0.336,-0.721C0.412,-0.721 0.472,-0.7 0.516,-0.659C0.56,-0.618 0.586,-0.561 0.593,-0.488L0.533,-0.488C0.518,-0.609 0.452,-0.669 0.336,-0.669C0.271,-0.669 0.22,-0.645 0.182,-0.597C0.144,-0.549 0.125,-0.482 0.125,-0.397L0.125,-0.311C0.125,-0.229 0.143,-0.163 0.18,-0.114C0.218,-0.065 0.268,-0.041 0.332,-0.041C0.394,-0.041 0.442,-0.056 0.474,-0.086C0.506,-0.116 0.525,-0.161 0.533,-0.222L0.593,-0.222Z" style="fill:rgb(190,30,45);fill-rule:nonzero;"/>
                                    </g>
                                    <g transform="matrix(9.1186,0,0,9.1186,27.743,0)">
                                        <g>
                                            <path d="M0.617,-0L0.556,-0L0.556,-0.341L0.15,-0.341L0.15,-0L0.09,-0L0.09,-0.711L0.15,-0.711L0.15,-0.392L0.556,-0.392L0.556,-0.711L0.617,-0.711L0.617,-0Z" style="fill:rgb(190,30,45);fill-rule:nonzero;"/>
                                        </g>
                                    </g>
                                    <g transform="matrix(1,0,0,1,34.076,0)">
                                        <g transform="matrix(9.1186,0,0,9.1186,0,0)">
                                            <path d="M0.298,-0.323L0.516,-0.711L0.585,-0.711L0.328,-0.268L0.328,-0L0.268,-0L0.268,-0.268L0.012,-0.711L0.083,-0.711L0.298,-0.323Z" style="fill:rgb(190,30,45);fill-rule:nonzero;"/>
                                        </g>
                                        <g transform="matrix(9.1186,0,0,9.1186,7.67601,0)">
                                            <path d="M0.09,-0L0.09,-0.711L0.3,-0.711C0.376,-0.711 0.434,-0.695 0.473,-0.664C0.513,-0.632 0.532,-0.586 0.532,-0.525C0.532,-0.488 0.522,-0.456 0.502,-0.429C0.482,-0.402 0.455,-0.382 0.42,-0.371C0.461,-0.361 0.495,-0.341 0.52,-0.31C0.545,-0.278 0.558,-0.242 0.558,-0.2C0.558,-0.137 0.537,-0.088 0.497,-0.053C0.456,-0.018 0.4,-0 0.328,-0L0.09,-0ZM0.15,-0.342L0.15,-0.051L0.33,-0.051C0.382,-0.051 0.422,-0.064 0.452,-0.09C0.483,-0.116 0.498,-0.153 0.498,-0.199C0.498,-0.243 0.483,-0.278 0.454,-0.303C0.426,-0.329 0.386,-0.342 0.335,-0.342L0.15,-0.342ZM0.15,-0.392L0.314,-0.392C0.364,-0.393 0.403,-0.405 0.43,-0.427C0.458,-0.45 0.472,-0.483 0.472,-0.526C0.472,-0.572 0.457,-0.606 0.429,-0.627C0.4,-0.649 0.357,-0.66 0.3,-0.66L0.15,-0.66L0.15,-0.392Z" style="fill:rgb(190,30,45);fill-rule:nonzero;"/>
                                        </g>
                                        <g transform="matrix(9.1186,0,0,9.1186,13.2638,0)">
                                            <path d="M0.615,-0.317C0.615,-0.251 0.604,-0.194 0.581,-0.145C0.559,-0.095 0.526,-0.057 0.484,-0.03C0.442,-0.004 0.394,0.01 0.339,0.01C0.256,0.01 0.189,-0.02 0.138,-0.079C0.087,-0.139 0.061,-0.219 0.061,-0.32L0.061,-0.393C0.061,-0.458 0.073,-0.515 0.095,-0.565C0.118,-0.615 0.151,-0.654 0.193,-0.68C0.235,-0.707 0.283,-0.721 0.338,-0.721C0.393,-0.721 0.441,-0.708 0.483,-0.681C0.524,-0.655 0.557,-0.618 0.58,-0.569C0.602,-0.521 0.614,-0.465 0.615,-0.402L0.615,-0.317ZM0.555,-0.394C0.555,-0.48 0.536,-0.547 0.497,-0.595C0.458,-0.644 0.405,-0.668 0.338,-0.668C0.272,-0.668 0.219,-0.644 0.18,-0.595C0.141,-0.546 0.121,-0.478 0.121,-0.391L0.121,-0.317C0.121,-0.233 0.141,-0.166 0.18,-0.116C0.219,-0.067 0.272,-0.042 0.339,-0.042C0.407,-0.042 0.46,-0.067 0.498,-0.115C0.536,-0.164 0.555,-0.232 0.555,-0.319L0.555,-0.394Z" style="fill:rgb(190,30,45);fill-rule:nonzero;"/>
                                        </g>
                                        <g transform="matrix(9.1186,0,0,9.1186,19.4349,0)">
                                            <path d="M0.617,-0L0.556,-0L0.556,-0.341L0.15,-0.341L0.15,-0L0.09,-0L0.09,-0.711L0.15,-0.711L0.15,-0.392L0.556,-0.392L0.556,-0.711L0.617,-0.711L0.617,-0Z" style="fill:rgb(190,30,45);fill-rule:nonzero;"/>
                                        </g>
                                        <g transform="matrix(9.1186,0,0,9.1186,25.8865,0)">
                                            <path d="M0.482,-0.341L0.15,-0.341L0.15,-0.051L0.532,-0.051L0.532,-0L0.09,-0L0.09,-0.711L0.53,-0.711L0.53,-0.66L0.15,-0.66L0.15,-0.392L0.482,-0.392L0.482,-0.341Z" style="fill:rgb(190,30,45);fill-rule:nonzero;"/>
                                        </g>
                                        <g transform="matrix(9.1186,0,0,9.1186,31.0736,0)">
                                            <path d="M0.169,-0.711L0.432,-0.083L0.695,-0.711L0.775,-0.711L0.775,-0L0.715,-0L0.715,-0.31L0.72,-0.627L0.455,-0L0.409,-0L0.145,-0.625L0.15,-0.312L0.15,-0L0.09,-0L0.09,-0.711L0.169,-0.711Z" style="fill:rgb(190,30,45);fill-rule:nonzero;"/>
                                        </g>
                                    </g>
                                    <g transform="matrix(9.1186,0,0,9.1186,73.039,0)">
                                        <g>
                                            <rect x="0.103" y="-0.711" width="0.06" height="0.711" style="fill:rgb(190,30,45);"/>
                                        </g>
                                    </g>
                                    <g transform="matrix(9.1186,0,0,9.1186,75.53,0)">
                                        <g>
                                            <path d="M0.474,-0.199L0.151,-0.199L0.078,-0L0.015,-0L0.284,-0.711L0.341,-0.711L0.61,-0L0.547,-0L0.474,-0.199ZM0.169,-0.25L0.455,-0.25L0.312,-0.638L0.169,-0.25Z" style="fill:rgb(190,30,45);fill-rule:nonzero;"/>
                                        </g>
                                    </g>
                                </g>
                            </g>
                        </g>
                    </g>
                </g>
            </g>
        </g>
    </g>
    <g transform="matrix(0.176403,0,0,0.176403,-29.1958,-155.55)">
        <path d="M1288.28,3349.14L1159.13,3229.04C1149.24,3219.85 1133.77,3220.41 1124.57,3230.3L1092.47,3264.82L1257.43,3418.22L1289.53,3383.7C1298.73,3373.81 1298.17,3358.34 1288.28,3349.14Z" style="fill:rgb(246,163,27);fill-rule:nonzero;"/>
    </g>
    <g transform="matrix(0.176403,0,0,0.176403,-29.1958,-155.55)">
        <path d="M1225.54,3308.83L1198.69,3283.87C1190.62,3276.36 1190.16,3263.61 1197.66,3255.54L1223.7,3227.54C1238.07,3212.09 1262.48,3211.2 1277.93,3225.57C1293.39,3239.94 1294.27,3264.35 1279.9,3279.8L1253.86,3307.8C1246.36,3315.87 1233.61,3316.34 1225.54,3308.83Z" style="fill:rgb(246,163,27);fill-rule:nonzero;"/>
    </g>
    <g transform="matrix(0.176403,0,0,0.176403,-29.1958,-155.55)">
        <path d="M1267.57,3263.51C1260.74,3270.85 1249.27,3271.26 1241.94,3264.44C1234.6,3257.62 1234.18,3246.15 1241,3238.81C1247.82,3231.48 1259.3,3231.06 1266.63,3237.88C1273.97,3244.7 1274.39,3256.18 1267.57,3263.51Z" style="fill:white;fill-rule:nonzero;"/>
    </g>
    <g transform="matrix(0.176403,0,0,0.176403,-29.1958,-155.55)">
        <path d="M1308.21,3396.09L1107.81,3209.74C1092.77,3195.75 1069.23,3196.6 1055.24,3211.65L1045.99,3221.6L1300.86,3458.61L1310.11,3448.66C1324.1,3433.61 1323.25,3410.08 1308.21,3396.09Z" style="fill:rgb(246,163,27);fill-rule:nonzero;"/>
    </g>
    <g transform="matrix(0.176403,0,0,0.176403,-29.1958,-155.55)">
        <path d="M847.36,3859.81C859.82,3925.96 791.99,3904.69 791.99,3904.69C796.71,3954.05 733.93,3933.94 733.93,3933.94C729.55,3961.42 686.1,3933.24 686.1,3933.24C636.82,3907.16 631.34,3834.23 631.34,3834.23C620.85,3807.62 639.72,3720.91 639.72,3720.91C627.7,3649.02 616.37,3576.89 615.61,3504.06C615.11,3457.29 619.2,3410.52 627.57,3364.51C642.43,3282.74 670.81,3203.43 711.23,3130.79C715.44,3123.21 719.78,3115.72 724.26,3108.3L804.84,3206.04C798.39,3218.51 792.51,3231.27 787.2,3244.22C757.8,3316.1 745.15,3393.9 741.06,3471.45C738.54,3518.6 739.3,3567 755.67,3611.32C760.89,3625.29 767.82,3638.83 776.44,3651.16C808.07,3695.12 812.98,3705.64 812.98,3705.64C859.9,3719.36 863.63,3762.19 863.63,3762.19C865.27,3799.54 871.98,3811.6 871.98,3811.6C899.13,3864.55 847.36,3859.81 847.36,3859.81Z" style="fill:rgb(253,195,136);fill-rule:nonzero;"/>
    </g>
</svg>
