<?xml version="1.0" encoding="UTF-8" standalone="no"?>
<!DOCTYPE svg PUBLIC "-//W3C//DTD SVG 1.1//EN" "http://www.w3.org/Graphics/SVG/1.1/DTD/svg11.dtd">
<svg width="100%" height="100%" viewBox="0 0 216 66" version="1.1" xmlns="http://www.w3.org/2000/svg" xmlns:xlink="http://www.w3.org/1999/xlink" xml:space="preserve" xmlns:serif="http://www.serif.com/" style="fill-rule:evenodd;clip-rule:evenodd;stroke-linejoin:round;stroke-miterlimit:2;">
    <g transform="matrix(1,0,0,1,-1484.36,-6353.5)">
        <g transform="matrix(1,0,0,1,0,-0.0757043)">
            <g id="copyright">
                <g id="logo-strategio" transform="matrix(0.307978,0,0,0.307978,1207.91,3340.99)">
                    <g transform="matrix(0.129607,0,0,0.129607,1258.82,9686.37)">
                        <g transform="matrix(0.685013,0.151077,0.151077,-0.685013,637.431,1784.07)">
                            <path d="M1498.3,578.358C1735.82,770.403 1831.52,969.755 1797.03,1175.82L1199.57,1175.82C1429.65,1057.6 1584.56,892.763 1498.3,578.358Z" style="fill:rgb(15,42,99);"/>
                        </g>
                        <g transform="matrix(1,0,0,1,852.169,-276.517)">
                            <path d="M1138.08,1226.98C1485.3,1206.47 1247.29,1587.97 1162.02,1575.19C979.443,1547.83 728.526,1509.9 710.173,1715.38C684.856,1998.81 1066.74,2167.52 1034.65,2216.78C1021.05,2237.67 584.442,2037.83 547.822,1803.4C505.934,1535.25 669.753,1254.65 1138.08,1226.98Z" style="fill:rgb(49,114,228);"/>
                        </g>
                        <g transform="matrix(0.948447,0,0,0.918788,924.134,-96.3666)">
                            <path d="M1138.08,1226.98C1478.32,1154.74 1178.65,1586.36 1046.29,1571.68C888.269,1554.17 725.123,1557.43 710.173,1715.38C683.356,1998.67 1066.74,2167.52 1034.65,2216.78C1021.05,2237.67 575.704,2039.03 547.822,1803.4C518.17,1552.81 705.98,1318.73 1138.08,1226.98Z" style="fill:rgb(24,30,173);"/>
                        </g>
                        <g transform="matrix(0.825163,0.309471,-0.267979,0.71453,1271.76,-268.071)">
                            <path d="M1752.06,1362.8C1914.03,1362.8 2031.77,1353.35 2096.08,1476.93C2117.36,1517.84 2078.52,1542 2003.83,1564.38C1929.21,1586.73 1823.77,1591.81 1740.02,1590.61C1730.15,1590.47 1685.24,1606.64 1677.87,1612.59C1542.66,1721.69 1472.56,1583.92 1467.72,1434.76C1464.43,1333.22 1590.1,1362.8 1752.06,1362.8Z" style="fill:rgb(220,220,220);"/>
                        </g>
                        <g transform="matrix(1.18626,0,8.23131e-18,1.06025,-602.299,-233.776)">
                            <path d="M2355.41,1426.75C2390.13,1452.8 2388.95,1511.29 2385.73,1547.5L2293.35,1547.5C2318.69,1526.7 2351.38,1469.88 2355.41,1426.75Z" style="fill:white;"/>
                        </g>
                        <g transform="matrix(1.18626,0,8.23131e-18,1.06025,-546.617,-202.541)">
                            <path d="M2355.41,1426.75C2390.13,1452.8 2388.95,1511.29 2385.73,1547.5L2293.35,1547.5C2318.69,1526.7 2351.38,1469.88 2355.41,1426.75Z" style="fill:white;"/>
                        </g>
                        <g transform="matrix(1.18626,0,8.23131e-18,1.06025,-490.935,-187.924)">
                            <path d="M2355.41,1426.75C2390.13,1452.8 2388.95,1511.29 2385.73,1547.5L2293.35,1547.5C2318.69,1526.7 2351.38,1469.88 2355.41,1426.75Z" style="fill:white;"/>
                        </g>
                        <g transform="matrix(1.15194,0.283267,-0.253177,1.02957,11.533,-787.268)">
                            <path d="M2355.41,1426.75C2379.05,1444.48 2386.04,1477.24 2387.09,1507.78C2387.58,1522.1 2318.99,1519.75 2330.45,1499.03C2343.22,1475.98 2353.29,1449.47 2355.41,1426.75Z" style="fill:white;"/>
                        </g>
                        <g transform="matrix(1.15194,0.283267,-0.253177,1.02957,57.282,-769.846)">
                            <path d="M2355.41,1426.75C2372.81,1439.8 2381.19,1460.99 2384.82,1483.45C2388.44,1505.81 2323.21,1514.05 2335.57,1489.31C2345.85,1468.74 2353.58,1446.34 2355.41,1426.75Z" style="fill:white;"/>
                        </g>
                        <g transform="matrix(1.15194,0.283267,-0.253177,1.02957,94.5991,-742.549)">
                            <path d="M2355.41,1426.75C2370.97,1438.42 2379.32,1456.61 2383.51,1476.39C2384.55,1481.32 2332.54,1495.36 2335.42,1489.62C2345.77,1468.96 2353.57,1446.43 2355.41,1426.75Z" style="fill:white;"/>
                        </g>
                        <g transform="matrix(-1.18535,0.0464417,-0.0415084,-1.05943,5019.69,2726.94)">
                            <path d="M2355.41,1426.75C2390.13,1452.8 2388.95,1511.29 2385.73,1547.5L2293.35,1547.5C2318.69,1526.7 2351.38,1469.88 2355.41,1426.75Z" style="fill:white;"/>
                        </g>
                        <g transform="matrix(-1.18535,0.0464417,-0.0415084,-1.05943,5084.68,2702)">
                            <path d="M2355.41,1426.75C2390.13,1452.8 2388.95,1511.29 2385.73,1547.5L2293.35,1547.5C2318.69,1526.7 2351.38,1469.88 2355.41,1426.75Z" style="fill:white;"/>
                        </g>
                        <g transform="matrix(-1.18535,0.0464417,-0.0415084,-1.05943,5139.78,2726.94)">
                            <path d="M2355.41,1426.75C2390.13,1452.8 2388.95,1511.29 2385.73,1547.5L2293.35,1547.5C2318.69,1526.7 2351.38,1469.88 2355.41,1426.75Z" style="fill:white;"/>
                        </g>
                        <g transform="matrix(-1.17272,0.178666,-0.159687,-1.04815,5337.12,2413.87)">
                            <path d="M2355.41,1426.75C2390.13,1452.8 2388.95,1511.29 2385.73,1547.5L2293.35,1547.5C2318.69,1526.7 2351.38,1469.88 2355.41,1426.75Z" style="fill:white;"/>
                        </g>
                        <g transform="matrix(-1.17272,0.178666,-0.159687,-1.04815,5391.29,2440.93)">
                            <path d="M2355.41,1426.75C2390.13,1452.8 2388.95,1511.29 2385.73,1547.5L2293.35,1547.5C2318.69,1526.7 2351.38,1469.88 2355.41,1426.75Z" style="fill:white;"/>
                        </g>
                        <g transform="matrix(-1.17272,0.178666,-0.159687,-1.04815,5445.45,2465.23)">
                            <path d="M2355.41,1426.75C2390.13,1452.8 2388.95,1511.29 2385.73,1547.5L2293.35,1547.5C2318.69,1526.7 2351.38,1469.88 2355.41,1426.75Z" style="fill:white;"/>
                        </g>
                        <g transform="matrix(-0.058084,1.07495,-1.23722,-0.0668522,3931.83,-1048.05)">
                            <path d="M2370.81,960.662C2308.08,1098.16 2157.32,1284.75 2198.92,1335.09C2225.94,1367.79 2279.51,1353.77 2302.83,1348.64C2404.83,1326.24 2292.04,1227.61 2406.31,991.19C2427.49,1284.1 2403.21,1349.05 2353.37,1455.19C2324.23,1517.26 2182.89,1599.1 2102.34,1642.1C2102.34,1642.1 1926.11,1496.98 1934.84,1450.51C1993.33,1139.13 2151.65,994.75 2370.81,960.662Z" style="fill:rgb(49,114,228);"/>
                        </g>
                        <g transform="matrix(0.633784,-0.516338,0.559514,0.686781,258.108,1112.79)">
                            <path d="M1498.3,578.358C1735.82,770.403 1847.54,897.866 1813.04,1103.93C1700.43,1158.4 1487.76,1109.63 1278.95,999.034C1509.04,880.82 1584.56,892.763 1498.3,578.358Z" style="fill:rgb(49,114,228);"/>
                        </g>
                        <g transform="matrix(0.653387,-1.14358,1.21668,0.695158,-1810.67,2650.3)">
                            <path d="M1844.36,1952.18C1853.93,1941.15 1891.11,1939.11 1899.62,1948.85C2017.08,2083.32 2111.97,2231.56 2192.65,2388.46C1995.01,2121.61 1808.43,2066.01 1636.38,2287.88C1694.2,2162.47 1761.29,2047.94 1844.36,1952.18Z" style="fill:rgb(24,30,173);"/>
                        </g>
                        <g transform="matrix(-0.808539,-0.430874,0.403236,-0.756677,3091.91,2576.82)">
                            <path d="M1674.83,982.906L1741.04,1039.24L1608.62,1039.24L1674.83,982.906Z" style="fill:white;"/>
                        </g>
                    </g>
                    <g transform="matrix(0.247072,0,0,0.247072,903.567,9451.46)">
                        <g transform="matrix(150,0,0,150,1442.47,2031.77)">
                            <path d="M0.131,0.008C0.104,0.008 0.081,-0.001 0.062,-0.02C0.043,-0.039 0.034,-0.062 0.034,-0.09C0.034,-0.119 0.043,-0.142 0.062,-0.16C0.081,-0.177 0.104,-0.186 0.131,-0.186C0.158,-0.186 0.181,-0.177 0.2,-0.16C0.219,-0.142 0.228,-0.119 0.228,-0.09C0.228,-0.062 0.219,-0.039 0.2,-0.02C0.181,-0.001 0.158,0.008 0.131,0.008Z" style="fill:rgb(245,154,0);fill-rule:nonzero;"/>
                        </g>
                        <g transform="matrix(150,0,0,150,1480.72,2031.77)">
                            <path d="M0.62,-0.742L0.62,-0L0.471,-0L0.471,-0.062C0.432,-0.015 0.376,0.008 0.303,0.008C0.252,0.008 0.207,-0.003 0.166,-0.026C0.125,-0.049 0.092,-0.081 0.069,-0.123C0.046,-0.165 0.034,-0.214 0.034,-0.269C0.034,-0.324 0.046,-0.373 0.069,-0.415C0.092,-0.457 0.125,-0.489 0.166,-0.512C0.207,-0.535 0.252,-0.546 0.303,-0.546C0.372,-0.546 0.425,-0.524 0.464,-0.481L0.464,-0.742L0.62,-0.742ZM0.33,-0.12C0.369,-0.12 0.402,-0.133 0.428,-0.161C0.454,-0.188 0.467,-0.224 0.467,-0.269C0.467,-0.314 0.454,-0.351 0.428,-0.378C0.402,-0.405 0.369,-0.418 0.33,-0.418C0.29,-0.418 0.257,-0.405 0.231,-0.378C0.205,-0.351 0.192,-0.314 0.192,-0.269C0.192,-0.224 0.205,-0.188 0.231,-0.161C0.257,-0.133 0.29,-0.12 0.33,-0.12Z" style="fill:rgb(245,154,0);fill-rule:nonzero;"/>
                        </g>
                        <g transform="matrix(150,0,0,150,1584.52,2031.77)">
                            <path d="M0.072,-0.538L0.228,-0.538L0.228,-0L0.072,-0L0.072,-0.538ZM0.15,-0.613C0.121,-0.613 0.098,-0.621 0.08,-0.638C0.062,-0.655 0.053,-0.675 0.053,-0.7C0.053,-0.725 0.062,-0.745 0.08,-0.762C0.098,-0.779 0.121,-0.787 0.15,-0.787C0.179,-0.787 0.202,-0.779 0.22,-0.763C0.238,-0.747 0.247,-0.727 0.247,-0.703C0.247,-0.677 0.238,-0.656 0.22,-0.639C0.202,-0.622 0.179,-0.613 0.15,-0.613Z" style="fill:rgb(245,154,0);fill-rule:nonzero;"/>
                        </g>
                        <g transform="matrix(150,0,0,150,1629.67,2031.77)">
                            <path d="M0.627,-0.538L0.627,-0.09C0.627,0.009 0.601,0.082 0.55,0.13C0.499,0.178 0.424,0.202 0.325,0.202C0.273,0.202 0.224,0.196 0.177,0.183C0.13,0.17 0.092,0.152 0.061,0.128L0.123,0.016C0.146,0.035 0.174,0.049 0.209,0.061C0.244,0.071 0.278,0.077 0.313,0.077C0.367,0.077 0.407,0.065 0.433,0.041C0.458,0.016 0.471,-0.021 0.471,-0.07L0.471,-0.093C0.43,-0.048 0.374,-0.026 0.301,-0.026C0.252,-0.026 0.207,-0.037 0.166,-0.059C0.125,-0.08 0.092,-0.111 0.068,-0.15C0.044,-0.189 0.032,-0.235 0.032,-0.286C0.032,-0.337 0.044,-0.383 0.068,-0.422C0.092,-0.461 0.125,-0.492 0.166,-0.514C0.207,-0.535 0.252,-0.546 0.301,-0.546C0.379,-0.546 0.438,-0.52 0.479,-0.469L0.479,-0.538L0.627,-0.538ZM0.332,-0.154C0.373,-0.154 0.407,-0.166 0.434,-0.191C0.46,-0.215 0.473,-0.247 0.473,-0.286C0.473,-0.325 0.46,-0.357 0.434,-0.382C0.407,-0.406 0.373,-0.418 0.332,-0.418C0.291,-0.418 0.257,-0.406 0.23,-0.382C0.203,-0.357 0.19,-0.325 0.19,-0.286C0.19,-0.247 0.203,-0.215 0.23,-0.191C0.257,-0.166 0.291,-0.154 0.332,-0.154Z" style="fill:rgb(245,154,0);fill-rule:nonzero;"/>
                        </g>
                        <g transform="matrix(150,0,0,150,1734.67,2031.77)">
                            <path d="M0.072,-0.538L0.228,-0.538L0.228,-0L0.072,-0L0.072,-0.538ZM0.15,-0.613C0.121,-0.613 0.098,-0.621 0.08,-0.638C0.062,-0.655 0.053,-0.675 0.053,-0.7C0.053,-0.725 0.062,-0.745 0.08,-0.762C0.098,-0.779 0.121,-0.787 0.15,-0.787C0.179,-0.787 0.202,-0.779 0.22,-0.763C0.238,-0.747 0.247,-0.727 0.247,-0.703C0.247,-0.677 0.238,-0.656 0.22,-0.639C0.202,-0.622 0.179,-0.613 0.15,-0.613Z" style="fill:rgb(245,154,0);fill-rule:nonzero;"/>
                        </g>
                        <g transform="matrix(150,0,0,150,1779.82,2031.77)">
                            <path d="M0.419,-0.026C0.404,-0.015 0.385,-0.006 0.363,-0.001C0.34,0.005 0.317,0.008 0.292,0.008C0.228,0.008 0.179,-0.008 0.144,-0.041C0.109,-0.074 0.091,-0.122 0.091,-0.185L0.091,-0.406L0.008,-0.406L0.008,-0.526L0.091,-0.526L0.091,-0.657L0.247,-0.657L0.247,-0.526L0.381,-0.526L0.381,-0.406L0.247,-0.406L0.247,-0.187C0.247,-0.164 0.253,-0.147 0.265,-0.135C0.276,-0.122 0.293,-0.116 0.314,-0.116C0.339,-0.116 0.36,-0.123 0.377,-0.136L0.419,-0.026Z" style="fill:rgb(245,154,0);fill-rule:nonzero;"/>
                        </g>
                        <g transform="matrix(150,0,0,150,1845.07,2031.77)">
                            <path d="M0.289,-0.546C0.372,-0.546 0.436,-0.526 0.481,-0.487C0.526,-0.447 0.548,-0.387 0.548,-0.307L0.548,-0L0.402,-0L0.402,-0.067C0.373,-0.017 0.318,0.008 0.238,0.008C0.197,0.008 0.161,0.001 0.131,-0.013C0.1,-0.027 0.077,-0.046 0.061,-0.071C0.045,-0.096 0.037,-0.124 0.037,-0.155C0.037,-0.205 0.056,-0.244 0.094,-0.273C0.131,-0.302 0.189,-0.316 0.268,-0.316L0.392,-0.316C0.392,-0.35 0.382,-0.376 0.361,-0.395C0.34,-0.413 0.309,-0.422 0.268,-0.422C0.239,-0.422 0.211,-0.418 0.184,-0.409C0.156,-0.4 0.132,-0.387 0.113,-0.372L0.057,-0.481C0.086,-0.502 0.122,-0.518 0.163,-0.529C0.204,-0.54 0.246,-0.546 0.289,-0.546ZM0.277,-0.097C0.304,-0.097 0.327,-0.103 0.348,-0.116C0.369,-0.128 0.383,-0.146 0.392,-0.17L0.392,-0.225L0.285,-0.225C0.221,-0.225 0.189,-0.204 0.189,-0.162C0.189,-0.142 0.197,-0.126 0.213,-0.115C0.228,-0.103 0.25,-0.097 0.277,-0.097Z" style="fill:rgb(245,154,0);fill-rule:nonzero;"/>
                        </g>
                        <g transform="matrix(150,0,0,150,1937.62,2031.77)">
                            <rect x="0.072" y="-0.742" width="0.156" height="0.742" style="fill:rgb(245,154,0);fill-rule:nonzero;"/>
                        </g>
                    </g>
                    <g transform="matrix(0.0931165,0,0,0.0931165,792.649,9756.88)">
                        <g transform="matrix(901.39,0,0,901.39,1102.2,1719.71)">
                            <path d="M0.313,0.012C0.258,0.012 0.204,0.005 0.153,-0.011C0.101,-0.025 0.059,-0.045 0.028,-0.069L0.083,-0.191C0.113,-0.169 0.149,-0.151 0.19,-0.138C0.231,-0.125 0.273,-0.118 0.314,-0.118C0.36,-0.118 0.394,-0.125 0.416,-0.139C0.438,-0.152 0.449,-0.17 0.449,-0.193C0.449,-0.21 0.443,-0.224 0.43,-0.235C0.417,-0.246 0.4,-0.254 0.38,-0.261C0.359,-0.268 0.332,-0.275 0.297,-0.283C0.244,-0.296 0.2,-0.308 0.166,-0.321C0.132,-0.334 0.103,-0.354 0.079,-0.382C0.054,-0.41 0.042,-0.447 0.042,-0.494C0.042,-0.535 0.053,-0.572 0.075,-0.605C0.097,-0.638 0.13,-0.664 0.175,-0.683C0.219,-0.702 0.273,-0.712 0.337,-0.712C0.382,-0.712 0.425,-0.707 0.468,-0.696C0.511,-0.685 0.548,-0.67 0.58,-0.65L0.53,-0.527C0.465,-0.564 0.401,-0.582 0.336,-0.582C0.291,-0.582 0.257,-0.575 0.236,-0.56C0.214,-0.545 0.203,-0.526 0.203,-0.502C0.203,-0.478 0.216,-0.46 0.241,-0.449C0.266,-0.437 0.304,-0.425 0.355,-0.414C0.408,-0.401 0.452,-0.389 0.486,-0.376C0.52,-0.363 0.549,-0.343 0.574,-0.316C0.598,-0.289 0.61,-0.252 0.61,-0.205C0.61,-0.165 0.599,-0.128 0.577,-0.096C0.554,-0.063 0.521,-0.036 0.476,-0.017C0.431,0.002 0.377,0.012 0.313,0.012Z" style="fill:white;fill-rule:nonzero;"/>
                        </g>
                        <g transform="matrix(901.39,0,0,901.39,1668.28,1719.71)">
                            <path d="M0.228,-0.568L0.004,-0.568L0.004,-0.7L0.614,-0.7L0.614,-0.568L0.39,-0.568L0.39,-0L0.228,-0L0.228,-0.568Z" style="fill:white;fill-rule:nonzero;"/>
                        </g>
                        <g transform="matrix(901.39,0,0,901.39,2225.34,1719.71)">
                            <path d="M0.529,-0L0.394,-0.195L0.245,-0.195L0.245,-0L0.083,-0L0.083,-0.7L0.386,-0.7C0.448,-0.7 0.502,-0.69 0.548,-0.669C0.593,-0.648 0.628,-0.619 0.653,-0.581C0.678,-0.543 0.69,-0.498 0.69,-0.446C0.69,-0.394 0.678,-0.349 0.653,-0.312C0.627,-0.274 0.592,-0.245 0.546,-0.225L0.703,-0L0.529,-0ZM0.526,-0.446C0.526,-0.485 0.513,-0.516 0.488,-0.537C0.463,-0.558 0.426,-0.568 0.377,-0.568L0.245,-0.568L0.245,-0.324L0.377,-0.324C0.426,-0.324 0.463,-0.335 0.488,-0.356C0.513,-0.377 0.526,-0.407 0.526,-0.446Z" style="fill:white;fill-rule:nonzero;"/>
                        </g>
                        <g transform="matrix(901.39,0,0,901.39,2887.86,1719.71)">
                            <path d="M0.544,-0.15L0.219,-0.15L0.157,-0L-0.009,-0L0.303,-0.7L0.463,-0.7L0.776,-0L0.606,-0L0.544,-0.15ZM0.493,-0.273L0.382,-0.541L0.271,-0.273L0.493,-0.273Z" style="fill:white;fill-rule:nonzero;"/>
                        </g>
                        <g transform="matrix(901.39,0,0,901.39,3546.78,1719.71)">
                            <path d="M0.228,-0.568L0.004,-0.568L0.004,-0.7L0.614,-0.7L0.614,-0.568L0.39,-0.568L0.39,-0L0.228,-0L0.228,-0.568Z" style="fill:white;fill-rule:nonzero;"/>
                        </g>
                        <g transform="matrix(901.39,0,0,901.39,4103.83,1719.71)">
                            <path d="M0.625,-0.13L0.625,-0L0.083,-0L0.083,-0.7L0.612,-0.7L0.612,-0.57L0.244,-0.57L0.244,-0.418L0.569,-0.418L0.569,-0.292L0.244,-0.292L0.244,-0.13L0.625,-0.13Z" style="fill:white;fill-rule:nonzero;"/>
                        </g>
                        <g transform="matrix(901.39,0,0,901.39,4706.86,1719.71)">
                            <path d="M0.556,-0.361L0.704,-0.361L0.704,-0.077C0.666,-0.048 0.622,-0.026 0.572,-0.011C0.522,0.004 0.472,0.012 0.421,0.012C0.348,0.012 0.283,-0.004 0.225,-0.035C0.167,-0.066 0.122,-0.109 0.089,-0.164C0.055,-0.219 0.039,-0.281 0.039,-0.35C0.039,-0.419 0.055,-0.482 0.089,-0.537C0.122,-0.592 0.167,-0.634 0.226,-0.666C0.285,-0.697 0.351,-0.712 0.424,-0.712C0.485,-0.712 0.541,-0.702 0.591,-0.681C0.641,-0.66 0.683,-0.63 0.717,-0.591L0.613,-0.495C0.563,-0.548 0.503,-0.574 0.432,-0.574C0.387,-0.574 0.348,-0.565 0.313,-0.546C0.278,-0.527 0.251,-0.501 0.232,-0.467C0.213,-0.433 0.203,-0.394 0.203,-0.35C0.203,-0.307 0.213,-0.268 0.232,-0.234C0.251,-0.2 0.278,-0.173 0.313,-0.155C0.347,-0.135 0.386,-0.126 0.43,-0.126C0.477,-0.126 0.519,-0.136 0.556,-0.156L0.556,-0.361Z" style="fill:white;fill-rule:nonzero;"/>
                        </g>
                        <g transform="matrix(901.39,0,0,901.39,5401.84,1719.71)">
                            <rect x="0.083" y="-0.7" width="0.162" height="0.7" style="fill:white;fill-rule:nonzero;"/>
                        </g>
                        <g transform="matrix(901.39,0,0,901.39,5697.49,1719.71)">
                            <path d="M0.422,0.012C0.349,0.012 0.284,-0.004 0.226,-0.035C0.167,-0.066 0.122,-0.11 0.089,-0.165C0.055,-0.22 0.039,-0.281 0.039,-0.35C0.039,-0.419 0.055,-0.481 0.089,-0.536C0.122,-0.591 0.167,-0.634 0.226,-0.665C0.284,-0.696 0.349,-0.712 0.422,-0.712C0.495,-0.712 0.56,-0.696 0.618,-0.665C0.676,-0.634 0.722,-0.591 0.755,-0.536C0.788,-0.481 0.805,-0.419 0.805,-0.35C0.805,-0.281 0.788,-0.22 0.755,-0.165C0.722,-0.11 0.676,-0.066 0.618,-0.035C0.56,-0.004 0.495,0.012 0.422,0.012ZM0.422,-0.126C0.463,-0.126 0.501,-0.135 0.534,-0.155C0.567,-0.173 0.594,-0.2 0.613,-0.234C0.632,-0.268 0.641,-0.307 0.641,-0.35C0.641,-0.393 0.632,-0.432 0.613,-0.466C0.594,-0.5 0.567,-0.527 0.534,-0.546C0.501,-0.565 0.463,-0.574 0.422,-0.574C0.381,-0.574 0.343,-0.565 0.31,-0.546C0.277,-0.527 0.251,-0.5 0.232,-0.466C0.213,-0.432 0.203,-0.393 0.203,-0.35C0.203,-0.307 0.213,-0.268 0.232,-0.234C0.251,-0.2 0.277,-0.173 0.31,-0.155C0.343,-0.135 0.381,-0.126 0.422,-0.126Z" style="fill:white;fill-rule:nonzero;"/>
                        </g>
                    </g>
                </g>
                <g transform="matrix(2.32637,0,0,2.32768,-1813.67,-8443.84)">
                    <g transform="matrix(11.4791,0,0,11.4791,1417.66,6367.74)">
                        <path d="M0.936,-0.538L0.741,-0L0.591,-0L0.47,-0.334L0.345,-0L0.195,-0L0.001,-0.538L0.148,-0.538L0.275,-0.174L0.407,-0.538L0.539,-0.538L0.667,-0.174L0.798,-0.538L0.936,-0.538Z" style="fill:white;fill-opacity:0.1;fill-rule:nonzero;"/>
                    </g>
                    <g transform="matrix(11.4791,0,0,11.4791,1428.24,6367.74)">
                        <path d="M0.599,-0.267C0.599,-0.265 0.598,-0.251 0.596,-0.225L0.189,-0.225C0.196,-0.192 0.214,-0.165 0.241,-0.146C0.268,-0.127 0.302,-0.117 0.343,-0.117C0.371,-0.117 0.396,-0.121 0.418,-0.13C0.439,-0.138 0.459,-0.151 0.478,-0.169L0.561,-0.079C0.51,-0.021 0.436,0.008 0.339,0.008C0.278,0.008 0.225,-0.004 0.178,-0.028C0.131,-0.051 0.095,-0.084 0.07,-0.126C0.045,-0.168 0.032,-0.216 0.032,-0.269C0.032,-0.322 0.045,-0.369 0.07,-0.412C0.094,-0.454 0.129,-0.487 0.173,-0.511C0.216,-0.534 0.265,-0.546 0.319,-0.546C0.372,-0.546 0.419,-0.535 0.462,-0.512C0.505,-0.489 0.538,-0.457 0.563,-0.415C0.587,-0.372 0.599,-0.323 0.599,-0.267ZM0.32,-0.428C0.285,-0.428 0.255,-0.418 0.231,-0.398C0.207,-0.378 0.192,-0.351 0.187,-0.316L0.452,-0.316C0.447,-0.35 0.432,-0.377 0.408,-0.398C0.384,-0.418 0.355,-0.428 0.32,-0.428Z" style="fill:white;fill-opacity:0.1;fill-rule:nonzero;"/>
                    </g>
                    <g transform="matrix(11.4791,0,0,11.4791,1435.48,6367.74)">
                        <path d="M0.39,-0.546C0.44,-0.546 0.486,-0.535 0.527,-0.512C0.568,-0.489 0.6,-0.456 0.623,-0.415C0.646,-0.373 0.658,-0.324 0.658,-0.269C0.658,-0.214 0.646,-0.165 0.623,-0.124C0.6,-0.082 0.568,-0.049 0.527,-0.027C0.486,-0.003 0.44,0.008 0.39,0.008C0.316,0.008 0.26,-0.015 0.221,-0.062L0.221,-0L0.072,-0L0.072,-0.742L0.228,-0.742L0.228,-0.481C0.267,-0.524 0.321,-0.546 0.39,-0.546ZM0.363,-0.12C0.403,-0.12 0.436,-0.133 0.462,-0.161C0.487,-0.188 0.5,-0.224 0.5,-0.269C0.5,-0.314 0.487,-0.351 0.462,-0.378C0.436,-0.405 0.403,-0.418 0.363,-0.418C0.323,-0.418 0.29,-0.405 0.265,-0.378C0.239,-0.351 0.226,-0.314 0.226,-0.269C0.226,-0.224 0.239,-0.188 0.265,-0.161C0.29,-0.133 0.323,-0.12 0.363,-0.12Z" style="fill:white;fill-opacity:0.1;fill-rule:nonzero;"/>
                    </g>
                    <g transform="matrix(11.4791,0,0,11.4791,1443.41,6367.74)">
                        <path d="M0.253,0.008C0.208,0.008 0.165,0.003 0.122,-0.009C0.079,-0.02 0.045,-0.033 0.02,-0.05L0.072,-0.162C0.096,-0.147 0.125,-0.134 0.159,-0.125C0.193,-0.115 0.226,-0.11 0.259,-0.11C0.325,-0.11 0.358,-0.126 0.358,-0.159C0.358,-0.174 0.349,-0.185 0.331,-0.192C0.313,-0.199 0.285,-0.204 0.248,-0.209C0.204,-0.216 0.168,-0.223 0.139,-0.232C0.11,-0.241 0.086,-0.256 0.065,-0.278C0.044,-0.3 0.033,-0.331 0.033,-0.372C0.033,-0.406 0.043,-0.436 0.063,-0.463C0.082,-0.489 0.111,-0.509 0.149,-0.524C0.186,-0.539 0.231,-0.546 0.282,-0.546C0.32,-0.546 0.358,-0.542 0.396,-0.534C0.433,-0.525 0.464,-0.514 0.489,-0.499L0.437,-0.388C0.39,-0.415 0.338,-0.428 0.282,-0.428C0.249,-0.428 0.224,-0.423 0.207,-0.414C0.19,-0.405 0.182,-0.393 0.182,-0.378C0.182,-0.361 0.191,-0.35 0.209,-0.343C0.227,-0.336 0.256,-0.33 0.295,-0.324C0.339,-0.317 0.375,-0.309 0.403,-0.301C0.431,-0.292 0.455,-0.277 0.476,-0.255C0.497,-0.233 0.507,-0.202 0.507,-0.163C0.507,-0.13 0.497,-0.1 0.477,-0.074C0.457,-0.048 0.428,-0.028 0.39,-0.014C0.351,0.001 0.306,0.008 0.253,0.008Z" style="fill:white;fill-opacity:0.1;fill-rule:nonzero;"/>
                    </g>
                    <g transform="matrix(11.4791,0,0,11.4791,1449.5,6367.74)">
                        <path d="M0.072,-0.538L0.228,-0.538L0.228,-0L0.072,-0L0.072,-0.538ZM0.15,-0.613C0.121,-0.613 0.098,-0.621 0.08,-0.638C0.062,-0.655 0.053,-0.675 0.053,-0.7C0.053,-0.725 0.062,-0.745 0.08,-0.762C0.098,-0.779 0.121,-0.787 0.15,-0.787C0.179,-0.787 0.202,-0.779 0.22,-0.763C0.238,-0.747 0.247,-0.727 0.247,-0.703C0.247,-0.677 0.238,-0.656 0.22,-0.639C0.202,-0.622 0.179,-0.613 0.15,-0.613Z" style="fill:white;fill-opacity:0.1;fill-rule:nonzero;"/>
                    </g>
                    <g transform="matrix(11.4791,0,0,11.4791,1452.96,6367.74)">
                        <path d="M0.419,-0.026C0.404,-0.015 0.385,-0.006 0.363,-0.001C0.34,0.005 0.317,0.008 0.292,0.008C0.228,0.008 0.179,-0.008 0.144,-0.041C0.109,-0.074 0.091,-0.122 0.091,-0.185L0.091,-0.406L0.008,-0.406L0.008,-0.526L0.091,-0.526L0.091,-0.657L0.247,-0.657L0.247,-0.526L0.381,-0.526L0.381,-0.406L0.247,-0.406L0.247,-0.187C0.247,-0.164 0.253,-0.147 0.265,-0.135C0.276,-0.122 0.293,-0.116 0.314,-0.116C0.339,-0.116 0.36,-0.123 0.377,-0.136L0.419,-0.026Z" style="fill:white;fill-opacity:0.1;fill-rule:nonzero;"/>
                    </g>
                    <g transform="matrix(11.4791,0,0,11.4791,1457.75,6367.74)">
                        <path d="M0.599,-0.267C0.599,-0.265 0.598,-0.251 0.596,-0.225L0.189,-0.225C0.196,-0.192 0.214,-0.165 0.241,-0.146C0.268,-0.127 0.302,-0.117 0.343,-0.117C0.371,-0.117 0.396,-0.121 0.418,-0.13C0.439,-0.138 0.459,-0.151 0.478,-0.169L0.561,-0.079C0.51,-0.021 0.436,0.008 0.339,0.008C0.278,0.008 0.225,-0.004 0.178,-0.028C0.131,-0.051 0.095,-0.084 0.07,-0.126C0.045,-0.168 0.032,-0.216 0.032,-0.269C0.032,-0.322 0.045,-0.369 0.07,-0.412C0.094,-0.454 0.129,-0.487 0.173,-0.511C0.216,-0.534 0.265,-0.546 0.319,-0.546C0.372,-0.546 0.419,-0.535 0.462,-0.512C0.505,-0.489 0.538,-0.457 0.563,-0.415C0.587,-0.372 0.599,-0.323 0.599,-0.267ZM0.32,-0.428C0.285,-0.428 0.255,-0.418 0.231,-0.398C0.207,-0.378 0.192,-0.351 0.187,-0.316L0.452,-0.316C0.447,-0.35 0.432,-0.377 0.408,-0.398C0.384,-0.418 0.355,-0.428 0.32,-0.428Z" style="fill:white;fill-opacity:0.1;fill-rule:nonzero;"/>
                    </g>
                    <g transform="matrix(11.4791,0,0,11.4791,1468.25,6367.74)">
                        <path d="M0.39,-0.546C0.44,-0.546 0.486,-0.535 0.527,-0.512C0.568,-0.489 0.6,-0.456 0.623,-0.415C0.646,-0.373 0.658,-0.324 0.658,-0.269C0.658,-0.214 0.646,-0.165 0.623,-0.124C0.6,-0.082 0.568,-0.049 0.527,-0.027C0.486,-0.003 0.44,0.008 0.39,0.008C0.316,0.008 0.26,-0.015 0.221,-0.062L0.221,-0L0.072,-0L0.072,-0.742L0.228,-0.742L0.228,-0.481C0.267,-0.524 0.321,-0.546 0.39,-0.546ZM0.363,-0.12C0.403,-0.12 0.436,-0.133 0.462,-0.161C0.487,-0.188 0.5,-0.224 0.5,-0.269C0.5,-0.314 0.487,-0.351 0.462,-0.378C0.436,-0.405 0.403,-0.418 0.363,-0.418C0.323,-0.418 0.29,-0.405 0.265,-0.378C0.239,-0.351 0.226,-0.314 0.226,-0.269C0.226,-0.224 0.239,-0.188 0.265,-0.161C0.29,-0.133 0.323,-0.12 0.363,-0.12Z" style="fill:white;fill-opacity:0.1;fill-rule:nonzero;"/>
                    </g>
                    <g transform="matrix(11.4791,0,0,11.4791,1475.99,6367.74)">
                        <path d="M0.606,-0.538L0.363,0.033C0.338,0.095 0.308,0.139 0.272,0.164C0.235,0.189 0.191,0.202 0.14,0.202C0.112,0.202 0.084,0.198 0.057,0.189C0.03,0.18 0.007,0.168 -0.01,0.153L0.047,0.042C0.059,0.053 0.073,0.061 0.089,0.067C0.104,0.073 0.12,0.076 0.135,0.076C0.156,0.076 0.174,0.071 0.187,0.061C0.2,0.05 0.212,0.033 0.223,0.009L0.225,0.004L-0.008,-0.538L0.153,-0.538L0.304,-0.173L0.456,-0.538L0.606,-0.538Z" style="fill:white;fill-opacity:0.1;fill-rule:nonzero;"/>
                    </g>
                </g>
            </g>
        </g>
    </g>
</svg>
